<svg height="512" viewBox="0 0 64 64" width="512" xmlns="http://www.w3.org/2000/svg"><g id="Filled_outline" data-name="Filled outline"><path d="m11 25a22 22 0 0 1 44 0 28.571 28.571 0 0 1 -5 15c-5 7 0 16 0 21h-28v-6s-9 2-9-3a27.673 27.673 0 0 0 -1-8s-5.767 1.068-5-2c1-4 5-8 5-10s-1-4-1-7z" fill="#f9bb4b"/><path d="m21 26a12 12 0 0 1 24 0 11.375 11.375 0 0 1 -6 10v2h-12v-2a11.375 11.375 0 0 1 -6-10z" fill="#fcf05a"/><path d="m27 38h12v4h-12z" fill="#50b4f8" transform="matrix(-1 0 0 -1 66 80)"/><path d="m29 46h8l2-4h-12z" fill="#2d75bb"/><path d="m33 13a13.015 13.015 0 0 0 -13 13 12.33 12.33 0 0 0 6 10.563v5.437a1.842 1.842 0 0 0 .105.447l2 4a1 1 0 0 0 .895.553h8a1 1 0 0 0 .9-.553l2-4a1.842 1.842 0 0 0 .1-.447v-5.437a12.33 12.33 0 0 0 6-10.563 13.015 13.015 0 0 0 -13-13zm3.382 32h-6.764l-1-2h8.764zm1.618-4h-10v-2h10zm-6-4v-6h2v6zm6.5-1.865a1 1 0 0 0 -.5.865v1h-2v-6h2v-2h-10v2h2v6h-2v-1a1 1 0 0 0 -.5-.865 10.318 10.318 0 0 1 -5.5-9.135 11 11 0 0 1 22 0 10.318 10.318 0 0 1 -5.5 9.135z"/><path d="m33 17v2c.286 0 7 .117 7 7h2c0-7.119-5.887-9-9-9z"/><path d="m40 28h2v2h-2z"/><path d="m6.03 41.758a2.415 2.415 0 0 0 .519 2.371c1.1 1.169 3.384 1.128 4.717.985a30.2 30.2 0 0 1 .734 6.886 3.84 3.84 0 0 0 1.428 3.111c2.02 1.621 5.65 1.368 7.572 1.083v4.806a1 1 0 0 0 1 1h28a1 1 0 0 0 1-1 26.2 26.2 0 0 0 -.962-5.607c-1.158-4.813-2.47-10.268.775-14.812a29.334 29.334 0 0 0 5.187-15.581 23 23 0 0 0 -46 0 19.1 19.1 0 0 0 .6 4.432 12.117 12.117 0 0 1 .4 2.568c0 .655-.955 2.138-1.8 3.446a22.308 22.308 0 0 0 -3.17 6.312zm6.97-9.758a13.677 13.677 0 0 0 -.449-3.007 17.242 17.242 0 0 1 -.551-3.993 21 21 0 0 1 42 0 27.687 27.687 0 0 1 -4.813 14.419c-3.777 5.286-2.287 11.472-1.093 16.441a37.213 37.213 0 0 1 .843 4.14h-25.937v-5a1 1 0 0 0 -1.216-.977c-1.423.315-5.471.841-7.1-.472a1.836 1.836 0 0 1 -.684-1.551 28.456 28.456 0 0 0 -1.052-8.316 1 1 0 0 0 -1.129-.667c-1.472.27-3.355.23-3.813-.257-.035-.038-.13-.14-.036-.518a20.871 20.871 0 0 1 2.915-5.713c1.181-1.836 2.115-3.285 2.115-4.529z"/><path d="m32 6h2v5h-2z"/><path d="m48 24h4v2h-4z"/><path d="m14 24h4v2h-4z"/><path d="m22 9.172h2v5.657h-2z" transform="matrix(.707 -.707 .707 .707 -1.749 19.778)"/><path d="m40.172 11h5.657v2h-5.657z" transform="matrix(.707 -.707 .707 .707 4.109 33.92)"/><path d="m45.764 17h4.472v2h-4.472z" transform="matrix(.894 -.447 .447 .894 -2.982 23.367)"/><path d="m17 15.764h2v4.472h-2z" transform="matrix(.447 -.894 .894 .447 -6.15 26.05)"/><path d="m48 28.764h2v4.472h-2z" transform="matrix(.447 -.894 .894 .447 -.641 60.963)"/><path d="m14.764 30h4.472v2h-4.472z" transform="matrix(.894 -.447 .447 .894 -12.069 10.875)"/><path d="m44 56h2v2h-2z"/><path d="m40 56h2v2h-2z"/></g></svg>