<?xml version="1.0" encoding="iso-8859-1"?>
<!-- Generator: Adobe Illustrator 19.0.0, SVG Export Plug-In . SVG Version: 6.00 Build 0)  -->
<svg version="1.1" id="Capa_1" xmlns="http://www.w3.org/2000/svg" xmlns:xlink="http://www.w3.org/1999/xlink" x="0px" y="0px"
	 viewBox="0 0 512.001 512.001" style="enable-background:new 0 0 512.001 512.001;" xml:space="preserve">
<path style="fill:#414B82;" d="M12.296,409.366c-6.63-12.1-2.195-27.283,9.905-33.912l78.976-43.27l-42.683-39.809
	c-10.09-9.41-10.64-25.218-1.23-35.307c9.41-10.09,25.219-10.64,35.307-1.23l67.956,63.38c12.431,11.594,9.889,32-5.035,40.177
	L46.209,419.27C34.066,425.922,18.903,421.426,12.296,409.366z"/>
<path style="fill:#53618C;" d="M108.749,128.791c0.073-13.849-11.095-25.136-24.944-25.21l-56.961-0.302
	c-13.849-0.073-25.577,11.095-25.65,24.944v166.204l54.803,75.545V487.02c0,13.796,11.184,24.981,24.981,24.981
	s24.981-11.185,24.981-24.981V361.721c0-5.358-1.723-10.574-4.914-14.878l-38.618-52.089l45.44,0.241L108.749,128.791z"/>
<path style="fill:#FFB69E;" d="M34.456,153.321l76.443,59.27c8.474,6.571,20.51,5.896,28.173-1.604
	c19.969-19.544,40.99-40.825,55.163-55.597c5.951-6.203,9.789-14.488,6.847-23.08c-3.714-10.848-15.518-16.63-26.366-12.917
	l-48.527,47.317l-66.456-46.333c-9.097-6.98-22.136-5.267-29.109,3.835C23.642,133.309,25.359,146.341,34.456,153.321z"/>
<path style="fill:#6C9BAA;" d="M1.195,294.427l106.674,0.568l0.88-166.204c0.073-13.849-11.095-25.136-24.944-25.21l-56.961-0.302
	c-13.849-0.073-25.577,11.095-25.65,24.944C1.195,128.224,1.195,294.427,1.195,294.427z"/>
<g>
	<circle style="fill:#FFB69E;" cx="71.185" cy="41.912" r="41.912"/>
	<path style="fill:#FFB69E;" d="M104.995,293.838l-69.17-45.777c-5.798-3.838-9.289-10.32-9.303-17.274l-0.191-93.902
		c-0.022-11.467,9.256-20.779,20.723-20.8c11.467-0.029,20.779,9.256,20.8,20.723l0.17,82.771l59.887,39.634
		c9.562,6.328,12.183,19.209,5.855,28.771C127.446,297.532,114.565,300.172,104.995,293.838z"/>
</g>
<path style="fill:#87AFB9;" d="M67.97,193.019l-0.116-56.212c-0.022-11.467-9.334-20.751-20.8-20.723
	c-11.467,0.022-20.744,9.334-20.723,20.8l0.114,56.134H67.97V193.019z"/>
<path style="fill:#838387;" d="M154.314,126.027c-0.511-4.298,2.559-8.197,6.858-8.707l57.448-6.828
	c4.292-0.513,8.196,2.559,8.707,6.858c0.511,4.298-2.559,8.197-6.858,8.707l-57.448,6.828
	C158.707,133.398,154.824,130.309,154.314,126.027z"/>
<path style="fill:#C8E6EB;" d="M232.919,99.531c-4.331-14.88,6.6-37.659,37.563-45.28c7.672-2.588,32.061-5.605,39.926-28.076
	c1.879-5.228,2.582-10.64,3.119-16.113c8.828,15.804,5.14,37.146-14.065,49.612c-12.804,8.464-25.196,9.151-33.146,11.367
	C250.441,75.254,238.22,84.049,232.919,99.531z"/>
<path style="fill:#BA6746;" d="M509.299,198.94l-31.905,80.947c-4.377,11.106-16.929,16.561-28.035,12.183
	c-11.105-4.375-16.562-16.93-12.183-28.034l25.976-65.908l-69.74-42.992c-9.417-7.337-11.1-20.921-3.764-30.337
	c7.337-9.416,20.92-11.101,30.336-3.764l82.491,52.929C509.994,179.823,512.832,189.976,509.299,198.94z"/>
<path style="fill:#53618C;" d="M433.912,512c-13.158,0-23.823-10.666-23.823-23.823V297.756c0-13.158,10.666-23.823,23.823-23.823
	c13.158,0,23.823,10.666,23.823,23.823v190.421C457.735,501.335,447.069,512,433.912,512z"/>
<path style="fill:#5F6E9B;" d="M376.402,512c-13.158,0-23.823-10.666-23.823-23.823V297.756c0-13.158,10.666-23.823,23.823-23.823
	c13.158,0,23.823,10.666,23.823,23.823v190.421C400.226,501.335,389.56,512,376.402,512z"/>
<path style="fill:#FF3C3C;" d="M352.579,297.756h105.156V137.976c0-17.055-13.826-30.881-30.881-30.881H383.46
	c-17.055,0-30.881,13.826-30.881,30.881v159.781H352.579z"/>
<g>
	<circle style="fill:#BA6746;" cx="406" cy="50.318" r="42.103"/>
	<path style="fill:#BA6746;" d="M365.16,234.497l-85.621-15.465c-11.747-2.122-19.551-13.365-17.429-25.113
		c2.121-11.746,13.365-19.552,25.112-17.429l69.714,12.591L387.4,128.39c5.356-10.67,18.347-14.975,29.015-9.621
		c10.668,5.356,14.976,18.345,9.621,29.014l-37.717,75.138C384.044,231.442,374.641,236.21,365.16,234.497z"/>
</g>
<path style="fill:#FF6248;" d="M416.416,118.771c-10.668-5.355-23.66-1.049-29.015,9.621l-20.697,41.233l38.268,20.125
	l21.065-41.965C431.392,137.115,427.084,124.125,416.416,118.771z"/>
<g>
</g>
<g>
</g>
<g>
</g>
<g>
</g>
<g>
</g>
<g>
</g>
<g>
</g>
<g>
</g>
<g>
</g>
<g>
</g>
<g>
</g>
<g>
</g>
<g>
</g>
<g>
</g>
<g>
</g>
</svg>
