<svg height="512" viewBox="0 0 60 60" width="512" xmlns="http://www.w3.org/2000/svg"><g id="031---Smoking-Causes-Death" fill="none"><g id="Layer_3" transform="translate(0 1)"><path id="Shape" d="m46.16 22.29c2.0201277-6.1938205.322811-12.99737109-4.3699306-17.51649768-4.6927416-4.51912659-11.5554161-5.95887753-17.6687188-3.70679894-6.1133028 2.25207859-10.4018534 7.79982747-11.0413506 14.28329662-.2241579 2.3409663.0345119 4.7030295.76 6.94.179609.5000892.1507839 1.0513692-.08 1.53-1.1226855 2.1994532-1.0034286 4.8277218.3138326 6.9164631s3.637616 3.3288913 6.1061674 3.2635369h.03c.4717174-.0072257.9266516.1749111 1.2630524.5056739.3364009.3307629.5262001.7825539.5269476 1.2543261v2.24c.0032948 1.1032019.8967981 1.9967052 2 2h12c1.1032019-.0032948 1.9967052-.8967981 2-2v-2.24c.0007475-.4717722.1905467-.9235632.5269476-1.2543261.3364008-.3307628.791335-.5128996 1.2630524-.5056739h.03c2.4685514.0653544 4.7889062-1.1747956 6.1061674-3.2635369s1.4365181-4.7170099.3138326-6.9164631c-.2307839-.4786308-.259609-1.0299108-.08-1.53zm-21.4 3.25-3.63.44c-1.67.21-3.13-1.41-3.13-3.48 0-1.95 1.29-3.5 2.84-3.5.09 0 .19.01.29.02l3.63.44c1.3959879.3195257 2.3483489 1.6120156 2.24 3.04.0071691.7335766-.2167445 1.4507999-.64 2.05-.3744676.5360184-.9532025.8941107-1.6.99zm6.24 7.46c-.2060372.0007808-.4101122-.0400342-.6-.12-.2572153-.1004066-.5427847-.1004066-.8 0-.1898878.0799658-.3939628.1207808-.6.12-1.2324358-.1564335-2.1179166-1.2632846-2-2.5-.1179166-1.2367154.7675642-2.3435665 2-2.5.2060372-.0007808.4101122.0400342.6.12.2572153.1004066.5427847.1004066.8 0 .1898878-.0799658.3939628-.1207808.6-.12 1.2324358.1564335 2.1179166 1.2632846 2 2.5.1179166 1.2367154-.7675642 2.3435665-2 2.5zm7.87-7.02-3.63-.44c-.6467975-.0958893-1.2255324-.4539816-1.6-.99-.4232555-.5992001-.6471691-1.3164234-.64-2.05-.1083489-1.4279844.8440121-2.7204743 2.24-3.04l3.63-.44c.1-.01.2-.02.29-.02 1.55 0 2.84 1.55 2.84 3.5 0 2.07-1.46 3.69-3.13 3.48z" fill="#f5f5f5"/><path id="Shape" d="m46.16 22.29c1.7419382-5.3341982.7403759-11.1843335-2.6768097-15.63527277-3.4171857-4.45093931-8.8100633-6.9296649-14.4131903-6.62472723-.2.01-.389.041-.585.058 5.1641366.4500264 9.8403056 3.2329756 12.6986516 7.55740481 2.8583461 4.32442919 3.5861193 9.71717519 1.9763484 14.64459519-.179609.5000892-.1507839 1.0513692.08 1.53 1.1226855 2.1994532 1.0034286 4.8277218-.3138326 6.9164631s-3.637616 3.3288913-6.1061674 3.2635369h-.03c-.4717174-.0072257-.9266516.1749111-1.2630524.5056739-.3364009.3307629-.5262001.7825539-.5269476 1.2543261v2.24c-.0032948 1.1032019-.8967981 1.9967052-2 2h3c1.1032019-.0032948 1.9967052-.8967981 2-2v-2.24c.0007475-.4717722.1905467-.9235632.5269476-1.2543261.3364008-.3307628.791335-.5128996 1.2630524-.5056739h.03c2.4685514.0653544 4.7889062-1.1747956 6.1061674-3.2635369s1.4365181-4.7170099.3138326-6.9164631c-.2307839-.4786308-.259609-1.0299108-.08-1.53z" fill="#cfd8dc"/><g fill="#607d8b"><path id="Shape" d="m33 30.5c.1179166 1.2367154-.7675642 2.3435665-2 2.5-.2060372.0007808-.4101122-.0400342-.6-.12-.2572153-.1004066-.5427847-.1004066-.8 0-.1898878.0799658-.3939628.1207808-.6.12-1.2324358-.1564335-2.1179166-1.2632846-2-2.5-.1179166-1.2367154.7675642-2.3435665 2-2.5.2060372-.0007808.4101122.0400342.6.12.2572153.1004066.5427847.1004066.8 0 .1898878-.0799658.3939628-.1207808.6-.12 1.2324358.1564335 2.1179166 1.2632846 2 2.5z"/><path id="Shape" d="m27 22.5c.0071691.7335766-.2167445 1.4507999-.64 2.05-.3744676.5360184-.9532025.8941107-1.6.99l-3.63.44c-1.67.21-3.13-1.41-3.13-3.48 0-1.95 1.29-3.5 2.84-3.5.09 0 .19.01.29.02l3.63.44c1.3959879.3195257 2.3483489 1.6120156 2.24 3.04z"/><path id="Shape" d="m42 22.5c0 2.07-1.46 3.69-3.13 3.48l-3.63-.44c-.6467975-.0958893-1.2255324-.4539816-1.6-.99-.4232555-.5992001-.6471691-1.3164234-.64-2.05-.1083489-1.4279844.8440121-2.7204743 2.24-3.04l3.63-.44c.1-.01.2-.02.29-.02 1.55 0 2.84 1.55 2.84 3.5z"/></g><path id="Shape" d="m16.93 55.92-12.25 2.04c-1.62.28-3.24-1.27-3.6-3.44s.66-4.17 2.29-4.44l.77-.13 11.46-1.91c-.9261795 1.2014281-1.3091713 2.7347652-1.0567031 4.230592s1.1175056 2.8185194 2.3867031 3.649408z" fill="#ff9801"/><path id="Shape" d="m56.63 49.29c-1.64.27-3.26-1.27-3.62-3.45s.67-4.17 2.3-4.44 3.25 1.27 3.62 3.45-.67 4.17-2.3 4.44z" fill="#ff9801"/><path id="Shape" d="m58.93 44.85c-.37-2.18-1.99-3.73-3.62-3.45-.4038703.0682982-.782984.2406226-1.1.5.9346637.7226656 1.5515046 1.7806193 1.72 2.95.3152353 1.4324612-.1396453 2.9256066-1.2 3.939.5411791.4136488 1.2253123.5936839 1.9.5 1.63-.269 2.66-2.259 2.3-4.439z" fill="#f57c00"/><path id="Shape" d="m45.53 51.14c.0159596.3714341-.0075048.7435135-.07 1.11-.19444 1.5268057-1.0792125 2.8797703-2.4 3.67l-13.06-2.18z" fill="#f5f5f5"/><path id="Shape" d="m58.92 54.52c-.36 2.18-1.98 3.73-3.6 3.45l-12.26-2.05c1.3207875-.7902297 2.20556-2.1431943 2.4-3.67.0624952-.3664865.0859596-.7385659.07-1.11l8.74-1.46h.02l2.34.4c1.63.27 2.66 2.26 2.29 4.44z" fill="#ff9801"/><path id="Shape" d="m56.63 50.08-2.34-.4h-.02l-1.507.252.867.148c1.63.27 2.66 2.26 2.29 4.44-.1656062 1.3409729-.9518793 2.5261231-2.123 3.2l1.523.255c1.62.28 3.24-1.27 3.6-3.45s-.66-4.175-2.29-4.445z" fill="#f57c00"/><path id="Shape" d="m56.63 49.29-2.34.39h-.02l-8.74 1.46-15.53 2.6-13.06 2.18h-.01c-1.2691975-.8308886-2.1342349-2.1535812-2.3867031-3.649408s.1305236-3.0291639 1.0567031-4.230592l14.4-2.41 25.31-4.23c-1.63.27-2.66 2.26-2.3 4.44s1.98 3.72 3.62 3.45z" fill="#f5f5f5"/><path id="Shape" d="m30 45.63-14.4 2.41-11.46 1.91-.1-.65c1.62127857-.4050837 2.80637795-1.7950647 2.95-3.46.36-2.18-.67-4.17-2.3-4.44z" fill="#f5f5f5"/><path id="Shape" d="m6.99 45.84c-.14362205 1.6649353-1.32872143 3.0549163-2.95 3.46h-.01c-.21913864.0316818-.44192179.0283063-.66-.01-1.63-.27-2.66-2.26-2.3-4.44s1.99-3.73 3.62-3.45 2.66 2.26 2.3 4.44z" fill="#ff9801"/></g><g id="Layer_2" fill="#000" transform="translate(-1)"><path id="Shape" d="m13.868 24.365c-1.2674247 2.4993613-1.1368749 5.4792829.3442675 7.85823 1.4811425 2.3789471 4.097592 3.8111371 6.8997325 3.77677.2420398-.0311712.4850708.0498392.66.22.3.3.228.389.228 2.782 0 1.6568542 1.3431458 3 3 3h12c1.6568542 0 3-1.3431458 3-3v-2.239c.0006115-.2086651.0863234-.4080497.237323-.5520656.1509997-.144016.3542167-.2201972.562677-.2109344 2.8173036.0651905 5.4616073-1.3548802 6.9632907-3.7394969 1.5016834-2.3846166 1.6398017-5.3829272.3637093-7.8955031-.1062341-.2409901-.1148376-.5137947-.024-.761 2.4278785-7.4200945-.2043489-15.55934913-6.5173489-20.15265157-6.3129999-4.59330244-14.8673023-4.59330244-21.1803022 0-6.313 4.59330244-8.9452274 12.73255707-6.5173489 20.15265157.0914786.2467942.0843155.5193515-.02.761zm1.206-7.922c1.241-13.043 17.193-19.289 26.932-10.057 4.498039 4.2492679 6.1347564 10.7154708 4.2 16.593-.2629469.754878-.2110483 1.5838139.144 2.3.9645025 1.8924755.8565382 4.1538609-.2838698 5.9458426-1.1404081 1.7919816-3.143278 2.8474587-5.2661302 2.7751574-.7391026-.0096274-1.4512677.2771858-1.9774011.7963667-.5261335.519181-.8223942 1.2274681-.8225989 1.9666333v2.237c0 .5522847-.4477153 1-1 1h-1v-2c0-.5522847-.4477153-1-1-1s-1 .4477153-1 1v2h-2v-2c0-.5522847-.4477153-1-1-1s-1 .4477153-1 1v2h-2v-2c0-.5522847-.4477153-1-1-1s-1 .4477153-1 1v2h-1c-.5522847 0-1-.4477153-1-1v-2.237c-.0000506-.7446425-.3005545-1.4577644-.8334575-1.9778672-.5329029-.5201027-1.2531188-.8031831-1.9975425-.7851328-2.1164719.0572865-4.1068547-1.0036679-5.23917-2.7926891-1.1323153-1.7890213-1.2393837-4.0419714-.28183-5.9303109 1.087-2.127-1.106-3.242-.574-8.834z"/><path id="Shape" d="m27 31.5c0 2.153 1.719 4.092 4.027 3.313 1.954.773 3.973-.922 3.973-3.313 0-2.153-1.719-4.092-4.027-3.313-1.954-.773-3.973.922-3.973 3.313zm3.235-1.455c.4911674.1960063 1.0388326.1960063 1.53 0 .535-.21 1.235.423 1.235 1.455s-.7 1.665-1.235 1.455c-.4912458-.1955982-1.0387542-.1955982-1.53 0-.528.213-1.235-.422-1.235-1.455s.707-1.665 1.235-1.455z"/><path id="Shape" d="m21.846 28c.323 0 .3-.012 4.039-.471 1.9006993-.3735599 3.231989-2.0954752 3.115-4.029.1168452-1.9330623-1.2146052-3.6543307-3.115-4.027l-3.629-.446c-3.847-.461-5.843 5.314-2.733 8.065.635955.5786342 1.4632209.9019908 2.323.908zm-1-6.592c.3101488-.2975977.7354104-.4438614 1.163-.4l3.63.446c.8868272.2657373 1.458662 1.1253801 1.361 2.046.0967838.9185456-.4734865 1.7760507-1.358 2.042l-3.63.446c-1.837.243-2.818-3.116-1.163-4.58z"/><path id="Shape" d="m36.115 27.529c3.947.485 3.75.471 4.039.471 2.198 0 3.846-2.089 3.846-4.5 0-2.557-1.87-4.762-4.256-4.475l-3.629.446c-1.9009452.3731617-3.2324363 2.0953374-3.115 4.029-.117884 1.9338005 1.2138086 3.6562369 3.115 4.029zm.244-6.073c3.755-.456 3.665-.456 3.795-.456 1.09 0 1.846 1.266 1.846 2.5 0 1.282-.845 2.641-2.012 2.49l-3.629-.446c-.8854705-.2660376-1.4562783-1.1245594-1.359-2.044-.0981026-.9196427.4730242-1.7786443 1.359-2.044z"/><path id="Shape" d="m6.835 54.012c-.39898656.0666488-.71852224.3671073-.80957528.7612414s.0643128.8043046.39363473 1.0392075c.32932193.234903.76772792.2482657 1.11074497.0338557s.52307537-.6143567.45619558-1.0133046c-.09127368-.5444611-.60648616-.9119584-1.151-.821z"/><path id="Shape" d="m10.835 53.012c-.3989866.0666488-.7185222.3671073-.8095753.7612414-.09105302.3941341.0643128.8043046.3936347 1.0392075.329322.234903.767728.2482657 1.110745.0338557.3430171-.21441.5230754-.6143567.4561956-1.0133046-.0912737-.5444611-.6064862-.9119584-1.151-.821z"/><path id="Shape" d="m59.175 50.68c2.615-1.885 2.349-6.676-.4-8.619-.7563616-.5588845-1.7044689-.7928518-2.634-.65l-25.152 4.2c-14.867-2.484-25.26-4.241-25.131-4.2-1.953-.338-4.258 1.247-4.773 4.273-.39563563 1.8601917.27386704 3.7862638 1.738 5-2.657 1.884-2.308 6.7.386 8.617.75683264.5629433 1.70779923.7988839 2.64.655l25.143-4.2 25.157 4.2c.9300682.1445477 1.8792542-.0899571 2.635-.651 2.681-1.905 3.06-6.726.391-8.625zm-41.034 5.19c-1.7757167-1.4426896-2.1919829-3.985393-.969-5.919l36.167-6.043c-.7762408 2.0041029-.3982611 4.2719807.986 5.916zm40.8-9.86c.266 1.606-.41 3.112-1.475 3.289s-2.206-1.025-2.466-2.626c-.244-1.473.357-3.308 1.7-3.308 1.14 0 2.03 1.398 2.241 2.645zm-50.961 3.45c1.13356072-1.6220389 1.38938746-3.7004906.683-5.549l16.262 2.717zm-4.922-3.446c.192-1.132 1.157-2.891 2.488-2.624 1.054.191 1.722 1.686 1.454 3.283s-1.39 2.809-2.466 2.627-1.741-1.684-1.476-3.286zm2.457 11.965c-1.21.2-2.229-1.271-2.454-2.631s.266-3.087 1.479-3.286l10.208-1.7c-.6008014 2.0184511-.2354015 4.2012541.99 5.914zm39.9-4.639c-.1860722 1.009-.7424581 1.9120572-1.56 2.532l-6.8-1.136zm13.516 2.015c-.222 1.35-1.25 2.839-2.448 2.626l-10.223-1.708c.6950476-.9644909 1.1209503-2.0965501 1.234-3.28l7.789-1.3 2.183.373c1.204.198 1.699 1.922 1.467 3.289z"/><path id="Shape" d="m55.165 54.012c-.3990402-.0669627-.7991088.1131407-1.013532.456273-.2144231.3431323-.2009393.7816643.0341598 1.1109749s.645477.4844947 1.0396494.3931427.6944504-.4112352.7607228-.8103906c.0903478-.5441602-.2769969-1.0587112-.821-1.15z"/></g></g></svg>