<svg id="_x33_0" enable-background="new 0 0 64 64" height="512" viewBox="0 0 64 64" width="512" xmlns="http://www.w3.org/2000/svg"><g><g><g><path d="m52 34.83 1.24 1.23c-.39.27-.81.52-1.24.74z" fill="#ffeaa7"/></g><g><path d="m42 19.17v.01l-1.24-1.24c.39-.27.81-.52 1.24-.74z" fill="#ffeaa7"/></g><g><path d="m37.94 20.76 4.06 4.07v11.97c-3.56-1.82-6-5.53-6-9.8 0-2.32.72-4.47 1.94-6.24z" fill="#ffeaa7"/></g><g><path d="m52 17.2c3.56 1.82 6 5.53 6 9.8 0 2.32-.72 4.47-1.94 6.24l-4.06-4.06v-.01z" fill="#ffeaa7"/></g><g><path d="m52 12.85v3.15 1.2c3.56 1.82 6 5.53 6 9.8 0 2.32-.72 4.47-1.94 6.24l-4.06-4.06-10-10-1.24-1.24c.39-.27.81-.52 1.24-.74v-1.2-3.15c-5.83 2.06-10 7.62-10 14.15s4.17 12.09 10 14.15v-4.35c-3.56-1.82-6-5.53-6-9.8 0-2.32.72-4.47 1.94-6.24l4.06 4.07 10 10 1.24 1.23c-.39.27-.81.52-1.24.74v4.35c5.83-2.06 10-7.62 10-14.15s-4.17-12.09-10-14.15z" fill="#ff826e"/></g><g><path d="m52 12.85v3.15h-10v-3.15-8.85c0-1.1.9-2 2-2h6c1.1 0 2 .9 2 2z" fill="#dfb28b"/></g><g><path d="m52 16v1.2 11.97.01l-10-10v-.01-1.97-1.2z" fill="#e6e9ed"/></g><g><path d="m42 24.83 10 10v1.97 4.35 3.85l-1.11-.55c-.58-.3-1.23-.45-1.89-.45s-1.31.15-1.89.45l-.22.1c-.58.3-1.23.45-1.89.45s-1.31-.15-1.89-.45l-1.11-.55v-2.85-4.35z" fill="#e6e9ed"/></g><g><path d="m50.89 44.45 1.11.55c0 1.22-.73 2.26-1.78 2.73-.22.1-.39.27-.49.49-.47 1.05-1.51 1.78-2.73 1.78s-2.26-.73-2.73-1.78c-.1-.22-.27-.39-.49-.49-1.05-.47-1.78-1.51-1.78-2.73v-1l1.11.55c.58.3 1.23.45 1.89.45s1.31-.15 1.89-.45l.22-.1c.58-.3 1.23-.45 1.89-.45s1.31.15 1.89.45z" fill="#ff826e"/></g><g><path d="m14 52h20v10h-22v-10l.1-.48c.56.3 1.21.48 1.9.48z" fill="#b4dd7f"/></g><g><path d="m18 38h-8v-4.1c0-1.86.74-3.64 2.05-4.95l1.95-1.95.98.66c1.32.87 2.86 1.34 4.44 1.34h1.42c.3.31.68.57 1.11.73l1.51.57c2.73 1.02 4.54 3.63 4.54 6.55v2.15l.66.44c2.36 1.57 4.05 3.91 4.84 6.56h-1.26c-.79 0-1.56.32-2.12.88l-1.12 1.12-10.47-1.9c-.17-.04-.35-.06-.53-.08v-.02z" fill="#b4dd7f"/></g><g><path d="m22 12c-1.42 0-2.66-.74-3.37-1.85l-.86.34c-2.28.91-3.77 3.12-3.77 5.57v10.94l-1.95 1.95c-1.31 1.31-2.05 3.09-2.05 4.95v4.1 2h-1.64c-3.51 0-6.36-2.85-6.36-6.36 0-1.69.67-3.31 1.86-4.5l.97-.97c.75-.75 1.17-1.77 1.17-2.83v-11.34c0-6.63 5.37-12 12-12h5c2.76 0 5 2.24 5 5 0 1.38-.56 2.63-1.46 3.54-.11.11-.23.21-.35.31-.87.72-1.98 1.15-3.19 1.15z" fill="#b27946"/></g><g><path d="m20 25.6v1.32c0 .79.31 1.53.84 2.08h-1.42c-1.58 0-3.12-.47-4.44-1.34l-.98-.66v-10.94c0-2.45 1.49-4.66 3.77-5.57l.86-.34c.71 1.11 1.95 1.85 3.37 1.85h1c1.21 0 2.32-.43 3.19-1.15l1.81 8.15-2 1v2.36c0 2.01-1.63 3.64-3.64 3.64-.24 0-.48-.02-.71-.07z" fill="#f0d0b4"/></g><g><path d="m18 46v.02c.18.02.36.04.53.08l10.47 1.9 1.12-1.12c.56-.56 1.33-.88 2.12-.88h1.26.5c1.1 0 2 .9 2 2v2c0 1.1-.9 2-2 2h-20c-.69 0-1.34-.18-1.9-.48-1.25-.68-2.1-2-2.1-3.52v-8-2h8z" fill="#f0d0b4"/></g></g><g><path d="m34.221 45.022c-.94-2.609-2.692-4.872-5.01-6.417l-.211-.14v-1.614c0-3.316-2.086-6.326-5.191-7.49l-1.511-.566c-.777-.292-1.298-1.045-1.298-1.874v-.101l.451.09c.299.06.605.09.909.09 2.559 0 4.64-2.081 4.64-4.64v-1.742l2.146-1.073-1.856-8.357c1.056-1.083 1.71-2.559 1.71-4.188 0-3.309-2.691-6-6-6h-5c-7.168 0-13 5.832-13 13v11.343c0 .802-.313 1.556-.879 2.122l-.964.964c-1.391 1.39-2.157 3.24-2.157 5.207 0 4.06 3.304 7.364 7.364 7.364h.636v7c0 1.641.806 3.088 2.031 4h-.031v11h24v-10.184c1.161-.414 2-1.514 2-2.816v-2c0-1.579-1.23-2.863-2.779-2.978zm-12.625-14.355 1.512.566c2.328.873 3.892 3.13 3.892 5.618v2.685l1.102.734c1.756 1.17 3.126 2.829 3.967 4.748-.991.044-1.952.451-2.655 1.154l-.751.751-9.663-1.758v-7.954c0-2.345-1.165-4.522-3.117-5.824l-.328-.219-1.109 1.664.328.219c1.335.89 2.146 2.356 2.214 3.949h-5.988v-3.101c0-1.603.624-3.109 1.757-4.242l1.37-1.37.302.202c1.485.989 3.211 1.511 4.993 1.511h1.038c.335.278.715.509 1.136.667zm3.404-11.285v2.979c0 1.455-1.185 2.64-2.64 2.64-.174 0-.349-.018-.518-.051l-4.646-.93-.393 1.961 2.197.439v.501c0 .364.058.718.153 1.059-1.289-.049-2.535-.437-3.614-1.156l-.539-.359v-10.402c0-2.057 1.233-3.879 3.143-4.643l.173-.069c.914 1.006 2.22 1.649 3.684 1.649h1c.9 0 1.751-.205 2.518-.561l1.337 6.016zm-16.636 19.618c-2.958 0-5.364-2.406-5.364-5.364 0-1.412.572-2.794 1.571-3.793l.964-.964c.944-.944 1.465-2.2 1.465-3.536v-11.343c0-6.065 4.935-11 11-11h5c2.206 0 4 1.794 4 4s-1.794 4-4 4h-1c-1.654 0-3-1.346-3-3 0-.552.448-1 1-1s1 .448 1 1v1h2v-1c0-1.654-1.346-3-3-3s-3 1.346-3 3c0 .569.116 1.106.291 1.616-2.608 1.095-4.291 3.609-4.291 6.447v10.523l-1.657 1.657c-1.511 1.511-2.343 3.52-2.343 5.656v5.101zm4.636 22v-8.101c.323.066.658.101 1 .101h19v8zm22-11c0 .552-.448 1-1 1h-20c-1.654 0-3-1.346-3-3v-9h6v6.018c-1.662.113-3.251.82-4.449 2.017l-.258.258 1.414 1.414.258-.258c1.144-1.144 2.785-1.658 4.384-1.37l10.988 1.998 1.491-1.491c.372-.372.888-.586 1.414-.586h1.758c.552 0 1 .448 1 1z"/><path d="m53 12.177v-8.177c0-1.654-1.346-3-3-3h-6c-1.654 0-3 1.346-3 3v8.177c-6.007 2.432-10 8.294-10 14.823s3.993 12.391 10 14.823v3.177c0 1.569.932 2.998 2.36 3.626.642 1.442 2.071 2.374 3.64 2.374s2.998-.932 3.626-2.36c1.442-.642 2.374-2.071 2.374-3.64v-3.177c6.007-2.432 10-8.294 10-14.823s-3.993-12.391-10-14.823zm-14.854 10.211 2.854 2.854v9.74c-2.494-1.87-4-4.791-4-7.982 0-1.647.418-3.213 1.146-4.612zm4.854 4.854 8 8v8.165c-1.381-.565-3.005-.522-4.342.145l-.211.105c-.895.447-2 .447-2.895 0l-.552-.275zm10.314 7.486-14.061-14.061c.421-.514.911-.97 1.432-1.396l14.061 14.061c-.42.514-.91.971-1.432 1.396zm-10.314-15.97v-1.758h8v9.758zm12.854 12.854-2.854-2.854v-9.74c2.494 1.87 4 4.791 4 7.982 0 1.647-.418 3.213-1.146 4.612zm-11.854-28.612h6c.552 0 1 .448 1 1v11h-8v-11c0-.552.448-1 1-1zm-11 24c0-5.437 3.165-10.346 8-12.644v2.255c-3.715 2.145-6 6.067-6 10.389s2.285 8.244 6 10.389v2.255c-4.835-2.298-8-7.207-8-12.644zm16.812 19.813c-.445.199-.8.554-1 1.001-.321.72-1.032 1.186-1.812 1.186s-1.491-.466-1.813-1.188c-.199-.445-.554-.8-1.001-1-.513-.228-.887-.658-1.066-1.166.599.229 1.239.354 1.88.354.809 0 1.618-.191 2.342-.553l.211-.105c.895-.447 2-.447 2.895 0l.465.233c-.167.54-.562.998-1.101 1.238zm3.188-7.169v-2.255c3.715-2.145 6-6.067 6-10.389s-2.285-8.244-6-10.389v-2.255c4.835 2.297 8 7.207 8 12.644s-3.165 10.346-8 12.644z"/><path d="m46 54.996c0-1.413-.747-2.16-1.293-2.705-.49-.49-.707-.73-.707-1.291h-2c0 1.413.747 2.16 1.293 2.705.49.49.707.73.707 1.291 0 .563-.217.804-.707 1.294-.546.546-1.293 1.293-1.293 2.708s.747 2.162 1.293 2.708c.49.49.707.732.707 1.294h2c0-1.415-.747-2.162-1.293-2.708-.49-.49-.707-.731-.707-1.294s.217-.804.707-1.294c.546-.546 1.293-1.293 1.293-2.708z"/><path d="m54 54.996c0-1.413-.747-2.16-1.293-2.705-.49-.49-.707-.73-.707-1.291h-2c0 1.413.747 2.16 1.293 2.705.49.49.707.73.707 1.291 0 .563-.217.804-.707 1.294-.546.546-1.293 1.293-1.293 2.708s.747 2.162 1.293 2.708c.49.49.707.732.707 1.294h2c0-1.415-.747-2.162-1.293-2.708-.49-.49-.707-.731-.707-1.294s.217-.804.707-1.294c.546-.546 1.293-1.293 1.293-2.708z"/></g></g></svg>