<svg height="512" viewBox="0 0 60 60" width="512" xmlns="http://www.w3.org/2000/svg"><g id="014---Cutting-Cigarette" fill="none"><g id="Layer_3" transform="translate(1 1)"><path id="Shape" d="m42 42c-2.428165-.0017153-4.6222397-1.4487036-5.58-3.68l-2.07-4.91-.71-1.68-1.5-3.56-2.69.74-6.44 1.76.64 2.74.4 1.7c.5572962 2.2818699 2.601063 3.8879816 4.95 3.89 2.7614237 0 5 2.2385763 5 5v6c0 4.418278 3.581722 8 8 8s8-3.581722 8-8-3.581722-8-8-8zm0 12c-2.209139 0-4-1.790861-4-4s1.790861-4 4-4 4 1.790861 4 4-1.790861 4-4 4z" fill="#9d27b0"/><path id="Shape" d="m42 42c-2.428165-.0017153-4.6222397-1.4487036-5.58-3.68l-2.07-4.91-.71-1.68-1.5-3.56-2.688.74 1.188 2.82.71 1.68 2.07 4.91c.9577603 2.2312964 3.151835 3.6782847 5.58 3.68 4.1201832.008319 7.560216 3.1446137 7.9482837 7.2464892s-2.4027621 7.8276559-6.4482837 8.6085108c2.9873733.5766142 6.0432406-.5912461 7.8846263-3.0132663s2.1495108-5.6789024.795012-8.4032768-4.1371319-4.4446-7.1796383-4.4384569z" fill="#6a1b9a"/><path id="Shape" d="m32.14 28.17-9.13 2.5-4.15-17.67-1.72-7.3c-.0593599-.22959815-.0994985-.4637404-.12-.7-.01-.16-.02-.32-.02-.48.0000635-1.89221597 1.0682954-3.62228724 2.76-4.47.1134787-.05685944.2453801-.06441569.3646097-.02088742.1192296.04352826.2152373.13428946.2653903.25088742l1.99 4.72 3.37 8 3.25 7.71z" fill="#9e9e9e"/><path id="Shape" d="m32.14 28.17-2.69.74-3.45-8.2-3.25-7.71-3.37-8-1.43-3.39c.4679702-.65902157 1.0891405-1.19439489 1.81-1.56.1134787-.05685944.2453801-.06441569.3646097-.02088742.1192296.04352826.2152373.13428946.2653903.25088742l1.99 4.72 3.37 8 3.25 7.71z" fill="#707070"/><path id="Shape" d="m41 4.52c0 .16-.01.32-.02.48h-5.36l1.99-4.72c.050153-.11659796.1461607-.20735916.2653903-.25088742.1192296-.04352827.251131-.03597202.3646097.02088742 1.6917046.84771276 2.7599365 2.57778403 2.76 4.47z" fill="#7f8e94"/><path id="Shape" d="m38.24.05c-.1134787-.05685944-.2453801-.06441569-.3646097-.02088742-.1192296.04352826-.2152373.13428946-.2653903.25088742l-.56 1.327c.6137087.84765614.9459814 1.86650913.95 2.913 0 .16-.01.32-.02.48h3c.01-.16.02-.32.02-.48-.0000635-1.89221597-1.0682954-3.62228724-2.76-4.47z" fill="#545c60"/><path id="Shape" d="m39.14 13-4.79 20.41-2.21-5.24-3.14-7.46 3.25-7.71z" fill="#7f8e94"/><path id="Shape" d="m36.14 13-3.717 15.84 1.927 4.57 4.79-20.41z" fill="#545c60"/><path id="Shape" d="m24.05 35.11-.4-1.7-2.07 4.91c-.9577603 2.2312964-3.151835 3.6782847-5.58 3.68-4.418278 0-8 3.581722-8 8s3.581722 8 8 8 8-3.581722 8-8v-6c0-2.7614237 2.2385763-5 5-5-2.348937-.0020184-4.3927038-1.6081301-4.95-3.89zm-8.05 18.89c-2.209139 0-4-1.790861-4-4s1.790861-4 4-4 4 1.790861 4 4-1.790861 4-4 4z" fill="#9d27b0"/><path id="Shape" d="m18.86 13h-2.86c-1.66 0-3-1.79-3-4s1.34-4 3-4h1.02c.0205015.2362596.0606401.47040185.12.7z" fill="#f5f5f5"/><path id="Shape" d="m16 13h-13c-1.66 0-3-1.79-3-4s1.34-4 3-4h13c-1.66 0-3 1.79-3 4s1.34 4 3 4z" fill="#ff9801"/><path id="Shape" d="m55 13h-29.25l-3.37-8h32.62c-1.66 0-3 1.79-3 4s1.34 4 3 4z" fill="#f5f5f5"/><ellipse id="Oval" cx="55" cy="9" fill="#ff9801" rx="3" ry="4"/></g><g id="Layer_2" fill="#000" transform="translate(0 -1)"><path id="Shape" d="m43 57c2.7614237 0 5-2.2385763 5-5s-2.2385763-5-5-5-5 2.2385763-5 5c.0033061 2.7600532 2.2399468 4.9966939 5 5zm0-8c1.6568542 0 3 1.3431458 3 3s-1.3431458 3-3 3-3-1.3431458-3-3 1.3431458-3 3-3z"/><path id="Shape" d="m30 35c-.5522847 0-1 .4477153-1 1s.4477153 1 1 1 1-.4477153 1-1-.4477153-1-1-1z"/><path id="Shape" d="m17 47c-2.7614237 0-5 2.2385763-5 5s2.2385763 5 5 5 5-2.2385763 5-5c-.0033061-2.7600532-2.2399468-4.9966939-5-5zm0 8c-1.6568542 0-3-1.3431458-3-3s1.3431458-3 3-3 3 1.3431458 3 3-1.3431458 3-3 3z"/><path id="Shape" d="m56 6h-13.036c-.1677945-2.0779303-1.4110331-3.91642109-3.277-4.846-.3609185-.18062065-.7804476-.2040096-1.1592065-.06462633s-.6830509.4291384-.8407935.80062633l-1.731 4.11h-11.913l-1.73-4.106c-.1569678-.37219766-.4609335-.66286529-.8397763-.80303711-.3788427-.14017182-.7987978-.11735488-1.1602237.06303711-1.8658321.92973279-3.1090125 2.76813745-3.277 4.846h-13.036c-2.243 0-4 2.2-4 5s1.757 5 4 5h15.063l4.537 19.32-1.94 4.6c-.7979905 1.8658852-2.6306384 3.0771633-4.66 3.08-4.9705627 0-9 4.0294373-9 9s4.0294373 9 9 9 9-4.0294373 9-9v-6c0-2.209139 1.790861-4 4-4s4 1.790861 4 4v6c0 4.9705627 4.0294373 9 9 9s9-4.0294373 9-9-4.0294373-9-9-9c-2.0262838-.0006496-3.8579111-1.2067952-4.659-3.068l-1.941-4.612 4.532-19.32h15.068c2.206 0 4-2.243 4-5s-1.794-5-4-5zm-16.709-2.762c.9248599.64121546 1.5334833 1.64540779 1.674 2.762h-2.839zm13.529 4.762c-1.0928609 1.85070688-1.0928609 4.1492931 0 6h-25.406l-2.528-6zm-24.563 8h3.486l-1.743 4.136zm-7.548-12.762 11.069 26.268-7.035 1.926c-6.203-26.403-5.743-24.243-5.743-24.913-.004975-1.30826517.6341136-2.53521064 1.709-3.281zm-18.709 7.762c0-1.626.916-3 2-3h9.8c-1.0626005 1.85886003-1.0626005 4.14114 0 6h-9.8c-1.084 0-2-1.374-2-3zm15 3c-1.084 0-2-1.374-2-3s.916-3 2-3h.183l1.41 6zm7 32v6c0 3.8659932-3.1340068 7-7 7s-7-3.1340068-7-7 3.1340068-7 7-7c2.8301593-.0015985 5.3869803-1.6898871 6.5-4.292l.961-2.278c.482901 1.0512758 1.255847 1.9428696 2.228 2.57-1.6780134 1.1103524-2.68775 2.9878842-2.689 5zm19-1c3.8659932 0 7 3.1340068 7 7s-3.1340068 7-7 7-7-3.1340068-7-7v-6c-.0033074-3.3123376-2.6876624-5.9966926-6-6-1.8861684.0014514-3.5288568-1.2868426-3.977-3.119l-.822-3.5 7.36-2.015 3.94 9.35c1.1153213 2.5986459 3.6711206 4.2833734 6.499 4.284zm-7.921-12.811-3.994-9.479 2.828-6.71h4.965zm20.921-18.189c-1.084 0-2-1.374-2-3s.916-3 2-3 2 1.374 2 3-.916 3-2 3z"/><circle id="Oval" cx="6" cy="11" r="1"/><circle id="Oval" cx="10" cy="11" r="1"/></g></g></svg>