<svg height="511pt" viewBox="1 1 511 511.99963" width="511pt" xmlns="http://www.w3.org/2000/svg"><path d="m183.871094 137.652344-33.394532-8.949219c-.308593-.082031-.625.101563-.707031.410156l-49.585937 185.046875 50.53125-50.53125 33.566406-125.265625c.082031-.3125-.101562-.628906-.410156-.710937zm0 0" fill="#cfd8dc"/><path d="m183.871094 137.652344-33.394532-8.949219c-.308593-.082031-.625.101563-.710937.410156l-1.1875 4.441407 15.292969 4.097656c.308594.082031.492187.398437.410156.710937l-29.773438 111.109375c-2.484374 9.273438-7.363281 17.730469-14.152343 24.515625l-12.851563 12.851563-7.320312 27.320312 50.53125-50.53125 33.566406-125.265625c.082031-.3125-.101562-.628906-.410156-.710937zm0 0" fill="#90a4ae"/><path d="m461.804688 160.550781-26.101563 45.160157c-15.027344-8.707032-34.597656-6.632813-47.460937 6.234374-15.34375 15.339844-15.34375 40.214844 0 55.554688" fill="#ffab91"/><path d="m436.355469 297.175781c-15.617188 29.019531-46.277344 48.746094-81.542969 48.746094-51.109375 0-92.542969-41.433594-92.542969-92.542969v.003906-164.199218c0-12.777344 10.359375-23.132813 23.136719-23.132813s23.136719 10.355469 23.136719 23.132813v72.800781-103.710937c0-12.777344 10.355469-23.136719 23.132812-23.136719 12.777344 0 23.136719 10.359375 23.136719 23.136719v103.707031-131.332031c0-12.777344 10.359375-23.136719 23.136719-23.136719 12.777343 0 23.136719 10.359375 23.136719 23.136719v131.332031-103.707031c0-12.777344 10.355468-23.136719 23.132812-23.136719s23.136719 10.359375 23.136719 23.136719v127.304687l14.449219-25.027344c6.386718-11.066406 20.539062-14.855469 31.605468-8.46875 11.0625 6.390625 14.855469 20.539063 8.46875 31.605469l-65.523437 113.484375zm0 0" fill="#ffab91"/><path d="m493.410156 152.082031c-9.703125-5.601562-21.773437-3.375-28.910156 4.71875-.488281 2.359375-1.347656 4.683594-2.621094 6.886719l-65.519531 113.488281c-15.617187 29.019531-46.277344 48.746094-81.542969 48.746094-6.914062 0-13.648437-.761719-20.132812-2.203125 16.175781 13.839844 37.175781 22.203125 60.128906 22.203125 35.269531 0 65.925781-19.726563 81.546875-48.746094h-.003906l65.523437-113.488281c6.386719-11.066406 2.597656-25.214844-8.46875-31.605469zm0 0" fill="#ff7043"/><path d="m205.472656 470.605469 66.539063-66.539063c9.035156-9.035156 9.035156-23.683594 0-32.714844l-16.355469-16.359374-34.472656 34.46875 34.472656-34.46875c9.03125-9.035157 9.03125-23.683594 0-32.71875l-16.359375-16.355469-50.828125 50.828125 49.917969-49.917969c3.085937-3.085937 3.085937-8.09375 0-11.179687l-21.535157-21.539063c-3.089843-3.085937-8.09375-3.085937-11.183593 0l-49.917969 49.917969 49.605469-49.601563-16.359375-16.359375c-9.035156-9.035156-23.683594-9.035156-32.714844 0l-56.09375 56.09375 7.664062-28.601562-5.890624-5.890625c-9.035157-9.035157-23.679688-9.035157-32.714844 0l-27.359375 27.355469c-45.171875 45.171874-45.171875 118.410156 0 163.582031s118.414062 45.171875 163.585937 0zm0 0" fill="#ffab91"/><path d="m258.371094 357.710938-92.898438 92.898437c-30.484375 30.484375-73.75 40.390625-112.542968 29.730469 45.371093 35.164062 110.886718 31.921875 152.542968-9.734375l66.539063-66.539063c9.035156-9.035156 9.035156-23.683594 0-32.714844zm0 0" fill="#ff7043"/><path d="m183.871094 137.652344-33.394532-8.949219c-.308593-.082031-.625.101563-.707031.410156l-19.230469 71.757813 34.515626 9.25 19.226562-71.757813c.082031-.3125-.101562-.628906-.410156-.710937zm0 0" fill="#ffa726"/><path d="m183.871094 137.652344-33.394532-8.949219c-.308593-.082031-.625.101563-.707031.410156l-19.230469 71.757813 34.515626 9.25 19.226562-71.757813c.082031-.3125-.101562-.628906-.410156-.710937zm0 0" fill="#ffa726"/><path d="m148.679688 133.167969-.101563.386719 15.292969 4.097656c.3125.082031.492187.398437.410156.710937l-17.886719 66.757813 18.660157 5 6.429687-24.003906 12.796875-47.753907c.039062-.152343.015625-.304687-.054688-.433593-.074218-.132813-.195312-.234376-.355468-.277344l-33.394532-8.949219c-.132812-.035156-.265624-.011719-.382812.039063-.085938.039062-.164062.089843-.222656.164062-.046875.0625-.082032.128906-.101563.207031zm0 0" fill="#f57c00"/><path d="m100.183594 314.160156-5.660156 5.664063" fill="#ffab91"/><path d="m497.175781 145.574219c-14.050781-8.113281-32.964843-4.167969-42.121093 11.691406-.277344.480469-.179688 8.121094-.179688-99.003906 0-23.757813-26.003906-38.417969-46.273438-26.339844 0-19.625-14.769531-31.921875-30.632812-31.921875-15.703125 0-30.636719 12.09375-30.636719 31.921875-20.234375-12.058594-46.269531 2.546875-46.269531 26.339844v4.574219c-20.238281-12.0625-46.273438 2.542968-46.273438 26.335937v24.796875c0 4.144531 3.359376 7.5 7.5 7.5 4.144532 0 7.5-3.355469 7.5-7.5v-24.796875c0-8.621094 7.015626-15.636719 15.636719-15.636719 8.621094 0 15.636719 7.015625 15.636719 15.636719v72.796875c0 4.144531 3.355469 7.5 7.5 7.5 4.140625 0 7.5-3.355469 7.5-7.5v-103.707031c0-8.625 7.011719-15.636719 15.636719-15.636719 8.621093 0 15.636719 7.011719 15.636719 15.636719v103.707031c0 4.144531 3.355468 7.5 7.5 7.5 4.140624 0 7.496093-3.355469 7.496093-7.5v-131.332031c0-8.621094 7.015625-15.636719 15.636719-15.636719 8.625 0 15.636719 7.015625 15.636719 15.636719v131.332031c0 4.144531 3.359375 7.5 7.5 7.5 4.144531 0 7.5-3.355469 7.5-7.5v-103.707031c0-8.625 7.015625-15.636719 15.636719-15.636719 8.621093 0 15.636718 7.011719 15.636718 15.636719v125.265625l-7.191406 12.441406c-16.980469-6.457031-36.550781-2.515625-49.726562 10.65625-18.242188 18.242188-18.242188 47.921875 0 66.164062 1.464843 1.464844 3.382812 2.195313 5.304687 2.195313 6.621094 0 10.039063-8.0625 5.300781-12.800781-12.390625-12.394532-12.390625-32.558594 0-44.953125 10.175782-10.175781 25.96875-12.246094 38.398438-5.042969 3.582031 2.078125 8.179687.851562 10.253906-2.734375 35.46875-61.371094-9.386719 16.300781 26.101562-45.164063 2.089844-3.617187 5.460938-6.207031 9.496094-7.285156 13.332032-3.574218 24.574219 10.816406 17.589844 22.921875-66.992188 116.027344-65.515625 113.46875-65.636719 113.679688-14.871093 27.636719-43.585937 44.804687-74.9375 44.804687-46.894531 0-85.042969-38.152344-85.042969-85.046875v-104.394531c0-4.144531-3.355468-7.5-7.5-7.5-4.140624 0-7.5 3.355469-7.5 7.5v104.402344c0 54.980468 44.710938 100.035156 100.042969 100.035156 36.839844 0 70.585938-20.144531 88.09375-52.589844l65.464844-113.394531c8.445313-14.628906 3.417969-33.398437-11.214844-41.847656zm0 0"/><path d="m265.628906 354.328125c6.894532-11.507813 5.679688-27.035156-4.652344-37.371094l-12.996093-12.996093c.875-4.933594-.636719-9.996094-4.273438-13.632813l-21.535156-21.535156c-4.210937-4.210938-10.269531-5.46875-15.585937-3.777344l-12.265626-12.265625c-8.375-8.375-20.328124-10.878906-30.878906-7.5625l28.097656-104.875c1.183594-4.367188-1.476562-8.820312-5.710937-9.914062l-33.359375-8.941407c-4.332031-1.179687-8.824219 1.433594-9.921875 5.703125-1.316406 4.917969 6.214844-23.191406-22.210937 82.886719-1.070313 4 1.304687 8.113281 5.304687 9.1875s8.113281-1.304687 9.183594-5.304687l1.042969-3.886719 20.023437 5.367187-11.871094 44.316406-29.328125 29.328126c.03125-.117188 11.027344-41.152344 11.074219-41.328126 1.070313-4-1.300781-8.109374-5.300781-9.183593-4.003906-1.074219-8.117188 1.304687-9.1875 5.300781l-7.390625 27.578125c-11.984375-8.914063-29.058594-7.941406-39.925781 2.929687l-27.359376 27.355469c-48.132812 48.136719-48.136718 126.046875.003907 174.191407 48.132812 48.132812 126.046875 48.140624 174.1875 0l20.898437-20.898438c2.925782-2.929688 2.925782-7.675781 0-10.605469-2.929687-2.929687-7.679687-2.929687-10.609375 0l-20.894531 20.894531c-42.175781 42.179688-110.800781 42.179688-152.976562 0-42.175782-42.175781-42.175782-110.800781 0-152.976562l27.355468-27.355469c6.097656-6.097656 16.015625-6.09375 22.109375 0l2.828125 2.828125-6.027344 22.484375-4.238281 4.238281c-2.929687 2.929688-2.929687 7.675782 0 10.605469 2.929688 2.929688 7.675781 2.929688 10.605469 0 21.578125-21.574219 48.910156-48.910156 61.757812-61.757812 6.105469-6.109375 15.996094-6.113281 22.109376 0l11.054687 11.054687-44.300781 44.300782c-2.929688 2.929687-2.929688 7.679687 0 10.609374 2.929687 2.925782 7.679687 2.925782 10.605468 0 53.109376-53.113281 50.050782-50.367187 50.492188-49.917968 23.117188 23.113281 21.65625 21.558594 21.65625 21.820312 0 .261719 3.519531-3.351562-50.039062 50.207032-2.929688 2.929687-2.925782 7.675781 0 10.605468 2.929687 2.929688 7.679687 2.929688 10.609374 0l45.523438-45.527344 11.054688 11.058594c6.109374 6.105469 6.113281 15.996094 0 22.109375l-34.46875 34.46875c-2.929688 2.929688-2.929688 7.679688 0 10.605469 2.929687 2.929688 7.675781 2.929688 10.605468 0l29.164063-29.164062 11.058593 11.054687c6.109376 6.109375 6.109376 16 0 22.109375l-20.898437 20.898438c-4.738281 4.738281-1.316406 12.800781 5.304687 12.800781 1.917969 0 3.839844-.730469 5.304688-2.195313l20.894531-20.894531c11.972657-11.976563 11.972657-31.351563 0-43.324219zm-125.882812-158.773437 15.496094-57.824219 20.019531 5.363281-15.492188 57.828125zm0 0"/></svg>