<svg id="_x33_0" enable-background="new 0 0 64 64" height="512" viewBox="0 0 64 64" width="512" xmlns="http://www.w3.org/2000/svg"><g><g><g><path d="m31.66 22.83c-1.02-.51-1.66-1.55-1.66-2.68v-.15-17c0-.55-.45-1-1-1h-2c-.55 0-1 .45-1 1v17 .15c0 1.13-.64 2.17-1.66 2.68l-2.34 1.17v6l2.59-2.59c.9-.9 2.13-1.41 3.41-1.41s2.51.51 3.41 1.41l2.59 2.59v-6z" fill="#ecc19c"/></g><g><path d="m22 42v5c0 3.87-3.13 7-7 7h-.76c-6.76 0-12.24-5.48-12.24-12.24 0-1.82.41-3.61 1.19-5.26l2.6-5.46 4.04-8.48c1.32-2.79 4.14-4.56 7.22-4.56h.95c2.21 0 4 1.79 4 4v2 6z" fill="#f0d0b4"/></g><g><path d="m51.78 47.73c-1.05-.47-1.78-1.51-1.78-2.73v-1-6-7.4l-3.83-8.04c-1.32-2.79-4.14-4.56-7.22-4.56h-.95c-2.21 0-4 1.79-4 4v2 6 17c0 3.87 3.13 7 7 7h.76c2.38 0 4.6-.68 6.47-1.85 1.63-1.01 2.98-2.39 3.99-4.02v-.01c-.1-.17-.25-.31-.44-.39z" fill="#969faa"/></g><g><circle cx="40" cy="46" fill="#ff826e" r="2"/></g><g><circle cx="40" cy="24" fill="#ff826e" r="2"/></g><g><path d="m60 4v12h-10v-12c0-1.1.9-2 2-2h6c1.1 0 2 .9 2 2z" fill="#dfb28b"/></g><g><path d="m60 16v29l-1.11-.55c-.58-.3-1.23-.45-1.89-.45s-1.31.15-1.89.45l-.22.1c-.58.3-1.23.45-1.89.45s-1.31-.15-1.89-.45l-1.11-.55v-6-7.4-14.6z" fill="#e6e9ed"/></g><g><path d="m58.89 44.45 1.11.55c0 1.22-.73 2.26-1.78 2.73-.22.1-.39.27-.49.49-.47 1.05-1.51 1.78-2.73 1.78s-2.26-.73-2.73-1.78c-.01-.03-.03-.06-.05-.09v-.01c-.1-.17-.25-.31-.44-.39-1.05-.47-1.78-1.51-1.78-2.73v-1l1.11.55c.58.3 1.23.45 1.89.45s1.31-.15 1.89-.45l.22-.1c.58-.3 1.23-.45 1.89-.45s1.31.15 1.89.45z" fill="#ff826e"/></g></g><g><path d="m62 53c-.551 0-1-.448-1-1v-1h-2v1c0 1.654 1.346 3 3 3h1v-2z"/><path d="m51 60c0-.552.449-1 1-1h2c1.654 0 3-1.346 3-3s-1.346-3-3-3h-3c-.53 0-1.011-.222-1.376-.575.973-.72 1.844-1.587 2.602-2.57.732.716 1.718 1.145 2.774 1.145 1.569 0 2.998-.932 3.626-2.36 1.442-.642 2.374-2.071 2.374-3.64v-41c0-1.654-1.346-3-3-3h-6c-1.654 0-3 1.346-3 3v22.174l-1.925-4.043c-1.484-3.117-4.674-5.131-8.126-5.131h-.949c-2.757 0-5 2.243-5 5v.382l-.895-.447c-.682-.341-1.105-1.027-1.105-1.789v-17.146c0-1.103-.897-2-2-2h-2c-1.103 0-2 .897-2 2v17.146c0 .763-.423 1.448-1.105 1.789l-.895.447v-.382c0-2.757-2.243-5-5-5h-.949c-3.452 0-6.642 2.014-8.126 5.131l-6.64 13.943c-.841 1.767-1.285 3.735-1.285 5.691 0 7.298 5.938 13.235 13.235 13.235h.765c4.411 0 8-3.589 8-8v-16.586l2.293-2.293c1.446-1.445 3.968-1.445 5.414 0l2.293 2.293v16.586c0 4.411 3.589 8 8 8h.765c2.182 0 4.261-.54 6.113-1.504.746.935 1.883 1.504 3.122 1.504h3c.551 0 1 .448 1 1s-.449 1-1 1h-2c-1.654 0-3 1.346-3 3s1.346 3 3 3h11v-2h-11c-.551 0-1-.448-1-1zm6.812-13.187c-.446.199-.801.555-.999 1-.322.721-1.033 1.187-1.813 1.187s-1.491-.466-1.813-1.187c-.198-.446-.553-.802-1-1.002-.513-.228-.888-.658-1.067-1.167.599.231 1.239.356 1.88.356.808 0 1.618-.191 2.342-.553l.21-.105c.896-.447 2-.447 2.895 0l.465.233c-.166.54-.561.998-1.1 1.238zm1.188-3.405c-1.381-.565-3.004-.522-4.342.145l-.21.105c-.896.447-2 .447-2.895 0l-.553-.276v-26.382h8zm-7-40.408h6c.551 0 1 .448 1 1v11h-8v-11c0-.552.449-1 1-1zm-23 16h-2v-4h2zm-2-10.382 2 1v3.382h-2zm2-5.618v4.382l-2-1v-3.382zm-14 50h-.765c-6.195 0-11.235-5.04-11.235-11.235 0-1.66.377-3.331 1.091-4.831l1.97-4.137c1.584 1.526 3.557 2.639 5.696 3.173l.485-1.939c-2.02-.505-3.866-1.62-5.267-3.155l3.755-7.885c1.154-2.424 3.635-3.99 6.32-3.99h.95c1.654 0 3 1.346 3 3v19.442c-1.695 1.016-3.62 1.557-5.605 1.557h-.395v2h.395c1.956 0 3.863-.443 5.605-1.284v3.284c0 3.309-2.691 6-6 6zm17.121-26.293c-1.1-1.101-2.564-1.707-4.121-1.707s-3.021.606-4.121 1.707l-.879.879v-2.968l1.789-.895c1.102-.551 1.857-1.555 2.11-2.724h2.201c.253 1.169 1.008 2.173 2.11 2.724l1.79.895v2.968zm8.879 26.293c-3.309 0-6-2.691-6-6v-25c0-1.654 1.346-3 3-3h.949c2.685 0 5.166 1.566 6.32 3.99l3.731 7.835v14.175c0 1.37.711 2.633 1.842 3.35-2.112 2.919-5.432 4.65-9.077 4.65z"/><path d="m59 57h4v2h-4z"/><path d="m40 43c-1.654 0-3 1.346-3 3s1.346 3 3 3 3-1.346 3-3-1.346-3-3-3zm0 4c-.551 0-1-.448-1-1s.449-1 1-1 1 .448 1 1-.449 1-1 1z"/><path d="m40 27c1.654 0 3-1.346 3-3s-1.346-3-3-3-3 1.346-3 3 1.346 3 3 3zm0-4c.551 0 1 .448 1 1s-.449 1-1 1-1-.448-1-1 .449-1 1-1z"/><path d="m43.814 36.789-1.708-.854c-.683-.341-1.106-1.027-1.106-1.789v-1.146c0-2.206-1.794-4-4-4v2c1.103 0 2 .897 2 2v1.146c0 1.443.764 2.74 2 3.454v.159c0 .526-.213 1.042-.586 1.414l-1.121 1.121 1.414 1.414 1.121-1.121c.55-.55.924-1.256 1.083-2.012l.009.004c.552.275 1.171.421 1.788.421h2.292v-2h-2.292c-.309 0-.618-.073-.894-.211z"/><path d="m43 29h2v2h-2z"/><path d="m45 41h2v2h-2z"/></g></g></svg>