<svg id="Layer_1" data-name="Layer 1" xmlns="http://www.w3.org/2000/svg" viewBox="0 0 350 350"><defs><style>.cls-1{fill:#cce4ff;}.cls-2{fill:red;}.cls-3,.cls-53{fill:#fff;}.cls-4{fill:#ce2b1d;}.cls-5{fill:#cadce6;}.cls-6{fill:#9c9c9c;}.cls-7{fill:#898989;}.cls-8{fill:#e02f22;}.cls-9{fill:#cc2a1d;}.cls-10{fill:#b9251a;}.cls-11{fill:#ac8e89;}.cls-12{fill:#b5c3c9;}.cls-13{fill:#c0ccd0;}.cls-14{fill:#a4b4b9;}.cls-15{fill:#afafaf;}.cls-16{fill:#c8c8c8;}.cls-17{fill:#939393;}.cls-18{fill:#b0b0b0;}.cls-19{fill:#c6c6c6;}.cls-20{fill:#aeaeae;}.cls-21{fill:#969696;}.cls-22{fill:#989898;}.cls-23{fill:#cacaca;}.cls-24{fill:#e3b080;}.cls-25{fill:#cd9162;}.cls-26{fill:#c98a5b;}.cls-27{fill:#dda776;}.cls-28{fill:#f3cdaa;}.cls-29{fill:#ce9261;}.cls-30{fill:#d0976e;}.cls-31{fill:#b9794a;}.cls-32{fill:#cd9163;}.cls-33{fill:#d29572;}.cls-34{fill:#499fbb;}.cls-35{fill:#4190ad;}.cls-36{fill:#52b2cc;}.cls-37{fill:#5cb6d2;}.cls-38{fill:#66cae4;}.cls-39{fill:#d33334;}.cls-40{fill:#bf2e2e;}.cls-41{fill:#ae292a;}.cls-42{fill:#f2f5f8;}.cls-43{fill:#bec2c7;}.cls-44,.cls-45{fill:none;stroke:#322727;stroke-miterlimit:10;}.cls-44{stroke-width:0.25px;}.cls-45{stroke-width:3px;}.cls-46{fill:#c75a24;}.cls-47{fill:#dc813b;}.cls-48{fill:#606060;opacity:0.36;}.cls-49{fill:#c5c5c5;}.cls-50{fill:#2d2d2d;}.cls-51{fill:#002d5b;}.cls-52{fill:#b9d9ff;}.cls-52,.cls-53{opacity:0.41;}.cls-54{fill:#8e2d00;}.cls-55{fill:#ffb43e;}</style></defs><rect class="cls-1" x="1" width="349" height="349" rx="48"/><rect class="cls-1" x="1" width="349" height="349"/><path class="cls-2" d="M275.9,124l-92.66,98.16L85.08,129.49C6.07,54.9,98.73-43.26,177.74,31.33,245.9-40.87,344.06,51.79,275.9,124Z"/><path class="cls-3" d="M159.81,132.69H160L177.15,59h7.63L164.17,144H156L137.79,68.89h-.22L119.36,144h-8.18L90.9,59h9l15.3,73.72h.21L133.64,59h8.29Z"/><rect class="cls-3" x="-9.12" y="58.97" width="109.03" height="6.06"/><polygon class="cls-3" points="352.06 65.53 178.66 65.53 178.66 58.97 352.06 58.47 352.06 65.53"/><rect class="cls-3" x="166.55" y="137.72" width="78.75" height="6.06"/><rect class="cls-3" x="178.66" y="101.37" width="54.52" height="6.06"/><rect class="cls-2" x="173.81" y="76.32" width="5.9" height="73.27" transform="translate(34.26 -40.98) rotate(14.63)"/><rect class="cls-4" x="94.12" y="228.7" width="33.56" height="172.02" transform="translate(425.61 203.81) rotate(90)"/><rect class="cls-5" x="240.96" y="288.53" width="26.32" height="53.37" transform="translate(569.33 61.1) rotate(90)"/><rect class="cls-6" x="215.86" y="289.38" width="3.93" height="22.65" rx="0.34" transform="translate(-82.88 518.53) rotate(-90)"/><rect class="cls-7" x="215.99" y="318.37" width="3.63" height="22.61" rx="0.32" transform="translate(-111.87 547.48) rotate(-90)"/><rect class="cls-8" x="109.37" y="220.55" width="5.28" height="169.53" transform="translate(417.33 193.31) rotate(90)"/><rect class="cls-9" x="107.65" y="227.47" width="8.62" height="169.63" transform="translate(424.24 200.32) rotate(90)"/><rect class="cls-10" x="106.42" y="237.41" width="11.07" height="169.63" transform="translate(434.18 210.27) rotate(90)"/><rect class="cls-11" x="178.59" y="313.38" width="39.71" height="3.79" rx="0.33" transform="translate(513.73 116.83) rotate(90)"/><rect class="cls-12" x="252.86" y="293.14" width="5.96" height="50.57" transform="translate(574.27 62.58) rotate(90)"/><rect class="cls-13" x="253" y="287.37" width="5.96" height="50.67" transform="translate(568.69 56.72) rotate(90)"/><path class="cls-14" d="M221.08,312.47h17.63a1,1,0,0,1,1,1v4.72a0,0,0,0,1,0,0H220.08a0,0,0,0,1,0,0v-4.72A1,1,0,0,1,221.08,312.47Z" transform="translate(545.23 85.44) rotate(90)"/><rect class="cls-6" x="213.55" y="300.78" width="9.55" height="21.66" transform="translate(-93.29 529.94) rotate(-90)"/><rect class="cls-15" x="215.75" y="293.42" width="4.97" height="21.84" transform="translate(-86.11 522.57) rotate(-90)"/><rect class="cls-16" x="186.07" y="313.56" width="39.71" height="3.44" rx="0.3" transform="translate(521.2 109.36) rotate(90)"/><rect class="cls-17" x="212.02" y="311.83" width="12.72" height="21.43" transform="translate(-104.16 540.92) rotate(-90)"/><rect class="cls-18" x="200.12" y="329.23" width="4.07" height="7.71" transform="translate(-130.93 535.24) rotate(-90)"/><rect class="cls-17" x="197.55" y="323.16" width="9.21" height="7.71" transform="translate(-124.86 529.17) rotate(-90)"/><rect class="cls-15" x="194.27" y="310.72" width="15.77" height="7.71" transform="translate(516.73 112.42) rotate(90)"/><rect class="cls-19" x="197.66" y="298.34" width="8.99" height="7.71" transform="translate(504.35 100.04) rotate(90)"/><rect class="cls-20" x="200.89" y="292.73" width="2.61" height="7.79" transform="translate(498.82 94.44) rotate(90)"/><polygon class="cls-21" points="319.16 307.5 316.25 308.3 311.42 308.73 306.59 308.91 302.01 308.79 298.73 308.6 295.21 308.17 292.85 307.62 292.85 323.56 296.75 322.64 301.39 322.03 307.83 322.03 312.97 322.21 316.93 322.83 319.34 323.44 319.16 307.5"/><rect class="cls-22" x="278.1" y="312.13" width="23.73" height="6.01" rx="0.52" transform="translate(605.09 25.17) rotate(90)"/><rect class="cls-15" x="310.9" y="312.83" width="20.85" height="5.21" rx="0.45" transform="translate(636.76 -5.89) rotate(90)"/><rect class="cls-23" x="271.36" y="313.88" width="31.58" height="3.43" rx="0.3" transform="translate(602.75 28.44) rotate(90)"/><rect class="cls-15" x="277.35" y="311.84" width="13.28" height="6.49" transform="translate(599.08 31.09) rotate(90)"/><rect class="cls-18" x="282.28" y="327.43" width="3.43" height="6.49" transform="translate(-46.69 614.68) rotate(-90)"/><rect class="cls-17" x="280.12" y="322.32" width="7.76" height="6.49" transform="translate(-41.57 609.56) rotate(-90)"/><rect class="cls-19" x="280.32" y="301.52" width="7.35" height="6.49" transform="translate(588.77 20.77) rotate(90)"/><rect class="cls-20" x="282.93" y="296.68" width="2.2" height="6.57" transform="translate(583.99 15.94) rotate(90)"/><path class="cls-24" d="M101.86,147.47l32.88,16.14,18.09-7.19,9.34-3.31s9.14.19,10.89,2.33S226,207,226,207l18.48,15s2.14,4.86.78,7.59-6.42,11.86-12.06,8.56S210,222,210,222s-.39,14.59-12.06,13.81-12.07-6-12.07-6,26.66,3.5,0,20.82-66.53-79.38-66.53-79.38l-7,47.08"/><polygon class="cls-24" points="97.32 190.02 101.39 147.65 102.07 147.65 108.97 181.09 100.66 206.36 94.75 199.93 97.32 190.02"/><path class="cls-24" d="M116.58,222.57s4.61.12,6.55,1.87,5.77,2.79,5.77,2.79l5.45-2.72,5.44.39,2,1.55,3.31,4.67,4.08,6,13.23.2-40.85-69.46-21-14.22-9.14,53.15,17.09,10.88Z"/><polyline class="cls-25" points="81.4 213.33 126.98 236.03 131.47 226.48 93.37 207.2 101.84 147.39 101.16 147.25"/><polygon class="cls-24" points="176.38 250.41 176.53 256.07 180.12 261.93 185.19 260.8 185.44 246.08 176.38 250.41"/><polygon class="cls-26" points="190.29 256.21 193.25 258.95 196.28 261.31 198.65 262.64 201.54 263.31 205.31 262.94 209.53 260.06 210.07 258.79 210.71 256.8 197.03 246.59 187.04 252.07 186.82 253.32 190.29 256.21"/><path class="cls-26" d="M212,234.29l7.5,6.55,7.51,5.67-1,1.64-1.33,1a14.75,14.75,0,0,1-2.18,1.52,9.33,9.33,0,0,1-3.51.38c-.38-.19-3-.09-3.42-.57s-18.07-13-18.07-13l12.26-5.19Z"/><path class="cls-27" d="M196.9,248.07l-.19,1.07s-6.25,4.39-8.69,3.61,1.21,2.39,1.21,2.39l1.46,1.22.16,4.4s-.39,5.56-1.66,5.66-7.91-5.08-7.91-5.08l3.22-4.88.2-7.51,24-28.41L227.9,234.4s2.75,11.51-.67,12.19-7.67-4.86-7.67-4.86l-8.8-8.6-2,1.66-4.2,1.57-4.78,1-.1,1,8.89,6.34,2.37,2,.91.66s1,12.13-1.8,11.44"/><path class="cls-26" d="M173,268.45s5.47,3.6,7.63,3.44a18.24,18.24,0,0,0,5.17-1.58s2.74-2.63,2.85-3.16a3.07,3.07,0,0,0,0-1L182.33,262a17.54,17.54,0,0,1-2.32-1.89c0-.27-1.9-2.9-1.9-2.9"/><path class="cls-28" d="M105.28,229.15l3.57-6.25,2.56-2.55,2.68-1.15,2.55-.53,1.91.27,1.53.39,1.41,1.15-13.91,24.76-2-1.28-2.17-2.3L102.09,239s.13-4.21.25-4.59S105.28,229.15,105.28,229.15Z"/><polyline class="cls-29" points="146.43 233.39 150 238.39 146.55 239.11"/><path class="cls-30" d="M122.15,238.39l3.56-6.19.9-3.42-.36-2.8-.82-2.37-1.19-1.42-1.09-1.06-1.69-.55-14.19,24.29,2.12,1,3,.59,2.93-.35s3.53-2.3,3.79-2.6S122.15,238.39,122.15,238.39Z"/><polygon class="cls-24" points="135.76 220.38 180.09 248.72 174.59 255.68 157.05 244.57 143.24 235.43 132.55 227.34 129.95 220.38 135.76 220.38"/><path class="cls-28" d="M140.2,248.16l3.7-6.43,2.65-2.62,2.78-1.18,2.65-.54,2,.28,1.58.4,1.46,1.17-14.42,25.43-2.12-1.31L138.22,261l-1.33-2.75s.14-4.33.27-4.72S140.2,248.16,140.2,248.16Z"/><path class="cls-30" d="M157.69,257.81l3.68-6.41.94-3.54-.37-2.9-.86-2.45L159.85,241l-1.13-1.09-1.75-.57-14.7,25.15,2.19,1.05,3.15.6,3-.36s3.66-2.38,3.93-2.69S157.69,257.81,157.69,257.81Z"/><path class="cls-28" d="M122.28,237.91l4.38-8,3.08-3.25,3.19-1.43,3-.62,2.25.39,1.81.53,1.63,1.51-17,31.72-2.38-1.7-2.51-3-1.45-3.49s.25-5.44.41-5.93S122.28,237.91,122.28,237.91Z"/><path class="cls-30" d="M142,250.41l4.35-8,1.15-4.43-.36-3.65-.92-3.11-1.37-1.88L143.6,228l-2-.76-17.36,31.34,2.47,1.36,3.59.83,3.47-.39s4.24-2.92,4.55-3.31S142,250.41,142,250.41Z"/><path class="cls-24" d="M102.34,234.39c.13-.39,2.94-5.24,2.94-5.24l3.57-6.25"/><polyline class="cls-31" points="161.16 251.77 163.05 250.46 163.91 250.09 162.99 248.84 161.42 248.88"/><polygon class="cls-32" points="161.18 243.35 166.35 250.39 163.89 250.56 163.18 249.56 162.43 249.23 161.13 249.23 161.18 243.35"/><path class="cls-28" d="M156.28,258.55l3.77-5.77,2.69-2.35,2.83-1.06,2.7-.49,2,.25,1.61.35,1.48,1.06L158.7,273.4l-2.15-1.18-2.29-2.12-1.34-2.48s.13-3.88.27-4.24S156.28,258.55,156.28,258.55Z"/><path class="cls-24" d="M182.45,262.06s4.18-9.14,3.52-10.47a9,9,0,0,1-.75-1.73l.71,1.41,1.16-.12,4.42-1.92,2.66-2.6,2-2.66,1.15-2.78.61-4.71,2.05-.12,3.69-1.57,2.36-1.64,3-3.08,1-2,.84-3.87.31-3.87.78.12,3.33-1.09,3-1.69,2.72-2.9,1.63-2.72,1-2.66.24-3.09-.36-1.45-13.32-1.72-33.62,50.67Z"/><path class="cls-30" d="M174.08,267.22l3.74-5.75,1-3.19-.38-2.6-.87-2.21-1.26-1.32-1.15-1-1.77-.52-15,22.61,2.22.94,3.21.54,3.09-.32s3.73-2.14,4-2.42S174.08,267.22,174.08,267.22Z"/><polygon class="cls-30" points="245.46 196.94 255.59 218.76 240.85 226.52 221.17 204.59 243.1 193.46 245.46 196.94"/><polygon class="cls-27" points="221.07 218.81 243.2 234.46 244.8 231.91 245.34 227.76 244.94 223.21 242.53 220.26 220.14 201.28 218.83 208.21 211.18 222.15 221.07 218.81"/><polygon class="cls-26" points="221.82 216.78 231.31 225.15 243.31 234.45 241.88 236.5 239.19 238.17 235.43 238.92 231.85 237.8 224.68 231.85 211.18 222.15 217.7 219.76 221.82 216.78"/><polygon class="cls-33" points="145.14 217.04 148.04 217.04 150.52 216.35 153.55 214.63 155.48 213.18 157 209.81 157.06 205.4 157.34 185.82 170.37 180.31 181.6 177.49 189.11 182.24 197.59 187.69 202.82 190.51 217.37 199.33 217.09 191.96 179.67 170.94 152.86 177.63 139.39 212.01 139.49 212.82 140.37 214.23 141.29 215.01 142.77 216.13 145.14 217.04"/><path class="cls-28" d="M226.84,157l-22.41,10.42-14.9-11.87s-5-.61-7.51-.12-12,1.81-14.29,2.42-21.56,4.84-21.56,4.84l-4.12,1L138.18,165s-6.42,6.91-5.7,10.42,1.7,10.66,1.7,10.66l4.6,25.68,1,1.21a8.59,8.59,0,0,0,4.24,1.82,23.5,23.5,0,0,0,6.06-1.09s2.66-1.46,3.27-2.79a32.75,32.75,0,0,0,2.06-4.6l.36-1.45-.36-19.26-.85-5.45,2.66,2.3,7.51-1.94,8-2.3,5.81-5.45,1.58-.12,1.45,2.05,3.39,2.55,5.33,2.78L201.4,186l22.66,19.14,20.22-9.81Z"/><polygon class="cls-34" points="68.42 126.19 56.12 161.09 47.59 157.31 65.97 125.43 68.42 126.19"/><polygon class="cls-35" points="33.78 189.65 50.93 157.94 55.8 160.31 40.82 198.09 31.48 193.49 33.78 189.65"/><polygon class="cls-34" points="-0.99 177.74 33.2 194.56 53.85 154.16 -1.53 129.48 -0.99 177.74"/><polygon class="cls-36" points="-1.07 89.57 66.92 125.74 51.41 158.37 -1.49 130.16 -1.07 89.57"/><path class="cls-37" d="M41,191.48,57.16,153l38.1,13.66L80.77,215.57a15.52,15.52,0,0,1-.72,2.1c-.21.3-2.82,1.86-4.51,1.31s-30.39-14.16-30.39-14.16l-5.08-2.47a3.33,3.33,0,0,1-1.56-3.52A38.87,38.87,0,0,1,41,191.48Z"/><path class="cls-38" d="M55.78,155.7l13.38-31.89s.28-1.7,4.41-2.27,27.62,12.67,27.62,12.67,1.28-.15,1.85,1.56a11.56,11.56,0,0,1,.29,4.13L92.65,175.21Z"/><polygon class="cls-39" points="231.22 152.84 252.05 139.92 272.12 129.28 325.79 101.3 349.97 88.83 350.73 177.78 344.49 179.91 300.55 202.41 289.76 208.19 271.06 215.49 261.93 219.44 231.22 152.84"/><polygon class="cls-40" points="245.1 183.41 352.06 129.39 350.48 177.11 343.95 180.48 289.34 208.73 261.3 219.48 245.1 183.41"/><polygon class="cls-41" points="242.5 191.46 256.43 221.45 263.44 218.5 246.72 184.17 240 187.22 242.5 191.46"/><polygon class="cls-40" points="225 155.05 240.66 187.24 247.39 184.17 230.68 151.63 225 155.05"/><path class="cls-3" d="M128.79,287.41l-3.92,4.75-10.94-8.47a33.81,33.81,0,0,1-8.41,3.72,36.34,36.34,0,0,1-10.17,1.34,34.54,34.54,0,0,1-15.06-3.1,30.75,30.75,0,0,1-10.84-8.41A36.16,36.16,0,0,1,63,264.86a53.28,53.28,0,0,1-.05-29.93,37.53,37.53,0,0,1,6.34-12.48,31.15,31.15,0,0,1,10.69-8.67A33.11,33.11,0,0,1,95,210.53a38.2,38.2,0,0,1,14.3,2.58,30.08,30.08,0,0,1,11,7.53,34.29,34.29,0,0,1,7.12,12.28A51.68,51.68,0,0,1,130,249.74a49.22,49.22,0,0,1-2.79,16.82,34.68,34.68,0,0,1-8.36,13.21Zm-15.07-11.66a27.27,27.27,0,0,0,7-11.41,46.26,46.26,0,0,0,2.27-14.6,45.09,45.09,0,0,0-2.12-14.55,29.93,29.93,0,0,0-5.83-10.37,23.32,23.32,0,0,0-8.77-6.24,28.86,28.86,0,0,0-11-2.07,25.74,25.74,0,0,0-12.33,2.79,24.93,24.93,0,0,0-8.57,7.43,32.27,32.27,0,0,0-4.95,10.63,47.6,47.6,0,0,0-1.6,12.38,48.43,48.43,0,0,0,1.6,12.59,31.06,31.06,0,0,0,4.95,10.52,24.29,24.29,0,0,0,8.57,7.23,27.07,27.07,0,0,0,12.54,2.68,27.18,27.18,0,0,0,7.12-.87,25.24,25.24,0,0,0,5.88-2.43L100,273l3.71-4.85Z"/><path class="cls-3" d="M138.84,212.49h7v44.27q0,13.83,5.16,19.91t16.61,6.09a28.49,28.49,0,0,0,10.17-1.6,15.37,15.37,0,0,0,6.75-4.85,20.08,20.08,0,0,0,3.72-8.1,50.56,50.56,0,0,0,1.13-11.45V212.49h7v46.33q0,14.55-7.17,22.24t-21.62,7.69q-14.55,0-21.67-7.85t-7.12-22.08Z"/><rect class="cls-42" x="190.73" y="235.08" width="53.7" height="4.97" transform="translate(454.85 19.66) rotate(89.92)"/><rect class="cls-43" x="186.92" y="236.27" width="53.8" height="2.58" transform="translate(451.09 23.42) rotate(89.92)"/><rect class="cls-44" x="177.19" y="245.62" width="78.06" height="7.85" transform="translate(465.47 32.98) rotate(89.92)"/><line class="cls-45" x1="219.91" y1="261.72" x2="212.12" y2="261.73"/><line class="cls-45" x1="219.91" y1="264.67" x2="212.13" y2="264.68"/><rect class="cls-46" x="202.25" y="275.31" width="23.52" height="2.83" transform="translate(490.45 62.34) rotate(89.92)"/><rect class="cls-47" x="205.79" y="274.25" width="23.52" height="4.93" transform="translate(493.97 58.8) rotate(89.92)"/><path class="cls-3" d="M229.49,212.49h54.07v6H260v68.32h-7V218.47H229.49Z"/><path class="cls-48" d="M214,206.4c-.72-.48,1.9-7.3,7.07-13.59,3.33-4,9.46-11.49,19-13.73,2.53-.6,5.34-.84,9.23-2.8,2.81-1.41,5.74-2.94,6.84-6.12.88-2.55.73-6.56-1.84-8.2-2.12-1.35-4.72-.36-5.14-.19a6.31,6.31,0,0,0-4,5.12c-.14,2.65,2.18,4.48,1.77,4.9s-3-.76-4.49-2.91c-2.69-3.85-1.92-10.82,2.28-15,4.6-4.58,11-3.48,11.46-3.4a14,14,0,0,1,8.25,5.25,16.34,16.34,0,0,1,3.67,9.62,15.82,15.82,0,0,1-2.64,9.41c-2.25,3.25-5.32,4.77-8.93,6.56-3.83,1.88-6.35,2.32-6.27,2.75s4.6.49,9-.62c3.22-.8,6.53-1.63,9.68-4.49a18.25,18.25,0,0,0,5.52-10.1,19,19,0,0,0-.92-10.12,19.47,19.47,0,0,0-3.06-5.54c-2.88-3.65-6.06-4.89-5.87-5.25s4.06.53,7.5,3.2A20.28,20.28,0,0,1,278,159,21.49,21.49,0,0,1,280.37,170c-.55,7.6-5.52,12.47-7,13.91a26,26,0,0,1-12.92,6.39c-1.6.34-6.84.45-17.26.64-4.45.08-6.74.11-9.85,1.14a29.08,29.08,0,0,0-8,4.46C217.77,201.94,214.68,206.84,214,206.4Z"/><polygon class="cls-1" points="257.66 209.33 256.18 206.14 257.56 209.18 257.66 209.33"/><path class="cls-1" d="M77,148.89l0,.33H77l0-.23,6,2.95-6.18-5.83L68.6,173.32h0l-1,3.33.06.2,8.42-28.14Z"/><path class="cls-1" d="M290.11,127.53l3.08-1.63,11.08-5.78c-.4-2.17-.84-4.33-1.35-6.47-1.56,1.85-3.2,3.7-4.93,5.53Z"/><polygon class="cls-1" points="215.28 257.77 215.2 257.83 216.49 258.95 215.28 257.77"/><path class="cls-2" d="M94.24,130.23l22.1-89.46A122.49,122.49,0,0,0,82.5,75L94,130.23Z"/><path class="cls-2" d="M150.59,130.23h.27l21.74-93.6h1.92l71-.21a121.93,121.93,0,0,0-122.57.21h5Z"/><path class="cls-2" d="M156.13,144.63H145.74l-23.12-95.4h-.28l-23.11,95.4H88.84l-13.59-57a121.23,121.23,0,0,0-11.57,37.79c6.82,3.54,12.47,6.73,12.47,6.73s1.63-.18,2.35,2a14.47,14.47,0,0,1,.36,5.25l-2,6.72L83,151.94l35.74,17.55,23-9.14,11.86-4.19s11.61.24,13.83,3c.17.2.68.73,1.47,1.54,4-.64,8.19-1.27,9.91-1.6,3.23-.61,9.54.15,9.54.15l18.91,15.08,27.52-12.79-1.4-2.88,7.21-4.34.77,1.49,26.37-16.36,22.4-11.88,7.88-8.35c1.73-1.83,3.37-3.68,4.93-5.53A122,122,0,0,0,258.26,45h-78Zm103-8v7.69H165.76L164,151.13l-7.25-1.9,2.41-9.22v-3.39H160l20.2-77.41,7.25,1.89-7.67,29.37h63.94v7.69H177.81l-10,38.46Z"/><path class="cls-3" d="M99.23,144.63l23.11-95.4h.28l23.12,95.4h10.39L180.27,45h-5.75V36.63H172.6l-21.74,93.6h-.27l-22.71-93.6h-5c-2.24,1.31-4.44,2.69-6.58,4.14l-22.1,89.46H94L82.5,75a122.78,122.78,0,0,0-7.25,12.62l13.59,57Z"/><path class="cls-3" d="M174.52,36.63V45h83.74a121.33,121.33,0,0,0-12.77-8.54Z"/><polygon class="cls-3" points="259.13 144.31 259.13 136.62 167.77 136.62 165.76 144.31 259.13 144.31"/><polygon class="cls-3" points="159.14 136.62 159.14 140.01 160.03 136.62 159.14 136.62"/><polygon class="cls-3" points="243.75 98.16 243.75 90.47 179.81 90.47 177.81 98.16 243.75 98.16"/><polygon class="cls-2" points="179.81 90.47 187.48 61.1 180.23 59.21 160.03 136.62 159.14 140.01 156.73 149.23 163.98 151.13 165.76 144.31 167.77 136.62 177.81 98.16 179.81 90.47"/><path class="cls-24" d="M227.08,252.18l3.35,2.42.24-.1-3.59-2.59Z"/><path class="cls-24" d="M77,149.22h.24l2.16,10.45L102,174.93l17.2,29.24L118,198s-1.23-9.07-2.15-13.53,7.23-13.23,7.23-13.23l4.92-1.69,5.23-1.23s24.45-5.38,27.37-6.15c1.37-.36,4.73-.93,8.24-1.48-.79-.81-1.3-1.34-1.47-1.54-2.22-2.72-13.83-3-13.83-3l-11.86,4.19-23,9.14L83,151.94,77,149Z"/><polygon class="cls-24" points="217.03 241.59 216.78 241.68 215.78 241.52 215.6 243.89 217.5 245.26 217.5 245.03 215.81 243.81 217.03 241.59"/><path class="cls-24" d="M222.9,220.76l3.55.46.61-3.26-.73-.61C225,218.63,223.83,219.78,222.9,220.76Z"/><path class="cls-24" d="M188.16,231.55h8.91v14.56l17.53-26.42,5.47.7a42.52,42.52,0,0,1,2.88-5.9l-.32-.27L205.2,203.65l-6.65-3.59-10.76-6.91-9.54-6L164,190.7l-16.54,7-.35,24.85-.09,5.6-1.92,4.29-2.45,1.83-3.85,2.19-.55.15,13.23,22.5a122.09,122.09,0,0,0,27.59,4.39q3.23.13,6.4.11l2.7-4.07Z"/><polygon class="cls-24" points="77.03 149.22 76.93 149.22 75.8 157.21 79.42 159.67 77.27 149.22 77.03 149.22"/><path class="cls-24" d="M124,244.07V231.55h.71l-.78-1-4.74-26.41L102,174.93,79.43,159.67l-3.63-2.46-4.31,30.42a122.29,122.29,0,0,0,43,53.94h5.57Z"/><path class="cls-24" d="M135.64,237.34h-2.77v12.43l10.68,6.83q3.9,1.38,7.92,2.51l-13.23-22.5Z"/><path class="cls-25" d="M75.8,157.21l1.13-8,0-.33-.86-.17L67.7,176.86c1.1,3.66,2.37,7.26,3.79,10.77Z"/><path class="cls-26" d="M215.2,257.83l-2.52,2.05-3,1.11c2.39-.51,4.76-1.1,7.1-1.74l-.3-.3Z"/><path class="cls-27" d="M227.08,255.91c1.13-.42,2.24-.86,3.35-1.31l-3.35-2.42Z"/><path class="cls-27" d="M217.5,245.26l-1.9-1.37-.2,2.54-1.08,4.92-1.3,2.53-3.76,3.91-3,2.08-4.68,2L199,262l-.09.75q5.48-.64,10.81-1.77l3-1.11,2.52-2.05.08-.06,1.21,1.18.3.3.73-.2Z"/><path class="cls-24" d="M132.87,249.77v2.44c3.47,1.62,7,3.09,10.68,4.39Z"/><path class="cls-24" d="M124,244.07l-3.91-2.5h-5.57q4.59,3.23,9.48,6Z"/><path class="cls-24" d="M185.46,263.61c.9,0,1.8,0,2.7-.05v-4Z"/><path class="cls-24" d="M201.58,261.86l4.68-2,3-2.08,3.76-3.91,1.3-2.53,1.08-4.92.2-2.54.18-2.37,1,.15.25-.08.46-.83V229.23h3.27v.07h3l1.75-3.19.92-4.89-3.55-.46c-2,2.09-3.09,3.32-3.47,3.06s-.1-1.51.64-3.43l-5.47-.7-17.53,26.42V263l1.81-.2L199,262Z"/><path class="cls-30" d="M255.09,241c.85-.6,1.68-1.21,2.51-1.84h-4.67Z"/><path class="cls-30" d="M257.56,209.18l.28.63L232.71,222,244,231.55h22.76l.87-.81-9.94-21.41Z"/><polygon class="cls-27" points="215.81 243.81 217.49 243.2 217.49 240.76 217.03 241.59 215.81 243.81"/><path class="cls-27" d="M239.06,239.15v-7.6H244L232.71,222l-.55.26-5.1-4.31-.61,3.26-.92,4.89-1.75,3.19h3.27v9.34l2.26-1.63,12.05,10.63,1.41,1.09A122.24,122.24,0,0,0,255.09,241l-2.16-1.84Z"/><polygon class="cls-26" points="217.5 245.03 217.49 243.2 215.81 243.81 217.5 245.03"/><path class="cls-26" d="M229.32,237l-2.26,1.63,0,13.28,3.59,2.59a122.22,122.22,0,0,0,12.11-5.78l-1.41-1.09Z"/><path class="cls-33" d="M203.4,198l-14.15-7.69-6.77-3.54-4.3-3.23-1.85-2.61-2,.15L167,188,156.8,190.9l-9.54,2.46-3.38-2.92,1.08,6.92.46,24.45-.46,1.85a40.81,40.81,0,0,1-2.62,5.84c-.77,1.69-4.15,3.54-4.15,3.54a40.73,40.73,0,0,1-5.32,1.23v3.07h2.77l2.6-.73.55-.15,3.85-2.19,2.45-1.83,1.92-4.29.09-5.6.35-24.85,16.54-7,14.26-3.59,9.54,6,10.76,6.91,6.65,3.59,17.43,10.57Z"/><path class="cls-28" d="M233.71,211.26a75.46,75.46,0,0,0-7.38,6.09l.73.61,5.1,4.31.55-.26,25.13-12.2-.28-.63-1.38-3-.6-1.29-.4-.67c-4.84.09-7.63.21-11.27,1.42C242.38,206.1,239.18,207.3,233.71,211.26Z"/><path class="cls-28" d="M133.27,168.29,128,169.52l-4.92,1.69S115,180,115.89,184.44,118,198,118,198l1.11,6.2,4.74,26.41.78,1h8.2v2.72a40.73,40.73,0,0,0,5.32-1.23s3.38-1.85,4.15-3.54a40.81,40.81,0,0,0,2.62-5.84l.46-1.85L145,197.36l-1.08-6.92,3.38,2.92,9.54-2.46L167,188l7.38-6.92,2-.15,1.85,2.61,4.3,3.23,6.77,3.54L203.4,198l19.23,16.25.32.27a57.38,57.38,0,0,1,5.46-7.92c3.77-4.59,10.39-12.61,20.34-16.3l-14-28.77-27.52,12.79-18.91-15.08s-6.31-.76-9.54-.15c-1.72.33-5.91,1-9.91,1.6-3.51.55-6.87,1.12-8.24,1.48C157.72,162.91,133.27,168.29,133.27,168.29Z"/><path class="cls-37" d="M68.6,173.32l-1,3.26,0,.08,1-3.33Z"/><path class="cls-38" d="M76.83,146.11l2-6.72a14.47,14.47,0,0,0-.36-5.25c-.72-2.16-2.35-2-2.35-2S70.5,129,63.68,125.43c-.48,3.64-.82,7.32-1,11.06a121.58,121.58,0,0,0,4.93,40.09l1-3.26Z"/><path class="cls-39" d="M290.11,127.53l-22.4,11.88-26.37,16.36L257.86,188a30.57,30.57,0,0,0,6.33-2.38c3.56-1.79,7.28-3.74,8.68-7.78,1.12-3.23.93-8.32-2.34-10.4-2.68-1.72-6-.46-6.53-.25a8,8,0,0,0-5.06,6.5c-.19,3.37,2.76,5.7,2.23,6.23s-3.78-1-5.7-3.7c-3.41-4.88-2.43-13.73,2.9-19,5.84-5.81,14-4.42,14.56-4.32a17.81,17.81,0,0,1,10.47,6.68,20.49,20.49,0,0,1,2.94,21.25l9.87-5A24.29,24.29,0,0,0,295,163.33a25.32,25.32,0,0,0-3.88-7c-3.67-4.62-7.7-6.2-7.45-6.66s5.14.68,9.51,4.07a25.57,25.57,0,0,1,7.53,10,34,34,0,0,1,2.25,6.12,122.3,122.3,0,0,0,1.33-49.67l-11.08,5.78Z"/><path class="cls-40" d="M273.37,192c-4.86,2.4-8.07,2.95-8,3.5.14.72,5.84.62,11.44-.79,4.08-1,8.28-2.08,12.29-5.71a23.17,23.17,0,0,0,7-12.82c0-.14,0-.26.06-.4l-9.87,5a19,19,0,0,1-1.63,2.91C281.85,187.8,278,189.73,273.37,192Z"/><path class="cls-40" d="M265,204l9.57,19.65a122.23,122.23,0,0,0,18.62-27.08,33.65,33.65,0,0,1-14.89,6.78C276.8,203.66,272.64,203.82,265,204Z"/><path class="cls-41" d="M256.42,204.16l-1.24,0,.4.67.6,1.29,1.48,3.19,9.94,21.41q3.64-3.41,7-7.1L265,204Z"/><path class="cls-40" d="M248.75,190.27a30.8,30.8,0,0,1,3.71-1.14c1.66-.39,3.42-.67,5.4-1.17l-16.52-32.19-.77-1.49-7.21,4.34,1.4,2.88Z"/><path class="cls-3" d="M132.87,237.34v-5.79H124v16q4.35,2.47,8.91,4.61V237.34Z"/><path class="cls-3" d="M197.07,246.11V231.55h-8.91v32q4.5-.13,8.91-.6Z"/><path class="cls-42" d="M227.08,252.18v-.27l0-13.28v-9.34h-6.3l0,28.77q3.18-1,6.29-2.16Z"/><path class="cls-43" d="M220.75,229.3v-.07h-3.27v16l0,13.79c1.09-.31,2.19-.64,3.27-1Z"/><path class="cls-3" d="M239.06,231.55v7.6H257.6q4.74-3.57,9.13-7.6H239.06Z"/><polygon class="cls-1" points="253.07 199.16 251.98 196.91 253.02 199.19 253.07 199.16"/><polygon class="cls-48" points="253.07 199.16 251.98 196.91 253.02 199.19 253.07 199.16"/><path class="cls-24" d="M226.33,217.35,223,214.49a42.52,42.52,0,0,0-2.88,5.9c-.74,1.92-1,3.21-.64,3.43s1.46-1,3.47-3.06C223.83,219.78,225,218.63,226.33,217.35Z"/><path class="cls-48" d="M226.33,217.35,223,214.49a42.52,42.52,0,0,0-2.88,5.9c-.74,1.92-1,3.21-.64,3.43s1.46-1,3.47-3.06C223.83,219.78,225,218.63,226.33,217.35Z"/><path class="cls-28" d="M228.41,206.57a57.38,57.38,0,0,0-5.46,7.92l3.38,2.86a75.46,75.46,0,0,1,7.38-6.09c5.47-4,8.67-5.16,10.2-5.66,3.64-1.21,6.43-1.33,11.27-1.42l-2.78-4.72.62-.27-1-2.27-3.23-6.65C238.8,194,232.18,202,228.41,206.57Z"/><path class="cls-48" d="M228.41,206.57a57.38,57.38,0,0,0-5.46,7.92l3.38,2.86a75.46,75.46,0,0,1,7.38-6.09c5.47-4,8.67-5.16,10.2-5.66,3.64-1.21,6.43-1.33,11.27-1.42l-2.78-4.72.62-.27-1-2.27-3.23-6.65C238.8,194,232.18,202,228.41,206.57Z"/><path class="cls-39" d="M286.34,180.77a20.49,20.49,0,0,0-2.94-21.25,17.81,17.81,0,0,0-10.47-6.68c-.55-.1-8.72-1.49-14.56,4.32-5.33,5.29-6.31,14.14-2.9,19,1.92,2.73,5.2,4.19,5.7,3.7s-2.42-2.86-2.23-6.23a8,8,0,0,1,5.06-6.5c.54-.21,3.85-1.47,6.53.25,3.27,2.08,3.46,7.17,2.34,10.4-1.4,4-5.12,6-8.68,7.78a30.57,30.57,0,0,1-6.33,2.38l2.93,5.71Z"/><path class="cls-48" d="M286.34,180.77a20.49,20.49,0,0,0-2.94-21.25,17.81,17.81,0,0,0-10.47-6.68c-.55-.1-8.72-1.49-14.56,4.32-5.33,5.29-6.31,14.14-2.9,19,1.92,2.73,5.2,4.19,5.7,3.7s-2.42-2.86-2.23-6.23a8,8,0,0,1,5.06-6.5c.54-.21,3.85-1.47,6.53.25,3.27,2.08,3.46,7.17,2.34,10.4-1.4,4-5.12,6-8.68,7.78a30.57,30.57,0,0,1-6.33,2.38l2.93,5.71Z"/><path class="cls-39" d="M293.16,153.7c-4.37-3.39-9.26-4.56-9.51-4.07s3.78,2,7.45,6.66a25.32,25.32,0,0,1,3.88,7,24.29,24.29,0,0,1,1.23,12.45l6-3c.26-1,.5-2,.73-3a34,34,0,0,0-2.25-6.12A25.57,25.57,0,0,0,293.16,153.7Z"/><path class="cls-48" d="M293.16,153.7c-4.37-3.39-9.26-4.56-9.51-4.07s3.78,2,7.45,6.66a25.32,25.32,0,0,1,3.88,7,24.29,24.29,0,0,1,1.23,12.45l6-3c.26-1,.5-2,.73-3a34,34,0,0,0-2.25-6.12A25.57,25.57,0,0,0,293.16,153.7Z"/><path class="cls-40" d="M296.15,176.18a23.17,23.17,0,0,1-7,12.82c-4,3.63-8.21,4.69-12.29,5.71-5.6,1.41-11.3,1.51-11.44.79-.11-.55,3.1-1.1,8-3.5,4.58-2.27,8.48-4.2,11.34-8.32a19,19,0,0,0,1.63-2.91l-25.55,12.9L257.86,188c-2,.5-3.74.78-5.4,1.17a30.8,30.8,0,0,0-3.71,1.14l3.23,6.65,1.1,2.24.16.34,7.86-3.59L265,204c7.61-.17,11.77-.33,13.3-.65a33.65,33.65,0,0,0,14.89-6.78,121.19,121.19,0,0,0,9-23.81l-6,3C296.18,175.92,296.18,176,296.15,176.18Z"/><path class="cls-48" d="M296.15,176.18a23.17,23.17,0,0,1-7,12.82c-4,3.63-8.21,4.69-12.29,5.71-5.6,1.41-11.3,1.51-11.44.79-.11-.55,3.1-1.1,8-3.5,4.58-2.27,8.48-4.2,11.34-8.32a19,19,0,0,0,1.63-2.91l-25.55,12.9L257.86,188c-2,.5-3.74.78-5.4,1.17a30.8,30.8,0,0,0-3.71,1.14l3.23,6.65,1.1,2.24.16.34,7.86-3.59L265,204c7.61-.17,11.77-.33,13.3-.65a33.65,33.65,0,0,0,14.89-6.78,121.19,121.19,0,0,0,9-23.81l-6,3C296.18,175.92,296.18,176,296.15,176.18Z"/><path class="cls-41" d="M252.4,199.46l2.78,4.72,1.24,0L265,204l-3.93-8.08-7.86,3.59-.16-.34-.06,0Z"/><path class="cls-48" d="M252.4,199.46l2.78,4.72,1.24,0L265,204l-3.93-8.08-7.86,3.59-.16-.34-.06,0Z"/><rect x="240.58" y="232.12" width="57.29" height="15.13" transform="translate(264.06 -120.74) rotate(47.5)"/><path class="cls-49" d="M188.52,25.18A116.74,116.74,0,1,0,300.06,146.9,116.73,116.73,0,0,0,188.52,25.18ZM179,243.32a101.61,101.61,0,1,1,106-97.08A101.61,101.61,0,0,1,179,243.32Z"/><path class="cls-50" d="M188.9,16.54A125.38,125.38,0,1,0,308.69,147.28,125.38,125.38,0,0,0,188.9,16.54ZM179,243.32a101.61,101.61,0,1,1,106-97.08A101.61,101.61,0,0,1,179,243.32Z"/><path class="cls-49" d="M188.52,25.18A116.74,116.74,0,1,0,300.06,146.9,116.73,116.73,0,0,0,188.52,25.18ZM179,243.32a101.61,101.61,0,1,1,106-97.08A101.61,101.61,0,0,1,179,243.32Z"/><path class="cls-51" d="M187.86,40.3a101.61,101.61,0,1,0,97.08,105.94A101.6,101.6,0,0,0,187.86,40.3Zm-8.62,197.35a95.93,95.93,0,1,1,100-91.66A95.93,95.93,0,0,1,179.24,237.65Z"/><path class="cls-52" d="M187.61,46a95.93,95.93,0,1,0,91.66,100A95.92,95.92,0,0,0,187.61,46Zm16.95,68.19c-7.85,5.75-15.7,11.49-23.66,17.07-6.92,4.85-13.66,9.71-21.53,12.92-15.65,6.37-32.42,6.55-48.59,10.51-5.4,1.32-11.09,3.19-15.84,6.31A90.52,90.52,0,0,1,250.72,81.28C235,91.79,219.8,103,204.56,114.16Z"/><path class="cls-53" d="M110.78,154.66c16.17-4,32.94-4.14,48.59-10.51,7.87-3.21,14.61-8.07,21.53-12.92,8-5.58,15.81-11.32,23.66-17.07C219.8,103,235,91.79,250.72,81.28A90.53,90.53,0,0,0,94.94,161C99.69,157.85,105.38,156,110.78,154.66Z"/><rect class="cls-54" x="250.48" y="292.31" width="176.56" height="41.08" rx="7.86" transform="translate(335.63 -148.26) rotate(46.89)"/><rect class="cls-55" x="257.92" y="298.78" width="162.38" height="28.89" rx="7.86" transform="translate(336.02 -148.4) rotate(46.89)"/></svg>