<svg id="Layer_1" data-name="Layer 1" xmlns="http://www.w3.org/2000/svg" viewBox="0 0 1574.2 1274.57"><defs><style>.cls-1{fill:#cce4ff;}.cls-2{fill:#db603b;}.cls-3{fill:#f7f7f7;}.cls-4{fill:#ff9c3e;}.cls-5{opacity:0.07;}.cls-6{fill:#ffc368;}.cls-7{fill:#d0ab18;}.cls-8{fill:#dfb925;}.cls-9{fill:#fadf3d;}.cls-10{fill:#f9cf28;}.cls-11{font-size:342.41px;font-family:Arial-Black, Arial Black;font-weight:800;}.cls-12{fill:#f2f5f8;}.cls-13{fill:#bec2c7;}.cls-14{fill:#dc813b;}.cls-15{fill:#c75a24;}.cls-16{fill:#322727;}.cls-17{fill:#cbccce;}.cls-18{fill:#bb192a;}.cls-19{fill:#b41728;}.cls-20{fill:#d71827;}.cls-21{fill:#efeff1;}.cls-22{fill:#d9eaeb;}</style></defs><rect class="cls-1" width="1574.2" height="1274.57" rx="81.08"/><rect class="cls-2" x="57.28" y="583.01" width="51.81" height="118.8"/><rect class="cls-3" x="98.4" y="565.64" width="1061.31" height="153.53"/><rect class="cls-4" x="1155.8" y="565.64" width="361.11" height="153.53"/><rect class="cls-5" x="96.53" y="642.38" width="1420.39" height="76.8"/><rect class="cls-4" x="1124.77" y="565.64" width="19.13" height="153.53"/><circle class="cls-6" cx="1211.05" cy="643.02" r="10.99"/><circle class="cls-6" cx="1176.31" cy="680.83" r="10.99"/><circle class="cls-6" cx="1247.85" cy="695.65" r="10.99"/><circle class="cls-6" cx="1336.76" cy="671.64" r="10.99"/><circle class="cls-6" cx="1382.23" cy="695.3" r="10.99"/><circle class="cls-6" cx="1496.83" cy="699.47" r="10.99"/><circle class="cls-6" cx="1462.5" cy="646.58" r="10.99"/><circle class="cls-6" cx="1415.18" cy="607.14" r="10.99"/><circle class="cls-6" cx="1483.38" cy="588.58" r="10.99"/><circle class="cls-6" cx="1304.75" cy="629.41" r="10.99"/><circle class="cls-6" cx="1252.79" cy="594.62" r="10.99"/><circle class="cls-6" cx="1182.26" cy="598.79" r="10.99"/><rect class="cls-7" x="99.56" y="448.69" width="400.03" height="113.07" rx="27.69"/><path class="cls-8" d="M127.25,448.69H293.08a0,0,0,0,1,0,0v89.58a0,0,0,0,1,0,0H127.25a27.69,27.69,0,0,1-27.69-27.69V476.38A27.69,27.69,0,0,1,127.25,448.69Z"/><rect class="cls-8" x="135.13" y="338.15" width="400.03" height="113.07" rx="27.69"/><path class="cls-9" d="M162.82,338.15H328.66a0,0,0,0,1,0,0v89.58a0,0,0,0,1,0,0H162.82A27.69,27.69,0,0,1,135.13,400V365.84A27.69,27.69,0,0,1,162.82,338.15Z"/><rect class="cls-8" x="135.13" y="111.57" width="400.03" height="113.07" rx="27.69"/><path class="cls-9" d="M162.82,111.57H328.66a0,0,0,0,1,0,0v89.58a0,0,0,0,1,0,0H162.82a27.69,27.69,0,0,1-27.69-27.69V139.25A27.69,27.69,0,0,1,162.82,111.57Z"/><rect class="cls-7" x="102.76" y="222.55" width="400.03" height="113.07" rx="27.69"/><path class="cls-8" d="M130.45,222.55H296.29a0,0,0,0,1,0,0v89.58a0,0,0,0,1,0,0H130.45a27.69,27.69,0,0,1-27.69-27.69V250.23A27.69,27.69,0,0,1,130.45,222.55Z"/><rect class="cls-7" x="102.76" y="225.78" width="400.03" height="113.07" rx="27.69"/><path class="cls-8" d="M130.45,225.78H296.29a0,0,0,0,1,0,0v89.58a0,0,0,0,1,0,0H130.45a27.69,27.69,0,0,1-27.69-27.69V253.47A27.69,27.69,0,0,1,130.45,225.78Z"/><circle class="cls-10" cx="578.57" cy="369.27" r="200.42"/><path class="cls-8" d="M578.57,569.69c-110.69,0-200.42-89.74-200.42-200.42s89.73-200.42,200.42-200.42"/><circle class="cls-9" cx="578.57" cy="369.27" r="170.95"/><text class="cls-11" transform="translate(441.71 491.59)">€</text><rect class="cls-7" x="1124.81" y="448.69" width="400.03" height="113.07" rx="27.69" transform="translate(2649.65 1010.46) rotate(-180)"/><path class="cls-8" d="M1359,448.69h165.83a0,0,0,0,1,0,0v89.58a0,0,0,0,1,0,0H1359a27.69,27.69,0,0,1-27.69-27.69V476.38A27.69,27.69,0,0,1,1359,448.69Z" transform="translate(2856.15 986.97) rotate(-180)"/><rect class="cls-8" x="1089.23" y="338.15" width="400.03" height="113.07" rx="27.69" transform="translate(2578.49 789.37) rotate(-180)"/><path class="cls-9" d="M1323.42,338.15h165.83a0,0,0,0,1,0,0v89.58a0,0,0,0,1,0,0H1323.42A27.69,27.69,0,0,1,1295.73,400V365.84a27.69,27.69,0,0,1,27.69-27.69Z" transform="translate(2784.99 765.88) rotate(180)"/><rect class="cls-8" x="1089.23" y="111.57" width="400.03" height="113.07" rx="27.69" transform="translate(2578.49 336.2) rotate(-180)"/><path class="cls-9" d="M1323.42,111.57h165.83a0,0,0,0,1,0,0v89.58a0,0,0,0,1,0,0H1323.42a27.69,27.69,0,0,1-27.69-27.69V139.25A27.69,27.69,0,0,1,1323.42,111.57Z" transform="translate(2784.99 312.72) rotate(-180)"/><rect class="cls-7" x="1121.6" y="222.55" width="400.03" height="113.07" rx="27.69" transform="translate(2643.23 558.16) rotate(-180)"/><path class="cls-8" d="M1355.79,222.55h165.83a0,0,0,0,1,0,0v89.58a0,0,0,0,1,0,0H1355.79a27.69,27.69,0,0,1-27.69-27.69V250.23a27.69,27.69,0,0,1,27.69-27.69Z" transform="translate(2849.73 534.68) rotate(180)"/><rect class="cls-7" x="1121.6" y="225.78" width="400.03" height="113.07" rx="27.69" transform="translate(2643.23 564.63) rotate(-180)"/><path class="cls-8" d="M1355.79,225.78h165.83a0,0,0,0,1,0,0v89.58a0,0,0,0,1,0,0H1355.79a27.69,27.69,0,0,1-27.69-27.69V253.47a27.69,27.69,0,0,1,27.69-27.69Z" transform="translate(2849.73 541.15) rotate(180)"/><circle class="cls-10" cx="1045.83" cy="369.27" r="200.42"/><path class="cls-8" d="M1045.83,569.69c110.68,0,200.41-89.74,200.41-200.42s-89.73-200.42-200.41-200.42"/><circle class="cls-9" cx="1045.83" cy="369.27" r="170.95"/><text class="cls-11" transform="translate(900.05 491.59)">€</text><rect class="cls-12" x="566.39" y="829.43" width="203.63" height="18.84" transform="translate(-386.21 1034.77) rotate(-61.99)"/><rect class="cls-13" x="578.91" y="840.58" width="203.82" height="9.79" transform="translate(-385.37 1049.41) rotate(-61.99)"/><rect class="cls-14" x="693.53" y="698.41" width="89.1" height="18.98" transform="translate(-233.54 1027.01) rotate(-61.99)"/><rect class="cls-15" x="705.97" y="709.63" width="89.1" height="9.76" transform="translate(-232.79 1041.5) rotate(-61.99)"/><rect class="cls-16" x="702.64" y="756.41" width="28.56" height="2.48" transform="translate(992.61 1763.63) rotate(-151.91)"/><rect class="cls-16" x="706.54" y="749.11" width="28.56" height="2.48" transform="translate(1003.39 1751.72) rotate(-151.91)"/><rect class="cls-12" x="590.75" y="844.1" width="203.63" height="18.84" transform="translate(-386.24 1064.05) rotate(-61.99)"/><rect class="cls-13" x="603.26" y="855.25" width="203.82" height="9.79" transform="translate(-385.4 1078.69) rotate(-61.99)"/><rect class="cls-14" x="717.89" y="713.07" width="89.1" height="18.98" transform="translate(-233.57 1056.28) rotate(-61.99)"/><rect class="cls-15" x="730.32" y="724.29" width="89.1" height="9.76" transform="translate(-232.81 1070.77) rotate(-61.99)"/><rect class="cls-16" x="726.99" y="771.07" width="28.56" height="2.48" transform="translate(1031.55 1802.69) rotate(-151.91)"/><rect class="cls-16" x="730.89" y="763.77" width="28.56" height="2.48" transform="translate(1042.32 1790.79) rotate(-151.91)"/><rect class="cls-12" x="617.47" y="857.87" width="203.63" height="18.84" transform="translate(-384.22 1094.94) rotate(-61.99)"/><rect class="cls-13" x="629.99" y="869.02" width="203.82" height="9.79" transform="translate(-383.38 1109.59) rotate(-61.99)"/><rect class="cls-14" x="744.61" y="726.84" width="89.1" height="18.98" transform="translate(-231.56 1087.18) rotate(-61.99)"/><rect class="cls-15" x="757.05" y="738.07" width="89.1" height="9.76" transform="translate(-230.8 1101.67) rotate(-61.99)"/><rect class="cls-16" x="753.72" y="784.84" width="28.56" height="2.48" transform="translate(1075.36 1841.2) rotate(-151.91)"/><rect class="cls-16" x="757.62" y="777.54" width="28.56" height="2.48" transform="translate(1086.14 1829.3) rotate(-151.91)"/><rect class="cls-12" x="614.19" y="856.1" width="203.63" height="18.84" transform="matrix(0.47, -0.88, 0.88, 0.47, -384.4, 1091.1)"/><rect class="cls-13" x="626.7" y="867.25" width="203.82" height="9.79" transform="translate(-383.56 1105.75) rotate(-61.99)"/><rect class="cls-14" x="741.33" y="725.07" width="89.1" height="18.98" transform="translate(-231.74 1083.34) rotate(-61.99)"/><rect class="cls-15" x="753.76" y="736.3" width="89.1" height="9.76" transform="translate(-230.98 1097.83) rotate(-61.99)"/><rect class="cls-16" x="750.43" y="783.07" width="28.56" height="2.48" transform="translate(1070.02 1836.33) rotate(-151.91)"/><rect class="cls-16" x="754.33" y="775.77" width="28.56" height="2.48" transform="translate(1080.79 1824.42) rotate(-151.91)"/><rect class="cls-12" x="648.08" y="861.84" width="203.63" height="18.84" transform="translate(-371.5 1124.07) rotate(-61.99)"/><rect class="cls-13" x="660.6" y="872.99" width="203.82" height="9.79" transform="translate(-370.66 1138.72) rotate(-61.99)"/><rect class="cls-14" x="775.22" y="730.82" width="89.1" height="18.98" transform="translate(-218.83 1116.31) rotate(-61.99)"/><rect class="cls-15" x="787.66" y="742.04" width="89.1" height="9.76" transform="translate(-218.08 1130.8) rotate(-61.99)"/><rect class="cls-16" x="784.33" y="788.82" width="28.56" height="2.48" transform="translate(1131.11 1863.1) rotate(-151.91)"/><rect class="cls-16" x="788.23" y="781.52" width="28.56" height="2.48" transform="translate(1141.88 1851.19) rotate(-151.91)"/><rect class="cls-12" x="645.62" y="861.68" width="203.63" height="18.84" transform="translate(-372.66 1121.81) rotate(-61.99)"/><rect class="cls-13" x="658.13" y="872.83" width="203.82" height="9.79" transform="translate(-371.82 1136.46) rotate(-61.99)"/><rect class="cls-14" x="772.76" y="730.65" width="89.1" height="18.98" transform="translate(-219.99 1114.05) rotate(-61.99)"/><rect class="cls-15" x="785.19" y="741.88" width="89.1" height="9.76" transform="translate(-219.24 1128.54) rotate(-61.99)"/><rect class="cls-16" x="781.86" y="788.65" width="28.56" height="2.48" transform="translate(1126.55 1861.62) rotate(-151.91)"/><rect class="cls-16" x="785.76" y="781.35" width="28.56" height="2.48" transform="translate(1137.32 1849.72) rotate(-151.91)"/><rect class="cls-12" x="726.44" y="898.29" width="203.63" height="18.84" transform="translate(-362.13 1212.57) rotate(-61.99)"/><rect class="cls-13" x="738.95" y="909.44" width="203.82" height="9.79" transform="translate(-361.29 1227.22) rotate(-61.99)"/><rect class="cls-14" x="853.57" y="767.27" width="89.1" height="18.98" transform="translate(-209.46 1204.81) rotate(-61.99)"/><rect class="cls-15" x="866.01" y="778.49" width="89.1" height="9.76" transform="translate(-208.7 1219.3) rotate(-61.99)"/><rect class="cls-16" x="862.68" y="825.26" width="28.56" height="2.48" transform="translate(1261.42 1968.59) rotate(-151.91)"/><rect class="cls-16" x="866.58" y="817.96" width="28.56" height="2.48" transform="translate(1272.19 1956.69) rotate(-151.91)"/><rect class="cls-12" x="758.85" y="898.91" width="203.63" height="18.84" transform="translate(-345.48 1241.52) rotate(-61.99)"/><rect class="cls-13" x="771.36" y="910.06" width="203.82" height="9.79" transform="translate(-344.65 1256.16) rotate(-61.99)"/><rect class="cls-14" x="885.98" y="767.89" width="89.1" height="18.98" transform="matrix(0.47, -0.88, 0.88, 0.47, -192.82, 1233.76)"/><rect class="cls-15" x="898.42" y="779.11" width="89.1" height="9.76" transform="translate(-192.06 1248.25) rotate(-61.99)"/><rect class="cls-16" x="895.09" y="825.88" width="28.56" height="2.48" transform="translate(1322.13 1985.02) rotate(-151.91)"/><rect class="cls-16" x="898.99" y="818.58" width="28.56" height="2.48" transform="translate(1332.9 1973.12) rotate(-151.91)"/><rect class="cls-12" x="756.07" y="898.72" width="203.63" height="18.84" transform="translate(-346.79 1238.97) rotate(-61.99)"/><rect class="cls-13" x="768.59" y="909.87" width="203.82" height="9.79" transform="translate(-345.95 1253.62) rotate(-61.99)"/><rect class="cls-14" x="883.21" y="767.7" width="89.1" height="18.98" transform="matrix(0.47, -0.88, 0.88, 0.47, -194.12, 1231.21)"/><rect class="cls-15" x="895.65" y="778.92" width="89.1" height="9.76" transform="translate(-193.37 1245.7) rotate(-61.99)"/><rect class="cls-16" x="892.32" y="825.7" width="28.56" height="2.48" transform="translate(1317 1983.36) rotate(-151.91)"/><rect class="cls-16" x="896.22" y="818.4" width="28.56" height="2.48" transform="translate(1327.77 1971.46) rotate(-151.91)"/><rect class="cls-12" x="816.32" y="895.98" width="203.63" height="18.84" transform="translate(-306.27 1309.81) rotate(-62.88)"/><rect class="cls-13" x="828.94" y="906.93" width="203.82" height="9.79" transform="translate(-305.07 1324.62) rotate(-62.88)"/><rect class="cls-14" x="941.41" y="763.88" width="89.1" height="18.98" transform="translate(-151.85 1298.34) rotate(-62.88)"/><rect class="cls-15" x="953.95" y="774.91" width="89.1" height="9.76" transform="translate(-150.75 1312.99) rotate(-62.88)"/><rect class="cls-16" x="951.3" y="822.2" width="28.56" height="2.48" transform="translate(1447.98 1997.19) rotate(-152.8)"/><rect class="cls-16" x="955.08" y="814.84" width="28.56" height="2.48" transform="translate(1458.49 1985.01) rotate(-152.8)"/><polygon class="cls-17" points="996.75 800.88 747.48 667.28 793.42 594.78 1031.02 722.13 996.75 800.88"/><rect class="cls-12" x="706.8" y="874.84" width="203.63" height="18.84" transform="translate(-351.84 1182.8) rotate(-61.99)"/><rect class="cls-13" x="719.31" y="885.99" width="203.82" height="9.79" transform="translate(-351 1197.45) rotate(-61.99)"/><rect class="cls-14" x="833.94" y="743.82" width="89.1" height="18.98" transform="translate(-199.17 1175.04) rotate(-61.99)"/><rect class="cls-15" x="846.38" y="755.04" width="89.1" height="9.76" transform="translate(-198.41 1189.53) rotate(-61.99)"/><rect class="cls-16" x="843.05" y="801.82" width="28.56" height="2.48" transform="translate(1235.5 1915.21) rotate(-151.91)"/><rect class="cls-16" x="846.94" y="794.51" width="28.56" height="2.48" transform="translate(1246.28 1903.31) rotate(-151.91)"/><rect class="cls-12" x="799.86" y="884.25" width="203.63" height="18.84" transform="matrix(0.47, -0.88, 0.88, 0.47, -310.79, 1269.95)"/><rect class="cls-13" x="812.38" y="895.4" width="203.82" height="9.79" transform="translate(-309.95 1284.6) rotate(-61.99)"/><rect class="cls-14" x="927" y="753.22" width="89.1" height="18.98" transform="translate(-158.12 1262.19) rotate(-61.99)"/><rect class="cls-15" x="939.44" y="764.45" width="89.1" height="9.76" transform="translate(-157.37 1276.68) rotate(-61.99)"/><rect class="cls-16" x="936.11" y="811.22" width="28.56" height="2.48" transform="translate(1406.24 1976.74) rotate(-151.91)"/><rect class="cls-16" x="940.01" y="803.92" width="28.56" height="2.48" transform="translate(1417.01 1964.83) rotate(-151.91)"/><rect class="cls-12" x="781.36" y="883.31" width="203.63" height="18.84" transform="translate(-319.77 1253.12) rotate(-61.99)"/><rect class="cls-13" x="793.87" y="894.46" width="203.82" height="9.79" transform="translate(-318.93 1267.76) rotate(-61.99)"/><rect class="cls-14" x="908.5" y="752.28" width="89.1" height="18.98" transform="translate(-167.1 1245.36) rotate(-61.99)"/><rect class="cls-15" x="920.93" y="763.51" width="89.1" height="9.76" transform="translate(-166.35 1259.85) rotate(-61.99)"/><rect class="cls-16" x="917.6" y="810.28" width="28.56" height="2.48" transform="translate(1371.85 1966.25) rotate(-151.91)"/><rect class="cls-16" x="921.5" y="802.98" width="28.56" height="2.48" transform="translate(1382.62 1954.35) rotate(-151.91)"/><rect class="cls-12" x="706.8" y="874.84" width="203.63" height="18.84" transform="translate(-351.84 1182.8) rotate(-61.99)"/><rect class="cls-13" x="719.31" y="885.99" width="203.82" height="9.79" transform="translate(-351 1197.45) rotate(-61.99)"/><rect class="cls-14" x="833.94" y="743.82" width="89.1" height="18.98" transform="translate(-199.17 1175.04) rotate(-61.99)"/><rect class="cls-15" x="846.38" y="755.04" width="89.1" height="9.76" transform="translate(-198.41 1189.53) rotate(-61.99)"/><rect class="cls-16" x="843.05" y="801.82" width="28.56" height="2.48" transform="translate(1235.5 1915.21) rotate(-151.91)"/><rect class="cls-16" x="846.94" y="794.51" width="28.56" height="2.48" transform="translate(1246.28 1903.31) rotate(-151.91)"/><rect class="cls-12" x="713.33" y="720.56" width="203.63" height="18.84" transform="translate(-212.17 1106.76) rotate(-61.99)"/><rect class="cls-13" x="725.85" y="731.72" width="203.82" height="9.79" transform="translate(-211.33 1121.4) rotate(-61.99)"/><rect class="cls-14" x="840.47" y="589.54" width="89.1" height="18.98" transform="translate(-59.5 1098.99) rotate(-61.99)"/><rect class="cls-15" x="852.91" y="600.76" width="89.1" height="9.76" transform="translate(-58.75 1113.48) rotate(-61.99)"/><rect class="cls-16" x="849.58" y="647.54" width="28.56" height="2.48" transform="translate(1320.44 1627.91) rotate(-151.91)"/><rect class="cls-16" x="853.47" y="640.24" width="28.56" height="2.48" transform="translate(1331.21 1616) rotate(-151.91)"/><rect class="cls-12" x="678.18" y="862.44" width="203.63" height="18.84" transform="translate(-356.07 1150.96) rotate(-61.99)"/><rect class="cls-13" x="690.7" y="873.59" width="203.82" height="9.79" transform="translate(-355.23 1165.61) rotate(-61.99)"/><rect class="cls-14" x="805.32" y="731.42" width="89.1" height="18.98" transform="translate(-203.4 1143.2) rotate(-61.99)"/><rect class="cls-15" x="817.76" y="742.64" width="89.1" height="9.76" transform="translate(-202.65 1157.69) rotate(-61.99)"/><rect class="cls-16" x="814.43" y="789.42" width="28.56" height="2.48" transform="translate(1187.48 1878.4) rotate(-151.91)"/><rect class="cls-16" x="818.32" y="782.12" width="28.56" height="2.48" transform="translate(1198.25 1866.49) rotate(-151.91)"/><rect class="cls-12" x="767.87" y="736.77" width="203.63" height="18.84" transform="translate(-154.44 1260.32) rotate(-67.29)"/><rect class="cls-13" x="780.94" y="746.73" width="203.82" height="9.79" transform="translate(-151.37 1275.8) rotate(-67.29)"/><rect class="cls-14" x="882.61" y="599.85" width="89.1" height="18.98" transform="translate(7.08 1229.32) rotate(-67.29)"/><rect class="cls-15" x="895.6" y="609.9" width="89.1" height="9.76" transform="translate(10.04 1244.65) rotate(-67.29)"/><rect class="cls-16" x="896.4" y="659.59" width="28.56" height="2.48" transform="translate(1494.28 1622.85) rotate(-157.21)"/><rect class="cls-16" x="899.61" y="651.96" width="28.56" height="2.48" transform="translate(1503.39 1609.42) rotate(-157.21)"/><path class="cls-18" d="M854.49,1066.54l-71.56-38.62A76.56,76.56,0,0,1,676.7,970.54L605.38,932l-59,110.06L796,1175.87,863,1050.71Z"/><path class="cls-19" d="M721.48,887.67A76.56,76.56,0,0,1,827.71,945L899,983.55l51-95.11L700.44,754.68,641.37,864.89l8.55-15.84Z"/><path class="cls-20" d="M724.68,881.69a76.56,76.56,0,0,1,106.23,57.38l71.32,38.5,51-95.1L703.64,748.7,644.57,858.91l8.55-15.84Z"/><path class="cls-21" d="M899.23,983.66l-44.74,82.88-71.56-38.62A76.56,76.56,0,0,1,676.7,970.54l-71.53-38.61,44.75-82.88,71.56,38.62A76.56,76.56,0,0,1,827.71,945Z"/><path class="cls-20" d="M851.28,1072.52l-71.55-38.62a76.57,76.57,0,0,1-106.24-57.38L602.17,938l-59,110.07,249.57,133.76,67.08-125.16Z"/><path class="cls-22" d="M950.73,887.23,701.12,753.44,741.6,681l7,3.75c16.45,13,10.33,32.46,10.33,32.46l-8.42,45.54,165.16,88.52L948.9,819s12.78-15.85,32.75-9.37l7,3.75Z"/></svg>