<svg id="Layer_1" data-name="Layer 1" xmlns="http://www.w3.org/2000/svg" viewBox="0 0 714.57 700.74"><defs><style>.cls-1{fill:#cce4ff;}.cls-2{fill:#ebeeea;}.cls-3{fill:#eba252;}.cls-4{fill:#efa053;}.cls-5{fill:#f0af60;}.cls-6{fill:#f3ad5c;}.cls-7{fill:#2e4c67;}.cls-12,.cls-8{fill:none;stroke-miterlimit:10;}.cls-8{stroke:#465355;stroke-width:3px;}.cls-9{fill:#395c77;}.cls-10{fill:#df9757;}.cls-11{fill:#eda157;}.cls-12{stroke:#e9a35a;stroke-width:4px;}.cls-13{fill:#eaa258;}.cls-14{fill:#e9a35a;}.cls-15{fill:#253f57;}.cls-16{fill:#26ad68;}.cls-17{fill:#fcfffd;}.cls-18{fill:#e15756;}.cls-19{fill:#269d5e;}.cls-20{fill:#273f53;}.cls-21{fill:#2b465a;}.cls-22{fill:#d8fcff;}.cls-23{fill:#fff;}.cls-24{fill:#b5b5c4;}.cls-25{fill:#c5c6c8;}.cls-26{fill:#6bbece;}.cls-27{fill:#dc813b;}.cls-28{fill:#f2f5f8;}.cls-29{fill:#bec2c7;}.cls-30{fill:#c75a24;}.cls-31{fill:#322727;}.cls-32{fill:#010000;}.cls-33{fill:#df0d16;}.cls-34{fill:#d7ebdd;}.cls-35{fill:#fdf0f9;}.cls-36{fill:#fe9e68;}.cls-37{fill:#ffac75;}.cls-38{fill:#e8834e;}.cls-39{fill:#f1f1f1;}.cls-40{fill:#c6c6c6;}.cls-41{fill:#d97643;}.cls-42{fill:#ffc7b4;}.cls-43{fill:#d77442;}.cls-44{fill:#ff7e2a;}.cls-45{fill:#e68248;}.cls-46{fill:#9e9ea8;}</style></defs><rect class="cls-1" width="714.57" height="700.74"/><polygon class="cls-2" points="330.38 429.06 383.49 429.06 383.49 459.01 354.75 462.43 328.64 458.36 330.38 429.06"/><path class="cls-3" d="M335.86,405.58h40.66a0,0,0,0,1,0,0v29.08A20.33,20.33,0,0,1,356.19,455h0a20.33,20.33,0,0,1-20.33-20.33V405.58A0,0,0,0,1,335.86,405.58Z"/><circle class="cls-4" cx="303.8" cy="360.43" r="14.52"/><circle class="cls-4" cx="409.59" cy="360.43" r="14.52"/><circle class="cls-5" cx="409.59" cy="360.43" r="9.6"/><path class="cls-6" d="M410.8,364.74c0,31.08-23.31,56.56-54.39,56.56s-54.5-25.2-54.5-56.29l1.39-38.9,56.78.22,1-14.41,31.44,2.74,11.53,11.39v.45l5.54,0Z"/><path class="cls-7" d="M406.58,362.18s4.15,3.72,4.79-3.63-.11-30.36-.11-30.36S405.62,311,390.38,309s-6.07,13.63-4.47,14.27,7.24,2.34,9.8,2.13,6.71,1.17,7.67,4.8,2.24,9.69,2.45,10.86,1.49,11.93,1.49,13.32S406.58,362.18,406.58,362.18Z"/><circle class="cls-5" cx="303.8" cy="360.43" r="9.6"/><path class="cls-8" d="M371.82,356.28s11.63,8,21.59-2"/><path class="cls-8" d="M318.82,356.28s11.63,8,21.59-2"/><path class="cls-7" d="M320.72,326.17s-16.6,10.74-14.29,20.68-5.86-.53-5.86-.53-.27-26.81,8.26-29.38S320.72,326.17,320.72,326.17Z"/><path class="cls-9" d="M385.36,303.16l.29,8.23S369.49,327,353.07,328.7s-26.28,2.82-33.47-1.66-17.69-17.57-18.08-19.75-.53-7.7-.53-7.7Z"/><path class="cls-7" d="M385.36,303.16s-13.31,13.15-23.2,16.07-38.13,7.14-46.57-.81-15.9-18.34-14.6-18.83,13.14-.16,13.14-.16a46.28,46.28,0,0,1,30.5-5.35C361.83,297.16,385.36,303.16,385.36,303.16Z"/><path class="cls-7" d="M344.63,294.08c17.2,3.08,40.73,9.08,40.73,9.08s-13.31,13.15-23.2,16.07"/><path class="cls-10" d="M563.06,520.68s-4.89-2.36-5.63-4.4-.73-4.33-.16-4.41a27.38,27.38,0,0,1,4.33,1.39s8.15,1.88,8.48,3.75,1,6,.73,6.28-.4,8.16-.4,8.16l-7.67,1.39S567.06,526.07,563.06,520.68Z"/><path class="cls-10" d="M538.29,524.15l12.31-10.5s2-.78,2.3.88.79,3.63.54,4.56-4,6.48-4.66,7.26-2.15,3-1.52,4.17,7.8,12.07,15.75,1.82l7.4-.89-5.53,7.79L510.78,543l2.56-11.54H526S531.76,524.05,538.29,524.15Z"/><path class="cls-11" d="M345.94,381.74a11.15,11.15,0,1,1,22.29,0"/><path class="cls-12" d="M355.73,396.79c-12.25,0-22.17-7.72-22.17-17.23"/><path class="cls-10" d="M577.12,526s6.06-7,6.29-7.07a9.44,9.44,0,0,1,1.67,0,5.31,5.31,0,0,1,.26,6.09C583.4,528.22,580,533,580,533l-13.1,10.16Z"/><path class="cls-13" d="M513.58,541.46h10.53s4.68-13.27,28.74-4.42c0,0,9.09,2.78,10.82,1.34s8.55-12.51,10.07-12.81,3.33-.8,3.33.59a5.15,5.15,0,0,1-.38,2.36c-.3.89-3.2,5.48-3.62,6.15s-5.19,7.17-5.19,7.17l.92-.68,8-11.32s3.87-8,5.34-9.39,1.81-1.8,2.59-1.39,1.8,2.25.24,5-7.66,12.92-7.66,12.92l-4.84,7s15.3-23.67,16.41-24.65,4-.54,3.12,2.8-4.55,7.27-4.55,7.27-12,22.65-16.24,22.82-58.86.09-58.86.09Z"/><path class="cls-10" d="M563.06,520.68s-4.89-2.36-5.63-4.4-.73-4.33-.16-4.41a27.38,27.38,0,0,1,4.33,1.39s8.15,1.88,8.48,3.75,1,6,.73,6.28-.4,8.16-.4,8.16l-7.67,1.39S567.06,526.07,563.06,520.68Z"/><path class="cls-10" d="M538.29,524.15l12.31-10.5s2-.78,2.3.88.79,3.63.54,4.56-4,6.48-4.66,7.26-2.15,3-1.52,4.17,7.8,12.07,15.75,1.82l7.4-.89-5.53,7.79L510.78,543l2.56-11.54H526S531.76,524.05,538.29,524.15Z"/><path class="cls-10" d="M577.12,526s6.06-7,6.29-7.07a9.44,9.44,0,0,1,1.67,0,5.31,5.31,0,0,1,.26,6.09C583.4,528.22,580,533,580,533l-13.1,10.16Z"/><path class="cls-13" d="M513.58,541.46h10.53s4.68-13.27,28.74-4.42c0,0,9.09,2.78,10.82,1.34s8.55-12.51,10.07-12.81,3.33-.8,3.33.59a5.15,5.15,0,0,1-.38,2.36c-.3.89-3.2,5.48-3.62,6.15s-5.19,7.17-5.19,7.17l.92-.68,8-11.32s3.87-8,5.34-9.39,1.81-1.8,2.59-1.39,1.8,2.25.24,5-7.66,12.92-7.66,12.92l-4.84,7s15.3-23.67,16.41-24.65,4-.54,3.12,2.8-4.55,7.27-4.55,7.27-12,22.65-16.24,22.82-58.86.09-58.86.09Z"/><path class="cls-10" d="M563.06,520.68s-4.89-2.36-5.63-4.4-.73-4.33-.16-4.41a27.38,27.38,0,0,1,4.33,1.39s8.15,1.88,8.48,3.75,1,6,.73,6.28-.4,8.16-.4,8.16l-7.67,1.39S567.06,526.07,563.06,520.68Z"/><path class="cls-10" d="M538.29,524.15l12.31-10.5s2-.78,2.3.88.79,3.63.54,4.56-4,6.48-4.66,7.26-2.15,3-1.52,4.17,7.8,12.07,15.75,1.82l7.4-.89-5.53,7.79L510.78,543l2.56-11.54H526S531.76,524.05,538.29,524.15Z"/><path class="cls-10" d="M577.12,526s6.06-7,6.29-7.07a9.44,9.44,0,0,1,1.67,0,5.31,5.31,0,0,1,.26,6.09C583.4,528.22,580,533,580,533l-13.1,10.16Z"/><path class="cls-13" d="M513.58,541.46h10.53s4.68-13.27,28.74-4.42c0,0,9.09,2.78,10.82,1.34s8.55-12.51,10.07-12.81,3.33-.8,3.33.59a5.15,5.15,0,0,1-.38,2.36c-.3.89-3.2,5.48-3.62,6.15s-5.19,7.17-5.19,7.17l.92-.68,8-11.32s3.87-8,5.34-9.39,1.81-1.8,2.59-1.39,1.8,2.25.24,5-7.66,12.92-7.66,12.92l-4.84,7s15.3-23.67,16.41-24.65,4-.54,3.12,2.8-4.55,7.27-4.55,7.27-12,22.65-16.24,22.82-58.86.09-58.86.09Z"/><path class="cls-10" d="M151.51,520.68s4.89-2.36,5.63-4.4.73-4.33.16-4.41a27.38,27.38,0,0,0-4.33,1.39s-8.15,1.88-8.48,3.75-1,6-.73,6.28.4,8.16.4,8.16l7.67,1.39S147.51,526.07,151.51,520.68Z"/><path class="cls-10" d="M176.28,524.15,164,513.65s-2-.78-2.3.88-.79,3.63-.54,4.56,4,6.48,4.66,7.26,2.15,3,1.52,4.17-7.8,12.07-15.75,1.82l-7.4-.89,5.53,7.79,54.1,3.72-2.56-11.54H188.54S182.81,524.05,176.28,524.15Z"/><path class="cls-10" d="M137.45,526s-6.06-7-6.29-7.07a9.44,9.44,0,0,0-1.67,0,5.31,5.31,0,0,0-.26,6.09c1.94,3.27,5.36,8.06,5.36,8.06l13.1,10.16Z"/><path class="cls-13" d="M201,541.46H190.46s-4.68-13.27-28.74-4.42c0,0-9.09,2.78-10.82,1.34s-8.55-12.51-10.07-12.81-3.33-.8-3.33.59a5.15,5.15,0,0,0,.38,2.36c.3.89,3.2,5.48,3.62,6.15s5.19,7.17,5.19,7.17l-.92-.68-8-11.32s-3.87-8-5.34-9.39-1.81-1.8-2.59-1.39-1.8,2.25-.24,5,7.66,12.92,7.66,12.92l4.84,7s-15.3-23.67-16.41-24.65-4-.54-3.12,2.8,4.55,7.27,4.55,7.27,12,22.65,16.24,22.82,58.86.09,58.86.09Z"/><polygon class="cls-14" points="371.7 333.04 371.84 339.75 388.25 337.45 387.71 332.23 371.7 333.04"/><polygon class="cls-14" points="324.78 337.11 324.71 341.38 342.27 343.42 342.14 336.84 324.78 337.11"/><polygon class="cls-15" points="317.78 580.7 317.78 605.32 408.04 605.32 399.64 577.08 317.78 580.7"/><path class="cls-7" d="M306.74,348.54l.26,11.23s-4.51,3.57-5.07-1.69-1.36-11.76-1.36-11.76"/><path class="cls-16" d="M513.69,529.4V558c0,1-3.09,2.4-3.09,2.4h-40c-32.58-4.25-54.48-34.2-54.48-34.2v61.08H297.73V526.21s-21.9,29.95-54.48,34.2h-40s-3.09-1.44-3.09-2.4V529.4s61.78,5.82,74.19-32.33l0,.36s9.65-21.74,8.94-39.52,24.81-30.35,36.23-28.85h10.83s-.82,13.13,3.65,19.09c4.21,5.63,13.65,11.79,21.76,11.89H358c8.13-.05,17.63-6.23,21.86-11.89,4.47-6,3.65-19.09,3.65-19.09h10.83c11.42-1.5,36.94,11.07,36.23,28.85s8.94,39.52,8.94,39.52v-.36C451.9,535.22,513.69,529.4,513.69,529.4Z"/><path class="cls-3" d="M339.68,424.93s21.43,7,34.48.33"/><path class="cls-17" d="M408.14,646.87h36.44A19.08,19.08,0,0,1,463.66,666v0A19.08,19.08,0,0,1,444.58,685H408.14a0,0,0,0,1,0,0V646.87A0,0,0,0,1,408.14,646.87Z" transform="translate(339.44 -124.11) rotate(26.25)"/><path class="cls-18" d="M411.18,642.83H445a0,0,0,0,1,0,0v36.68a1.86,1.86,0,0,1-1.86,1.86H413a1.86,1.86,0,0,1-1.86-1.86V642.83A0,0,0,0,1,411.18,642.83Z" transform="translate(-355.06 753.26) rotate(-63.75)"/><rect class="cls-17" x="406.02" y="655.91" width="26.34" height="3.61" rx="1.81" transform="translate(-356.09 742.82) rotate(-63.75)"/><rect class="cls-17" x="414.09" y="659.89" width="26.34" height="3.61" rx="1.81" transform="translate(-355.16 752.28) rotate(-63.75)"/><rect class="cls-17" x="421.27" y="663.42" width="26.34" height="3.61" rx="1.81" transform="translate(-354.33 760.69) rotate(-63.75)"/><rect class="cls-17" x="427.54" y="666.52" width="26.34" height="3.61" rx="1.81" transform="translate(-353.6 768.05) rotate(-63.75)"/><path class="cls-17" d="M251.06,646.87H287.5A19.08,19.08,0,0,1,306.58,666v0A19.08,19.08,0,0,1,287.5,685H251.06a0,0,0,0,1,0,0V646.87a0,0,0,0,1,0,0Z" transform="translate(823.4 1139.94) rotate(153.75)"/><path class="cls-18" d="M271.58,642.83h30.11a1.86,1.86,0,0,1,1.86,1.86v36.68a0,0,0,0,1,0,0H269.72a0,0,0,0,1,0,0V644.69A1.86,1.86,0,0,1,271.58,642.83Z" transform="translate(-180.45 1211.98) rotate(-116.25)"/><rect class="cls-17" x="282.36" y="655.91" width="26.34" height="3.61" rx="1.81" transform="translate(-163.68 1213.63) rotate(-116.25)"/><rect class="cls-17" x="274.29" y="659.89" width="26.34" height="3.61" rx="1.81" transform="translate(-178.89 1212.13) rotate(-116.25)"/><rect class="cls-17" x="267.11" y="663.42" width="26.34" height="3.61" rx="1.81" transform="translate(-192.41 1210.8) rotate(-116.25)"/><rect class="cls-17" x="260.84" y="666.52" width="26.34" height="3.61" rx="1.81" transform="translate(-204.24 1209.63) rotate(-116.25)"/><path class="cls-6" d="M374,425.09l1.37-.74s1.09,13.92-2.79,19.06-10.39,7.36-10.39,7.36-12.84.46-19.51-8.56-3.62-17.12-3.62-17.12a5.91,5.91,0,0,1,.95-1.4C340.37,423.46,366.92,430.76,374,425.09Z"/><path class="cls-19" d="M416.13,508.4v72.5h-5.26V515.08S411.29,507.55,416.13,508.4Z"/><path class="cls-19" d="M297.75,508.48V581H303V515.16S302.58,507.62,297.75,508.48Z"/><path class="cls-20" d="M243.61,592.43h154a26.92,26.92,0,0,1,26.92,26.92v0a26.92,26.92,0,0,1-26.92,26.92h-154a0,0,0,0,1,0,0V592.43a0,0,0,0,1,0,0Z" transform="translate(354.61 1322.75) rotate(-153.33)"/><path class="cls-21" d="M249.84,593.91H430.78a0,0,0,0,1,0,0v0A26.06,26.06,0,0,1,404.72,620H249.84a0,0,0,0,1,0,0V593.91A0,0,0,0,1,249.84,593.91Z" transform="translate(371.99 1302.05) rotate(-153.33)"/><path class="cls-20" d="M287.9,594.35h154a26.92,26.92,0,0,1,26.92,26.92v0a26.92,26.92,0,0,1-26.92,26.92h-154a0,0,0,0,1,0,0V594.35A0,0,0,0,1,287.9,594.35Z" transform="translate(-242.75 242.65) rotate(-27.29)"/><path class="cls-21" d="M294.27,620.58H475.2a0,0,0,0,1,0,0v0a26.06,26.06,0,0,1-26.06,26.06H294.27a0,0,0,0,1,0,0V620.58A0,0,0,0,1,294.27,620.58Z" transform="translate(-247.7 246.94) rotate(-27.29)"/><rect class="cls-22" x="193.97" y="29.51" width="67.96" height="26.07" rx="13.04"/><path class="cls-22" d="M158.61,42.54a13,13,0,0,1-13,13h-110a13,13,0,1,1,0-26.07h.33a13,13,0,0,1,13-13H90.85a13,13,0,0,1,13,13h41.7A13,13,0,0,1,158.61,42.54Z"/><path class="cls-22" d="M293.43,186.58a13,13,0,0,1-13,13h-110a13,13,0,0,1,0-26.08h8.35a13,13,0,0,1,13-13h41.89a13,13,0,0,1,13,13h33.68a13,13,0,0,1,13,13Z"/><path class="cls-22" d="M699.45,213.06a13,13,0,0,1-13,13h-110a13,13,0,1,1,0-26.08h8.34a13,13,0,0,1,13-13H639.7a13,13,0,0,1,13,13h33.69a13,13,0,0,1,13,13Z"/><path class="cls-22" d="M601.19,46.25a13,13,0,0,1-13,13H505.75a13,13,0,0,1-13-13V34.15H464.63a12.44,12.44,0,0,1-12.44-12.44V20.52A12.44,12.44,0,0,1,464.63,8.08h70.8a25.24,25.24,0,0,1,25.24,25.14h27.49A13,13,0,0,1,601.19,46.25Z"/><path class="cls-22" d="M451.56,42.41V43.6A12.45,12.45,0,0,1,439.11,56H411v12.1a13,13,0,0,1-13,13H315.59a13,13,0,1,1,0-26.08h27.48A25.24,25.24,0,0,1,368.31,30h70.8A12.45,12.45,0,0,1,451.56,42.41Z"/><path class="cls-22" d="M600.26,136.75v1.19a12.44,12.44,0,0,1-12.44,12.44H559v12.1a13,13,0,0,1-13,13H461.47a13,13,0,0,1,0-26.08h28.25A25.25,25.25,0,0,1,515,124.31h72.85A12.44,12.44,0,0,1,600.26,136.75Z"/><path class="cls-22" d="M157,225v1a11,11,0,0,1-11,11H68.76a22.27,22.27,0,0,1-22.27-22.17H16.7a11.5,11.5,0,0,1,0-23h87.55a11.49,11.49,0,0,1,11.49,11.5V214h30.32A11,11,0,0,1,157,225Z"/><rect class="cls-22" x="77.3" y="74.04" width="99.94" height="26.07" rx="13.04"/><rect class="cls-22" x="20.58" y="117.89" width="194.73" height="26.07" rx="13.04"/><rect class="cls-22" x="532.93" y="75.22" width="132.55" height="26.07" rx="13.04"/><ellipse class="cls-23" cx="428.53" cy="294.73" rx="16.88" ry="15.02"/><ellipse class="cls-23" cx="439.8" cy="247.36" rx="29.04" ry="25.85"/><path class="cls-23" d="M468.36,164.52c.09,1.37.14,2.73.14,4.11,0,27.87-19.87,47-50.09,47a59.35,59.35,0,0,1-10.05-.85c-5,22.21-26.26,38.9-51.73,38.9-25.82,0-47.31-17.15-51.92-39.82a42.2,42.2,0,0,1-67.28-50.54,50,50,0,0,1-15.63-36.23c0-28,23.37-50.77,52.2-50.77.44,0,.89,0,1.33,0a59.64,59.64,0,0,1,59.55-56.56c25.15,0,48.14,15.4,57.61,37.35a46.46,46.46,0,0,1,21.23-5.05c24,0,43.5,17.78,43.5,39.71a36.17,36.17,0,0,1-.32,4.8,34.89,34.89,0,0,1,4.11-.24,34.46,34.46,0,0,1,7.35,68.13Z"/><ellipse class="cls-24" cx="428.53" cy="294.73" rx="16.88" ry="15.02"/><ellipse class="cls-24" cx="439.8" cy="247.36" rx="29.04" ry="25.85"/><path class="cls-24" d="M313.05,223.9l-.17.15L309.59,227a2,2,0,0,1-.14-.25c-.23-.41-.45-.83-.66-1.25a4.51,4.51,0,0,0,.39-.55C309.89,223.79,311.65,223.88,313.05,223.9Z"/><ellipse class="cls-23" cx="428.53" cy="294.73" rx="16.88" ry="15.02"/><ellipse class="cls-23" cx="439.8" cy="247.36" rx="29.04" ry="25.85"/><path class="cls-23" d="M480.94,158.44a35.45,35.45,0,0,1-3,2.45,35.08,35.08,0,0,0,4-2.66Z"/><path class="cls-23" d="M278.09,227.74l-.13.13.09-.11Z"/><path class="cls-23" d="M306.89,221.27c-.31-.76-.59-1.54-.85-2.32l.24.54A8.17,8.17,0,0,1,306.89,221.27Z"/><path class="cls-23" d="M307.85,223.57c-.08-.17-.16-.34-.23-.52A1.19,1.19,0,0,1,307.85,223.57Z"/><path class="cls-23" d="M308.91,225.77c-.37-.7-.71-1.4-1-2.12A13.59,13.59,0,0,1,308.91,225.77Z"/><path class="cls-23" d="M278.09,227.74l-.13.13.09-.11Z"/><path class="cls-23" d="M306.89,221.27c-.31-.76-.59-1.54-.85-2.32l.24.54A8.17,8.17,0,0,1,306.89,221.27Z"/><path class="cls-23" d="M307.85,223.57c-.08-.17-.16-.34-.23-.52A1.19,1.19,0,0,1,307.85,223.57Z"/><path class="cls-23" d="M308.91,225.77c-.37-.7-.71-1.4-1-2.12A13.59,13.59,0,0,1,308.91,225.77Z"/><path class="cls-25" d="M380.37,122.38,368,68.27s-2.33,1.13-2.43,2.22,4.85,47.71,4.85,47.71l3.62,4.5,2.9,2.44Z"/><path class="cls-26" d="M342.13,74.16a18.63,18.63,0,0,0-4.69.29c-1.61.47-5.92,2.46-6.44,2.46s-7.53,1.19-8.67-2.93a16.18,16.18,0,0,0-2.65-5.88s-4.55-1.85-7-1.14-12.22,4.31-12.93,4.31-4.69.15-4.69.15-4.12-2-4.83-4.22-6-3-6-3-.9-.76.57-1,4.69-.57,5.4-.09,3.31,2.6,3.46,3.17,1.32,2.23,2,2.18a12.79,12.79,0,0,0,4.08-.9A64.28,64.28,0,0,1,308,64.45c.57,0,6.16-.71,6.87-.61s5.45,1.23,5.83,1.89,3,4,3.27,5.54,1.18,2.75,1.85,2.8a10.86,10.86,0,0,1,3,1.18,4.46,4.46,0,0,0,2.13.29c.57,0,8.15-1.94,8.15-1.94Z"/><path class="cls-26" d="M341.83,49.52s.72,6.21-3.47,7.49a49.86,49.86,0,0,1-7.59,1.7S326.92,61,326.92,62s-.55,2.84-.2,3.36.34,1.18,1.31,1.49a9.66,9.66,0,0,0,3.85-.24c.42-.18,1.94-1.15,1.91-1.84s.34-1.25-.49-1.25a5.14,5.14,0,0,0-2.39.21c-.52.35-1.94.8-2.11,1.11s-1.22,1.14-1.22,1.66-.52,3-.52,3,.11.77.38,1,1.15,1.15,1.15,1.15,1,.31,1.52.41,3.36-.17,3.68-.1,2.63-.38,3.25-.11,4.72.91,5,1.53-2.18-.59-3.36-.62a28.81,28.81,0,0,0-4.2-.21c-.86.17-2,.55-2.39.62s-3.5-.26-3.86-.63-2-1.94-2.13-2.94a11.8,11.8,0,0,1,.23-3.16c.13-.32,1.26-2.26,1.58-2.76a5.2,5.2,0,0,1,2.17-1.54c.41,0,1.58-.86,2.17-.63s1.63-.23,2,.45S335.49,63,335.4,64a5.89,5.89,0,0,1-1,2.94,8.72,8.72,0,0,1-2.58,1.95,4.44,4.44,0,0,1-1.9.63c-.95,0-4.61-1.76-4.84-3.17s-.68-3.52-.32-4.79a6.46,6.46,0,0,1,1.45-2.85c.59-.54,2.17-1.94,3.21-2.12a46,46,0,0,1,4.75-.14,10.3,10.3,0,0,0,3.08-.95c.63-.54,1.62-1,2.3-1.58s1.67-1.41,1.45-1.77,0-.4.27-1.22A11.54,11.54,0,0,1,341.83,49.52Z"/><path class="cls-27" d="M410.57,94.64s2.64-.84,3.07-2.49-1.26-4.4-1.26-4.4Z"/><polygon class="cls-28" points="389.83 86.85 342.11 74.7 343.31 70.14 391.02 82.29 389.83 86.85"/><polygon class="cls-29" points="389.87 86.84 342.11 74.69 341.49 77.05 389.25 89.21 389.87 86.84"/><polygon class="cls-27" points="412.38 87.75 411.19 92.28 411.18 92.34 411.13 92.33 390.34 87.04 390.3 87.03 390.31 86.96 391.5 82.43 391.55 82.45 412.38 87.75"/><polygon class="cls-30" points="411.19 92.28 411.18 92.34 411.13 92.33 390.34 87.04 389.73 89.34 389.69 89.33 390.3 87.03 390.31 86.96 390.36 86.97 411.19 92.28"/><polygon class="cls-31" points="389.62 81.93 387.8 88.84 387.21 88.69 389.04 81.78 389.62 81.93"/><polygon class="cls-31" points="391.56 82.42 391.55 82.45 390.36 86.97 390.34 87.04 389.73 89.34 389.69 89.33 389.25 89.21 389.15 89.19 389.77 86.83 389.78 86.82 390.98 82.28 391.02 82.29 391.56 82.42"/><path class="cls-27" d="M410.57,94.64s2.64-.84,3.07-2.49-1.26-4.4-1.26-4.4Z"/><path class="cls-30" d="M413.33,92.81a5.75,5.75,0,0,1-2.76,1.83l-20.84-5.3.61-2.3,20.79,5.3h0l0-.06Z"/><polygon class="cls-30" points="411.19 92.28 411.18 92.34 411.13 92.33 411.17 92.29 411.19 92.28"/><ellipse class="cls-32" cx="342.56" cy="73.64" rx="3.61" ry="2.27" transform="translate(159.05 372.12) rotate(-70.55)"/><polygon class="cls-33" points="341.53 73.07 341.06 73.06 340.79 73.44 340.65 72.99 340.21 72.85 340.59 72.58 340.59 72.12 340.96 72.4 341.41 72.25 341.25 72.69 341.53 73.07"/><polygon class="cls-33" points="341.53 72.3 341.24 72.34 341.1 72.61 340.98 72.34 340.68 72.3 340.9 72.09 340.85 71.8 341.11 71.94 341.37 71.8 341.32 72.09 341.53 72.3"/><polygon class="cls-33" points="341.29 73.29 340.79 73.27 340.48 73.67 340.35 73.19 339.87 73.03 340.29 72.75 340.3 72.24 340.69 72.55 341.18 72.41 341 72.88 341.29 73.29"/><polygon class="cls-33" points="341.43 73.37 341.17 73.24 340.92 73.38 340.96 73.1 340.75 72.91 341.04 72.86 341.16 72.6 341.29 72.85 341.58 72.89 341.38 73.09 341.43 73.37"/><polygon class="cls-33" points="340.85 73.37 340.57 73.36 340.4 73.58 340.33 73.31 340.07 73.22 340.3 73.07 340.31 72.79 340.52 72.97 340.79 72.89 340.69 73.14 340.85 73.37"/><polygon class="cls-33" points="341.23 73.15 340.86 73.38 340.84 73.81 340.51 73.53 340.1 73.64 340.26 73.24 340.02 72.88 340.45 72.91 340.73 72.58 340.83 73 341.23 73.15"/><polygon class="cls-33" points="341.15 72.18 340.86 72.04 340.57 72.2 340.62 71.88 340.38 71.66 340.7 71.61 340.83 71.31 340.98 71.59 341.31 71.63 341.08 71.86 341.15 72.18"/><polygon class="cls-33" points="341.35 71.98 341.66 71.96 341.82 71.7 341.93 71.99 342.22 72.06 341.99 72.25 342.01 72.56 341.75 72.39 341.47 72.51 341.55 72.21 341.35 71.98"/><polygon class="cls-33" points="341.35 71.98 341.18 71.91 341.03 72.01 341.04 71.83 340.9 71.72 341.08 71.67 341.14 71.51 341.24 71.66 341.42 71.67 341.3 71.81 341.35 71.98"/><polygon class="cls-33" points="341.75 72.39 341.35 72.33 341.07 72.63 341 72.22 340.63 72.05 341 71.86 341.05 71.46 341.34 71.75 341.74 71.67 341.56 72.03 341.75 72.39"/><polygon class="cls-33" points="341.53 72.97 341.41 72.98 341.35 73.1 341.29 72.98 341.17 72.97 341.26 72.88 341.24 72.75 341.35 72.81 341.46 72.75 341.44 72.88 341.53 72.97"/><polygon class="cls-33" points="340.48 73.67 340.16 73.63 339.94 73.86 339.88 73.54 339.58 73.4 339.88 73.25 339.92 72.93 340.15 73.16 340.47 73.09 340.32 73.39 340.48 73.67"/><polygon class="cls-33" points="340.42 73.84 340.18 73.7 339.93 73.83 339.98 73.56 339.78 73.36 340.06 73.32 340.18 73.07 340.3 73.33 340.58 73.37 340.38 73.56 340.42 73.84"/><polygon class="cls-33" points="340.74 74.38 340.31 74.17 339.9 74.41 339.96 73.94 339.61 73.62 340.08 73.53 340.27 73.1 340.5 73.52 340.98 73.57 340.65 73.91 340.74 74.38"/><polygon class="cls-33" points="341.53 74 341.1 73.82 340.71 74.08 340.75 73.61 340.38 73.32 340.83 73.21 341 72.78 341.25 73.17 341.71 73.19 341.41 73.55 341.53 74"/><polygon class="cls-33" points="341.05 74.02 340.94 73.98 340.85 74.05 340.85 73.94 340.76 73.87 340.87 73.84 340.9 73.73 340.96 73.82 341.08 73.82 341.01 73.91 341.05 74.02"/><polygon class="cls-33" points="340.85 74.05 340.52 74.16 340.43 74.48 340.23 74.21 339.89 74.22 340.09 73.94 339.97 73.62 340.3 73.72 340.57 73.52 340.57 73.86 340.85 74.05"/><polygon class="cls-33" points="340.96 73.82 340.81 73.64 340.58 73.66 340.71 73.46 340.62 73.24 340.85 73.3 341.03 73.14 341.04 73.38 341.24 73.5 341.02 73.59 340.96 73.82"/><polygon class="cls-33" points="341.29 74.06 341.03 74.01 340.84 74.2 340.8 73.94 340.56 73.82 340.8 73.7 340.84 73.44 341.03 73.63 341.29 73.58 341.17 73.82 341.29 74.06"/><polygon class="cls-33" points="340.84 74.2 340.73 74.17 340.63 74.24 340.63 74.12 340.53 74.05 340.65 74.01 340.68 73.9 340.75 74 340.87 73.99 340.8 74.09 340.84 74.2"/><polygon class="cls-33" points="341.41 74.6 340.99 74.51 340.68 74.81 340.64 74.38 340.26 74.17 340.65 74 340.74 73.58 341.02 73.9 341.45 73.84 341.23 74.22 341.41 74.6"/><polygon class="cls-33" points="341.45 74.26 341.16 74.18 340.93 74.38 340.91 74.07 340.65 73.91 340.94 73.81 341.01 73.51 341.2 73.75 341.5 73.72 341.33 73.98 341.45 74.26"/><polygon class="cls-33" points="341.55 73.37 341.37 73.4 341.29 73.57 341.21 73.4 341.03 73.38 341.16 73.25 341.12 73.07 341.29 73.15 341.45 73.07 341.42 73.25 341.55 73.37"/><polygon class="cls-33" points="341.44 72.88 341.23 72.74 340.99 72.83 341.06 72.58 340.9 72.39 341.15 72.38 341.29 72.16 341.38 72.4 341.63 72.46 341.43 72.62 341.44 72.88"/><path class="cls-34" d="M395.29,77.38l-18,44.42L370.21,124l-3-2.85,5.06-8.61h2l20.65-38.68.39-.29C396.45,74.87,395.29,77.38,395.29,77.38Z"/><path class="cls-35" d="M372.27,112.55,394,72.73s1.28.65,1.31.85-21,39-21,39Z"/><path class="cls-36" d="M375.56,174.82l2.53,1.8-10.46,12.92,4.16,14.23a4,4,0,0,1-.54.73c-.15.08-15.61-3-15.61-3l3.66-24.79Z"/><path class="cls-37" d="M358.2,186l3,2.62a9.48,9.48,0,0,0-1.8,2.09,5.84,5.84,0,0,0-.14,2.33c.17.28,1.51,2,1.51,2a2.59,2.59,0,0,0-2,.84c-.64.88.77,5.95,1.42,6.41s1.31.91,1.31.91l-5.31-.56Z"/><polygon class="cls-38" points="355.83 175.49 353.95 199.48 342.44 203.9 341.69 204.19 339.2 205.15 338.6 204.7 336.67 203.25 336.48 203.11 334.82 201.86 335.04 201.37 335.33 200.76 335.39 200.63 336.36 198.51 336.82 197.51 338.67 193.49 353.2 174.03 355.83 175.49"/><path class="cls-38" d="M362.78,169.89s-2.71,9.15-2.81,9.56-1.24,10.36-1.14,12.05.19,9.24.19,9.24l-3.66-3,4.73-26.26Z"/><circle class="cls-39" cx="374.93" cy="115.97" r="2.25"/><rect class="cls-40" x="372.73" y="115.67" width="4.39" height="0.6"/><path class="cls-41" d="M347.36,149s2.71,2.46,3.41,2.64a21.57,21.57,0,0,0,2.75.3l.1-.7a15,15,0,0,1-3.17-.56c-.51-.31-2.61-1.91-2.61-1.91a1.09,1.09,0,0,0-.49,0C347.19,148.86,347.36,149,347.36,149Z"/><path class="cls-38" d="M378.54,166.12l-.9-.53s-1.59,1.95-1.59,2.5-.25,7.11-.16,7.35a14.86,14.86,0,0,0,2.6,1.13l8.81-2.39Z"/><path class="cls-42" d="M361,181.76s-1.2.93-1.35,1.6a5.84,5.84,0,0,0,.29,2.2c.07.14,1.59,1.68,1.59,1.68l3,0,1.44-1.79-1.73-4.38Z"/><path class="cls-43" d="M389.25,183.35v2.82s-19.58,3.94-20.71,3.47-2-2.39-2-2.39Z"/><path class="cls-42" d="M362.39,189.59s-1.21.93-1.36,1.6a6,6,0,0,0,.3,2.19c.06.15,1.59,1.68,1.59,1.68l3,0,1.44-1.78-1.74-4.39Z"/><path class="cls-44" d="M399.81,152.69a12.36,12.36,0,0,0-7.9-7s-5-3.35-5.4-4.75-4.24-17.57-4.24-17.57-.31-1-.92-1.2-2.21.76-2.21.76-2.8,1.87-2.88,2.51l4.52,28.19s.47,8.34,2.52,10.28,10.16,6.22,14.45.88S399.81,152.69,399.81,152.69Zm-9,12.35c-3.77,0-6.83-3.61-6.83-8.06s3.06-8,6.83-8,6.83,3.6,6.83,8S394.61,165,390.84,165Z"/><path class="cls-37" d="M362,180.76l15.87-5.08s4-1.66,5-1.66c.75,0,3-.08,4.16-.11-.08-.23-.3-.79-.58-.79a36.92,36.92,0,0,0-5,.21c-.74.24-4.61,1.71-4.61,1.71s-.25-4.87.4-6.53a8.83,8.83,0,0,1,1.25-2.39S390.82,173,391,173.23s4.8,7.65,1.1,10-2,1-2,1l-2.71.89s-23.86,3.14-24.76,2.69-1.07-.59-1.13-.59l2.18-.09a.48.48,0,0,0,.42-.25,7.48,7.48,0,0,0,.87-2.08c.06-.73-.4-2.83-1-3.15s-1.9.11-2.3.13a2.45,2.45,0,0,1-.58,0l.84-.89Z"/><path class="cls-37" d="M389.57,184.41s2.53,1.44,2.67,3.75a8.22,8.22,0,0,1-1.36,5.43,10.71,10.71,0,0,1-4.62,2.54c-.9.17-12.61.7-14.11.58s-9.23-1.65-9.23-1.65,3.06-.5,3.2-1.18a6.18,6.18,0,0,0-.09-2.56,5.08,5.08,0,0,0-1.23-1.3,25.07,25.07,0,0,0-3,.08,6.49,6.49,0,0,1,.87-1.12,4.2,4.2,0,0,1,1.06-.73c.43-.11,9.76-.13,10.28-.2s6.32-.58,6.68-.69,5.23-1.06,5.23-1.06l2.17-.84Z"/><path class="cls-43" d="M386.24,196l-.05.87s-13.76,1.09-15,1.09-6.67-2-6.67-2l1.61-.57Z"/><path class="cls-42" d="M361,196.13s-2,1.71-.87,3a7.85,7.85,0,0,0,1.83,1.64l1.78.13,1.14-.82.4-1.9-.93-1.67-1-.49Z"/><path class="cls-44" d="M339,156.89c2.55,6.36,11.55,4.61,14.08,3.35s5.4-9.1,5.4-9.1L371,125.48c.1-.64-2-3.24-2-3.24s-1.27-1.36-1.9-1.37-1.23.88-1.23.88-8.29,14.24-9.16,15.59-6.55,3-6.55,3a12.36,12.36,0,0,0-9.59,4.4S336.46,150.53,339,156.89Zm2.34-7.45c1.3-4.26,5.27-6.82,8.88-5.72s5.49,5.43,4.2,9.69-5.27,6.82-8.88,5.72S340.06,153.69,341.35,149.44Z"/><path class="cls-37" d="M386.58,195.86a11.58,11.58,0,0,1-.47,3.63c-.53,1.18-1.71,3.73-3.77,4.35s-7.28.7-10,.35-9.06-2-10.1-2.68a7.19,7.19,0,0,1-2.13-2.4c0-.21,1.59,1.45,2.08,1.55a4.78,4.78,0,0,0,1.24,0,8.84,8.84,0,0,0,1.28-1.08,3.55,3.55,0,0,0-.11-2.05c-.28-.34-.89-1.38-1.36-1.4s-2.26,0-2.26,0a11.58,11.58,0,0,1,1.65-.59,6,6,0,0,1,1.44.25,7,7,0,0,0,1.18.23l.69.19,1.28.09,2.42.16,2.54.12,2.74,0,3.1.27,2.83,0,3.24-.25,1.79-.28Z"/><path class="cls-44" d="M384.67,160.4l.58.83-1.14,3.23a10,10,0,0,1-1.13-.93c-.06-.14-.07-2.4-.07-2.4Z"/><path class="cls-44" d="M393.46,167.27s-2.48,0-2.64,0a22.59,22.59,0,0,1,2-2.65l.59-.2.27,0Z"/><polygon class="cls-37" points="392.2 166.14 388.62 170.12 388.25 169.48 392.17 165.21 392.2 166.14"/><polygon class="cls-42" points="392.24 165.47 388.62 170.12 387.13 169.77 385.48 167 386.08 163.78 388.3 161.93 390.13 161.93 391.71 162.56 392.24 165.47"/><path class="cls-44" d="M346.87,140.73l3.28-.42-1.36,3.15a25.69,25.69,0,0,0-3.62,1c-.94.43,1.09-3.34,1.09-3.34Z"/><polygon class="cls-45" points="383.14 158.86 384.83 161.12 388.45 157.38 388.08 153.18 385.2 152.61 383.14 158.86"/><path class="cls-42" d="M350.33,133.8s-2.72,6.36-2.61,7.3,2,.86,2,.86L352.8,136Z"/><path class="cls-37" d="M394.62,161.22a34.56,34.56,0,0,1-2.42,4.92s-.2-1.91-.3-2.15-1.16-1.83-1.73-1.83a11.64,11.64,0,0,0-3.91,2.15c-.33.54,0,3.87.2,4.23a14.5,14.5,0,0,0,2.16,1.58s-1.67.92-1.78.94-3.24-2.31-3.29-4.61a19.3,19.3,0,0,1,.87-5.24s2-3.34,2-4.16a33,33,0,0,0,.13-3.55,3.9,3.9,0,0,0-.55-.38l-.14,0-.42,2.42-.66,2.89-.48.55-2.57,2a9.9,9.9,0,0,0-1.76,1.54,26.35,26.35,0,0,0-2.88,4.36c-.37,1-.53,1.44-.53,1.44s-1.42,4.65-.19,7c0,0-14.49,3.7-15.29,4.5a14.42,14.42,0,0,1-1.07,1s.39-5.27.86-6.13a14.36,14.36,0,0,0,.86-3s.65-1.59-.47-.49c0,0-3.07,6.08-3.41,19.24h-.17s.86,8.42.9,8.89,2.25,2.24,2.25,2.24,5.22,1.86,5.51,2,5.3.69,5.3.69l-.88,1s-6,3.76-9.66,4.77-10,1.82-11,1.64-11.61-10.63-11.61-10.63l1.88-1.63s8.23-4.57,10-7.41a52.78,52.78,0,0,0,4.35-10c.12-.87.57-4,.57-4l-1-3.26c0,1.3-.18,6.06-.82,8-.74,2.29-3.52,8-4.31,8.61s-5.61,6-8.63,7.12-3.6.65-3.6.65l-9-11.58,1.12-1.45,4.06-18.83,11.28-19.34s3.29-6.74,3.29-7,1.36.15,1.69-.21a10.68,10.68,0,0,0,1.67-4.12,13.73,13.73,0,0,0-.75-3s.5-1.08.86-1.11a2.89,2.89,0,0,1,3.72,1.59c1.29,2.54,1.77,3.6,1.75,4.21s.1,5.22-.71,7.75a35.52,35.52,0,0,1-2.13,5l-.3.64-.16.26a85,85,0,0,0-3.06,9.49h0c0,.24.07.54.11.79L380,149.16l2.93.28s5.74.41,6.09.58,4.79,1.69,5.53,5.62S394.88,160.06,394.62,161.22Z"/><polygon class="cls-24" points="323.18 186.15 321.18 187.6 323.11 186.07 323.18 186.15"/><path class="cls-24" d="M348.59,216.76l-9.11,9.7-9.05,8.42-2.63,2.41-5,5.05A49.76,49.76,0,0,1,309.59,227l3.29-2.93.17-.15,23.43-20.79.19.14Z"/><polygon class="cls-24" points="336.67 203.25 336.48 203.11 336.52 203.08 336.67 203.25"/><polygon class="cls-24" points="348.61 216.74 348.59 216.76 336.67 203.25 336.52 203.08 336.48 203.11 334.82 201.86 335.04 201.37 322.45 186.78 323.21 186.19 335.33 200.76 336.94 202.7 338.6 204.7 348.61 216.74"/><path class="cls-46" d="M336.48,203.11,313.05,223.9l-.17.15a1.06,1.06,0,0,1-.15-.15c-1.08,1-2.17,1.89-3.28,2.83l0,0c-.18-.32-.35-.65-.51-1l-.12-.29a11.28,11.28,0,0,0-.91-1.83l0-.08a1.19,1.19,0,0,0-.23-.52s0,0,0,0c-.26-.58-.5-1.17-.72-1.76a8.17,8.17,0,0,0-.61-1.78L306,219a.08.08,0,0,0,0,0c-.41-1.23-.75-2.48-1-3.74,0-.1-.05-.2-.07-.3l-.21-1,0,0a42.09,42.09,0,0,1-26.8,14l.09-.1.13-.13,17.63-19,14.5-13.2,11-8,2-1.45,0,0-.76.59L335,201.37l-.22.49Z"/><path class="cls-46" d="M304.91,214.87c-.08-.33-.16-.65-.24-.93l0,0Z"/><path class="cls-46" d="M306,218.91a24.27,24.27,0,0,1-1-3.74C305.28,216.43,305.62,217.68,306,218.91Z"/><path class="cls-46" d="M307.61,223c-.06-.11-.12-.2-.15-.25a6.27,6.27,0,0,1-.56-1.46s0,0,0,0C307.11,221.86,307.35,222.45,307.61,223Z"/><path class="cls-46" d="M307.88,223.65l0,0v0Z"/><path class="cls-46" d="M312.88,224.05,309.59,227l0,0a5.27,5.27,0,0,1-.64-1.24c.16.33.33.66.51,1l0,0c1.11-.94,2.2-1.87,3.28-2.83A1.06,1.06,0,0,0,312.88,224.05Z"/><polygon class="cls-46" points="337.02 202.63 336.94 202.7 336.52 203.08 336.48 203.11 334.82 201.86 335.04 201.37 322.45 186.78 323.21 186.19 323.18 186.15 323.44 185.96 323.47 185.99 335.39 200.63 337.02 202.63"/><polygon class="cls-24" points="339.53 200.46 338.63 201.23 337.02 202.63 336.94 202.7 336.51 203.07 335.04 201.37 322.45 186.78 323.21 186.19 323.47 185.99 325.72 184.24 328.26 187.28 336.82 197.51 337.26 198.04 338.37 199.22 339.41 200.33 339.53 200.46"/><polygon class="cls-46" points="351.57 214.71 349.07 217.3 348.59 216.76 336.67 203.25 336.52 203.08 336.51 203.07 336.94 202.7 337.02 202.63 338.63 201.23 339.53 200.46 342.44 203.9 346.61 208.84 351.57 214.71"/><path class="cls-44" d="M399.81,152.69a12.36,12.36,0,0,0-7.9-7s-4-2.68-5.12-4.24l-.25,0c-1.81.19-3.6.61-5.39,1a1.57,1.57,0,0,1-1.74-.83,2.09,2.09,0,0,1-.56,0l1.93,12s.42,7.45,2.2,9.9a7.46,7.46,0,0,1,1-2.19,1.88,1.88,0,0,1,.53-.52,1.54,1.54,0,0,1,.17-.42A9.1,9.1,0,0,1,384,157c0-4.45,3.06-8,6.83-8s6.83,3.6,6.83,8a8.16,8.16,0,0,1-4.22,7.44,1.7,1.7,0,0,1-.41,1.64,1.66,1.66,0,0,1,.42,1.21,6.59,6.59,0,0,0,4.29-2.48C402,159.44,399.81,152.69,399.81,152.69Z"/><path class="cls-44" d="M355.58,152.92a1.55,1.55,0,0,1-.54-.64c-.14.14-.28.28-.43.41s-.11.48-.18.72c-1.3,4.25-5.27,6.82-8.88,5.72s-5.49-5.44-4.2-9.69a8.72,8.72,0,0,1,3.82-5,13.75,13.75,0,0,1,.8-1.58,8.19,8.19,0,0,1,.9-2.11,12.15,12.15,0,0,0-6.31,4s-4.1,5.82-1.55,12.18,11.55,4.61,14.08,3.35c1.58-.78,3.3-4.15,4.37-6.56a1.59,1.59,0,0,1-.15-.29A2.39,2.39,0,0,1,355.58,152.92Z"/></svg>