<svg id="Layer_1" data-name="Layer 1" xmlns="http://www.w3.org/2000/svg" viewBox="0 0 350 350"><defs><style>.cls-1{fill:#cce4ff;}.cls-2{fill:#4c9dfe;}.cls-3{fill:#fff;}</style></defs><rect class="cls-1" x="-11" y="-5" width="372" height="367"/><path class="cls-2" d="M343.25,303.52c0,2.48-5,6.2-5,6.2H240.19c-3.73,0-3.73-5-3.73-5V271.23c0-9.93-2.48-6.21-2.48-6.21-18,13.71-44.22,17.36-58.77,18.32,1.26-3.64-.62-8.5-5.62-8.5a5.63,5.63,0,0,0-5.14,2.87v-33.8h19.86c21.11-2.48,43.46-14.9,53.4-47.18s12.41-43.46,39.73-50.91,49.67,34.77,49.67,34.77C339.52,210.39,343.25,301,343.25,303.52Z"/><circle class="cls-3" cx="80.01" cy="88.7" r="48.43"/><path class="cls-3" d="M22.89,180.59s22.35-42.22,49.67-34.77,29.8,18.63,39.73,50.91,32.29,44.7,53.4,47.18h2.48v14.9h17.38v24.84S142.1,284.89,116,265c0,0-2.48-3.72-2.48,6.21v33.53s0,5-3.73,5H11.72s-5-3.72-5-6.2S10.48,210.39,22.89,180.59Z"/><circle class="cls-2" cx="269.99" cy="88.7" r="48.43"/></svg>