<svg id="Layer_1" data-name="Layer 1" xmlns="http://www.w3.org/2000/svg" viewBox="0 0 787.26 787.26"><defs><style>.cls-1{fill:#cce3ff;stroke:#fff;stroke-miterlimit:10;}.cls-2{fill:#e2f938;}.cls-3{fill:#f6c1b0;}.cls-4{fill:#f800ff;}.cls-5{fill:#cba194;}.cls-6{fill:#e6b5a5;}.cls-7{fill:#6d391d;}.cls-8{fill:#092a36;}.cls-9{fill:#f6f6f6;}.cls-10{fill:#e3b080;}.cls-11{fill:#cd9162;}.cls-12{fill:#c98a5b;}.cls-13{fill:#dda776;}.cls-14{fill:#f3cdaa;}.cls-15{fill:#ce9261;}.cls-16{fill:#d0976e;}.cls-17{fill:#b9794a;}.cls-18{fill:#cd9163;}.cls-19{fill:#d29572;}.cls-20{fill:#499fbb;}.cls-21{fill:#4190ad;}.cls-22{fill:#52b2cc;}.cls-23{fill:#5cb6d2;}.cls-24{fill:#66cae4;}.cls-25{fill:#b5b5c4;}.cls-26{fill:#9e9ea8;}.cls-27{fill:#ce2b1d;}.cls-28{fill:#cadce6;}.cls-29{fill:#9c9c9c;}.cls-30{fill:#898989;}.cls-31{fill:#e02f22;}.cls-32{fill:#cc2a1d;}.cls-33{fill:#b9251a;}.cls-34{fill:#ac8e89;}.cls-35{fill:#b5c3c9;}.cls-36{fill:#c0ccd0;}.cls-37{fill:#a4b4b9;}.cls-38{fill:#afafaf;}.cls-39{fill:#c8c8c8;}.cls-40{fill:#939393;}.cls-41{fill:#b0b0b0;}.cls-42{fill:#c6c6c6;}.cls-43{fill:#aeaeae;}.cls-44{fill:#969696;}.cls-45{fill:#989898;}.cls-46{fill:#cacaca;}.cls-47{fill:#f2f5f8;}.cls-48{fill:#bec2c7;}.cls-49{fill:#dc813b;}.cls-50{fill:#c75a24;}.cls-51{fill:#322727;}.cls-52{fill:#ff0a1a;}</style></defs><circle class="cls-1" cx="393.63" cy="393.63" r="393.13"/><path class="cls-2" d="M290.37,591.53s-57.88-8.3-73.5-6-42.43,13-42.43,13c-6.59,3.48-44.84,53.06-59.56,72.34a391.88,391.88,0,0,0,276.47,115.9V713.52l0,0h.6l.32-109.62c-29.06,0-57.64-1.06-81.46-3Z"/><path class="cls-3" d="M263.85,400.63s-34.06-16.46-40-33.61-8-25.14-7.08-32.92,5-19,10.28-24.23a37.27,37.27,0,0,1,12.58-7.77l22.63,5.71Z"/><path class="cls-4" d="M393.63,786.76A391.83,391.83,0,0,0,669.77,673.41c-12.87-16.89-54.35-70.92-61.46-74.88l0,0s-26.79-10.66-42.42-13-73.5,6-73.5,6l-19.58,8.94c-24.95,2.15-49.69,3.41-80.6,3.41l-.88,109.62,0,0v73.21C392.1,786.73,392.86,786.76,393.63,786.76Z"/><path class="cls-5" d="M392.32,620.56v17.27s-81-4.29-101.95-46.3l7.09-7.54Z"/><path class="cls-3" d="M392.32,556.21s1.41-1.47,1.41,27.1-1.41,37.25-1.41,37.25-69.94-2.51-94.86-36.57c0,0,13-41.19,21-67.9C326.89,488.14,392.32,556.21,392.32,556.21Z"/><path class="cls-5" d="M236,304.15s-2.06,41.84,1.83,56c0,0,6.52,29.6,8.12,31s16.69,9,16.69,9l-1.26-95.1-23-2.75S236.19,303,236,304.15Z"/><path class="cls-5" d="M318.49,516.09s36.35,40.46,72.36,40.12h1.4V528.43l-71.13-32.18S319.64,513.68,318.49,516.09Z"/><path class="cls-3" d="M391.88,274l.21,259.94S366,531.17,355,523.12s-28.13-19.21-35.67-28.47S285.23,453,277.51,437s-15.6-36-15.6-36-11-42.69-11.83-55-.69-23.49-.69-23.49l6.35-43Z"/><path class="cls-3" d="M520.12,400.63s34.06-16.46,40-33.61,8-25.14,7.08-32.92-5-19-10.28-24.23a37.27,37.27,0,0,0-12.58-7.77l-22.63,5.71Z"/><path class="cls-5" d="M392.32,620.56v17.27s80.36-4.29,101.28-46.3L486.51,584Z"/><path class="cls-6" d="M392.32,556.21v64.35s69.27-2.51,94.19-36.57c0,0-13-41.19-21-67.9C457.08,488.14,392.32,556.21,392.32,556.21Z"/><path class="cls-5" d="M548,304.15s2.06,41.84-1.83,56c0,0-6.51,29.6-8.11,31s-16.69,9-16.69,9l1.25-95.1,23-2.75S547.78,303,548,304.15Z"/><path class="cls-5" d="M465.48,516.09s-36.35,40.46-72.36,40.12h-1.4V528.43l71.13-32.18S464.34,513.68,465.48,516.09Z"/><path class="cls-6" d="M392.09,240.37V533.92S418,531.17,429,523.12s28.12-19.21,35.66-28.47S498.74,453,506.46,437s15.6-36,15.6-36,11-42.69,11.83-55,.69-23.49.69-23.49l-6.35-69.78Z"/><path class="cls-7" d="M393.79,98.33l-1.14,175.81s-28.35,10.75-61,8.46-49.16,4.57-49.16,4.57-20.11,6.86-26.52,21.72a167.09,167.09,0,0,0-9.37,30.18s-4.34-16.92-4.91-22.18S229.19,234.13,239,203.27s19-71.1,47.32-85.05c0,0,27.09-15.54,44.81-18.17s35.44-4.23,35.44-4.23S392.88,96.5,393.79,98.33Z"/><path class="cls-8" d="M627.05,402.27c-6.64-43.52,4-110.34,4-110.34s19-120.75-.88-164.27-53.1-53.94-53.1-53.94-41.6-3.67-77,61.91l-2.34,4.57s-31.39-31.06-74.52-39.54c-31.78-6.24-30.39-2-30.39-2l-.32,195.94,28,2.68V250.12l11.55,45.39h35.26l.94-46.69s10,27.67,9.68,38.91L477.63,299l20.86,0s-1.87-43.63,1.88-45.79,5.3,45.79,5.3,45.79l1.39,4.87c8.35-1,16.78-.4,25.16-.32,7.79-12,12.79-24.76,13.07-40,2.56-5.18,4.25-4.34,3.47-11.13,0-.17-.27-.37-.11-.36.36-.33,0-2,.48-2.22-1.15-13.62-.41-16.08-.41-16.08S574,250.87,573.06,337.29s31.87,111,31.87,111,31.42,36.16,66.82-9.2C671.75,439,633.69,445.79,627.05,402.27Z"/><path class="cls-8" d="M548.58,250.43s3.44,50.42-.27,57.17l-16.09-4.12Z"/><path class="cls-9" d="M445.21,451.29a51.8,51.8,0,1,1-103.6,0"/><path class="cls-10" d="M267,552.47l56.48,27.74,31.08-12.37,16-5.68s15.71.34,18.72,4,90.9,88.56,90.9,88.56L512,680.47s3.68,8.35,1.34,13-11,20.39-20.72,14.71-39.77-27.74-39.77-27.74-.67,25.06-20.72,23.72-20.72-10.36-20.72-10.36,45.79,6,0,35.76S297.11,593.24,297.11,593.24l-12,80.88"/><polygon class="cls-10" points="259.24 625.56 266.24 552.78 267.39 552.78 279.25 610.22 264.97 653.64 254.82 642.6 259.24 625.56"/><path class="cls-10" d="M292.32,681.48s7.91.2,11.25,3.21,9.91,4.8,9.91,4.8l9.36-4.68,9.36.67,3.34,2.67,5.68,8,7,10.36,22.73.34L300.78,587.56l-36-24.42L249,654.42l29.36,18.7Z"/><polyline class="cls-11" points="231.9 665.6 310.19 704.6 317.9 688.2 252.46 655.09 267 552.34 265.84 552.11"/><polygon class="cls-10" points="395.05 729.31 395.3 739.03 401.47 749.1 410.18 747.15 410.61 721.87 395.05 729.31"/><polygon class="cls-12" points="418.94 739.27 424.03 743.97 429.24 748.03 433.3 750.32 438.26 751.46 444.74 750.83 451.98 745.87 452.91 743.7 454.01 740.28 430.51 722.75 413.35 732.15 412.97 734.31 418.94 739.27"/><path class="cls-12" d="M456.18,701.62l12.89,11.25L482,722.6l-1.65,2.82-2.28,1.8a26.88,26.88,0,0,1-3.75,2.61c-1.15.49-5.39,1-6,.65s-5.22-.16-5.87-1-31-22.26-31-22.26l21.07-8.9Z"/><path class="cls-13" d="M430.29,725.28l-.33,1.85s-10.73,7.54-14.92,6.2,2.08,4.11,2.08,4.11l2.51,2.09.27,7.55s-.67,9.56-2.85,9.72-13.58-8.71-13.58-8.71L409,739.7l.34-12.91L450.58,678l33,23.8s4.73,19.78-1.14,21-13.18-8.35-13.18-8.35L454.1,699.63l-3.52,2.85-7.21,2.68-8.21,1.68-.17,1.68,15.26,10.9,4.07,3.47,1.56,1.13s1.77,20.84-3.09,19.67"/><path class="cls-12" d="M389.25,760.29s9.41,6.19,13.12,5.92,8.88-2.72,8.88-2.72,4.71-4.53,4.89-5.43a5,5,0,0,0,.05-1.65l-10.92-7.14s-3.9-2.81-4-3.26-3.26-5-3.26-5"/><path class="cls-14" d="M272.91,692.79l6.14-10.74,4.38-4.38,4.61-2,4.39-.9,3.28.46,2.63.66,2.41,2-23.89,42.53-3.51-2.2-3.73-3.94-2.19-4.61s.22-7.23.44-7.89S272.91,692.79,272.91,692.79Z"/><polyline class="cls-15" points="343.59 700.08 349.74 708.66 343.8 709.9"/><path class="cls-16" d="M301.9,708.65,308,698l1.55-5.88-.61-4.8-1.43-4.08-2-2.44L303.6,679l-2.89-1-24.37,41.73,3.62,1.74,5.23,1,5-.59s6.07-4,6.52-4.47S301.9,708.65,301.9,708.65Z"/><polygon class="cls-10" points="325.28 677.72 401.42 726.4 391.97 738.35 361.83 719.27 338.12 703.58 319.75 689.67 315.29 677.72 325.28 677.72"/><path class="cls-14" d="M332.9,725.43l6.36-11,4.54-4.5,4.77-2,4.56-.94,3.39.49,2.73.67,2.5,2L337,753.8l-3.63-2.26-3.86-4-2.28-4.72s.23-7.43.46-8.11S332.9,725.43,332.9,725.43Z"/><path class="cls-16" d="M362.94,742l6.32-11,1.61-6.09-.64-5-1.47-4.22-2.11-2.53-1.95-1.88-3-1-25.26,43.21,3.75,1.8,5.43,1,5.21-.62s6.29-4.08,6.75-4.62S362.94,742,362.94,742Z"/><path class="cls-14" d="M302.12,707.84l7.51-13.76,5.29-5.57,5.49-2.45,5.22-1.08,3.87.68,3.1.9,2.8,2.61-29.26,54.47-4.1-2.91-4.31-5.18-2.49-6s.43-9.35.71-10.2S302.12,707.84,302.12,707.84Z"/><path class="cls-16" d="M336,729.3l7.47-13.71,2-7.62-.61-6.27-1.59-5.34-2.35-3.23-2.18-2.41-3.39-1.3-29.82,53.84,4.25,2.34L316,747l6-.67s7.27-5,7.81-5.67S336,729.3,336,729.3Z"/><path class="cls-10" d="M267.87,701.78c.22-.66,5-9,5-9l6.14-10.74"/><polyline class="cls-17" points="368.9 731.65 372.14 729.38 373.62 728.75 372.05 726.62 369.34 726.68"/><polygon class="cls-18" points="368.93 717.18 377.81 729.28 373.58 729.56 372.37 727.85 371.08 727.27 368.86 727.27 368.93 717.18"/><path class="cls-14" d="M360.52,743.3l6.47-9.92,4.63-4,4.85-1.82,4.63-.83,3.46.43,2.78.6,2.54,1.83-25.2,39.25-3.7-2-3.93-3.64-2.31-4.25s.23-6.68.46-7.29S360.52,743.3,360.52,743.3Z"/><path class="cls-10" d="M405.46,749.32s7.2-15.7,6.05-18a15.13,15.13,0,0,1-1.27-3l1.21,2.42,2-.2,7.58-3.29,4.57-4.47,3.43-4.57,2-4.78,1-8.09,3.53-.21,6.33-2.7,4.05-2.81,5.09-5.29,1.77-3.43,1.45-6.64.52-6.65,1.35.21,5.71-1.87,5.19-2.91,4.68-5,2.8-4.68,1.77-4.56.41-5.3-.62-2.49-22.88-3-57.76,87Z"/><path class="cls-16" d="M391.09,758.18l6.44-9.88,1.63-5.47-.65-4.47-1.5-3.79-2.15-2.28-2-1.68-3.05-.89-25.7,38.83,3.83,1.61,5.52.94,5.3-.56s6.4-3.67,6.87-4.16S391.09,758.18,391.09,758.18Z"/><polygon class="cls-16" points="513.71 637.47 531.1 674.95 505.79 688.28 471.98 650.6 509.65 631.48 513.71 637.47"/><polygon class="cls-13" points="471.81 675.01 509.82 701.91 512.58 697.54 513.5 690.4 512.81 682.58 508.67 677.52 470.21 644.91 467.97 656.81 454.82 680.75 471.81 675.01"/><polygon class="cls-12" points="473.09 671.54 489.4 685.92 510.01 701.89 507.55 705.41 502.94 708.28 496.48 709.56 490.32 707.65 478.01 697.42 454.82 680.75 466.01 676.65 473.09 671.54"/><polygon class="cls-19" points="341.39 671.99 346.36 671.99 350.62 670.8 355.83 667.85 359.14 665.36 361.75 659.56 361.87 651.98 362.34 618.37 384.71 608.89 404.01 604.04 416.91 612.21 431.47 621.56 440.47 626.41 465.44 641.57 464.97 628.9 400.69 592.79 354.64 604.28 331.5 663.35 331.68 664.73 333.18 667.15 334.77 668.5 337.31 670.42 341.39 671.99"/><path class="cls-14" d="M481.72,568.8l-38.49,17.89L417.64,566.3s-8.53-1-12.9-.21-20.6,3.13-24.55,4.17-37,8.32-37,8.32l-7.07,1.66-6.66,2.29s-11,11.86-9.78,17.89,2.91,18.31,2.91,18.31l7.91,44.11,1.66,2.09s3.54,2.91,7.29,3.12,10.4-1.88,10.4-1.88,4.58-2.49,5.62-4.78,2.91-5.41,3.53-7.91l.63-2.5L359,617.9l-1.45-9.36,4.58,4,12.9-3.33,13.73-3.95,10-9.36,2.7-.21,2.5,3.54,5.82,4.37,9.16,4.78L438,618.73l38.91,32.88,34.74-16.85Z"/><polygon class="cls-20" points="209.59 515.93 188.47 575.88 173.82 569.39 205.38 514.62 209.59 515.93"/><polygon class="cls-21" points="150.09 624.94 179.54 570.47 187.92 574.54 162.19 639.43 146.14 631.52 150.09 624.94"/><path class="cls-20" d="M44.21,573.94l104.88,59.42L184.57,564,8.77,474.19A389.87,389.87,0,0,0,44.21,573.94Z"/><path class="cls-22" d="M10.27,481.1l170.1,90.1L207,515.15.8,409.1A393.06,393.06,0,0,0,10.27,481.1Z"/><path class="cls-23" d="M162.51,628.08l27.75-66.16L255.7,585.4l-24.89,84.05a25.65,25.65,0,0,1-1.24,3.62c-.36.51-4.85,3.19-7.75,2.25S169.63,651,169.63,651l-8.73-4.23a5.72,5.72,0,0,1-2.68-6C158.83,636.3,162.51,628.08,162.51,628.08Z"/><path class="cls-24" d="M187.87,566.62l23-54.78s.49-2.93,7.58-3.91,47.45,21.77,47.45,21.77,2.2-.25,3.17,2.69a19.72,19.72,0,0,1,.49,7.09l-18.34,60.65Z"/><path class="cls-25" d="M651.7,473.17l-92.2,48.06L525,539.51l-35.78,22.2L542,676.1l15.67-6.79,32.12-12.53,18.54-9.93,75.48-38.65,63-41.7a391.21,391.21,0,0,0,39.68-157.84Z"/><path class="cls-26" d="M513.09,614.22l27.83,62,48.17-18.47,93.8-48.53,60.17-35.25a390.54,390.54,0,0,0,33-88.83Z"/><polygon class="cls-25" points="508.62 628.04 532.55 679.56 544.6 674.48 515 613.3 503.66 618.8 508.62 628.04"/><polygon class="cls-26" points="478.56 565.5 503.66 618.8 515 613.3 488.32 559.63 478.56 565.5"/><rect class="cls-27" x="386.21" y="655.08" width="13.84" height="70.97"/><rect class="cls-28" x="387.92" y="620.47" width="10.86" height="22.02"/><rect class="cls-29" x="386.55" y="641.78" width="1.62" height="9.34" rx="0.34" transform="translate(774.71 1292.9) rotate(-180)"/><rect class="cls-30" x="398.56" y="641.8" width="1.5" height="9.33" rx="0.32" transform="translate(798.62 1292.92) rotate(-180)"/><rect class="cls-31" x="388.17" y="655.13" width="2.18" height="69.94"/><rect class="cls-32" x="390.35" y="655.13" width="3.56" height="69.98"/><rect class="cls-33" x="393.95" y="655.13" width="4.57" height="69.98"/><rect class="cls-34" x="385.18" y="653.66" width="16.38" height="1.56" rx="0.33"/><rect class="cls-35" x="393.44" y="620.34" width="2.46" height="20.86"/><rect class="cls-36" x="391.08" y="620.26" width="2.46" height="20.9"/><path class="cls-37" d="M390.34,640.29h6.1a1,1,0,0,1,1,1v1.36a0,0,0,0,1,0,0h-8.09a0,0,0,0,1,0,0v-1.36A1,1,0,0,1,390.34,640.29Z"/><rect class="cls-29" x="389.89" y="641.78" width="3.94" height="8.93" transform="translate(783.71 1292.49) rotate(180)"/><rect class="cls-38" x="387.83" y="641.78" width="2.05" height="9.01" transform="translate(777.71 1292.56) rotate(180)"/><rect class="cls-39" x="385.18" y="650.65" width="16.38" height="1.42" rx="0.3"/><rect class="cls-40" x="393.74" y="641.8" width="5.25" height="8.84" transform="translate(792.73 1292.44) rotate(180)"/><rect class="cls-41" x="399.88" y="651.32" width="1.68" height="3.18" transform="translate(801.43 1305.83) rotate(180)"/><rect class="cls-40" x="396.31" y="651.32" width="3.8" height="3.18" transform="translate(796.42 1305.83) rotate(180)"/><rect class="cls-38" x="389.83" y="651.32" width="6.5" height="3.18"/><rect class="cls-42" x="386.12" y="651.32" width="3.71" height="3.18"/><rect class="cls-43" x="385.14" y="651.29" width="1.08" height="3.22"/><polygon class="cls-44" points="390.16 604.65 390.49 605.85 390.67 607.84 390.74 609.83 390.69 611.72 390.62 613.07 390.44 614.53 390.21 615.5 396.79 615.5 396.41 613.89 396.15 611.98 396.15 609.32 396.23 607.2 396.48 605.57 396.74 604.57 390.16 604.65"/><rect class="cls-45" x="388.41" y="615.45" width="9.79" height="2.48" rx="0.52"/><rect class="cls-38" x="389.13" y="602.68" width="8.6" height="2.15" rx="0.45"/><rect class="cls-46" x="386.99" y="617.14" width="13.03" height="1.42" rx="0.3"/><rect class="cls-38" x="390.55" y="617.81" width="5.48" height="2.68"/><rect class="cls-41" x="399.02" y="617.81" width="1.41" height="2.68" transform="translate(799.45 1238.3) rotate(180)"/><rect class="cls-40" x="396.01" y="617.81" width="3.2" height="2.68" transform="translate(795.23 1238.3) rotate(180)"/><rect class="cls-42" x="387.52" y="617.81" width="3.03" height="2.68"/><rect class="cls-43" x="386.6" y="617.79" width="0.91" height="2.71"/><rect class="cls-47" x="330.95" y="641.24" width="85.6" height="7.92" transform="translate(1018.44 270.57) rotate(89.92)"/><rect class="cls-48" x="324.92" y="643.18" width="85.68" height="4.11" transform="translate(1012.5 276.6) rotate(89.92)"/><rect class="cls-49" x="355.03" y="703.6" width="37.46" height="7.98" transform="translate(1080.84 332.87) rotate(89.92)"/><rect class="cls-50" x="349.11" y="705.55" width="37.46" height="4.1" transform="translate(1074.94 338.8) rotate(89.92)"/><rect class="cls-51" x="365.76" y="684.43" width="12" height="1.04"/><rect class="cls-51" x="365.76" y="687.91" width="12" height="1.04"/><path class="cls-52" d="M382.27,579.2a83.8,83.8,0,1,0,83.8,83.8A83.81,83.81,0,0,0,382.27,579.2Zm0,152.93a69.13,69.13,0,0,1-53.71-112.65l95.82,98.35A68.81,68.81,0,0,1,382.27,732.13Zm53.28-25.08-95.75-98.6a69.13,69.13,0,0,1,95.75,98.6Z"/></svg>