<svg id="Layer_1" data-name="Layer 1" xmlns="http://www.w3.org/2000/svg" viewBox="0 0 245 245"><defs><style>.cls-1{fill:#6eb2fd;}.cls-2{fill:#802b28;}.cls-3{fill:#cc8651;}.cls-4{fill:#fba77a;}.cls-5{fill:#ffa766;}.cls-6{fill:#013155;}.cls-7{fill:#92cfd8;}.cls-8{fill:#fffcf1;}.cls-9{fill:#ffc096;}.cls-10{fill:#f1ffff;}.cls-11{fill:#004360;}.cls-12{fill:#b8f2e7;}.cls-13{fill:#cce4ff;}.cls-14{fill:#fff;}.cls-15{fill:red;}.cls-16{fill:#ce2b1d;}.cls-17{fill:#cadce6;}.cls-18{fill:#9c9c9c;}.cls-19{fill:#898989;}.cls-20{fill:#e02f22;}.cls-21{fill:#cc2a1d;}.cls-22{fill:#b9251a;}.cls-23{fill:#ac8e89;}.cls-24{fill:#b5c3c9;}.cls-25{fill:#c0ccd0;}.cls-26{fill:#a4b4b9;}.cls-27{fill:#afafaf;}.cls-28{fill:#c8c8c8;}.cls-29{fill:#939393;}.cls-30{fill:#b0b0b0;}.cls-31{fill:#c6c6c6;}.cls-32{fill:#aeaeae;}.cls-33{fill:#969696;}.cls-34{fill:#989898;}.cls-35{fill:#cacaca;}.cls-36{fill:#e3b080;}.cls-37{fill:#cd9162;}.cls-38{fill:#c98a5b;}.cls-39{fill:#dda776;}.cls-40{fill:#f3cdaa;}.cls-41{fill:#ce9261;}.cls-42{fill:#d0976e;}.cls-43{fill:#b9794a;}.cls-44{fill:#cd9163;}.cls-45{fill:#d29572;}.cls-46{fill:#499fbb;}.cls-47{fill:#4190ad;}.cls-48{fill:#52b2cc;}.cls-49{fill:#5cb6d2;}.cls-50{fill:#66cae4;}.cls-51{fill:#d33334;}.cls-52{fill:#bf2e2e;}.cls-53{fill:#ae292a;}.cls-54{fill:#f2f5f8;}.cls-55{fill:#bec2c7;}.cls-56,.cls-57{fill:none;stroke:#322727;stroke-miterlimit:10;}.cls-56{stroke-width:0.25px;}.cls-57{stroke-width:3px;}.cls-58{fill:#c75a24;}.cls-59{fill:#dc813b;}.cls-60{fill:#606060;opacity:0.36;}.cls-61{fill:#00467b;}.cls-62{font-size:11.18px;font-family:Arial-Black, Arial Black;font-weight:800;}</style></defs><rect class="cls-1" width="245" height="245" rx="20.68"/><path class="cls-2" d="M178.33,94l18.85-18.09s3-3,3.2-6.18a10.64,10.64,0,0,0-1.15-5.56s-2.76-3.69-4.45-3.86a19.77,19.77,0,0,0-4.84-.38,19.8,19.8,0,0,0-4.88,1.61l-10.44,7.89L155.05,89.62l11.47,5.89Z"/><path class="cls-2" d="M170.22,184.89l-.14,6.37s-1.64,5.22-4.29,6.51-13,9.21-13,9.21l-3.37.37-10.66,21.12-9.56-2.29-2.69-34.47L140.06,185l16.32-14.49Z"/><path class="cls-3" d="M137.86,187.22a8.68,8.68,0,0,1-1.41,2.22c-.69.62-2.52,2.52-2.52,2.52l-4.21,3.78-2.87,2L117,220.56l-1,3.35-14.43-12.69-27-24.8Z"/><polygon class="cls-4" points="165.43 87.67 165.38 87.68 154.84 90.55 155.45 99.05 165.43 87.67"/><path class="cls-2" d="M153.13,34.76l9.14.34s4.7.83,6.22,4a15,15,0,0,1,1.81,6.07c0,1.13.1,8.86.1,8.86L154,66.71Z"/><path class="cls-5" d="M155.76,63.83l11.4-11,3.91-3.49s1.91-1.71,3.71-1.69,4.43.29,4.43.29,3.9,1.45,4.85,3.77,1.57,4,1.54,5.38a11,11,0,0,1-.88,4.18,29.41,29.41,0,0,1-2.33,3L153.86,92.57l.83-27.31Z"/><polygon class="cls-6" points="108.67 245 114.59 245 119.47 226.86 82.14 216.81 78.22 231.38 77.88 231.29 74.98 245 75.02 245 108.67 245"/><polygon class="cls-7" points="84.97 206.8 118.21 215.81 115.54 225.87 82.24 216.92 84.97 206.8"/><polygon class="cls-8" points="97.43 225.21 96.8 223.69 100.04 222.04 102.92 222.82 103.92 224.21 97.43 225.21"/><path class="cls-9" d="M97.43,225.21l2,3.67,4.38,7.62,1,1.35,6-1.87-6.19-11.91a6.76,6.76,0,0,0-1.62-.15,16.76,16.76,0,0,0-3.41.24A19.25,19.25,0,0,0,97.43,225.21Z"/><path class="cls-2" d="M179.73,124.76a2.37,2.37,0,0,1,.85-.49c.39-.07,2.26,0,2.26,0l2.19.1a4.83,4.83,0,0,1,2.19.71,14.06,14.06,0,0,1,3.11,3.15,9.66,9.66,0,0,1,1.51,5.65c-.18,2.31-.49,3.27-1.39,4.47s-16.53,17.8-16.53,17.8-1.84,1.24-2.28,1.44-4.48.48-5.51-.1a36.53,36.53,0,0,1-3.45-2.64s-2.24-2.54-2.33-3.84-.45-3-.23-3.79a23.11,23.11,0,0,1,1.44-3.17c.17-.22,2.71-3.19,2.71-3.19Z"/><path class="cls-2" d="M179.51,99.38a2.79,2.79,0,0,1,1-.52c.45-.08,2.6-.09,2.6-.09l2.52,0a6.25,6.25,0,0,1,2.53.66,15.09,15.09,0,0,1,3.66,3.1,8.94,8.94,0,0,1,1.85,5.66c-.15,2.33-.49,3.3-1.49,4.54s-18.62,18.36-18.62,18.36-2.09,1.31-2.6,1.51-5.14.6-6.34,0a40.23,40.23,0,0,1-4-2.57s-2.63-2.51-2.76-3.81-.58-3-.34-3.82a21.21,21.21,0,0,1,1.58-3.23c.2-.23,3.05-3.29,3.05-3.29Z"/><path class="cls-2" d="M179.51,99.38a2.79,2.79,0,0,1,1-.52c.45-.08,2.6-.09,2.6-.09l2.52,0a6.25,6.25,0,0,1,2.53.66,15.09,15.09,0,0,1,3.66,3.1,8.94,8.94,0,0,1,1.85,5.66c-.15,2.33-.49,3.3-1.49,4.54s-18.62,18.36-18.62,18.36-2.09,1.31-2.6,1.51-5.14.6-6.34,0a40.23,40.23,0,0,1-4-2.57s-2.63-2.51-2.76-3.81-.58-3-.34-3.82a21.21,21.21,0,0,1,1.58-3.23c.2-.23,3.05-3.29,3.05-3.29Z"/><path class="cls-2" d="M179.25,150.27a3,3,0,0,1,1-.54c.46-.09,2.68-.09,2.68-.09l2.61,0a6.41,6.41,0,0,1,2.63.67,16.27,16.27,0,0,1,3.79,3.2,9.3,9.3,0,0,1,1.94,5.87c-.16,2.41-.51,3.42-1.54,4.7s-19.23,19.07-19.23,19.07-2.16,1.36-2.69,1.57-5.32.63-6.56.06a42.45,42.45,0,0,1-4.18-2.66s-2.73-2.59-2.87-3.94-.61-3.15-.36-3.95a22.59,22.59,0,0,1,1.63-3.36c.2-.23,3.15-3.41,3.15-3.41Z"/><path class="cls-9" d="M105.23,174.2l10.92-3.62a6,6,0,0,1,1,2.51c.35,1.73.51,3,.51,3l0,1.78-.43,2.08-.89,1.41L115,182.57a7.06,7.06,0,0,1-2.3.52,22.82,22.82,0,0,1-2.78-.54l-2.08-1.89s-1.7-3.3-1.89-4S105.23,174.2,105.23,174.2Z"/><path class="cls-10" d="M105.31,173.21l7.1-2.57,2.5-.6s.75-.18,1,.18l.24.36-10.92,3.62-.11-.72Z"/><polygon class="cls-10" points="51.96 93.88 51.96 93.88 52.07 92.11 55.98 92.15 58.96 94.42 58.76 96.63 51.96 93.88"/><path class="cls-5" d="M58.37,180.87a1.35,1.35,0,0,1-.22-.19v-.06A3,3,0,0,1,58.37,180.87Z"/><path class="cls-9" d="M52,93.88l.21,16.9,9.61-.58-3-13.57a16.63,16.63,0,0,0-2.88-1.95,13.69,13.69,0,0,0-2.74-.83C52.73,93.85,52,93.88,52,93.88Z"/><path class="cls-11" d="M93.21,23.94H129.6a0,0,0,0,1,0,0v5.74a3.25,3.25,0,0,1-3.25,3.25H96.46a3.25,3.25,0,0,1-3.25-3.25V23.94A0,0,0,0,1,93.21,23.94Z"/><path class="cls-5" d="M54.11,198.51l4-17.83a1.35,1.35,0,0,0,.22.19,3,3,0,0,0-.21-.25v.06c-.14-.11-.33-.29-.62-.56-1.43-1.37-4.73-9.39-5.22-10.57S51,165,51,165v-4.28l.35-8.58.82-41.37s3.2-.24,4.44-2.4a18.17,18.17,0,0,0,2-6c0-.7-.09-6.23-.09-6.23s-1.2-3.18-1.89-3.5a29,29,0,0,0-4.59-.56l1.5-1.64a2.5,2.5,0,0,1,1.51-.85c.85-.07,3.33-.2,4.19.3A15.29,15.29,0,0,1,62.4,92a21.8,21.8,0,0,1,3.31,4.68C66.09,97.83,68,106,68,106l6.61,67.25,1.37,14,5.52,5.15L101.43,211Z"/><polygon class="cls-12" points="51.82 197.81 85.06 206.82 82.4 216.88 49.09 207.92 51.82 197.81"/><rect class="cls-11" x="71.44" y="23" width="87.51" height="164.33" rx="7.84"/><polygon class="cls-2" points="135.71 218.4 111.27 220.76 110.96 231.49 120.42 243.63 127.83 243.63 135.71 218.4"/><path class="cls-13" d="M81.25,24.58h67.47a8.49,8.49,0,0,1,8.49,8.49V178.52a7.7,7.7,0,0,1-7.7,7.7H80.45a7.7,7.7,0,0,1-7.7-7.7V33.07A8.49,8.49,0,0,1,81.25,24.58Z"/><rect class="cls-14" x="81.27" y="156.35" width="68.1" height="16" rx="8"/><polyline class="cls-12" points="49.09 207.92 51.82 197.81 85.06 206.82"/><path class="cls-5" d="M165.6,139.29a2.47,2.47,0,0,1,.92-.49c.42-.08,2.42,0,2.42,0l2.36.1a5.61,5.61,0,0,1,2.36.7,15.1,15.1,0,0,1,3.35,3.17,9.34,9.34,0,0,1,1.62,5.68c-.19,2.31-.53,3.28-1.49,4.48s-17.78,17.88-17.78,17.88-2,1.25-2.46,1.44-4.82.48-5.93-.09a38,38,0,0,1-3.71-2.66s-2.41-2.55-2.5-3.85-.49-3-.25-3.81a23.17,23.17,0,0,1,1.55-3.18c.19-.22,2.92-3.21,2.92-3.21Z"/><path class="cls-9" d="M156.38,168.9l-9.13-8.67a8,8,0,0,1,2.29-2.31c1.74-1.26,3.09-2.11,3.09-2.11l1.94-1,2.49-.69,2,.12,2,.75a6.91,6.91,0,0,1,1.64,2,21.42,21.42,0,0,1,.72,3l-1.1,3s-2.82,3.41-3.48,4Z"/><path class="cls-10" d="M155.25,169.36l-6.17-5.53-1.84-2.11s-.55-.64-.27-1.06l.28-.43,9.13,8.67-.74.49Z"/><path class="cls-9" d="M104.84,176l11.46-5.21a8,8,0,0,1,1.28,3c.52,2.08.81,3.65.81,3.65l.2,2.18-.29,2.57-.85,1.77L116,185.52a6.87,6.87,0,0,1-2.43.79,21,21,0,0,1-3-.45l-2.4-2.16s-2.11-3.9-2.37-4.71S104.84,176,104.84,176Z"/><path class="cls-10" d="M104.84,174.8l7.44-3.66,2.64-.91s.8-.27,1.09.15l.29.42L104.84,176l-.18-.86Z"/><path class="cls-11" d="M100.19,23h30a0,0,0,0,1,0,0v4.82A4.18,4.18,0,0,1,126,32H104.38a4.18,4.18,0,0,1-4.18-4.18V23A0,0,0,0,1,100.19,23Z"/><rect class="cls-13" x="73.77" y="53.97" width="83.6" height="95.89"/><path class="cls-15" d="M139.31,89.85l-22.46,23.79L93.06,91.18C73.9,73.1,96.36,49.3,115.52,67.38,132,49.88,155.83,72.34,139.31,89.85Z"/><path class="cls-15" d="M139.31,89.85l-22.46,23.79L93.06,91.18C73.9,73.1,96.36,49.3,115.52,67.38,132,49.88,155.83,72.34,139.31,89.85Z"/><path class="cls-14" d="M111.17,92h0l4.15-17.87h1.85l-5,20.62h-2l-4.42-18.21h0L101.37,94.7h-2L94.47,74.08h2.18L100.36,92h0l4.42-17.87h2Z"/><rect class="cls-14" x="73.77" y="74.08" width="22.88" height="1.47"/><polygon class="cls-14" points="156.77 75.67 115.74 75.67 115.74 74.08 156.77 73.96 156.77 75.67"/><rect class="cls-14" x="112.8" y="93.17" width="19.09" height="1.47"/><rect class="cls-14" x="115.74" y="84.36" width="13.22" height="1.47"/><rect class="cls-15" x="114.32" y="78.29" width="1.43" height="17.76" transform="translate(25.74 -26.23) rotate(14.63)"/><rect class="cls-16" x="95.25" y="114.25" width="8.13" height="41.7" transform="translate(234.42 35.79) rotate(90)"/><rect class="cls-17" x="130.84" y="128.76" width="6.38" height="12.94" transform="translate(269.26 1.2) rotate(90)"/><rect class="cls-18" x="124.76" y="128.96" width="0.95" height="5.49" rx="0.34" transform="translate(-6.47 256.94) rotate(-90)"/><rect class="cls-19" x="124.79" y="135.99" width="0.88" height="5.48" rx="0.32" transform="translate(-13.5 263.96) rotate(-90)"/><rect class="cls-20" x="98.94" y="112.28" width="1.28" height="41.1" transform="translate(232.41 33.24) rotate(90)"/><rect class="cls-21" x="98.53" y="113.95" width="2.09" height="41.12" transform="translate(234.09 34.94) rotate(90)"/><rect class="cls-22" x="98.23" y="116.37" width="2.68" height="41.12" transform="translate(236.5 37.35) rotate(90)"/><rect class="cls-23" x="115.72" y="134.78" width="9.63" height="0.92" rx="0.33" transform="translate(255.78 14.7) rotate(90)"/><rect class="cls-24" x="133.73" y="129.87" width="1.45" height="12.26" transform="translate(270.45 1.55) rotate(90)"/><rect class="cls-25" x="133.76" y="128.48" width="1.45" height="12.28" transform="translate(269.1 0.13) rotate(90)"/><path class="cls-26" d="M126.78,134.56h2.76a1,1,0,0,1,1,1v.39a0,0,0,0,1,0,0h-4.76a0,0,0,0,1,0,0v-.39A1,1,0,0,1,126.78,134.56Z" transform="translate(263.42 7.1) rotate(90)"/><rect class="cls-18" x="124.2" y="131.73" width="2.32" height="5.25" transform="translate(-9 259.71) rotate(-90)"/><rect class="cls-27" x="124.73" y="129.94" width="1.21" height="5.29" transform="translate(-7.26 257.92) rotate(-90)"/><rect class="cls-28" x="117.54" y="134.82" width="9.63" height="0.83" rx="0.3" transform="translate(257.59 12.89) rotate(90)"/><rect class="cls-29" x="123.83" y="134.4" width="3.08" height="5.19" transform="translate(-11.63 262.37) rotate(-90)"/><rect class="cls-30" x="120.94" y="138.62" width="0.99" height="1.87" transform="translate(-18.12 260.99) rotate(-90)"/><rect class="cls-29" x="120.32" y="137.15" width="2.23" height="1.87" transform="translate(-16.65 259.52) rotate(-90)"/><rect class="cls-27" x="119.52" y="134.14" width="3.82" height="1.87" transform="translate(256.51 13.64) rotate(90)"/><rect class="cls-31" x="120.35" y="131.14" width="2.18" height="1.87" transform="translate(253.51 10.63) rotate(90)"/><rect class="cls-32" x="121.13" y="129.78" width="0.63" height="1.89" transform="translate(252.16 9.28) rotate(90)"/><polygon class="cls-33" points="149.8 133.35 149.09 133.55 147.92 133.65 146.75 133.7 145.64 133.67 144.85 133.62 143.99 133.52 143.42 133.38 143.42 137.25 144.37 137.03 145.49 136.88 147.05 136.88 148.3 136.92 149.26 137.07 149.84 137.22 149.8 133.35"/><rect class="cls-34" x="139.84" y="134.48" width="5.75" height="1.46" rx="0.52" transform="translate(277.93 -7.51) rotate(90)"/><rect class="cls-27" x="147.8" y="134.65" width="5.05" height="1.26" rx="0.45" transform="translate(285.6 -15.04) rotate(90)"/><rect class="cls-35" x="138.21" y="134.9" width="7.66" height="0.83" rx="0.3" transform="translate(277.36 -6.72) rotate(90)"/><rect class="cls-27" x="139.66" y="134.41" width="3.22" height="1.57" transform="translate(276.47 -6.08) rotate(90)"/><rect class="cls-30" x="140.86" y="138.19" width="0.83" height="1.57" transform="translate(2.3 280.25) rotate(-90)"/><rect class="cls-29" x="140.33" y="136.95" width="1.88" height="1.57" transform="translate(3.54 279.01) rotate(-90)"/><rect class="cls-31" x="140.38" y="131.91" width="1.78" height="1.57" transform="translate(273.97 -8.58) rotate(90)"/><rect class="cls-32" x="141.02" y="130.73" width="0.53" height="1.59" transform="translate(272.81 -9.75) rotate(90)"/><path class="cls-36" d="M97.12,95.54l8,3.91,4.39-1.74,2.26-.81s2.22,0,2.64.57S127.21,110,127.21,110l4.48,3.63s.52,1.18.19,1.84-1.56,2.88-2.92,2.07-5.62-3.91-5.62-3.91-.09,3.54-2.92,3.35-2.92-1.46-2.92-1.46,6.46.84,0,5-16.13-19.24-16.13-19.24l-1.7,11.41"/><polygon class="cls-36" points="96.02 105.85 97.01 95.58 97.17 95.58 98.85 103.69 96.83 109.81 95.4 108.25 96.02 105.85"/><path class="cls-36" d="M100.69,113.74a3.08,3.08,0,0,1,1.59.46,4.21,4.21,0,0,0,1.4.67l1.32-.66,1.32.1.47.37.8,1.14,1,1.46,3.21,0-9.9-16.83L96.8,97l-2.22,12.88,4.15,2.64Z"/><polyline class="cls-37" points="92.16 111.5 103.21 117 104.3 114.69 95.07 110.02 97.12 95.52 96.95 95.48"/><polygon class="cls-36" points="115.19 120.49 115.22 121.86 116.09 123.28 117.32 123.01 117.38 119.44 115.19 120.49"/><polygon class="cls-38" points="118.56 121.9 119.28 122.56 120.01 123.13 120.59 123.46 121.29 123.62 122.2 123.53 123.22 122.83 123.35 122.52 123.51 122.04 120.19 119.57 117.77 120.89 117.72 121.2 118.56 121.9"/><path class="cls-38" d="M123.82,116.58l1.81,1.59,1.82,1.38-.23.39-.32.26a3.28,3.28,0,0,1-.53.36,2.42,2.42,0,0,1-.85.1c-.09,0-.74,0-.83-.14s-4.38-3.14-4.38-3.14l3-1.26Z"/><path class="cls-39" d="M120.16,119.92l0,.26s-1.51,1.07-2.1.88.29.58.29.58l.36.29,0,1.07s-.1,1.35-.41,1.37a9.15,9.15,0,0,1-1.91-1.23l.78-1.18,0-1.82,5.83-6.89,4.65,3.36s.66,2.79-.16,3-1.86-1.18-1.86-1.18l-2.14-2.09-.49.41-1,.37-1.16.24,0,.24L123,119.1l.57.49.22.16s.25,2.94-.43,2.77"/><path class="cls-38" d="M114.37,124.86a5.37,5.37,0,0,0,1.85.84,4.5,4.5,0,0,0,1.25-.38,4.94,4.94,0,0,0,.69-.77.6.6,0,0,0,0-.23l-1.54-1a4.37,4.37,0,0,1-.56-.46,7.75,7.75,0,0,0-.46-.7"/><path class="cls-40" d="M98,115.34l.87-1.52.62-.62.65-.27.62-.13.46.06.37.1.34.27-3.37,6-.5-.31-.52-.56-.31-.65s0-1,.06-1.11S98,115.34,98,115.34Z"/><polyline class="cls-41" points="107.93 116.37 108.79 117.58 107.96 117.75"/><path class="cls-42" d="M102,117.58l.86-1.5.22-.83-.08-.68-.2-.58-.29-.34-.27-.26-.4-.13-3.44,5.89.51.24.74.15.71-.09s.85-.56.92-.63S102,117.58,102,117.58Z"/><polygon class="cls-36" points="105.34 113.21 116.09 120.08 114.75 121.77 110.5 119.08 107.15 116.86 104.56 114.9 103.93 113.21 105.34 113.21"/><path class="cls-40" d="M106.42,119.94l.9-1.55.64-.64.67-.28.64-.13.48.06.39.1.35.28L107,124l-.51-.32-.54-.57-.32-.67s0-1,.06-1.14S106.42,119.94,106.42,119.94Z"/><path class="cls-42" d="M110.66,122.28l.89-1.55.23-.86-.09-.7-.21-.59-.3-.36-.27-.27-.43-.14-3.56,6.1.53.26.76.14.74-.09s.89-.57,1-.65S110.66,122.28,110.66,122.28Z"/><path class="cls-40" d="M102.07,117.46l1.06-1.94.75-.79.78-.34.73-.15.55.09.43.13.4.37-4.13,7.68-.58-.41-.61-.73-.35-.84s.06-1.32.1-1.44S102.07,117.46,102.07,117.46Z"/><path class="cls-42" d="M106.86,120.49l1-1.93.28-1.08-.08-.89-.23-.75-.33-.45-.31-.34-.48-.19-4.2,7.6.6.33.87.2.84-.09s1-.71,1.1-.81S106.86,120.49,106.86,120.49Z"/><path class="cls-36" d="M97.24,116.61c0-.1.71-1.27.71-1.27l.87-1.52"/><polyline class="cls-43" points="111.5 120.82 111.96 120.5 112.17 120.41 111.94 120.11 111.56 120.12"/><polygon class="cls-44" points="111.5 118.78 112.75 120.49 112.16 120.53 111.99 120.28 111.81 120.2 111.49 120.2 111.5 118.78"/><path class="cls-40" d="M110.32,122.47l.91-1.4.65-.57.69-.26.65-.12.49.06.39.09.36.25-3.56,5.54-.52-.28-.55-.52-.33-.6a10.09,10.09,0,0,1,.07-1C109.6,123.55,110.32,122.47,110.32,122.47Z"/><path class="cls-36" d="M116.66,123.32s1-2.22.85-2.54a2.61,2.61,0,0,1-.18-.42l.17.34.28,0,1.08-.46.64-.63.48-.65.28-.67.15-1.15.5,0,.89-.38.57-.39.72-.75.25-.48.2-.94.08-.94.19,0,.8-.26.74-.41.66-.71.39-.66.25-.64.06-.75-.09-.35-3.23-.42-8.15,12.29Z"/><path class="cls-42" d="M114.63,124.57l.91-1.4.23-.77-.09-.63-.21-.54-.31-.32-.28-.24-.43-.12L110.83,126l.54.23.77.13.75-.08s.91-.52,1-.59S114.63,124.57,114.63,124.57Z"/><polygon class="cls-42" points="131.93 107.53 134.39 112.82 130.82 114.7 126.05 109.38 131.36 106.69 131.93 107.53"/><polygon class="cls-39" points="126.02 112.83 131.38 116.63 131.77 116.01 131.9 115 131.81 113.9 131.22 113.18 125.8 108.58 125.48 110.26 123.62 113.64 126.02 112.83"/><polygon class="cls-38" points="126.2 112.34 128.5 114.37 131.41 116.62 131.06 117.12 130.41 117.53 129.5 117.7 128.63 117.43 126.9 115.99 123.62 113.64 125.2 113.06 126.2 112.34"/><polygon class="cls-45" points="107.62 112.4 108.32 112.4 108.92 112.24 109.65 111.82 110.12 111.47 110.49 110.65 110.51 109.58 110.57 104.83 113.73 103.5 116.45 102.81 118.27 103.97 120.33 105.29 121.6 105.97 125.12 108.11 125.06 106.32 115.98 101.23 109.49 102.85 106.22 111.18 106.25 111.38 106.46 111.72 106.68 111.91 107.04 112.18 107.62 112.4"/><path class="cls-40" d="M127.42,97.84,122,100.37l-3.61-2.88a8,8,0,0,0-1.82,0c-.62.12-2.91.44-3.47.59s-5.23,1.17-5.23,1.17l-1,.24-.94.32s-1.56,1.67-1.38,2.52.41,2.59.41,2.59l1.11,6.22.24.3a2.1,2.1,0,0,0,1,.44,5.56,5.56,0,0,0,1.46-.27s.65-.35.8-.67a9.33,9.33,0,0,0,.5-1.12l.08-.35-.08-4.67-.21-1.32.65.56,1.82-.47,1.94-.56,1.4-1.32.39,0,.35.5.82.61,1.29.68,2.7,1.47,5.49,4.64,4.91-2.38Z"/><polygon class="cls-46" points="89.02 90.38 86.04 98.84 83.97 97.92 88.42 90.19 89.02 90.38"/><polygon class="cls-47" points="80.62 105.76 84.78 98.08 85.96 98.65 82.33 107.81 80.06 106.69 80.62 105.76"/><polygon class="cls-46" points="72.19 102.88 80.48 106.95 85.48 97.16 72.06 91.18 72.19 102.88"/><polygon class="cls-48" points="72.17 81.5 88.65 90.27 84.89 98.18 72.07 91.34 72.17 81.5"/><path class="cls-49" d="M82.37,106.21l3.92-9.34,9.23,3.31L92,112a4.34,4.34,0,0,1-.17.52,1.46,1.46,0,0,1-1.1.31c-.41-.13-7.36-3.43-7.36-3.43l-1.23-.6a.79.79,0,0,1-.38-.85A9.07,9.07,0,0,1,82.37,106.21Z"/><path class="cls-50" d="M86,97.53,89.2,89.8s.06-.41,1.07-.55S97,92.32,97,92.32s.31,0,.45.38a2.75,2.75,0,0,1,.07,1l-2.59,8.56Z"/><polygon class="cls-51" points="128.48 96.84 133.53 93.71 138.4 91.13 151.41 84.34 157.77 81 157.45 102.88 155.94 103.4 145.29 108.86 142.67 110.26 138.14 112.03 135.93 112.98 128.48 96.84"/><polygon class="cls-52" points="131.85 104.25 157.77 91.16 157.39 102.72 155.81 103.54 142.57 110.39 135.77 112.99 131.85 104.25"/><polygon class="cls-53" points="131.42 106.2 134.66 113.47 136.29 112.75 132.4 104.43 130.84 105.17 131.42 106.2"/><polygon class="cls-52" points="127.33 97.38 130.88 105.18 132.4 104.43 128.62 96.55 127.33 97.38"/><path class="cls-14" d="M103.65,129.46l-1,1.15-2.65-2.05a8.26,8.26,0,0,1-4.5,1.22,8.42,8.42,0,0,1-3.66-.75,7.55,7.55,0,0,1-2.62-2,8.74,8.74,0,0,1-1.58-3,13,13,0,0,1,0-7.25,9,9,0,0,1,1.54-3,7.55,7.55,0,0,1,2.59-2.1,8.09,8.09,0,0,1,3.66-.79,9.24,9.24,0,0,1,3.47.63,7.3,7.3,0,0,1,2.67,1.82,8.48,8.48,0,0,1,1.73,3,12.5,12.5,0,0,1,.61,4.08,12,12,0,0,1-.67,4.08,8.59,8.59,0,0,1-2,3.2ZM100,126.63a6.58,6.58,0,0,0,1.7-2.76,11.12,11.12,0,0,0,.55-3.54,11,11,0,0,0-.51-3.53,7.19,7.19,0,0,0-1.42-2.51,5.76,5.76,0,0,0-2.12-1.52,7.1,7.1,0,0,0-2.68-.5,6.26,6.26,0,0,0-3,.68,6,6,0,0,0-2.07,1.8,7.67,7.67,0,0,0-1.21,2.58,11.86,11.86,0,0,0-.38,3,12.14,12.14,0,0,0,.38,3,7.34,7.34,0,0,0,1.21,2.55,5.77,5.77,0,0,0,2.07,1.75,6.5,6.5,0,0,0,3,.65,6.67,6.67,0,0,0,1.73-.21,6,6,0,0,0,1.42-.59l-2-1.57.9-1.18Z"/><path class="cls-14" d="M106.09,111.3h1.7V122q0,3.34,1.25,4.83a5,5,0,0,0,4,1.47,7.1,7.1,0,0,0,2.46-.38,3.74,3.74,0,0,0,1.64-1.18,4.86,4.86,0,0,0,.9-2,12.59,12.59,0,0,0,.27-2.78V111.3h1.71v11.23a7.61,7.61,0,0,1-1.74,5.39,6.85,6.85,0,0,1-5.24,1.86,6.76,6.76,0,0,1-5.26-1.9,7.66,7.66,0,0,1-1.72-5.35Z"/><rect class="cls-54" x="118.67" y="116.77" width="13.02" height="1.21" transform="translate(242.38 -7.96) rotate(89.92)"/><rect class="cls-55" x="117.74" y="117.06" width="13.04" height="0.63" transform="translate(241.47 -7.05) rotate(89.92)"/><rect class="cls-56" x="115.39" y="119.33" width="18.92" height="1.9" transform="translate(244.96 -4.73) rotate(89.92)"/><line class="cls-57" x1="125.74" y1="123.23" x2="123.85" y2="123.23"/><line class="cls-57" x1="125.74" y1="123.95" x2="123.85" y2="123.95"/><rect class="cls-58" x="121.46" y="126.53" width="5.7" height="0.69" transform="translate(251.01 2.39) rotate(89.92)"/><rect class="cls-59" x="122.32" y="126.27" width="5.7" height="1.2" transform="translate(251.87 1.53) rotate(89.92)"/><path class="cls-14" d="M128.06,111.3h13.11v1.45h-5.7v16.56h-1.7V112.75h-5.71Z"/><path class="cls-60" d="M124.31,109.82c-.17-.11.46-1.77,1.72-3.29a8.81,8.81,0,0,1,4.59-3.33,8.11,8.11,0,0,0,2.24-.68,2.89,2.89,0,0,0,1.66-1.48,1.76,1.76,0,0,0-.45-2,1.46,1.46,0,0,0-1.25,0,1.53,1.53,0,0,0-1,1.24c0,.65.52,1.09.42,1.19s-.72-.18-1.08-.7a3,3,0,0,1,.55-3.63,3.32,3.32,0,0,1,2.78-.83,3.4,3.4,0,0,1,2,1.28,4,4,0,0,1,.89,2.33,3.91,3.91,0,0,1-.64,2.28,5.14,5.14,0,0,1-2.17,1.59c-.93.45-1.54.56-1.52.66a4.27,4.27,0,0,0,2.19-.14,4.91,4.91,0,0,0,2.34-1.1,4.41,4.41,0,0,0,1.34-2.44,4.73,4.73,0,0,0-.22-2.46,4.86,4.86,0,0,0-.74-1.34,10.11,10.11,0,0,0-1.43-1.27,3,3,0,0,1,1.82.77,5,5,0,0,1,1.44,1.91,4.86,4.86,0,0,1-1.14,6,6.16,6.16,0,0,1-3.13,1.55c-.39.08-1.66.11-4.18.16a7.25,7.25,0,0,0-2.39.27,7.41,7.41,0,0,0-2,1.08C125.22,108.74,124.47,109.93,124.31,109.82Z"/><polygon class="cls-11" points="157.77 81 157.37 81.21 157.37 96.53 158.77 93 157.77 81"/><path class="cls-5" d="M165.42,87.81a2.6,2.6,0,0,1,1-.51c.43-.08,2.52,0,2.52,0l2.44.1a5.89,5.89,0,0,1,2.45.73,15.09,15.09,0,0,1,3.47,3.26,9.42,9.42,0,0,1,1.69,5.83c-.2,2.38-.55,3.37-1.55,4.61s-18.45,18.37-18.45,18.37-2.05,1.29-2.55,1.49-5,.49-6.15-.1a40.52,40.52,0,0,1-3.85-2.73s-2.5-2.62-2.6-4-.5-3.12-.25-3.91a22.93,22.93,0,0,1,1.6-3.28c.19-.22,3-3.29,3-3.29Z"/><path class="cls-9" d="M155.85,118.24l-9.47-8.91a8.12,8.12,0,0,1,2.38-2.37c1.8-1.3,3.2-2.18,3.2-2.18l2-1,2.58-.71,2,.12,2.06.78a6.93,6.93,0,0,1,1.71,2,21.84,21.84,0,0,1,.74,3.07L162,112.14s-2.93,3.51-3.6,4.07S155.85,118.24,155.85,118.24Z"/><path class="cls-10" d="M154.68,118.71,148.27,113l-1.91-2.17s-.56-.65-.27-1.09l.29-.44,9.47,8.91-.76.51Z"/><path class="cls-5" d="M166,113.67a2.55,2.55,0,0,1,.91-.49c.42-.08,2.43,0,2.43,0l2.35.1a5.49,5.49,0,0,1,2.36.71,14.59,14.59,0,0,1,3.35,3.16A9.28,9.28,0,0,1,179,122.8c-.19,2.31-.53,3.28-1.49,4.48s-17.78,17.88-17.78,17.88-2,1.25-2.46,1.44-4.81.49-5.92-.09a38.37,38.37,0,0,1-3.71-2.65s-2.41-2.56-2.51-3.86-.48-3-.24-3.8a22.26,22.26,0,0,1,1.55-3.19c.18-.22,2.91-3.21,2.91-3.21Z"/><path class="cls-9" d="M156.78,143.29l-9.12-8.67A7.89,7.89,0,0,1,150,132.3c1.74-1.26,3.09-2.11,3.09-2.11l1.93-1,2.49-.69,2,.12,2,.76a6.79,6.79,0,0,1,1.65,1.95,21.42,21.42,0,0,1,.72,3l-1.1,3s-2.83,3.41-3.48,4S156.78,143.29,156.78,143.29Z"/><path class="cls-10" d="M155.66,143.74l-6.18-5.53-1.84-2.1s-.54-.64-.26-1.07l.28-.42,9.12,8.67-.73.48Z"/><rect class="cls-11" x="71.77" y="72" width="1" height="36"/><path class="cls-2" d="M209.9,245l-8.47-27.2a11.08,11.08,0,0,0-1.43-2.73c-.65-.65-1.83-2-2.95-2.3a19.84,19.84,0,0,0-3.6-.17,6.44,6.44,0,0,0-2.91,1.08c-1.82,1.09-18-8.15-18-8.15l-4.34,1.34-16.87-2.3-4,1.26,1.13,27.9L196,245H209.9Z"/><polygon class="cls-61" points="75.21 244.21 82.55 216.96 45.21 206.93 37.57 235.34 35.1 245 75.02 245 75.21 244.21"/><text class="cls-62" transform="translate(83.07 168.97) rotate(-0.11)">REGISTER</text><path class="cls-5" d="M186.65,206.4a16.66,16.66,0,0,0-1.76-3.64,6.64,6.64,0,0,0-6.66-2.09,16.12,16.12,0,0,0-3,1.1,5.34,5.34,0,0,0-2.1,1.91,11.36,11.36,0,0,0-1.28,4.45l4.34,15.16-1.69,0-7.71-25.12a16.66,16.66,0,0,0-2.42-3.47,10.64,10.64,0,0,0-3.44-1.57,11.07,11.07,0,0,0-4.29.36,18.59,18.59,0,0,0-3.2,1.53,5.93,5.93,0,0,0-2.12,2.22c-1,1.62-.89,4.71-.89,4.71a4.87,4.87,0,0,0,.13,1.23c.15.39,6.68,21.17,6.68,21.17h-2.1l-8.33-27.46a17.7,17.7,0,0,0-2.43-3.47,10.65,10.65,0,0,0-3.44-1.56,10.83,10.83,0,0,0-4.28.36,17.49,17.49,0,0,0-3.2,1.52,5.82,5.82,0,0,0-2.12,2.23c-1,1.62-.89,4.7-.89,4.7l7.41,24.53.28.13-2-.08.13,0-13.83-43.42-2.5-8.45-1.31-3a7.11,7.11,0,0,0-3.5-2.83,11.51,11.51,0,0,0-5-.36c-.67.23-3,.63-3.91,1.53a8.71,8.71,0,0,0-2.43,3,21.18,21.18,0,0,0-.8,2.6l.58,3.64,2.72,7.89,13.29,42.94L124,243.32c-.36-.59-6.08-10-7.24-12.17a68.12,68.12,0,0,0-4.45-6.81,25.89,25.89,0,0,0-4.43-4,9,9,0,0,0-2.22-1,16,16,0,0,0-3.73-.26,9.4,9.4,0,0,0-2.9.88A16,16,0,0,0,97,222.4a2.23,2.23,0,0,0-.21,1.29H97s2.34-1,2.7-1.17a9.77,9.77,0,0,1,2.26.08,14.9,14.9,0,0,1,2.28,1.79c.54.67,4.07,8.63,3.87,10.26s-3.33,3.21-3.33,3.21l3.94,7.15h89.9Z"/><path class="cls-5" d="M165.6,139.29a2.47,2.47,0,0,1,.92-.49c.42-.08,2.42,0,2.42,0l2.36.1a5.61,5.61,0,0,1,2.36.7,15.1,15.1,0,0,1,3.35,3.17,9.34,9.34,0,0,1,1.62,5.68c-.19,2.31-.53,3.28-1.49,4.48s-17.78,17.88-17.78,17.88-2,1.25-2.46,1.44-4.82.48-5.93-.09a38,38,0,0,1-3.71-2.66s-2.41-2.55-2.5-3.85-.49-3-.25-3.81a23.17,23.17,0,0,1,1.55-3.18c.19-.22,2.92-3.21,2.92-3.21Z"/><path class="cls-9" d="M156.38,168.9l-9.13-8.67a8,8,0,0,1,2.29-2.31c1.74-1.26,3.09-2.11,3.09-2.11l1.94-1,2.49-.69,2,.12,2,.75a6.91,6.91,0,0,1,1.64,2,21.42,21.42,0,0,1,.72,3l-1.1,3s-2.82,3.41-3.48,4Z"/><path class="cls-10" d="M155.25,169.36l-6.17-5.53-1.84-2.11s-.55-.64-.27-1.06l.28-.43,9.13,8.67-.74.49Z"/><path class="cls-9" d="M104.84,176l11.46-5.21a8,8,0,0,1,1.28,3c.52,2.08.81,3.65.81,3.65l.2,2.18-.29,2.57-.85,1.77L116,185.52a6.87,6.87,0,0,1-2.43.79,21,21,0,0,1-3-.45l-2.4-2.16s-2.11-3.9-2.37-4.71S104.84,176,104.84,176Z"/><path class="cls-10" d="M104.84,174.8l7.44-3.66,2.64-.91s.8-.27,1.09.15l.29.42L104.84,176l-.18-.86Z"/></svg>