<svg id="Layer_1" data-name="Layer 1" xmlns="http://www.w3.org/2000/svg" viewBox="0 0 1574.2 1274.57"><defs><style>.cls-1{fill:#cce4ff;}.cls-2{fill:#6262f9;}.cls-3{fill:#fe882e;}.cls-4{fill:#4b4bef;}.cls-5{fill:#dc813b;}.cls-6{fill:#c75a24;}.cls-7{fill:#f2f5f8;}.cls-8{fill:#d49673;}.cls-9{fill:#e9a998;}.cls-10{fill:#ffd9c0;}.cls-11{fill:#ffbf97;}.cls-12{fill:#f5b68c;}.cls-13{fill:#eaab85;}.cls-14{fill:#bec2c7;}.cls-15{fill:#322727;}.cls-16{fill:#674426;}.cls-17{fill:#8d8de2;}.cls-18{fill:#9999e0;}</style></defs><rect class="cls-1" width="1574.2" height="1274.57" rx="81.08"/><path class="cls-2" d="M1294.14,1274.44l101,.12V930.76a1.22,1.22,0,0,0-1.22-1.22h-99.79a1.22,1.22,0,0,0-1.22,1.22v342.46A1.22,1.22,0,0,0,1294.14,1274.44Z"/><polygon class="cls-3" points="701.48 389.53 731.96 372.12 763.92 463.5 701.48 389.53"/><polyline class="cls-3" points="811.21 464.46 792.65 369.46 827.75 369.07"/><polyline class="cls-3" points="861.35 470.29 944.51 420.75 956.72 453.65"/><polyline class="cls-3" points="838.14 463.04 882.9 377.2 910.57 398.8"/><path class="cls-4" d="M1218,1274.44h176a1.22,1.22,0,0,0,1.22-1.22V930.76a1.22,1.22,0,0,0-1.22-1.22H1204.79a1.22,1.22,0,0,0-1.22,1.22Z"/><polygon class="cls-5" points="1175.22 622.55 1005.6 570.6 1016.61 534.28 1186.23 586.23 1175.22 622.55"/><polygon class="cls-6" points="1169.72 640.69 1000.1 588.74 1005.76 570.06 1175.39 622.01 1169.72 640.69"/><path class="cls-7" d="M845.89,481.77c-1.34,12.89-5.93,24.49-11,36l166.92,51.12,10.92-36Z"/><polygon class="cls-8" points="1254.67 636.29 1282.17 645.59 1294.57 699.15 1274.26 725.57 1231.49 731.14 1196.26 706.16 1183.32 677.38 1199.96 679.7 1254.67 636.29"/><path class="cls-9" d="M1220.43,933.5s-16.21-24.09-19.93-28.11-21.86-29.59-24.09-37.18-6.1-62-7.74-67.51S1126,693.78,1113.36,671.62s36.43,11.75,36.43,11.75l101.72,250.11-31,.76Z"/><path class="cls-10" d="M1089.12,636.38s18.2,32.92,22.49,35,31.35-4.72,31.35-4.72l2-19.67-26.68-17.92Z"/><path class="cls-10" d="M1195.51,556.75s-42.77-10.74-45.36-9.86-3.09,15.86-3.09,15.86l27.22,7L1197,566.5Z"/><path class="cls-11" d="M1301.12,708.68c-3.29-11.91-7.89-23.3-12.16-34.88-3.87-10.52-9-23.81-9.83-35.08-.65-9-8.78-13-15.66-12l-4.39-19.15-63.57-50.81s84.41,13.53,87.16,15.65,117.15,127.3,117.15,127.3,2,17.6,1.22,26.8S1375,918.6,1375,918.6L1327.42,906,1285.77,724.1C1294,725.72,1304,719.24,1301.12,708.68Z"/><path class="cls-12" d="M1089.12,636.37s12-2.56,21.29-1.7,23,7.55,23,7.55,6,7.37,6,10.46a21.81,21.81,0,0,1-3.09,9.8c-1.19,1.54-8.91,7.9-8.91,7.9s-14.08,1.37-15.81,1,10.82,2.53,14,7.4,51.84,100,55.62,135,5,42.83,6.81,50.38,24.44,36.29,31,42.57,32.49,26.72,32.49,26.72l108.78-19.7s25.78-179.95,23.81-190.53-22.49-43-22.49-43l-56.91-70.13S1284.5,584,1280,582.22s-84.46-25.48-84.46-25.48-3.7,6.92-5.45,7.68-17.14,0-17.14,0-20.9-4.89-21.28-5.4-2.5-3.87-2.5-5.75a45.44,45.44,0,0,1,1-6.38s-6.63-2.25-9.65,1.87-3.49,12.13-3.11,14.39,5.62,11,7.26,12.76l.13.08c.1,0,.25.13.48.23l.1,0c4.41,2.2,28.17,14.05,34.24,16.89,6.69,3.14,62.18,22.59,62.18,22.59l29,23.58s10.92,23.07,14.44,39.79c.38,1.87.59,2.7.75,3.6l.06,1.84-2.08,7.62s-1.09,15.38-1.82,17.68-15.86,13.2-23,15.15-35.25,4-46.6-10-59.84-84.15-59.84-84.15l.28-.33s-11.63-13.93-22.26-14.62-25.94,3.09-28.34,4.46-11.68,9.78-13,12.87S1089.12,636.37,1089.12,636.37Z"/><path class="cls-13" d="M1194.27,680s28.31,34.24,31.33,36.39,4.38,1.37,4.38,1.37,8.84-11.4,9.42-18c0,0,1.34-3.85,4.73-4.33,1.55-.23,5.2.46,8.72,1.27,5.39,3.85,17.7,13.17,17.7,13.17l5.55-14.62s6.38-20.23-6-38.75-15.47-20.18-15.47-20.18-5.62-3.6-9.42-4.18-34.82-10.59-40.88,8.66-9.14,28.62-9.14,28.62Z"/><path class="cls-14" d="M835,517.67c-2.62,6-5.37,12-7.85,18.06l169.4,51.89,5.68-18.73Z"/><polygon class="cls-15" points="1001.34 529.39 984.71 584.01 979.98 582.56 996.62 527.93 1001.34 529.39"/><polygon class="cls-15" points="1017.09 534.23 1000.45 588.86 995.73 587.4 1012.36 532.78 1017.09 534.23"/><polygon class="cls-7" points="471.35 617.1 814.88 515.65 806.59 482.58 463.06 584.02 471.35 617.1"/><polygon class="cls-14" points="471.04 617.06 814.88 515.52 819.19 532.7 475.34 634.24 471.04 617.06"/><polygon class="cls-16" points="830.76 525.95 830.52 525.97 830.71 525.47 830.76 525.95"/><polygon class="cls-16" points="830.52 525.97 829.66 528.05 830.36 526 830.52 525.97"/><polygon class="cls-8" points="383.29 638.15 355.79 647.45 343.38 701 363.69 727.42 406.47 733 441.69 708.01 454.64 679.23 438 681.55 383.29 638.15"/><path class="cls-9" d="M417.53,935.35s16.21-24.09,19.93-28.1,21.86-29.59,24.09-37.18,6.1-62,7.73-67.51S512,695.64,524.6,673.48s-36.43,11.75-36.43,11.75L386.44,935.34l31,.75Z"/><path class="cls-10" d="M548.84,638.23s-18.2,32.93-22.49,35S495,668.54,495,668.54l-1.95-19.67L519.73,631Z"/><path class="cls-10" d="M442.44,558.61s42.78-10.74,45.37-9.86,3.09,15.86,3.09,15.86l-27.22,7L441,568.36Z"/><path class="cls-11" d="M336.84,710.54c3.29-11.91,7.89-23.3,12.16-34.88,3.87-10.52,9-23.81,9.83-35.08.64-9,8.78-13,15.66-12l4.39-19.15,63.56-50.81s-84.4,13.53-87.15,15.64-117.15,127.3-117.15,127.3-2,17.6-1.22,26.81S263,920.46,263,920.46l47.55-12.66L352.18,726C344,727.58,333.92,721.09,336.84,710.54Z"/><path class="cls-12" d="M548.84,638.22s-12-2.56-21.3-1.69-23,7.54-23,7.54-6,7.37-6,10.46,1.87,8.26,3.09,9.8,8.91,7.91,8.91,7.91,14.08,1.36,15.8,1-10.81,2.53-14,7.39-51.84,100-55.62,135-5,42.83-6.81,50.37-24.44,36.3-31,42.58-32.5,26.72-32.5,26.72L277.68,915.64S251.9,735.7,253.87,725.12s22.49-43,22.49-43L333.27,612s20.18-26.17,24.72-27.91,84.46-25.48,84.46-25.48,3.7,6.91,5.44,7.67,17.15,0,17.15,0,20.89-4.89,21.27-5.39,2.51-3.88,2.51-5.75a45.17,45.17,0,0,0-1-6.38s6.63-2.26,9.65,1.87S501,562.75,500.57,565s-5.62,11-7.27,12.76l-.12.08a3.93,3.93,0,0,0-.48.22s-.06,0-.11,0c-4.4,2.21-28.16,14.06-34.24,16.9-6.68,3.14-62.17,22.59-62.17,22.59l-29,23.58S356.29,664.26,352.77,681c-.38,1.88-.59,2.71-.75,3.6l-.06,1.85L354,694s1.09,15.37,1.82,17.68,15.85,13.19,23,15.14,35.25,4.06,46.6-10,59.84-84.16,59.84-84.16l-.28-.33s11.63-13.93,22.26-14.61,25.94,3.09,28.34,4.46,11.68,9.77,13,12.86S548.84,638.22,548.84,638.22Z"/><path class="cls-13" d="M443.69,681.83s-28.31,34.24-31.33,36.4S408,719.6,408,719.6s-8.84-11.4-9.42-18c0,0-1.34-3.85-4.74-4.33-1.54-.23-5.19.45-8.71,1.26-5.39,3.85-17.7,13.17-17.7,13.17l-5.55-14.61s-6.38-20.24,5.95-38.75,15.48-20.18,15.48-20.18,5.62-3.6,9.42-4.18,34.82-10.59,40.87,8.66,9.15,28.62,9.15,28.62Z"/><path class="cls-16" d="M846.42,488.87l2.39-5.47-.45-.58.38-.45-1-.31-.55-.72-.07.5-1.63-.52-.52,6-4.12,2.39,1.77,2.54-2.58,2.13,2.18,2.77-.36,1-6.17,4,2.06,2.94,0,.08,0,0-2.11.84-2,2.87,3.34,3.29-3.46-.26,1.36,5.5-4.76,1.2.6,6.5,0,.45,0,.48-.24,0-.86,2.08.7-2-5.24.64,2,9.09,5.43,1.67-.21-.69,2.79-.07,5.26-7.61-3-2,3.75-6.46-2.27-2.27,3.3-4.56L840,513l3.46-2.06.07-3.11-.86-1.31,2.59-2.15-2.06-5.74,3-2.25-.55-2.53,2.18-1.82Zm-7.29,13,0-.12.29-.19Z"/><path class="cls-16" d="M806.37,487l-2.08-5.34.28-.59-.3-.44.67-.36.33-.74.09.5,1.11-.61.8,5.94,3.07,2.17-1.07,2.62,2,2L809.9,495l.32.93,4.64,3.65-1.24,3,0,.07,0,0,1.55.73,1.65,2.76-2.13,3.46,2.43-.44-.57,5.56,3.44,1,0,6.52,0,.45v.48h.17l.75,2-.63-2,3.73.38-.75,9.16-3.71,1.94.1-.7-2,.07-4.26-7.32,2-2.2-3.1-6.25,1.44-2.38-2.65-4.39,1.48-.78L810,508.84l-.27-3.1.52-1.36-2-2,1-5.83-2.25-2.09.21-2.56-1.66-1.7Zm6.06,12.58,0-.11-.22-.18Z"/><polygon class="cls-16" points="830.76 525.95 830.52 525.97 829.66 528.05 830.36 526 830.69 525.02 830.71 525.47 830.76 525.95"/><polygon class="cls-16" points="837.82 505.06 837.77 505.08 837.77 504.98 837.82 505.06"/><polygon class="cls-4" points="439.59 948.38 439.56 948.53 348.92 942.78 242.32 934.73 243.69 929.56 349.55 939.72 349.58 939.74 439.59 948.38"/><polygon class="cls-17" points="350.98 921.23 347.05 939.74 346.42 942.63 346.39 942.78 239.8 934.73 241.17 929.56 241.62 927.84 245.65 912.47 334.37 920.73 350.98 921.23"/><polygon class="cls-18" points="443.12 929.26 440.61 948.76 437.04 948.53 346.39 942.78 346.42 942.63 347.05 939.74 350.98 921.23 443.12 929.26"/><path class="cls-4" d="M420.59,1274.44h-176a1.22,1.22,0,0,1-1.22-1.22V930.76a1.22,1.22,0,0,1,1.22-1.22H433.77a1.22,1.22,0,0,1,1.22,1.22Z"/><path class="cls-2" d="M344.42,1274.44l-101,.12V930.76a1.22,1.22,0,0,1,1.22-1.22h99.79a1.22,1.22,0,0,1,1.22,1.22v342.46A1.22,1.22,0,0,1,344.42,1274.44Z"/><polygon class="cls-17" points="350.98 921.23 347.05 939.74 346.42 942.63 346.39 942.78 239.8 934.73 241.17 929.56 241.62 927.84 245.65 912.47 334.37 920.73 350.98 921.23"/><polygon class="cls-18" points="443.12 929.26 440.61 948.76 437.04 948.53 346.39 942.78 346.42 942.63 347.05 939.74 350.98 921.23 443.12 929.26"/><path class="cls-4" d="M1218,1274.44h176a1.22,1.22,0,0,0,1.22-1.22V930.76a1.22,1.22,0,0,0-1.22-1.22H1204.79a1.22,1.22,0,0,0-1.22,1.22Z"/><path class="cls-2" d="M1294.14,1274.44l101,.12V930.76a1.22,1.22,0,0,0-1.22-1.22h-99.79a1.22,1.22,0,0,0-1.22,1.22v342.46A1.22,1.22,0,0,0,1294.14,1274.44Z"/><path class="cls-4" d="M1218,1274.44h176a1.22,1.22,0,0,0,1.22-1.22V930.76a1.22,1.22,0,0,0-1.22-1.22H1204.79a1.22,1.22,0,0,0-1.22,1.22Z"/><path class="cls-2" d="M1294.14,1274.44l101,.12V930.76a1.22,1.22,0,0,0-1.22-1.22h-99.79a1.22,1.22,0,0,0-1.22,1.22v342.46A1.22,1.22,0,0,0,1294.14,1274.44Z"/><polygon class="cls-17" points="1287.58 921.23 1291.51 939.74 1292.14 942.63 1292.17 942.78 1398.76 934.73 1397.4 929.56 1396.94 927.84 1392.91 912.47 1304.2 920.73 1287.58 921.23"/><polygon class="cls-18" points="1195.45 929.26 1197.95 948.76 1201.53 948.53 1292.17 942.78 1292.14 942.63 1291.51 939.74 1287.58 921.23 1195.45 929.26"/><polygon class="cls-3" points="746.05 396.26 771.51 375.05 816.29 454.71 746.05 396.26"/><polygon class="cls-3" points="690.65 465.93 694.81 433.05 781.88 460.81 690.65 465.93"/><polyline class="cls-3" points="831.22 462.52 843.48 371.98 874.97 382.29"/><polyline class="cls-3" points="862.25 468.94 940.75 422.18 952.28 453.24"/></svg>