<svg id="Layer_1" data-name="Layer 1" xmlns="http://www.w3.org/2000/svg" viewBox="0 0 890.74 721.19"><defs><style>.cls-1{fill:#cce4ff;}.cls-2{fill:#f2f5f8;}.cls-3{fill:#bec2c7;}.cls-4{fill:#dc813b;}.cls-5{fill:#c75a24;}.cls-6{fill:#322727;}.cls-7{fill:#674426;}.cls-8{fill:#d49673;}.cls-9{fill:#e9a998;}.cls-10{fill:#ffd9c0;}.cls-11{fill:#ffbf97;}.cls-12{fill:#f5b68c;}.cls-13{fill:#eaab85;}.cls-14{fill:#fe882e;}.cls-15{fill:#4b4bef;}.cls-16{fill:#6262f9;}.cls-17{fill:#8d8de2;}.cls-18{fill:#9999e0;}</style></defs><rect class="cls-1" width="890.74" height="721.19" rx="81.08"/><path class="cls-2" d="M457.53,273.79c-.8,7.73-3.55,14.69-6.59,21.6L551,326l6.55-21.61Z"/><path class="cls-3" d="M451,295.32c-1.58,3.58-3.22,7.16-4.71,10.82l101.55,31.1,3.4-11.22Z"/><polygon class="cls-4" points="654.95 358.18 553.27 327.04 559.87 305.27 661.54 336.41 654.95 358.18"/><polygon class="cls-5" points="651.65 369.06 549.97 337.92 553.37 326.72 655.04 357.86 651.65 369.06"/><polygon class="cls-6" points="550.72 302.34 540.75 335.08 537.91 334.21 547.88 301.46 550.72 302.34"/><polygon class="cls-6" points="560.16 305.24 550.18 337.99 547.35 337.12 557.32 304.37 560.16 305.24"/><polygon class="cls-2" points="233.03 354.91 438.95 294.11 433.98 274.28 228.06 335.09 233.03 354.91"/><polygon class="cls-3" points="232.84 354.89 438.95 294.03 441.53 304.32 235.42 365.19 232.84 354.89"/><polygon class="cls-7" points="448.47 300.28 448.32 300.29 448.44 299.99 448.47 300.28"/><polygon class="cls-7" points="448.32 300.29 447.81 301.54 448.22 300.31 448.32 300.29"/><path class="cls-7" d="M457.85,278.05l1.44-3.28-.28-.34.23-.28-.58-.18-.33-.43-.05.3-1-.32-.32,3.59-2.46,1.43,1.06,1.52L454,281.33l1.31,1.66-.22.58-3.7,2.38,1.24,1.76,0,0,0,0-1.27.5L450.17,290l2,2-2.08-.16.82,3.29-2.85.72.35,3.9,0,.27,0,.29h-.15l-.51,1.25.41-1.23-3.14.38,1.19,5.45,3.26,1-.13-.41,1.67-.05,3.16-4.55-1.81-1.24,2.25-3.87-1.36-1.36,2-2.73-1.31-.41,2.08-1.23,0-1.86-.51-.79,1.55-1.29-1.24-3.44,1.78-1.34-.33-1.52,1.31-1.09Zm-4.37,7.78,0-.07.17-.11Z"/><path class="cls-7" d="M433.84,276.9l-1.24-3.2.17-.36-.18-.26.4-.21.2-.45.05.3.67-.36.47,3.55,1.84,1.31-.64,1.57,1.19,1.19-.81,1.73.2.56,2.77,2.18-.74,1.82,0,.05h0l.93.44,1,1.65-1.28,2.07,1.46-.26-.34,3.33,2.06.57,0,3.91v.56h.11l.45,1.21-.38-1.2,2.24.22-.45,5.5-2.23,1.16.06-.42-1.18,0-2.55-4.39,1.19-1.32-1.87-3.74.87-1.43-1.59-2.63.89-.47L436.05,290l-.17-1.86.31-.81L435,286.14l.62-3.49-1.35-1.26.13-1.53-1-1Zm3.64,7.54,0-.07-.13-.1Z"/><polygon class="cls-7" points="448.47 300.28 448.32 300.29 447.81 301.54 448.22 300.31 448.42 299.72 448.44 299.99 448.47 300.28"/><polygon class="cls-7" points="452.69 287.75 452.67 287.77 452.67 287.71 452.69 287.75"/><polygon class="cls-8" points="196.84 361.08 181.28 366.35 174.26 396.65 185.75 411.6 209.96 414.75 229.89 400.62 237.22 384.33 227.8 385.65 196.84 361.08"/><path class="cls-9" d="M216.22,529.26s9.17-13.64,11.27-15.91,12.37-16.74,13.64-21,3.45-35.09,4.37-38.21,24.15-60.49,31.3-73-20.61,6.65-20.61,6.65L198.63,529.25l17.54.42Z"/><path class="cls-10" d="M290.52,361.13s-10.3,18.63-12.73,19.82-17.74-2.67-17.74-2.67L259,367.15,274.05,357Z"/><path class="cls-10" d="M230.31,316.08S254.52,310,256,310.5s1.75,9,1.75,9l-15.4,3.95-12.86-1.83Z"/><path class="cls-11" d="M170.56,402.05c1.86-6.74,4.47-13.19,6.88-19.74,2.19-5.95,5.11-13.47,5.56-19.85.37-5.1,5-7.37,8.86-6.8l2.49-10.83,36-28.75s-47.75,7.66-49.31,8.85-66.29,72-66.29,72-1.12,10-.69,15.17,14.75,108.7,14.75,108.7l26.91-7.16,23.56-102.9C174.58,411.69,168.91,408,170.56,402.05Z"/><path class="cls-12" d="M290.52,361.13a48.48,48.48,0,0,0-12-1c-5.25.47-13,4.27-13,4.27s-3.4,4.17-3.4,5.92a12.28,12.28,0,0,0,1.75,5.54c.67.88,5,4.47,5,4.47s8,.78,8.94.58-6.12,1.43-7.92,4.18-29.33,56.61-31.47,76.41-2.85,24.23-3.85,28.5S220.72,510.58,217,514.13s-18.39,15.12-18.39,15.12L137.09,518.1S122.5,416.29,123.61,410.3,136.34,386,136.34,386l32.2-39.68s11.42-14.8,14-15.79,47.79-14.42,47.79-14.42,2.09,3.92,3.08,4.35,9.7,0,9.7,0,11.82-2.77,12-3.06a8.26,8.26,0,0,0,1.42-3.25,25.31,25.31,0,0,0-.58-3.61s3.76-1.28,5.46,1.06,2,6.86,1.77,8.14-3.19,6.23-4.12,7.22l-.07,0c-.06,0-.14.08-.27.13a.11.11,0,0,1-.06,0c-2.49,1.25-15.93,8-19.37,9.56-3.79,1.78-35.18,12.78-35.18,12.78l-16.4,13.34s-6.17,13.06-8.17,22.52c-.21,1.06-.33,1.53-.42,2l0,1,1.17,4.31s.62,8.7,1,10,9,7.47,13,8.57,19.95,2.3,26.37-5.63S254.56,358,254.56,358l-.15-.18S261,350,267,349.58s14.68,1.75,16,2.52,6.6,5.53,7.38,7.28S290.52,361.13,290.52,361.13Z"/><path class="cls-13" d="M231,385.8s-16,19.38-17.73,20.6-2.48.77-2.48.77-5-6.45-5.33-10.19c0,0-.76-2.18-2.68-2.45a19.12,19.12,0,0,0-4.93.72c-3.05,2.18-10,7.45-10,7.45l-3.14-8.27s-3.61-11.45,3.37-21.92,8.75-11.42,8.75-11.42a18.51,18.51,0,0,1,5.33-2.37c2.15-.33,19.71-6,23.13,4.9s5.18,16.19,5.18,16.19Z"/><polygon class="cls-8" points="689.9 360.03 705.46 365.3 712.48 395.6 700.99 410.55 676.78 413.7 656.85 399.57 649.53 383.28 658.95 384.6 689.9 360.03"/><path class="cls-9" d="M670.52,528.2s-9.17-13.63-11.27-15.9-12.37-16.74-13.63-21-3.45-35.09-4.38-38.21-24.15-60.5-31.3-73,20.61,6.64,20.61,6.64L688.11,528.2l-17.54.42Z"/><path class="cls-10" d="M596.22,360.08S606.53,378.71,609,379.9s17.74-2.67,17.74-2.67l1.1-11.13L612.7,356Z"/><path class="cls-10" d="M656.43,315s-24.21-6.08-25.67-5.58-1.75,9-1.75,9l15.4,3.95,12.86-1.83Z"/><path class="cls-11" d="M716.18,401c-1.86-6.74-4.46-13.19-6.88-19.74-2.19-5.95-5.1-13.47-5.56-19.85-.37-5.1-5-7.37-8.86-6.8l-2.48-10.83-36-28.75s47.76,7.65,49.31,8.85,66.29,72,66.29,72,1.13,10,.69,15.17S758,519.78,758,519.78l-26.9-7.16L707.5,409.72C712.16,410.64,717.83,407,716.18,401Z"/><path class="cls-12" d="M596.22,360.08a48.53,48.53,0,0,1,12.06-1c5.24.47,13,4.27,13,4.27s3.39,4.17,3.39,5.92a12.45,12.45,0,0,1-1.74,5.54c-.68.88-5.05,4.47-5.05,4.47s-8,.78-8.94.58,6.12,1.43,7.92,4.18,29.34,56.6,31.47,76.41,2.85,24.23,3.86,28.5,13.83,20.54,17.52,24.09,18.39,15.12,18.39,15.12l61.55-11.15s14.59-101.82,13.47-107.81-12.73-24.33-12.73-24.33l-32.2-39.68s-11.42-14.8-14-15.79S656.42,315,656.42,315s-2.09,3.92-3.08,4.35-9.7,0-9.7,0-11.82-2.77-12-3.06a8.26,8.26,0,0,1-1.41-3.25,25.72,25.72,0,0,1,.57-3.61s-3.76-1.28-5.46,1.06-2,6.86-1.76,8.14,3.18,6.23,4.11,7.22l.07,0c.06,0,.14.08.27.13l.06,0c2.49,1.25,15.94,8,19.38,9.56,3.78,1.78,35.18,12.78,35.18,12.78L699,361.75s6.18,13.06,8.17,22.52c.21,1.06.33,1.53.42,2l0,1.05-1.18,4.31s-.61,8.7-1,10-9,7.47-13,8.57-19.95,2.3-26.37-5.63S632.18,357,632.18,357l.16-.18s-6.58-7.89-12.6-8.27-14.67,1.75-16,2.52-6.6,5.53-7.38,7.28S596.22,360.08,596.22,360.08Z"/><path class="cls-13" d="M655.72,384.75s16,19.38,17.73,20.6,2.48.77,2.48.77,5-6.45,5.33-10.19c0,0,.76-2.18,2.68-2.45a19.06,19.06,0,0,1,4.93.72c3,2.18,10,7.45,10,7.45l3.13-8.27s3.61-11.45-3.36-21.92S689.9,360,689.9,360a18.59,18.59,0,0,0-5.33-2.36c-2.15-.33-19.7-6-23.13,4.9s-5.17,16.19-5.17,16.19Z"/><polygon class="cls-14" points="397.69 222.54 412.95 209.82 439.79 257.57 397.69 222.54"/><polygon class="cls-14" points="364.48 264.3 366.98 244.59 419.17 261.23 364.48 264.3"/><polyline class="cls-14" points="448.74 262.26 456.09 207.98 474.96 214.16"/><polyline class="cls-14" points="467.35 266.11 514.4 238.07 521.31 256.69"/><path class="cls-15" d="M669.13,721.12H768.7a.69.69,0,0,0,.69-.69V526.65a.69.69,0,0,0-.69-.69h-107a.69.69,0,0,0-.69.69Z"/><path class="cls-16" d="M712.23,721.12l57.16.07V526.65a.69.69,0,0,0-.69-.69H712.23a.69.69,0,0,0-.69.69V720.43A.69.69,0,0,0,712.23,721.12Z"/><polygon class="cls-15" points="228.7 536.63 228.68 536.71 177.4 533.46 117.08 528.9 117.85 525.98 177.75 531.73 177.77 531.74 228.7 536.63"/><polygon class="cls-17" points="178.56 521.26 176.34 531.74 175.98 533.37 175.97 533.46 115.65 528.9 116.42 525.98 116.68 525 118.96 516.31 169.16 520.98 178.56 521.26"/><polygon class="cls-18" points="230.69 525.81 229.28 536.84 227.25 536.71 175.97 533.46 175.98 533.37 176.34 531.74 178.56 521.26 230.69 525.81"/><path class="cls-15" d="M218,721.12H118.39a.69.69,0,0,1-.69-.69V526.65a.69.69,0,0,1,.69-.69h107a.69.69,0,0,1,.69.69Z"/><path class="cls-16" d="M174.85,721.12l-57.15.07V526.65a.69.69,0,0,1,.69-.69h56.46a.69.69,0,0,1,.69.69V720.43A.69.69,0,0,1,174.85,721.12Z"/><polygon class="cls-17" points="178.56 521.26 176.34 531.74 175.98 533.37 175.97 533.46 115.65 528.9 116.42 525.98 116.68 525 118.96 516.31 169.16 520.98 178.56 521.26"/><polygon class="cls-18" points="230.69 525.81 229.28 536.84 227.25 536.71 175.97 533.46 175.98 533.37 176.34 531.74 178.56 521.26 230.69 525.81"/><path class="cls-15" d="M669.13,721.12H768.7a.69.69,0,0,0,.69-.69V526.65a.69.69,0,0,0-.69-.69h-107a.69.69,0,0,0-.69.69Z"/><path class="cls-16" d="M712.23,721.12l57.16.07V526.65a.69.69,0,0,0-.69-.69H712.23a.69.69,0,0,0-.69.69V720.43A.69.69,0,0,0,712.23,721.12Z"/><path class="cls-15" d="M669.13,721.12H768.7a.69.69,0,0,0,.69-.69V526.65a.69.69,0,0,0-.69-.69h-107a.69.69,0,0,0-.69.69Z"/><path class="cls-16" d="M712.23,721.12l57.16.07V526.65a.69.69,0,0,0-.69-.69H712.23a.69.69,0,0,0-.69.69V720.43A.69.69,0,0,0,712.23,721.12Z"/><polygon class="cls-17" points="708.52 521.26 710.75 531.74 711.1 533.37 711.12 533.46 771.43 528.9 770.66 525.98 770.4 525 768.12 516.31 717.92 520.98 708.52 521.26"/><polygon class="cls-18" points="656.39 525.81 657.81 536.84 659.83 536.71 711.12 533.46 711.1 533.37 710.75 531.74 708.52 521.26 656.39 525.81"/></svg>