<svg id="Layer_1" data-name="Layer 1" xmlns="http://www.w3.org/2000/svg" viewBox="0 0 1574.2 1274.57"><defs><style>.cls-1{fill:#cce4ff;}.cls-2{fill:#6262f9;}.cls-3{fill:#ce2b1d;}.cls-4{fill:#e02f22;}.cls-5{fill:#cc2a1d;}.cls-6{fill:#b9251a;}.cls-7{fill:none;}.cls-8{fill:#cadce6;}.cls-9{fill:#9c9c9c;}.cls-10{fill:#898989;}.cls-11{fill:#ac8e89;}.cls-12{fill:#b5c3c9;}.cls-13{fill:#c0ccd0;}.cls-14{fill:#a4b4b9;}.cls-15{fill:#afafaf;}.cls-16{fill:#c8c8c8;}.cls-17{fill:#939393;}.cls-18{fill:#b0b0b0;}.cls-19{fill:#c6c6c6;}.cls-20{fill:#aeaeae;}.cls-21{fill:#969696;}.cls-22{fill:#989898;}.cls-23{fill:#cacaca;}.cls-24{fill:#d49673;}.cls-25{fill:#e9a998;}.cls-26{fill:#ffd9c0;}.cls-27{fill:#ffbf97;}.cls-28{fill:#f5b68c;}.cls-29{fill:#eaab85;}.cls-30{fill:#fe882e;}.cls-31{fill:#4b4bef;}.cls-32{fill:#8d8de2;}.cls-33{fill:#9999e0;}</style></defs><rect class="cls-1" width="1574.2" height="1274.57" rx="81.08"/><path class="cls-2" d="M1294.14,1274.44l101,.12V930.76a1.22,1.22,0,0,0-1.22-1.22h-99.79a1.22,1.22,0,0,0-1.22,1.22v342.46A1.22,1.22,0,0,0,1294.14,1274.44Z"/><polygon class="cls-3" points="1160.78 570.81 896.29 478.29 880.26 480.85 1153.56 576.45 1145.85 598.01 887 507.46 887.6 507.89 1145.78 598.2 1139.77 614.99 877.49 523.24 877.53 523.29 1139.55 614.95 1135.87 625.23 868.13 531.57 861.92 530.04 867.87 541.87 1137.4 636.16 1160.78 570.81"/><polygon class="cls-4" points="868.13 531.57 1135.87 625.23 1139.55 614.95 877.53 523.29 887.55 536.34 868.13 531.57"/><polygon class="cls-5" points="869.86 513.3 877.49 523.24 1139.77 614.99 1145.78 598.2 887.6 507.89 891.36 510.57 869.86 513.3"/><polygon class="cls-6" points="896.58 494.66 873.34 497.7 887 507.46 1145.85 598.01 1153.56 576.45 880.26 480.85 877.03 481.37 896.58 494.66"/><polygon class="cls-7" points="630.01 564.09 669.33 548.92 669.32 548.9 630 564.07 630.01 564.09"/><polygon class="cls-7" points="662 530.54 662.05 530.53 653.31 508.46 653.27 508.48 662 530.54"/><polygon class="cls-3" points="761.89 510.67 690.95 538.04 690.96 538.08 761.97 510.68 761.89 510.67"/><polygon class="cls-3" points="753.96 494.4 684.3 521.27 684.38 521.46 754.42 494.44 753.96 494.4"/><polygon class="cls-3" points="742.39 474.32 750.36 462.99 673.04 492.81 675.88 499.98 742.39 474.32"/><polygon class="cls-3" points="694.98 548.23 698.59 557.35 772.93 528.68 760.44 522.98 694.98 548.23"/><path class="cls-8" d="M623.24,569.59a4.06,4.06,0,0,1-5.29-2.17L616.2,563l-97.34,37.55,1,2.45,4.86,12.28,104.65-40.36-2.64-6.67Z"/><path class="cls-8" d="M509.75,577.53l.21.54,97.33-37.55-1.4-3.54a4,4,0,0,1,2.41-5.13l3.57-1.38-2.45-6.18,0,0-104.75,40.4,5.1,12.87Z"/><path class="cls-9" d="M629.49,575.31l2,4.92a1.2,1.2,0,0,0,1.56.64l42.49-16.39-2.37-6Z"/><path class="cls-10" d="M609,523.24l43.46-16.76.8,2h0l-2.76-7-42.4,16.35a1.17,1.17,0,0,0-.71,1.51l1.92,4.84a.43.43,0,0,1,0,.07h0Z"/><path class="cls-10" d="M609.41,524.25h0l0,0Z"/><polygon class="cls-4" points="774.4 511.87 761.97 510.68 690.96 538.08 694.98 548.23 760.44 522.98 754.51 520.27 774.4 511.87"/><polygon class="cls-5" points="747.42 509.29 764.66 495.41 754.42 494.44 684.38 521.46 690.95 538.04 761.89 510.67 747.42 509.29"/><polygon class="cls-6" points="745.13 493.57 759.59 477.62 738.5 479.86 742.39 474.32 675.88 499.98 684.3 521.27 753.96 494.4 745.13 493.57"/><path class="cls-11" d="M672.31,493.09l.73-.28-2-5.16a2.07,2.07,0,0,0-2.69-1.09L664.53,488l-.23.12,2.43-.94,3.1,7.82h0l6.54,16.53h0l12,30.33,6.67,16.85h0l1.92,4.83,1.57-.6a2,2,0,0,0,1.22-2.61l-1.18-3-.73.28Z"/><polygon class="cls-11" points="694.53 548.4 690.51 538.25 690.96 538.08 690.95 538.04 690.5 538.22 683.93 521.63 684.38 521.46 684.3 521.27 683.86 521.44 675.43 500.15 675.88 499.98 673.04 492.81 672.31 493.09 697.86 557.63 698.59 557.35 694.98 548.23 694.53 548.4"/><polygon class="cls-11" points="690.51 538.25 694.53 548.4 694.98 548.23 690.96 538.08 690.51 538.25"/><polygon class="cls-11" points="683.93 521.63 690.5 538.22 690.95 538.04 684.38 521.46 683.93 521.63"/><polygon class="cls-11" points="675.43 500.15 683.86 521.44 684.3 521.27 675.88 499.98 675.43 500.15"/><polygon class="cls-12" points="611.65 551.53 607.29 540.52 509.96 578.07 514.32 589.08 611.65 551.53"/><polygon class="cls-13" points="514.5 589.54 518.86 600.55 616.2 563 611.84 551.99 514.5 589.54"/><polygon class="cls-13" points="514.32 589.08 514.5 589.54 611.84 551.99 611.65 551.53 514.32 589.08"/><polygon class="cls-14" points="629.2 564.4 630.01 564.09 630 564.07 629.19 564.38 629.2 564.4"/><path class="cls-14" d="M629.2,564.4v0l-3.49,1.35-7.27-18.38.11,0-6.67-16.84-3.57,1.38a4,4,0,0,0-2.41,5.13l1.4,3.54,4.46-1.72,4.55,11.47-.2.08,4.36,11L616.2,563l1.75,4.42a4.06,4.06,0,0,0,5.29,2.17l3.46-1.34-1-2.5Z"/><polygon class="cls-14" points="615.92 549.88 616.1 550.35 616.29 550.27 611.75 538.8 607.29 540.52 611.65 551.53 615.92 549.88"/><polygon class="cls-14" points="616.1 550.35 611.84 551.99 616.2 563 620.46 561.36 616.1 550.35"/><polygon class="cls-14" points="611.65 551.53 611.84 551.99 616.1 550.35 615.92 549.88 611.65 551.53"/><polygon class="cls-9" points="662.16 530.95 622.88 546.1 630 564.07 669.32 548.9 662.05 530.53 662 530.54 662.16 530.95"/><polygon class="cls-9" points="629.19 564.38 630 564.07 622.88 546.1 622.08 546.41 629.19 564.38"/><polygon class="cls-9" points="618.7 547.71 618.54 547.31 618.42 547.35 625.7 565.73 629.19 564.38 622.08 546.41 618.7 547.71"/><polygon class="cls-15" points="629.34 574.92 629.5 575.31 629.5 575.31 629.34 574.92 629.34 574.92"/><polygon class="cls-15" points="631 566.59 630.19 566.91 632.36 572.39 672.5 556.91 669.33 548.92 630.01 564.09 631 566.59"/><path class="cls-15" d="M629.3,574.81a1.16,1.16,0,0,1,.7-1.5l2.36-.91-2.17-5.49-3.49,1.34,2.64,6.67h0Z"/><polygon class="cls-15" points="672.5 556.91 632.36 572.39 632.83 573.57 629.34 574.92 629.5 575.31 673.12 558.49 672.5 556.91"/><path class="cls-15" d="M629.3,574.81l0,.11,3.49-1.35-.47-1.17-2.36.91A1.16,1.16,0,0,0,629.3,574.81Z"/><polygon class="cls-15" points="630.01 564.09 629.2 564.4 630.19 566.91 631 566.59 630.01 564.09"/><polygon class="cls-15" points="625.71 565.75 626.7 568.25 630.19 566.91 629.2 564.4 625.71 565.75"/><path class="cls-16" d="M679.42,564.75l-6.68-16.85-12-30.33h0l-6.63-16.73-3-7.62,2-.75a1.17,1.17,0,0,0-.25.07l-3.08,1.18a2,2,0,0,0-1.22,2.61l2,5.16,1.18-.46a1.2,1.2,0,0,1,1.56.63l1.91,4.84a1.17,1.17,0,0,1-.7,1.51l-1.19.46,8.74,22.06.3-.12,7.27,18.38-.3.11v0l.67-.26,3.16,8,.52-.2a1.19,1.19,0,0,1,1.55.63l2.15,5.42a1.17,1.17,0,0,1-.71,1.51l-1.18.46,1.79,4.52a2.06,2.06,0,0,0,2.69,1.1l1.2-.46-1.91-4.83Z"/><path class="cls-16" d="M677.38,562.51l-2.15-5.42a1.19,1.19,0,0,0-1.55-.63l-.52.2.63,1.57-.67.26,2.37,6,1.18-.46A1.17,1.17,0,0,0,677.38,562.51Z"/><path class="cls-16" d="M654.5,508a1.17,1.17,0,0,0,.7-1.51l-1.91-4.84a1.2,1.2,0,0,0-1.56-.63l-1.18.46,2.76,7Z"/><polygon class="cls-16" points="669.62 548.79 662.35 530.41 662.05 530.53 669.32 548.9 669.62 548.79"/><polygon class="cls-16" points="673.16 556.66 670 548.66 669.33 548.92 672.5 556.91 673.16 556.66"/><polygon class="cls-16" points="673.12 558.49 673.79 558.23 673.16 556.66 672.5 556.91 673.12 558.49"/><polygon class="cls-17" points="615.25 529.16 616.06 528.85 622.72 545.7 662 530.54 653.27 508.48 613.18 523.95 615.25 529.16"/><path class="cls-17" d="M613.18,524l-2.27.87a1.19,1.19,0,0,1-1.49-.53l2.45,6.18,3.38-1.3Z"/><polygon class="cls-17" points="613.18 523.95 653.27 508.48 652.47 506.48 609.01 523.25 609.41 524.25 612.79 522.95 613.18 523.95"/><path class="cls-17" d="M610.91,524.82l2.27-.87-.39-1-3.38,1.3v0A1.19,1.19,0,0,0,610.91,524.82Z"/><polygon class="cls-17" points="616.06 528.85 615.25 529.16 621.92 546.01 622.72 545.7 616.06 528.85"/><polygon class="cls-17" points="621.92 546.01 615.25 529.16 611.87 530.47 618.54 547.31 621.92 546.01"/><polygon class="cls-17" points="622.88 546.1 662.16 530.95 662 530.54 622.72 545.7 622.88 546.1"/><polygon class="cls-17" points="621.92 546.01 622.08 546.41 622.88 546.1 622.72 545.7 621.92 546.01"/><polygon class="cls-17" points="622.08 546.41 621.92 546.01 618.54 547.31 618.7 547.71 622.08 546.41"/><path class="cls-18" d="M655.49,493.64l2,4.91,7.82-3-2-4.91a2,2,0,0,1,1-2.49l-11.24,4.34A2,2,0,0,1,655.49,493.64Z"/><path class="cls-18" d="M663.31,490.62l2,4.91,4.14-1.6.43,1.08h0l-3.1-7.82-2.43.94A2,2,0,0,0,663.31,490.62Z"/><path class="cls-18" d="M654.11,500.84l-.34-.88,3.67-1.41-2-4.91a2,2,0,0,0-2.43-1.17l-2,.75Z"/><polygon class="cls-17" points="664.41 516.16 672.23 513.14 665.69 496.61 657.87 499.63 664.41 516.16"/><polygon class="cls-17" points="672.23 513.14 676.37 511.54 669.83 495.01 665.69 496.61 672.23 513.14"/><polygon class="cls-17" points="657.87 499.63 654.19 501.05 654.11 500.84 660.74 517.57 664.41 516.16 657.87 499.63"/><polygon class="cls-17" points="665.69 496.61 665.26 495.53 657.44 498.55 657.87 499.63 665.69 496.61"/><polygon class="cls-17" points="665.26 495.53 665.69 496.61 669.83 495.01 669.4 493.93 665.26 495.53"/><polygon class="cls-17" points="657.87 499.63 657.44 498.55 653.77 499.96 654.11 500.84 654.19 501.05 657.87 499.63"/><polygon class="cls-15" points="676.42 546.48 684.24 543.47 672.27 513.24 664.45 516.25 676.42 546.48"/><polygon class="cls-15" points="672.27 513.24 684.24 543.47 688.38 541.87 676.37 511.54 676.37 511.54 676.41 511.64 672.27 513.24"/><polygon class="cls-15" points="664.45 516.25 660.78 517.67 660.74 517.57 660.74 517.57 672.75 547.9 676.42 546.48 664.45 516.25"/><polygon class="cls-15" points="664.45 516.25 672.27 513.24 672.23 513.14 664.41 516.16 664.45 516.25"/><polygon class="cls-15" points="672.27 513.24 676.41 511.64 676.37 511.54 672.23 513.14 672.27 513.24"/><polygon class="cls-15" points="664.45 516.25 664.41 516.16 660.74 517.57 660.78 517.67 664.45 516.25"/><polygon class="cls-19" points="683.09 563.33 690.91 560.32 684.24 543.47 676.42 546.48 683.09 563.33"/><polygon class="cls-19" points="690.91 560.32 695.05 558.72 688.38 541.87 684.24 543.47 690.91 560.32"/><polygon class="cls-19" points="676.42 546.48 672.75 547.9 679.41 564.75 683.09 563.33 676.42 546.48"/><path class="cls-20" d="M692.09,563.29l-1-2.52-7.82,3,1,2.53a2,2,0,0,1-1.22,2.61l-1.88.72.07.19,15.81-6.1-.07-.19-2.21.85A2,2,0,0,1,692.09,563.29Z"/><path class="cls-20" d="M695.05,558.72l.18.45-4.14,1.6,1,2.52a2,2,0,0,0,2.68,1.1l2.21-.85-1.92-4.83Z"/><path class="cls-20" d="M684.27,566.31l-1-2.53-3.68,1.42-.17-.45-.16.06,1.91,4.83,1.88-.72A2,2,0,0,0,684.27,566.31Z"/><polygon class="cls-20" points="683.09 563.33 683.27 563.78 691.09 560.77 690.91 560.32 683.09 563.33"/><polygon class="cls-20" points="691.09 560.77 695.23 559.17 695.05 558.72 690.91 560.32 691.09 560.77"/><polygon class="cls-20" points="679.41 564.75 679.59 565.2 683.27 563.78 683.09 563.33 679.41 564.75"/><polygon class="cls-21" points="476.56 588.21 467.62 593.02 454.56 598.06 444 601.72 435.5 603.64 431.53 604.17 443.46 634.29 447.95 631.06 457.41 626.46 467.06 622.33 476.45 618.98 483.24 616.77 490.72 614.83 495.67 614.09 483.56 583.53 476.56 588.21"/><path class="cls-22" d="M483.43,575.91a2.59,2.59,0,0,0-1.56,3.34l1.69,4.28.21-.14,12.14,30.66-.24,0,2.39,6a2.66,2.66,0,0,0,3.45,1.41l5.8-2.24-18.07-45.64Z"/><polygon class="cls-22" points="483.77 583.39 483.56 583.53 495.67 614.09 495.91 614.05 483.77 583.39"/><path class="cls-15" d="M430.14,604.35l1.39-.18-.57-1.43a3.94,3.94,0,0,0-5.12-2.1l-3.12,1.21a3.86,3.86,0,0,0-2.33,5l13.08,33a3.94,3.94,0,0,0,5.12,2.1l3.13-1.21a3.86,3.86,0,0,0,2.32-5l-.58-1.48-.8.58Z"/><polygon class="cls-15" points="430.14 604.35 442.66 634.87 443.46 634.29 431.53 604.17 430.14 604.35"/><path class="cls-23" d="M510.26,617.17a2.7,2.7,0,0,1-1.58,1.61l-1.37.53,1.87,4.72a2.16,2.16,0,0,0,2.81,1.15l1.12-.43-1-2.42,3.8-1.47,0-.06-3.67,1.42Z"/><path class="cls-23" d="M492.88,573.27l-2-5L489.19,564l-1.25.48a2.11,2.11,0,0,0-1.27,2.73l2.57,6.5,1.37-.53A2.75,2.75,0,0,1,492.88,573.27Z"/><path class="cls-23" d="M510.26,617.17l-3.6-9.09-10.11-25.55h0l-3.67-9.26a2.75,2.75,0,0,0-2.27-.13l-1.37.53,18.07,45.64,1.37-.53A2.7,2.7,0,0,0,510.26,617.17Z"/><polygon class="cls-15" points="517.71 600.99 513.16 589.52 513.55 589.37 509.19 578.36 509.86 578.11 509.65 577.57 500.25 581.2 510.33 606.67 519.73 603.04 518.76 600.59 517.71 600.99"/><polygon class="cls-15" points="519.73 603.04 519.83 603 518.86 600.55 518.76 600.59 519.73 603.04"/><polygon class="cls-15" points="509.86 578.11 509.96 578.07 509.75 577.53 509.65 577.57 509.86 578.11"/><polygon class="cls-15" points="509.86 578.11 509.19 578.36 513.55 589.37 514.22 589.11 509.86 578.11"/><polygon class="cls-15" points="514.22 589.11 514.32 589.08 509.96 578.07 509.86 578.11 514.22 589.11"/><polygon class="cls-15" points="513.55 589.37 513.16 589.52 517.71 600.99 518.76 600.59 514.4 589.58 513.73 589.84 513.55 589.37"/><polygon class="cls-15" points="514.4 589.58 518.76 600.59 518.86 600.55 514.5 589.54 514.4 589.58"/><polygon class="cls-15" points="513.55 589.37 513.73 589.84 514.4 589.58 514.22 589.11 513.55 589.37"/><polygon class="cls-15" points="514.22 589.11 514.4 589.58 514.5 589.54 514.32 589.08 514.22 589.11"/><polygon class="cls-15" points="497.16 582.39 507.24 607.86 510.33 606.67 500.25 581.2 497.16 582.39"/><polygon class="cls-15" points="496.58 582.62 496.55 582.53 496.55 582.53 506.66 608.08 507.24 607.86 497.16 582.39 496.58 582.62"/><path class="cls-18" d="M493.63,564.48l.71,1.8,9.5-3.67.36.92h0l-2.61-6.59L488.42,562l.77,1.94,1.63-.63A2.16,2.16,0,0,1,493.63,564.48Z"/><path class="cls-18" d="M490.67,567.7l3.67-1.42-.71-1.8a2.16,2.16,0,0,0-2.81-1.15l-1.63.63,1.72,4.35Z"/><polygon class="cls-17" points="500.21 581.12 509.62 577.49 504.56 564.7 504.65 564.66 504.2 563.53 494.7 567.19 500.21 581.12"/><polygon class="cls-17" points="509.62 577.49 509.72 577.45 509.75 577.53 509.75 577.53 504.65 564.66 504.56 564.7 509.62 577.49"/><path class="cls-17" d="M497.13,582.31l3.09-1.19-5.52-13.93L491,568.61l-.12-.3,2,5a2.44,2.44,0,0,1,1.17,1.28Z"/><path class="cls-17" d="M494.05,574.55a2.44,2.44,0,0,0-1.17-1.28l3.67,9.26.58-.22Z"/><polygon class="cls-17" points="509.65 577.57 509.62 577.49 500.21 581.12 500.25 581.2 509.65 577.57"/><polygon class="cls-17" points="509.75 577.53 509.72 577.45 509.62 577.49 509.65 577.57 509.75 577.53"/><polygon class="cls-17" points="497.16 582.39 500.25 581.2 500.21 581.12 497.13 582.31 497.16 582.39"/><polygon class="cls-17" points="497.16 582.39 497.13 582.31 496.55 582.53 496.58 582.62 497.16 582.39"/><polygon class="cls-17" points="494.34 566.28 494.7 567.19 504.2 563.53 503.84 562.62 494.34 566.28"/><polygon class="cls-17" points="494.7 567.19 494.34 566.28 490.67 567.7 490.91 568.31 491.03 568.61 494.7 567.19"/><polygon class="cls-19" points="519.73 603.04 510.33 606.67 515.93 620.8 525.43 617.14 524.7 615.28 524.6 615.32 519.73 603.04"/><polygon class="cls-19" points="519.73 603.04 524.6 615.32 524.7 615.28 519.83 603 519.73 603.04"/><path class="cls-19" d="M507.24,607.86l3,7.58a2.46,2.46,0,0,1,0,1.73l2,5.05,3.67-1.42-5.6-14.13Z"/><path class="cls-19" d="M510.26,617.17a2.46,2.46,0,0,0,0-1.73l-3-7.58-.58.22Z"/><path class="cls-20" d="M514.87,624.07l-1.76.68.71,1.81,13.32-5.14-1.68-4.23L516,620.86l.19.49A2.11,2.11,0,0,1,514.87,624.07Z"/><path class="cls-20" d="M513.11,624.75l1.76-.68a2.11,2.11,0,0,0,1.27-2.72l-.19-.49-3.8,1.47Z"/><polygon class="cls-24" points="383.29 638.15 355.79 647.45 343.38 701 363.69 727.42 406.47 733 441.69 708.01 454.64 679.23 438 681.55 383.29 638.15"/><path class="cls-25" d="M417.53,935.35s16.21-24.09,19.93-28.1,21.86-29.59,24.09-37.18,6.1-62,7.73-67.51S512,695.64,524.6,673.48s-36.43,11.75-36.43,11.75L386.44,935.34l31,.75Z"/><path class="cls-26" d="M548.84,638.23s-18.2,32.93-22.49,35S495,668.54,495,668.54l-1.95-19.67L519.73,631Z"/><path class="cls-26" d="M442.44,558.61s42.78-10.74,45.37-9.86,3.09,15.86,3.09,15.86l-27.22,7L441,568.36Z"/><path class="cls-27" d="M336.84,710.54c3.29-11.91,7.89-23.3,12.16-34.88,3.87-10.52,9-23.81,9.83-35.08.64-9,8.78-13,15.66-12l4.39-19.15,63.56-50.81s-84.4,13.53-87.15,15.64-117.15,127.3-117.15,127.3-2,17.6-1.22,26.81S263,920.46,263,920.46l47.55-12.66L352.18,726C344,727.58,333.92,721.09,336.84,710.54Z"/><path class="cls-28" d="M548.84,638.22s-12-2.56-21.3-1.69-23,7.54-23,7.54-6,7.37-6,10.46,1.87,8.26,3.09,9.8,8.91,7.91,8.91,7.91,14.08,1.36,15.8,1-10.81,2.53-14,7.39-51.84,100-55.62,135-5,42.83-6.81,50.37-24.44,36.3-31,42.58-32.5,26.72-32.5,26.72L277.68,915.64S251.9,735.7,253.87,725.12s22.49-43,22.49-43L333.27,612s20.18-26.17,24.72-27.91,84.46-25.48,84.46-25.48,3.7,6.91,5.44,7.67,17.15,0,17.15,0,20.89-4.89,21.27-5.39,2.51-3.88,2.51-5.75a45.17,45.17,0,0,0-1-6.38s6.63-2.26,9.65,1.87S501,562.75,500.57,565s-5.62,11-7.27,12.76l-.12.08a3.93,3.93,0,0,0-.48.22s-.06,0-.11,0c-4.4,2.21-28.16,14.06-34.24,16.9-6.68,3.14-62.17,22.59-62.17,22.59l-29,23.58S356.29,664.26,352.77,681c-.38,1.88-.59,2.71-.75,3.6l-.06,1.85L354,694s1.09,15.37,1.82,17.68,15.85,13.19,23,15.14,35.25,4.06,46.6-10,59.84-84.16,59.84-84.16l-.28-.33s11.63-13.93,22.26-14.61,25.94,3.09,28.34,4.46,11.68,9.77,13,12.86S548.84,638.22,548.84,638.22Z"/><path class="cls-29" d="M443.69,681.83s-28.31,34.24-31.33,36.4S408,719.6,408,719.6s-8.84-11.4-9.42-18c0,0-1.34-3.85-4.74-4.33-1.54-.23-5.19.45-8.71,1.26-5.39,3.85-17.7,13.17-17.7,13.17l-5.55-14.61s-6.38-20.24,5.95-38.75,15.48-20.18,15.48-20.18,5.62-3.6,9.42-4.18,34.82-10.59,40.87,8.66,9.15,28.62,9.15,28.62Z"/><polygon class="cls-24" points="1254.67 636.29 1282.17 645.59 1294.57 699.15 1274.26 725.57 1231.49 731.14 1196.26 706.16 1183.32 677.38 1199.96 679.7 1254.67 636.29"/><path class="cls-25" d="M1220.43,933.5s-16.21-24.09-19.93-28.11-21.86-29.59-24.09-37.18-6.1-62-7.74-67.51S1126,693.78,1113.36,671.62s36.43,11.75,36.43,11.75l101.72,250.11-31,.76Z"/><path class="cls-26" d="M1089.12,636.38s18.2,32.92,22.49,35,31.35-4.72,31.35-4.72l2-19.67-26.68-17.92Z"/><path class="cls-26" d="M1195.51,556.75s-42.77-10.74-45.36-9.86-3.09,15.86-3.09,15.86l27.22,7L1197,566.5Z"/><path class="cls-27" d="M1301.12,708.68c-3.29-11.91-7.89-23.3-12.16-34.88-3.87-10.52-9-23.81-9.83-35.08-.65-9-8.78-13-15.66-12l-4.39-19.15-63.57-50.81s84.41,13.53,87.16,15.65,117.15,127.3,117.15,127.3,2,17.6,1.22,26.8S1375,918.6,1375,918.6L1327.42,906,1285.77,724.1C1294,725.72,1304,719.24,1301.12,708.68Z"/><path class="cls-28" d="M1089.12,636.37s12-2.56,21.29-1.7,23,7.55,23,7.55,6,7.37,6,10.46a21.81,21.81,0,0,1-3.09,9.8c-1.19,1.54-8.91,7.9-8.91,7.9s-14.08,1.37-15.81,1,10.82,2.53,14,7.4,51.84,100,55.62,135,5,42.83,6.81,50.38,24.44,36.29,31,42.57,32.49,26.72,32.49,26.72l108.78-19.7s25.78-179.95,23.81-190.53-22.49-43-22.49-43l-56.91-70.13S1284.5,584,1280,582.22s-84.46-25.48-84.46-25.48-3.7,6.92-5.45,7.68-17.14,0-17.14,0-20.9-4.89-21.28-5.4-2.5-3.87-2.5-5.75a45.44,45.44,0,0,1,1-6.38s-6.63-2.25-9.65,1.87-3.49,12.13-3.11,14.39,5.62,11,7.26,12.76l.13.08c.1,0,.25.13.48.23l.1,0c4.41,2.2,28.17,14.05,34.24,16.89,6.69,3.14,62.18,22.59,62.18,22.59l29,23.58s10.92,23.07,14.44,39.79c.38,1.87.59,2.7.75,3.6l.06,1.84-2.08,7.62s-1.09,15.38-1.82,17.68-15.86,13.2-23,15.15-35.25,4-46.6-10-59.84-84.15-59.84-84.15l.28-.33s-11.63-13.93-22.26-14.62-25.94,3.09-28.34,4.46-11.68,9.78-13,12.87S1089.12,636.37,1089.12,636.37Z"/><path class="cls-29" d="M1194.27,680s28.31,34.24,31.33,36.39,4.38,1.37,4.38,1.37,8.84-11.4,9.42-18c0,0,1.34-3.85,4.73-4.33,1.55-.23,5.2.46,8.72,1.27,5.39,3.85,17.7,13.17,17.7,13.17l5.55-14.62s6.38-20.23-6-38.75-15.47-20.18-15.47-20.18-5.62-3.6-9.42-4.18-34.82-10.59-40.88,8.66-9.14,28.62-9.14,28.62Z"/><polygon class="cls-30" points="701.48 389.53 731.96 372.12 763.92 463.5 701.48 389.53"/><polyline class="cls-30" points="811.21 464.46 792.65 369.46 827.75 369.07"/><polyline class="cls-30" points="861.35 470.29 944.51 420.75 956.72 453.65"/><polyline class="cls-30" points="838.14 463.04 882.9 377.2 910.57 398.8"/><path class="cls-31" d="M1218,1274.44h176a1.22,1.22,0,0,0,1.22-1.22V930.76a1.22,1.22,0,0,0-1.22-1.22H1204.79a1.22,1.22,0,0,0-1.22,1.22Z"/><polygon class="cls-31" points="439.59 948.38 439.56 948.53 348.92 942.78 242.32 934.73 243.69 929.56 349.55 939.72 349.58 939.74 439.59 948.38"/><polygon class="cls-32" points="350.98 921.23 347.05 939.74 346.42 942.63 346.39 942.78 239.8 934.73 241.17 929.56 241.62 927.84 245.65 912.47 334.37 920.73 350.98 921.23"/><polygon class="cls-33" points="443.12 929.26 440.61 948.76 437.04 948.53 346.39 942.78 346.42 942.63 347.05 939.74 350.98 921.23 443.12 929.26"/><path class="cls-31" d="M420.59,1274.44h-176a1.22,1.22,0,0,1-1.22-1.22V930.76a1.22,1.22,0,0,1,1.22-1.22H433.77a1.22,1.22,0,0,1,1.22,1.22Z"/><path class="cls-2" d="M344.42,1274.44l-101,.12V930.76a1.22,1.22,0,0,1,1.22-1.22h99.79a1.22,1.22,0,0,1,1.22,1.22v342.46A1.22,1.22,0,0,1,344.42,1274.44Z"/><polygon class="cls-32" points="350.98 921.23 347.05 939.74 346.42 942.63 346.39 942.78 239.8 934.73 241.17 929.56 241.62 927.84 245.65 912.47 334.37 920.73 350.98 921.23"/><polygon class="cls-33" points="443.12 929.26 440.61 948.76 437.04 948.53 346.39 942.78 346.42 942.63 347.05 939.74 350.98 921.23 443.12 929.26"/><path class="cls-31" d="M1218,1274.44h176a1.22,1.22,0,0,0,1.22-1.22V930.76a1.22,1.22,0,0,0-1.22-1.22H1204.79a1.22,1.22,0,0,0-1.22,1.22Z"/><path class="cls-2" d="M1294.14,1274.44l101,.12V930.76a1.22,1.22,0,0,0-1.22-1.22h-99.79a1.22,1.22,0,0,0-1.22,1.22v342.46A1.22,1.22,0,0,0,1294.14,1274.44Z"/><path class="cls-31" d="M1218,1274.44h176a1.22,1.22,0,0,0,1.22-1.22V930.76a1.22,1.22,0,0,0-1.22-1.22H1204.79a1.22,1.22,0,0,0-1.22,1.22Z"/><path class="cls-2" d="M1294.14,1274.44l101,.12V930.76a1.22,1.22,0,0,0-1.22-1.22h-99.79a1.22,1.22,0,0,0-1.22,1.22v342.46A1.22,1.22,0,0,0,1294.14,1274.44Z"/><polygon class="cls-32" points="1287.58 921.23 1291.51 939.74 1292.14 942.63 1292.17 942.78 1398.76 934.73 1397.4 929.56 1396.94 927.84 1392.91 912.47 1304.2 920.73 1287.58 921.23"/><polygon class="cls-33" points="1195.45 929.26 1197.95 948.76 1201.53 948.53 1292.17 942.78 1292.14 942.63 1291.51 939.74 1287.58 921.23 1195.45 929.26"/></svg>