<svg id="Layer_1" data-name="Layer 1" xmlns="http://www.w3.org/2000/svg" viewBox="0 0 894.7 720.1"><defs><style>.cls-1{fill:#cce4ff;}.cls-2{fill:#f7c8b6;}.cls-3{fill:#bea093;}</style></defs><rect class="cls-1" width="894.7" height="720.1" rx="83.91"/><path class="cls-2" d="M183.08,404.7l29.5-73.14,33.62-68.43,27.72-40.7S294,203.56,295.75,203s11.2-9.44,26.54-12.39,43.65-9.44,59.57,11.8,20.06,57.21,20.06,57.21l1.18,96.74V463.68l-1.77,35.39s-6.49,54.27-41.88,74.91-77.86,27.14-77.86,27.14-56,15.92-107.35,39.52S146.51,541,146.51,541l23.6-95.55Z"/><path class="cls-2" d="M710.75,409.15,680.65,336l-34.31-68.42L618,226.89S597.58,208,595.77,207.42,584.33,198,568.68,195s-44.54-9.43-60.8,11.8-20.46,57.22-20.46,57.22l-1.21,96.73V468.14L488,503.53s6.62,54.26,42.74,74.91,79.46,27.13,79.46,27.13,57.19,15.93,109.56,39.52,28.29-99.68,28.29-99.68L724,449.85Z"/><path class="cls-3" d="M407.36,320.91l-18,24.36S375.21,359.88,366,366.21s-27.28,19-31.18,28.25-2.92,40.43-2.92,40.43-1,16.56,4.87,20.95S364,463.63,364,463.63l9.25-2.43,7.8-11.21,4.87-1v6.33L378.13,468l8.28,8.76-.48,7.31-3.9,6.82-1-12.67-7.8-7.79L359.14,468l-17.05-2.93-10.23,2.44s-16.56-33.12-15.59-40.43S308,401.77,308,401.77s6.82-22.41,14.13-28.74,26.79-23.38,26.79-23.38,20-20.46,20.94-21.43,17-20.46,18-23.87,10.23-27.76,10.23-27.76,11.21-21.44,15.59-29.72,12.67-34.58,13.64-41.89,5.36-39.94,4.38-47.25,0-85.73,0-85.73l31.66,1,5.36,133s10.72,38.48,14.13,45.3,16.07,23.38,16.07,23.38l8.28,21.43,16.57,27.28L534,331.14h12.18l14.61-6.33,4.88-12.18s-1-11.69-4.39-14.61-12.18-11.2-12.18-11.2l-18,1.46-9.25-1.95s11.2-8.77,15.1-7.8-6.34-7.3-6.34-7.3l-4.87-13.15s-.48-6.82,1-9.26,3.89,9.26,3.89,9.26,2.44,3.89,6.34,9.25,8.76,10.23,15.1,17.05,10.23,6.33,10.23,6.33,0-14.12-2.44-19-18-26.8-20-27.28-8.28-6.82-8.28-6.82,4.87-4.87,11.2-2,9.74,13.64,9.74,13.64l1,5.84s4.38-6.33,5.36-9.74-2.44-17-2.44-17l-5.84-7.3s8.76-1,10.71,3.89a47.86,47.86,0,0,1,3.41,16.56c0,5.36,0,18.51-1,21.44s3.89,15.1,3.89,15.1,9.26-12.18,11.21-15.1,6.33-13.15,5.84-17.54-5.84-14.12-5.84-14.12,14.12,6.82,13.64,12.66,4.38,4.87-.49,14.13-21,28.74-21,28.74l4.87,30.2-10.22,20-19,18-20,7.79-56.51-58.45-16.56-14.13-10.71-3.89-21.44,15.59Z"/><path class="cls-3" d="M300.85,246.34s-1.55,5.74,0,9.06,9.28,9.94,9.28,9.94l9.06,11.71s2.87,7.73,2,13-3.32,16.13-3.32,16.13-1.32,2.2.45,5.74-.67,4.64-.67,4.64-10.38.88-12.37-2.21-9.28-9.94-9.06-13.7-4.86-6.41.66-9.94a25.93,25.93,0,0,1,10.61-4l3.31-.66s-12.37-5.75-16.57-1.55-.44.67-8.39-2.43-11.71-3.75-13.48-2.43-4-.44,4.64,4.2,11.71,4,12.59,6.41-2,1.32.22,8.39,1.33,12.16,6,16.13,2.87,6.41,8.62,7.74,1.76-2.88,10.16,1.54,1.1-.88,9.72,4.86,16.13-1.32,16.13-1.32-11.49-3.1-11.93-10.61-3.76-11.27-.88-16.79.88-17.23.88-17.23l-6.63-13.48L307.92,253s-.66-6.41,0-9.06,6-6.63,6-6.63-9.72-1.33-11.49,2.21A14.7,14.7,0,0,0,300.85,246.34Z"/><path class="cls-3" d="M339,281.87l7.8-6.06S360.61,259.67,360,257s4.12.65,2.17,6.5-1.84,7.58-4.44,10.94a33.54,33.54,0,0,1-6.29,6s8.56-1,11.27.65a28.4,28.4,0,0,1,5.63,5.09s5.31,4.76,5.2,5.63-12.24-6.18-12.24-6.18-11.37-.54-14.4,1.2-22.42,19.17-22.42,19.17l1.41-15.6S336.57,281.87,339,281.87Z"/><path class="cls-3" d="M334.7,222.64c-4.34,8.27-7.26,13.62-7.26,19.07s5.14,21,5.14,21l5-.8s7.77-13.32,9.79-15.64,4.84-5.64,4.84-5.64,7.16-17-4.74-3.13-12.11,12.71-12.11,12.71-3.12-3.13,1.31-15.13a52.44,52.44,0,0,1,13.22-19.57s-1-4.74-7.26-.1"/><path class="cls-3" d="M327.12,284.4l11.95-25.72-6.25,2s-9.05,12.5-10,17"/><path class="cls-3" d="M337.84,477.58l7.05,15.72s-3.8,35.79-14.1,53.69,2.71,20.61,2.71,20.61a29.69,29.69,0,0,1,6-20.61c7.59-10.3,11.93-33.62,11.93-33.62s8.13,3.25,3.79,18.44-8.13,23.31-8.13,23.31l4.88,1.63s6.51-1.63,7.59-6.51,5.42-37.41,1.63-43.92,10.84.54,10.84.54l.54,13.56L370.92,528l1.08,9.22s10.85-11.93,10.85-17.9-7.59-19-7.59-19l-17.36-6.5-18.43-34.71-9.76,2.17Z"/><path class="cls-3" d="M179.7,563a28.08,28.08,0,0,1-1.85-6.91A6.54,6.54,0,0,0,179.7,563Z"/><path class="cls-3" d="M313.93,460.18a10.07,10.07,0,0,0,0-7.57c.17-24.63,3-48.11,3-48.11l-8-8.62-7.08,17.55s-3.56,26.17-3.25,38.8a9.63,9.63,0,0,0-.92,3.63l-.67-.38S282.74,472.82,272.68,468,247,457.21,241.8,456.17s-6.59-9-18.73-5.55-15.27-5.9-15.27-5.9-14.91,1.74-4.16,5.9l10.75,4.16C239,460.68,254.64,469,254.64,469l13.18,4.85a4.86,4.86,0,0,1-3.47,4.51c-3.47,1.05-25.32,6.25-42,5.21s-31.91-2.43-31.91-2.43l-13.88,8s-9.37,18,1,8.33,16.31-11.11,16.31-11.11l9,1s-6.25,11.1-9.72,13.53-8,7.28-13.87,9-12.84.34-12.84.34,6.59,4.17,10.06,4.17,11.1-3.47,11.1-3.47l11.45-9.72,11.45-11.79s25,2.08,30.18.34-10.06,16.31-10.06,16.31l-12.49,14.22s-18.73,7.29-24.63,13.53-16.31,14.92-16,20.12c0,.74.13,1.44.23,2.11.8-2.77,3.34-6.29,9.48-10.43,16-10.76,26.37-16.31,26.37-16.31l3.82-.34s-8,.69-7.64,10.4a72,72,0,0,0,2.78,17.35s3.82-8.33,6.24-11.1-3.46-11.1,6.6-21.16a120.05,120.05,0,0,0,9.7-10.79,19.76,19.76,0,0,0,.36,4.89c1.73,9.71,15.26,32.26,19.77,37.81s5.55,8.68,1.74,14.23-10.41,23.59,0,7.63,1.73-29.49,1.73-29.49-8.33-10.75,2.78-.35S278.92,563,278.92,563s12.15-3.12,5.55-7.28-19.08-12.49-19.08-12.49l-13.87-9.71s-5.9-8.68-6.25-13.53,4.86-23.25,4.86-23.25a48.68,48.68,0,0,1,17-9c10.41-3.12,22.55-11.45,22.55-11.45l13-10.46c1.46,3.57,2.54,6.39,2.54,6.39s2.46,20,.92,26.17-3.69,30.16-3.69,30.16l-10.47,37.56s25.55-59.72,22.78-90.2C314.27,470.88,314,465.55,313.93,460.18Z"/><path class="cls-3" d="M227.55,387.54s3.62,4,6.91,4.5,12.19-2.15,12.19-2.15l13.44-1.09s7.32,1.64,10.93,4.95,10.66,10.54,10.66,10.54,1,2.11,4.6,2.51,3.21,2.81,3.21,2.81S285,418,281.66,418s-12.19,2.15-15,.11-7.3.53-7.25-5.44a23.49,23.49,0,0,1,2.23-10.06l1.14-2.86s-10.53,6.59-9.41,11.87.29.67-6,5.2-8.68,7.07-8.55,9.08-2.31,2.81,5.51-1.46,8.85-7,11.14-6.42,0,2.17,6.51,4,9.93,5,15.27,3.45,6.32,1,10.18-2.73-1.31-2.78,6.22-7-.12-1.28,8.54-5,7-13,7-13-8.07,7.22-14,3.83-10.46-2.73-13.25-7.66-12.71-9.23-12.71-9.23L255.67,383l-19.55,2.4s-5.22-2.68-6.91-4.5-2.1-7.84-2.1-7.84-5.84,6.75-4,9.86A13.43,13.43,0,0,0,227.55,387.54Z"/><path class="cls-3" d="M273.57,376.12l-.75-9s-5.43-18.59-7.82-19.44,2.54-2.82,6,1.57,4.87,5.17,6.14,8.82a30.51,30.51,0,0,1,1.42,7.75s3.51-7,6.09-8.27a26,26,0,0,1,6.68-1.77s6.27-1.68,6.88-1.17-10.79,6.27-10.79,6.27-6.06,8.41-6.24,11.58,3.49,26.62,3.49,26.62l-11.2-8.81S272.39,377.93,273.57,376.12Z"/><path class="cls-3" d="M226.28,350c4.15,7.42,6.78,12.3,10.94,15s18.55,6.49,18.55,6.49l1.89-4.25s-6.3-12.53-7.07-15.22-1.9-6.5-1.9-6.5-9.45-13.93-4.74,2.06,3.68,15.55,3.68,15.55-3.93.83-10.89-8.52a47.63,47.63,0,0,1-8.36-19.79s-4.12-1.58-3.69,5.49"/><path class="cls-3" d="M269.62,386.4l-13.68-21.89-1.58,5.76s5,13.11,8,16.05"/><path class="cls-3" d="M594.57,546.71c4-25,11.14-41.2,11.14-41.2L609.56,492a4.86,4.86,0,0,1,4.76,3.12c1.3,3.38,8.14,24.79,8.36,41.47s0,32,0,32l9,13.23s18.69,8,8.22-1.66-12.3-15.42-12.3-15.42l.36-9.08s11.54,5.39,14.22,8.67,7.87,7.41,10,13.16,1.32,12.77,1.32,12.77,3.65-6.89,3.39-10.35-4.3-10.8-4.3-10.8l-10.55-10.69L629.45,547.9s.19-25.07-1.93-30.13,17,8.81,17,8.81L659.66,538s8.68,18.13,15.35,23.54,16.11,15.13,21.27,14.39a28.79,28.79,0,0,0,8.84-2.75s-6,8.8-17.88-6.31S669,541.77,669,541.77l-.64-3.78s1.29,7.91,11,6.83a71.79,71.79,0,0,0,17.08-4.08s-8.59-3.17-11.54-5.39-10.81,4.3-21.6-5-16.19-11.65-16.19-11.65,0,4.52,9.55,2.06,31-17.65,36.22-22.57,8.23-6.19,14-2.8,24.31,8.6,7.61-.58-29.53.5-29.53.5-10.1,9.11-.56-2.75,13.22-18.39,13.22-18.39-4-11.87-7.68-5-11,20-11,20l-8.64,14.57s-8.2,6.54-13,7.25-23.54-3.09-23.54-3.09a48.77,48.77,0,0,1-10.28-16.27C619.55,481.5,610.34,470,610.34,470l-15.89-16.89L589,464.32s18.37,12.88,14.29,23.28-8.79,26.41-9.44,31.67-8.49,7.26-4.12,19.1S585,554,585,554l3.63,7.81"/><path class="cls-3" d="M540.81,502.82s3.81-2.84,4.74-5.57.32-10.27.32-10.27l1.37-11.25s2.53-6,5.77-8.9,10.18-8.44,10.18-8.44,1.86-.76,2.78-3.73,2.77-2.55,2.77-2.55,5.92,4.1,5.35,6.89-.32,10.26-2.41,12.47-.79,6.12-5.55,5.82a16.26,16.26,0,0,1-7.65-2.3l-2.09-1.07s3.5,9.06,7.9,8.36.58-.21,3.14,5.25,4.19,7.55,5.81,7.52,1.86,2.05-.24-4.65-4.07-7.69-3.26-9.58,1.73.08,4.27-5.26,5.66-8.06,5.31-12.58,1.84-5.23-.49-8.61-2.43,1-4.53-5.5-1,.05-2.57-7.34-9.17-6.4-9.17-6.4,4.42,7,.72,11.86-3.92,8.61-8.32,10.72-9.48,10.2-9.48,10.2l-3.57,11.25-1.35,16.42s-3,4.23-4.74,5.57-6.61,1.4-6.61,1.4,4.42,5.17,7.2,3.79A13.76,13.76,0,0,0,540.81,502.82Z"/><path class="cls-3" d="M539.37,463.92l-7.27.25s-15.73,3.72-16.81,5.67-1.82-2.24,2.26-5,4.94-3.84,8.06-4.74a25.12,25.12,0,0,1,6.42-.85s-5-3.23-5.58-5.44a21.63,21.63,0,0,1-.3-5.65s-.29-5.31.22-5.79,3.2,9.27,3.2,9.27,5.7,5.42,8.2,5.71,21.81-1.76,21.81-1.76l-8.9,9S540.62,465,539.37,463.92Z"/><path class="cls-3" d="M510.62,502.24c6.6-3.14,10.94-5.12,13.79-8.47s8.27-15.2,8.27-15.2l-3.07-1.76s-11.05,4.71-13.33,5.24-5.5,1.3-5.5,1.3-12.68,7.28.86,4,13-2.4,13-2.4,0,3.32-8.6,8.71a42.69,42.69,0,0,1-17.19,6.12s-1.95,3.37,3.77,3.31"/><path class="cls-3" d="M546.91,467.67l-19.73,10.46,4.32,1.57s11.3-3.63,14.14-6"/><path class="cls-3" d="M572.55,345.22,587.34,353s35.85,2,54.72-3.55,20.1,5,20.1,5a35.93,35.93,0,0,0-21.07,1.8c-11.05,4.52-34.62,4.66-34.62,4.66s2.32,6.85,17.83,5.57a202.39,202.39,0,0,0,24-3.12l1.06,4.07s-2.33,4.89-7.29,5.06-37.65-1-43.67-4.9-.67,8.61-.67,8.61l13.36,2.33,7.7-.21,9,2.15s-13,6.85-18.93,6-18-8.64-18-8.64l-4.5-14.56-32.3-19.38,3.24-7.37Z"/><path class="cls-3" d="M373.17,328.2s-37.53.82-40.38-2-9,.82-9,.82S332,337.18,343,339.22s25.3,1.22,25.3,1.22"/><path class="cls-3" d="M526.7,362.8c36.39,31.19,34.83,40.8,34.83,40.8l2,32.79,8.8,11.2,2-30-.4-38.79c-1.2-2.8,1.6-6.8-10.4-18.8s-22.8-17.19-22.8-17.19"/><path class="cls-3" d="M572.85,429.71l25.36,27.43-1.13,13.91s-32.5-24.24-29.87-34.2"/><path class="cls-3" d="M673,424.58s-2.26,4.89-5.17,6.42-11.77,2.16-11.77,2.16l-12.64,3.52s-6.29,4-8.73,8.2-7,13.19-7,13.19-.39,2.27-3.56,3.85-2.21,3.64-2.21,3.64,6.32,6.11,9.4,5,11.77-2.15,13.76-4.93,6.85-2,5.24-7.41a20.87,20.87,0,0,0-4.71-8.43l-1.81-2.22s11.42,2.47,11.79,7.66-.09.71,6.91,2.72,9.84,3.52,10.25,5.39,2.87,1.79-5.45.53-10-3.37-11.94-2.11.56,2-4.93,5.84-7.8,7.93-13.12,8.3-5.54,3-10.07.93.47-3-7.57-4.28-.22-1.21-9.17-1.68-9.85-9.47-9.85-9.47,9.32,3.88,13.89-1.22,8.9-6,10.16-11.45S633.92,436,633.92,436L646,430l18.61-4.41s4.09-4.19,5.16-6.42-.14-7.86-.14-7.86,7.15,4.2,6.29,7.64A14.36,14.36,0,0,1,673,424.58Z"/><path class="cls-3" d="M627.68,429.66,626,421.23s.08-18.78,2.06-20.35-3.08-1.72-5.13,3.46-3.11,6.36-3.32,10.11a29.45,29.45,0,0,0,.74,7.55s-5.07-5.22-7.78-5.49a25,25,0,0,0-6.61.63s-6.21.58-6.63,1.25,11.57,2.09,11.57,2.09,7.79,5.62,8.8,8.46,3.82,25.45,3.82,25.45l8-11.81S629.24,430.92,627.68,429.66Z"/><path class="cls-3" d="M310.11,517.43l3.36,8.42s-.66,19.54-4.53,29.48,1.68,11.15,1.68,11.15a20,20,0,0,1,2-11.33c2.92-5.75,4.13-18.52,4.13-18.52s3.5,1.61,2.07,10A111.1,111.1,0,0,1,316,559.42l2.09.79a4.92,4.92,0,0,0,3-3.69c.33-2.67,1.31-20.46-.45-23.92s4.56.08,4.56.08l.58,7.36-.48,4.16.69,5s4.24-6.7,4.09-10-3.68-10.17-3.68-10.17L319,525.88l-8.64-18.51-4,1.38Z"/></svg>