<svg id="Layer_1" data-name="Layer 1" xmlns="http://www.w3.org/2000/svg" viewBox="0 0 1574.2 1274.57"><defs><style>.cls-1{fill:#cce4ff;}.cls-2{fill:#1e1e1e;}.cls-3{fill:#f99d19;}.cls-4{fill:#f5a017;}.cls-5{fill:#d9dfbb;}.cls-6{fill:#e99819;}.cls-7{fill:#535353;}.cls-8{fill:#d0ab18;}.cls-9{fill:#dfb925;}.cls-10{fill:#fadf3d;}.cls-11{fill:#f9cf28;}.cls-12{font-size:342.41px;font-family:Arial-Black, Arial Black;font-weight:800;}.cls-13{fill:#ce2b1d;}.cls-14{fill:#cadce6;}.cls-15{fill:#9c9c9c;}.cls-16{fill:#898989;}.cls-17{fill:#e02f22;}.cls-18{fill:#cc2a1d;}.cls-19{fill:#b9251a;}.cls-20{fill:#ac8e89;}.cls-21{fill:#b5c3c9;}.cls-22{fill:#c0ccd0;}.cls-23{fill:#a4b4b9;}.cls-24{fill:#afafaf;}.cls-25{fill:#c8c8c8;}.cls-26{fill:#939393;}.cls-27{fill:#b0b0b0;}.cls-28{fill:#c6c6c6;}.cls-29{fill:#aeaeae;}.cls-30{fill:#969696;}.cls-31{fill:#989898;}.cls-32{fill:#cacaca;}.cls-33{fill:#fe5f6f;}.cls-34{fill:#e35c6a;}.cls-35{fill:#93c239;}.cls-36{fill:#8dc534;}.cls-37{fill:#8bba32;}</style></defs><rect class="cls-1" width="1574.2" height="1274.57" rx="81.08"/><path class="cls-2" d="M533.44,592.58h0a36.87,36.87,0,0,1,36.87,36.87v94.29a0,0,0,0,1,0,0H496.58a0,0,0,0,1,0,0V629.44a36.87,36.87,0,0,1,36.87-36.87Z"/><rect class="cls-3" x="476.76" y="805.25" width="113.36" height="77.44"/><path class="cls-4" d="M441.23,956.81H625.66a0,0,0,0,1,0,0v180.6a14.49,14.49,0,0,1-14.49,14.49H455.72a14.49,14.49,0,0,1-14.49-14.49V956.81a0,0,0,0,1,0,0Z"/><rect class="cls-2" x="463.98" y="717.38" width="139.25" height="98.24"/><path class="cls-4" d="M488.1,830.82h90.69a46.87,46.87,0,0,1,46.87,46.87v46.74a32.38,32.38,0,0,1-32.38,32.38H473.61a32.38,32.38,0,0,1-32.38-32.38V877.69a46.87,46.87,0,0,1,46.87-46.87Z"/><rect class="cls-5" x="441.23" y="889.57" width="184.43" height="195.09"/><rect class="cls-6" x="472.15" y="819.05" width="122.18" height="7.04" rx="3.52"/><rect class="cls-7" x="475.17" y="722.13" width="19.43" height="76.41"/><path class="cls-7" d="M516.61,626.48h0a9.71,9.71,0,0,1,9.71,9.71v66.7a0,0,0,0,1,0,0H506.89a0,0,0,0,1,0,0v-66.7a9.71,9.71,0,0,1,9.71-9.71Z"/><rect class="cls-8" x="99.56" y="448.69" width="400.03" height="113.07" rx="27.69"/><path class="cls-9" d="M127.25,448.69H293.08a0,0,0,0,1,0,0v89.58a0,0,0,0,1,0,0H127.25a27.69,27.69,0,0,1-27.69-27.69V476.38A27.69,27.69,0,0,1,127.25,448.69Z"/><rect class="cls-9" x="135.13" y="338.15" width="400.03" height="113.07" rx="27.69"/><path class="cls-10" d="M162.82,338.15H328.66a0,0,0,0,1,0,0v89.58a0,0,0,0,1,0,0H162.82A27.69,27.69,0,0,1,135.13,400V365.84A27.69,27.69,0,0,1,162.82,338.15Z"/><rect class="cls-9" x="135.13" y="111.57" width="400.03" height="113.07" rx="27.69"/><path class="cls-10" d="M162.82,111.57H328.66a0,0,0,0,1,0,0v89.58a0,0,0,0,1,0,0H162.82a27.69,27.69,0,0,1-27.69-27.69V139.25A27.69,27.69,0,0,1,162.82,111.57Z"/><rect class="cls-8" x="102.76" y="222.55" width="400.03" height="113.07" rx="27.69"/><path class="cls-9" d="M130.45,222.55H296.29a0,0,0,0,1,0,0v89.58a0,0,0,0,1,0,0H130.45a27.69,27.69,0,0,1-27.69-27.69V250.23A27.69,27.69,0,0,1,130.45,222.55Z"/><rect class="cls-8" x="102.76" y="225.78" width="400.03" height="113.07" rx="27.69"/><path class="cls-9" d="M130.45,225.78H296.29a0,0,0,0,1,0,0v89.58a0,0,0,0,1,0,0H130.45a27.69,27.69,0,0,1-27.69-27.69V253.47A27.69,27.69,0,0,1,130.45,225.78Z"/><circle class="cls-11" cx="578.57" cy="369.27" r="200.42"/><path class="cls-9" d="M578.57,569.69c-110.69,0-200.42-89.74-200.42-200.42s89.73-200.42,200.42-200.42"/><circle class="cls-10" cx="578.57" cy="369.27" r="170.95"/><text class="cls-12" transform="translate(441.71 491.59)">€</text><rect class="cls-8" x="1124.81" y="448.69" width="400.03" height="113.07" rx="27.69" transform="translate(2649.65 1010.46) rotate(-180)"/><path class="cls-9" d="M1359,448.69h165.83a0,0,0,0,1,0,0v89.58a0,0,0,0,1,0,0H1359a27.69,27.69,0,0,1-27.69-27.69V476.38A27.69,27.69,0,0,1,1359,448.69Z" transform="translate(2856.15 986.97) rotate(-180)"/><rect class="cls-9" x="1089.23" y="338.15" width="400.03" height="113.07" rx="27.69" transform="translate(2578.49 789.37) rotate(-180)"/><path class="cls-10" d="M1323.42,338.15h165.83a0,0,0,0,1,0,0v89.58a0,0,0,0,1,0,0H1323.42A27.69,27.69,0,0,1,1295.73,400V365.84a27.69,27.69,0,0,1,27.69-27.69Z" transform="translate(2784.99 765.88) rotate(180)"/><rect class="cls-9" x="1089.23" y="111.57" width="400.03" height="113.07" rx="27.69" transform="translate(2578.49 336.2) rotate(-180)"/><path class="cls-10" d="M1323.42,111.57h165.83a0,0,0,0,1,0,0v89.58a0,0,0,0,1,0,0H1323.42a27.69,27.69,0,0,1-27.69-27.69V139.25A27.69,27.69,0,0,1,1323.42,111.57Z" transform="translate(2784.99 312.72) rotate(-180)"/><rect class="cls-8" x="1121.6" y="222.55" width="400.03" height="113.07" rx="27.69" transform="translate(2643.23 558.16) rotate(-180)"/><path class="cls-9" d="M1355.79,222.55h165.83a0,0,0,0,1,0,0v89.58a0,0,0,0,1,0,0H1355.79a27.69,27.69,0,0,1-27.69-27.69V250.23a27.69,27.69,0,0,1,27.69-27.69Z" transform="translate(2849.73 534.68) rotate(180)"/><rect class="cls-8" x="1121.6" y="225.78" width="400.03" height="113.07" rx="27.69" transform="translate(2643.23 564.63) rotate(-180)"/><path class="cls-9" d="M1355.79,225.78h165.83a0,0,0,0,1,0,0v89.58a0,0,0,0,1,0,0H1355.79a27.69,27.69,0,0,1-27.69-27.69V253.47a27.69,27.69,0,0,1,27.69-27.69Z" transform="translate(2849.73 541.15) rotate(180)"/><circle class="cls-11" cx="1045.83" cy="369.27" r="200.42"/><path class="cls-9" d="M1045.83,569.69c110.68,0,200.41-89.74,200.41-200.42s-89.73-200.42-200.41-200.42"/><circle class="cls-10" cx="1045.83" cy="369.27" r="170.95"/><text class="cls-12" transform="translate(900.05 491.59)">€</text><path class="cls-2" d="M435,655.28h0a36.87,36.87,0,0,1,36.87,36.87v94.29a0,0,0,0,1,0,0H398.15a0,0,0,0,1,0,0V692.15A36.87,36.87,0,0,1,435,655.28Z" transform="translate(637.14 -96.47) rotate(45)"/><rect class="cls-3" x="246.95" y="813.53" width="113.36" height="77.44" transform="translate(691.56 34.92) rotate(45)"/><path class="cls-4" d="M62.65,903.47H247.08a0,0,0,0,1,0,0v180.6a14.49,14.49,0,0,1-14.49,14.49H77.14a14.49,14.49,0,0,1-14.49-14.49V903.47a0,0,0,0,1,0,0Z" transform="translate(753.18 183.68) rotate(45)"/><rect class="cls-2" x="288.9" y="748.46" width="139.25" height="98.24" transform="translate(668.99 -19.91) rotate(45)"/><path class="cls-4" d="M223,824.5h90.69a46.87,46.87,0,0,1,46.87,46.87v46.74a32.38,32.38,0,0,1-32.38,32.38H208.55a32.38,32.38,0,0,1-32.38-32.38V871.37A46.87,46.87,0,0,1,223,824.5Z" transform="translate(706.16 70.17) rotate(45)"/><rect class="cls-5" x="110.2" y="855.92" width="184.43" height="195.09" transform="translate(733.49 136.13) rotate(45)"/><rect class="cls-6" x="257.52" y="833.45" width="122.18" height="7.04" rx="3.52" transform="translate(685.15 19.85) rotate(45)"/><rect class="cls-7" x="318.71" y="720.57" width="19.43" height="76.41" transform="translate(632.73 -9.99) rotate(45)"/><path class="cls-7" d="M418.5,675.36h0a9.71,9.71,0,0,1,9.71,9.71v66.7a0,0,0,0,1,0,0H408.79a0,0,0,0,1,0,0v-66.7a9.71,9.71,0,0,1,9.71-9.71Z" transform="translate(627.14 -86.93) rotate(45)"/><rect class="cls-13" x="1018.12" y="220.52" width="164.57" height="843.67" transform="translate(462.5 1745.35) rotate(-90.23)"/><rect class="cls-14" x="333.49" y="511.84" width="129.08" height="261.74" transform="translate(-243.07 1043.33) rotate(-90.23)"/><rect class="cls-15" x="566.64" y="657.63" width="19.28" height="111.09" rx="0.09" transform="matrix(0, 1, -1, 0, 1287.12, 134.02)"/><rect class="cls-16" x="566.91" y="515.66" width="17.8" height="110.87" rx="0.08" transform="translate(1144.57 -7.02) rotate(89.77)"/><rect class="cls-17" x="1082.21" y="272.73" width="25.88" height="831.45" transform="translate(411.14 1786.39) rotate(-90.23)"/><rect class="cls-18" x="1074.13" y="238.31" width="42.28" height="831.95" transform="translate(445.42 1752.2) rotate(-90.23)"/><rect class="cls-19" x="1067.93" y="189.54" width="54.28" height="831.95" transform="translate(493.99 1703.03) rotate(-90.23)"/><rect class="cls-20" x="573.65" y="632.03" width="194.76" height="18.58" rx="0.09" transform="matrix(0, -1, 1, 0, 32.43, 1314.94)"/><rect class="cls-21" x="374.85" y="503" width="29.25" height="248.02" transform="translate(-235.95 1019.03) rotate(-90.23)"/><rect class="cls-22" x="374.27" y="530.84" width="29.25" height="248.49" transform="translate(-264.61 1046.63) rotate(-90.23)"/><path class="cls-23" d="M469,627.62h95.71a.26.26,0,0,1,.26.26v27.8a0,0,0,0,1,0,0H468.69a0,0,0,0,1,0,0v-27.8A.26.26,0,0,1,469,627.62Z" transform="translate(-122.75 1161.06) rotate(-90.23)"/><rect class="cls-15" x="550.2" y="606.57" width="46.85" height="106.22" transform="translate(1230.99 83.39) rotate(89.77)"/><rect class="cls-24" x="562.02" y="641.8" width="24.39" height="107.11" transform="translate(1267.24 118.33) rotate(89.77)"/><rect class="cls-25" x="537" y="633.02" width="194.76" height="16.89" rx="0.08" transform="translate(-4.51 1278.44) rotate(-90.23)"/><rect class="cls-26" x="541.93" y="553.54" width="62.39" height="105.1" transform="translate(1176.89 30.51) rotate(89.77)"/><rect class="cls-27" x="642.53" y="535.14" width="19.94" height="37.81" transform="translate(1203.9 -100.69) rotate(89.77)"/><rect class="cls-26" x="630.04" y="564.93" width="45.16" height="37.81" transform="translate(1233.81 -71.14) rotate(89.77)"/><rect class="cls-24" x="614.2" y="625.93" width="77.33" height="37.81" transform="translate(10.68 1300.3) rotate(-90.23)"/><rect class="cls-28" x="631.05" y="686.65" width="44.11" height="37.81" transform="translate(-49.79 1361.51) rotate(-90.23)"/><rect class="cls-29" x="646.65" y="713.74" width="12.79" height="38.22" transform="translate(-77.16 1388.86) rotate(-90.23)"/><polygon class="cls-30" points="79.18 681.86 93.43 677.89 117.1 675.69 140.77 674.7 163.23 675.21 179.32 676.04 196.63 678.08 208.18 680.74 207.86 602.55 188.76 607.14 166.01 610.24 134.44 610.36 109.24 609.56 89.8 606.63 77.95 603.67 79.18 681.86"/><rect class="cls-31" x="164.03" y="629.11" width="116.38" height="29.46" rx="0.14" transform="translate(-420.72 868.66) rotate(-90.23)"/><rect class="cls-24" x="17.27" y="630.19" width="102.25" height="25.56" rx="0.12" transform="translate(-574.29 713.96) rotate(-90.23)"/><rect class="cls-32" x="158.55" y="633.1" width="154.88" height="16.84" rx="0.08" transform="translate(-404.57 880.1) rotate(-90.23)"/><rect class="cls-24" x="218.9" y="628.02" width="65.15" height="31.85" transform="translate(-391.46 898.03) rotate(-90.23)"/><rect class="cls-27" x="242.76" y="551.54" width="16.8" height="31.85" transform="matrix(0, 1, -1, 0, 817.61, 314.01)"/><rect class="cls-26" x="232.24" y="576.64" width="38.04" height="31.85" transform="translate(842.81 338.9) rotate(89.77)"/><rect class="cls-28" x="233.65" y="678.62" width="36.05" height="31.85" transform="translate(-441.85 949.03) rotate(-90.23)"/><rect class="cls-29" x="246.24" y="702.01" width="10.78" height="32.2" transform="translate(-465.46 972.64) rotate(-90.23)"/><path class="cls-2" d="M633.47,655.28h0a36.87,36.87,0,0,1,36.87,36.87v94.29a0,0,0,0,1,0,0H596.6a0,0,0,0,1,0,0V692.15A36.87,36.87,0,0,1,633.47,655.28Z" transform="translate(-324.19 659.06) rotate(-45)"/><rect class="cls-33" x="708.18" y="813.53" width="113.36" height="77.44" transform="translate(-378.61 790.45) rotate(-45)"/><path class="cls-33" d="M821.41,903.47h184.43a0,0,0,0,1,0,0v180.6a14.49,14.49,0,0,1-14.49,14.49H835.9a14.49,14.49,0,0,1-14.49-14.49V903.47A0,0,0,0,1,821.41,903.47Z" transform="translate(-440.23 939.22) rotate(-45)"/><rect class="cls-2" x="640.56" y="748.23" width="139.25" height="98.24" transform="translate(-355.8 735.72) rotate(-45)"/><path class="cls-33" d="M754.76,824.5h90.69a46.87,46.87,0,0,1,46.87,46.87v46.74a32.38,32.38,0,0,1-32.38,32.38H740.27a32.38,32.38,0,0,1-32.38-32.38V871.37a46.87,46.87,0,0,1,46.87-46.87Z" transform="translate(-393.21 825.7) rotate(-45)"/><rect class="cls-5" x="773.85" y="855.92" width="184.43" height="195.09" transform="translate(-420.53 891.67) rotate(-45)"/><rect class="cls-34" x="688.49" y="833.74" width="122.18" height="7.04" rx="3.52" transform="translate(-372.49 775.27) rotate(-45)"/><rect class="cls-7" x="661.67" y="789.25" width="19.43" height="76.41" transform="translate(-388.46 717.09) rotate(-45)"/><path class="cls-7" d="M626.17,699.18h0a9.71,9.71,0,0,1,9.71,9.71v66.7a0,0,0,0,1,0,0H616.46a0,0,0,0,1,0,0v-66.7A9.71,9.71,0,0,1,626.17,699.18Z" transform="translate(-338 658.75) rotate(-45)"/><path class="cls-2" d="M1404.15,592.58h0A36.87,36.87,0,0,1,1441,629.44v94.29a0,0,0,0,1,0,0h-73.73a0,0,0,0,1,0,0V629.44a36.87,36.87,0,0,1,36.87-36.87Z"/><rect class="cls-33" x="1347.47" y="805.25" width="113.36" height="77.44"/><path class="cls-33" d="M1311.93,956.81h184.43a0,0,0,0,1,0,0v180.6a14.49,14.49,0,0,1-14.49,14.49H1326.42a14.49,14.49,0,0,1-14.49-14.49V956.81A0,0,0,0,1,1311.93,956.81Z"/><rect class="cls-2" x="1334.68" y="717.38" width="139.25" height="98.24"/><path class="cls-33" d="M1358.8,830.82h90.69a46.87,46.87,0,0,1,46.87,46.87v46.74A32.38,32.38,0,0,1,1464,956.81H1344.31a32.38,32.38,0,0,1-32.38-32.38V877.69a46.87,46.87,0,0,1,46.87-46.87Z"/><rect class="cls-5" x="1311.93" y="889.57" width="184.43" height="195.09"/><rect class="cls-34" x="1342.85" y="819.05" width="122.18" height="7.04" rx="3.52"/><rect class="cls-7" x="1345.87" y="722.13" width="19.43" height="76.41"/><path class="cls-7" d="M1387.31,626.48h0a9.71,9.71,0,0,1,9.71,9.71v66.7a0,0,0,0,1,0,0h-19.43a0,0,0,0,1,0,0v-66.7A9.71,9.71,0,0,1,1387.31,626.48Z"/><path class="cls-2" d="M1200.86,592.58h0a36.87,36.87,0,0,1,36.87,36.87v94.29a0,0,0,0,1,0,0H1164a0,0,0,0,1,0,0V629.44A36.87,36.87,0,0,1,1200.86,592.58Z"/><rect class="cls-35" x="1144.18" y="805.25" width="113.36" height="77.44"/><path class="cls-36" d="M1108.64,956.81h184.43a0,0,0,0,1,0,0v180.6a14.49,14.49,0,0,1-14.49,14.49H1123.13a14.49,14.49,0,0,1-14.49-14.49V956.81A0,0,0,0,1,1108.64,956.81Z"/><rect class="cls-2" x="1131.39" y="717.38" width="139.25" height="98.24"/><path class="cls-36" d="M1155.51,830.82h90.69a46.87,46.87,0,0,1,46.87,46.87v46.74a32.38,32.38,0,0,1-32.38,32.38H1141a32.38,32.38,0,0,1-32.38-32.38V877.69a46.87,46.87,0,0,1,46.87-46.87Z"/><rect class="cls-5" x="1108.64" y="889.57" width="184.43" height="195.09"/><rect class="cls-37" x="1139.56" y="819.05" width="122.18" height="7.04" rx="3.52"/><rect class="cls-7" x="1142.58" y="722.13" width="19.43" height="76.41"/><path class="cls-7" d="M1184,626.48h0a9.71,9.71,0,0,1,9.71,9.71v66.7a0,0,0,0,1,0,0h-19.43a0,0,0,0,1,0,0v-66.7a9.71,9.71,0,0,1,9.71-9.71Z"/></svg>