<svg id="Layer_1" data-name="Layer 1" xmlns="http://www.w3.org/2000/svg" viewBox="0 0 1574.2 1274.57"><defs><style>.cls-1{fill:#cce4ff;}.cls-2{fill:#46266d;}.cls-3{fill:#f1c073;}.cls-4{fill:#090b0a;}.cls-5{fill:#2f3742;}.cls-6{fill:#0e62ab;}.cls-7{fill:#1b8acc;}.cls-8{fill:#3a245c;opacity:0.6;}.cls-9{fill:#179a99;}.cls-10{fill:#0067b3;}.cls-11{fill:#353285;}.cls-12{fill:red;}.cls-13,.cls-57{fill:#fff;}.cls-14{fill:#ce2b1d;}.cls-15{fill:#cadce6;}.cls-16{fill:#9c9c9c;}.cls-17{fill:#898989;}.cls-18{fill:#e02f22;}.cls-19{fill:#cc2a1d;}.cls-20{fill:#b9251a;}.cls-21{fill:#ac8e89;}.cls-22{fill:#b5c3c9;}.cls-23{fill:#c0ccd0;}.cls-24{fill:#a4b4b9;}.cls-25{fill:#afafaf;}.cls-26{fill:#c8c8c8;}.cls-27{fill:#939393;}.cls-28{fill:#b0b0b0;}.cls-29{fill:#c6c6c6;}.cls-30{fill:#aeaeae;}.cls-31{fill:#969696;}.cls-32{fill:#989898;}.cls-33{fill:#cacaca;}.cls-34{fill:#e3b080;}.cls-35{fill:#cd9162;}.cls-36{fill:#c98a5b;}.cls-37{fill:#dda776;}.cls-38{fill:#f3cdaa;}.cls-39{fill:#ce9261;}.cls-40{fill:#d0976e;}.cls-41{fill:#b9794a;}.cls-42{fill:#cd9163;}.cls-43{fill:#d29572;}.cls-44{fill:#499fbb;}.cls-45{fill:#4190ad;}.cls-46{fill:#52b2cc;}.cls-47{fill:#5cb6d2;}.cls-48{fill:#66cae4;}.cls-49{fill:#d33334;}.cls-50{fill:#bf2e2e;}.cls-51{fill:#ae292a;}.cls-52{fill:#f2f5f8;}.cls-53{fill:#bec2c7;}.cls-54{fill:#c75a24;}.cls-55{fill:#dc813b;}.cls-56{fill:#606060;opacity:0.36;}.cls-57{font-size:94.59px;font-family:Arial-Black, Arial Black;font-weight:800;}</style></defs><rect class="cls-1" width="1574.2" height="1274.57" rx="81.08"/><rect class="cls-2" x="1080.25" y="399.42" width="30.54" height="132.36" rx="3.42"/><path class="cls-3" d="M781.57,202.57S903.71,172.09,950.45,223s3.27,241.16,3.27,241.16l66.1,142.27-6.6,34-59,110.2L825.4,676.21l-54.32-12.42Z"/><path class="cls-4" d="M789.3,205.51S935.67,191.11,950.45,223s20.33,109.71,20.33,109.71l105.57-8.25S1089.5,213,983.92,203.92c0,0-9.85-121.29-194.62-142l-.89,142"/><rect class="cls-2" x="433.02" y="399.42" width="30.54" height="132.36" rx="3.42" transform="translate(896.58 931.19) rotate(-180)"/><path class="cls-3" d="M561,640.17l-6.15-36.71,46.59-283.12s24.8-99.73,160.35-98.08L781.57,210V656.41l-166,103.09Z"/><path class="cls-5" d="M789.3,205.51V61.94s-293,5.83-309.73,262.36S789.3,205.51,789.3,205.51Z"/><path class="cls-6" d="M452.07,324.49H1087a4,4,0,0,1,4,4V606.38a0,0,0,0,1,0,0H448a0,0,0,0,1,0,0V328.53A4,4,0,0,1,452.07,324.49Z"/><rect class="cls-7" x="483.88" y="347.52" width="583.94" height="235.83" rx="3.13"/><rect class="cls-2" x="497.15" y="359.05" width="554.22" height="214" rx="3.13"/><polygon class="cls-3" points="730.59 715.83 807.46 699.55 882.36 714.86 909.72 760.13 899.3 799.53 799.31 809.95 683.04 814.84 649.83 773.48 688.91 724.63 730.59 715.83"/><polyline class="cls-8" points="1090.99 502.17 1090.99 606.38 448.03 606.38"/><circle class="cls-9" cx="542.17" cy="399.76" r="27.94"/><polygon class="cls-10" points="620.27 1088.81 644.36 1149.55 966.9 1129.65 938.63 1069.96 620.27 1088.81"/><path class="cls-3" d="M789.71,1142v137.3H698.48l-54.2-159.88S778.87,1143.78,789.71,1142Z"/><path class="cls-5" d="M633.76,741.3s-21.86,7.54-34.67-27.88-19.65-71.57-23.64-73.67-14.47.42-14.47.42,3.54,266,77.84,313.46S789.5,980.27,789.5,980.27V750.86s-11-3.51-19.43,7S737,800,733.33,801.07s-28.36.86-35-1.08S676,788.17,676,787.53s.86-56.94,37.81-64.24h62.1s11.38-14.61,13.32-15V648.09s-93.57-8-154.78,93.16"/><path class="cls-4" d="M940.58,741.3s21.86,7.54,34.67-27.88,19.65-71.57,23.64-73.67,14.48.42,14.48.42-3.55,266-77.85,313.46-150.67,26.64-150.67,26.64V750.86s11-3.51,19.42,7S837.36,800,841,801.07s28.36.86,35-1.08,22.35-11.82,22.35-12.46-.86-56.94-37.82-64.24H798.47s-11.39-14.61-13.33-15V648.09s93.57-8,154.78,93.16"/><path class="cls-3" d="M638.82,953.63l-11,111.14,7.28,24.83s107.49,32.16,154.35,24.81V980.27S655.36,967.41,638.82,953.63Z"/><path class="cls-10" d="M126.15,1277.14l12.62-50.54s5.24-7.87,30.41-14.16S629,1053.51,629,1053.51l99.07,225.22Z"/><path class="cls-11" d="M553.68,1273.94l-8.3-13.28,34.85-28.77-69.7-47,32.08-96.81-19.36,95.15,75.24,48.13L557,1265.64l9.62,12.66,161.44.43L629,1053.51s-434.65,152.64-459.81,158.93-30.41,14.16-30.41,14.16l-12.62,50.54,430.13,1.13Z"/><path class="cls-3" d="M784.49,1142v137.3h91.23l54.2-159.88S795.33,1143.78,784.49,1142Z"/><path class="cls-3" d="M935.38,953.63l10.86,110.93-7.19,25s-107.49,32.16-154.35,24.81V980.27S918.84,967.41,935.38,953.63Z"/><path class="cls-10" d="M1448.05,1277.14l-12.62-50.54s-5.24-7.87-30.41-14.16-459.81-158.93-459.81-158.93l-99.07,225.22Z"/><path class="cls-11" d="M1020.52,1273.94l8.3-13.28L994,1231.89l69.7-47-32.09-96.81,19.37,95.15-75.24,48.13,41.49,34.3-9.62,12.66-161.44.43,99.07-225.22s434.65,152.64,459.81,158.93,30.41,14.16,30.41,14.16l12.62,50.54-430.13,1.13Z"/><rect class="cls-1" x="791.34" y="532.84" width="10.3" height="0.01"/><rect class="cls-1" x="791.34" y="537.92" width="0.01" height="6.09"/><path class="cls-1" d="M746,506.4l-1.34-1.6-.77-1.86s.14-2.89.22-3.15c0-.09.26-.52.54-1.06-.15.25-.26.44-.29.47s-2,1.39-2,1.39l-1.55.18-1.62-.31-.91-.43-.05.09-1.09-.68-1.15-1.22-.68-1.43s.07-2.23.14-2.44,1.56-2.78,1.56-2.78l.93-1.63-9.56-4.76a12.05,12.05,0,0,0-3.25,1.16,13.05,13.05,0,0,0-4.55,3.94,17,17,0,0,0-2.63,5.65,25.21,25.21,0,0,0-.85,6.58,25.66,25.66,0,0,0,.85,6.69,16.3,16.3,0,0,0,2.63,5.59,12.79,12.79,0,0,0,4.55,3.84,16.12,16.12,0,0,0,10.44,1,13.2,13.2,0,0,0,3.13-1.29l-4.5-3.45,2-2.58,5.32,4.06a14.53,14.53,0,0,0,3.73-6.06,24.06,24.06,0,0,0,.91-3.79Z"/><path class="cls-1" d="M839.16,401l24.62-.07V373H810A35.94,35.94,0,0,1,839.16,401Z"/><path class="cls-1" d="M717.25,436.84l.52-1.23s.15-.91,2.34-1.21a6.86,6.86,0,0,1,2.65.69c-9.29-10.2-12.92-21-12.49-30.71H684.74V419.7l31.8,16.91Z"/><path class="cls-1" d="M863.75,465.71l-29,15-5.2,2h2.13v3.18H821.36l-1.18.51,0-.09-.29.12,0,0-.66.27v35.52h-3.72V486.77L811.31,489a4.32,4.32,0,0,1,0,2.84c0,.06-.06.12-.09.19l-.14,1.06-.83,1.32,0,0-.76,1.09-1.43.88-1,.2a2.5,2.5,0,0,1-.76.15l-.24.05-.23-.07a2.74,2.74,0,0,1-.74-.23l-.93-.29-1.49-1.24-.57-.38c.23,1,1.23,6-.39,6.29h-.17l-.48.82-.7.55a8.3,8.3,0,0,1-1.16.81,5.66,5.66,0,0,1-1.29.22v7.05h-2.63v0H794v-8.61l-.38-.27c.08,1.1.36,6.09-.93,5.87h0l-.29.67-2.24,1.53-2,.2-1.54-.35-1.22-.69c-.21,4.49-1.46,8-3.77,10.47q-3.81,4.08-11.49,4.08t-11.51-4.16q-3.37-3.74-3.73-10.18l-.38-.4-.71-1.46v0l-1.64,1.16-1.84.2-.73-.16a24,24,0,0,1-.92,3.27,18.19,18.19,0,0,1-4.44,7l5.27,4.06L747.36,525l-5.81-4.49a17.7,17.7,0,0,1-4.47,2,19.34,19.34,0,0,1-5.4.71,18.35,18.35,0,0,1-8-1.64,16.57,16.57,0,0,1-5.76-4.47,19.23,19.23,0,0,1-3.45-6.58,28.41,28.41,0,0,1,0-15.9,20,20,0,0,1,3.37-6.63,16.31,16.31,0,0,1,2.23-2.32c-3.69-1.67-15-7.05-15-7.05l-2.69-1.31a1.75,1.75,0,0,1-.83-1.87,6.51,6.51,0,0,1,.2-.9l-3-1.46-.05.09-13.92-6.84v85.71h179V465.7ZM795.28,510.6h2.62l0,12.5H794l0-12.49Zm57.84,32.11a.24.24,0,0,1-.24.24h-2.29a.24.24,0,0,1-.24-.24v-1.13l-1-.24-2.1-.33-2.73-.09h-3.42l-2.47.32-2,.48v1.56a.28.28,0,0,1-.28.27h-1.9v2.18a.16.16,0,0,1-.16.15h-.7v.54h-3.45v-2.13H802.74v1.48a.17.17,0,0,1-.16.17H791.34v1.78a.16.16,0,0,1-.16.16h-5.56a.18.18,0,0,1-.17-.18v-1.76h-91.2V528.11h91.2V527a.18.18,0,0,1,.17-.17h.75v0h4.14v0h.67a.16.16,0,0,1,.16.16v1.6h11.24a.18.18,0,0,1,.19.18v1.59h27.41v-.52h0v-1.17h3.48v.5h.67a.16.16,0,0,1,.16.16V531h1.9a.28.28,0,0,1,.28.28v2l1.19.28,1.87.23,1.75.1,2.43.06,2.56-.09,2.57-.23,1.31-.36v-1.14a.25.25,0,0,1,.24-.25h2.29a.25.25,0,0,1,.24.25Z"/><path class="cls-1" d="M799.22,373H751c8,1.54,16.37,5.77,24.5,13.46C783,378.48,791.23,374.3,799.22,373Z"/><path class="cls-1" d="M779.74,513.44a9.78,9.78,0,0,1-2.74.84c-1,.07-3.44-1.43-4-1.76-.46.71-1.12,1.72-1.21,1.81s-2.13,1.29-2.13,1.29l-1.64.17-1.71-.29-1-.42h0l0,0-.14-.06h0l-1-.54L763,513.33l-.71-1.32s0-1.16.09-1.82l-1.3.86-1.61.19-.55-.11a11.74,11.74,0,0,0,2.36,5.69c1.82,2.16,4.77,3.23,8.82,3.23a15.08,15.08,0,0,0,5.4-.85,8.16,8.16,0,0,0,3.59-2.57,10.8,10.8,0,0,0,2-4.31c0-.1,0-.22.06-.33A18.61,18.61,0,0,1,779.74,513.44Z"/><path class="cls-1" d="M827.6,435.7l-3.29,3.5,1.28-.69,28.52-14.86,9.67-5v-14H839.71C840.61,414.53,837.23,425.5,827.6,435.7Z"/><polygon class="cls-1" points="792.96 493.71 793.5 494.18 793 493.69 792.96 493.71"/><path class="cls-1" d="M737,373H684.74v28.14h25.83A33.38,33.38,0,0,1,737,373Z"/><polygon class="cls-1" points="766.65 503.59 766.65 503.59 766.62 503.63 766.75 503.52 766.65 503.59"/><polygon class="cls-1" points="810.73 473.42 810.11 472.09 810.69 473.36 810.73 473.42"/><polygon class="cls-1" points="735.13 448.13 735.11 448.27 735.15 448.27 735.14 448.18 737.65 449.41 735.07 446.97 731.63 458.36 731.64 458.36 725.83 477.95 734.77 448.06 735.13 448.13"/><path class="cls-12" d="M710.57,401.16h23.54l8.13,39.16h.11L752,401.16h4.4l9.5,39.16H766l9.1-39.16h.8l63.22-.18A35.94,35.94,0,0,0,810,373h-10.8c-8,1.28-16.22,5.46-23.77,13.46-8.13-7.69-16.54-11.92-24.5-13.46H737A33.38,33.38,0,0,0,710.57,401.16Z"/><path class="cls-12" d="M735.77,442a6.2,6.2,0,0,1,.15,2.2l-.85,2.81,2.59,2.44,15,7.34,9.61-3.82,5-1.76s4.86.11,5.79,1.24c.07.09.28.31.61.65,1.67-.27,3.43-.54,4.15-.67a17.79,17.79,0,0,1,4,.06l7.91,6.31,11.52-5.35-.59-1.21,3-1.81.32.62,11-6.84,9.38-5,3.29-3.5c9.63-10.2,13-21.17,12.11-31.05H778.35l-10.1,41.7H763.9l-9.67-39.92h-.12l-9.67,39.92h-4.35l-10-42H710.27c-.43,9.71,3.2,20.51,12.49,30.71,4.37,1.73,12,6,12,6S735.47,441.06,735.77,442Zm33.74,1h.37l8.45-32.39,3,.79-3.2,12.29h26.75v3.22H777.32L773.12,443h38.22v3.21H772.28l-.75,2.86-3-.79,1-3.86Z"/><polygon class="cls-13" points="744.44 446.35 754.11 406.43 754.23 406.43 763.9 446.35 768.25 446.35 778.35 404.65 775.94 404.65 775.94 401.16 775.14 401.16 766.04 440.32 765.93 440.32 756.43 401.16 752.03 401.16 742.35 440.32 742.24 440.32 734.11 401.16 734.11 404.38 730.09 404.38 740.09 446.35 744.44 446.35"/><polygon class="cls-13" points="730.09 404.38 734.11 404.38 734.11 401.16 729.32 401.16 710.57 401.16 684.75 401.16 684.75 404.38 710.27 404.38 730.09 404.38"/><polygon class="cls-13" points="775.94 401.16 775.94 404.65 778.35 404.65 839.71 404.65 863.78 404.65 863.78 400.91 839.16 400.98 775.94 401.16"/><polygon class="cls-13" points="769.51 443 769.51 444.42 769.88 443 769.51 443"/><polygon class="cls-13" points="811.34 446.21 811.34 443 773.12 443 772.28 446.21 811.34 446.21"/><polygon class="cls-13" points="804.91 426.91 804.91 423.69 778.16 423.69 777.32 426.91 804.91 426.91"/><polygon class="cls-12" points="771.53 449.07 772.28 446.21 773.12 443 777.32 426.91 778.16 423.69 781.36 411.4 778.33 410.61 769.88 443 769.51 444.42 768.5 448.28 771.53 449.07"/><polygon class="cls-14" points="695.45 543.96 695.45 538.08 785.45 538.08 785.45 538.03 695.45 538.03 695.45 533.45 785.45 533.45 785.45 533.44 695.5 533.44 695.5 530.63 785.45 530.63 785.45 528.11 694.25 528.11 694.25 545.94 785.45 545.94 785.45 543.96 695.45 543.96"/><path class="cls-15" d="M830.18,540.73v-.15h-25.5V542a.53.53,0,0,1-.53.53h-1.41v1.6h0v.11h27.44v-3.56Z"/><path class="cls-15" d="M802.77,532.15h1.38a.53.53,0,0,1,.53.53v1.7h25.5v-4.07H802.77v1.84Z"/><path class="cls-16" d="M802.77,530.2v-1.48a.18.18,0,0,0-.19-.18H791.34v1.66Z"/><path class="cls-17" d="M802.74,544.17v.4H791.35V544h0v1.93h11.24a.17.17,0,0,0,.16-.17v-1.59Z"/><rect class="cls-18" x="695.5" y="530.63" width="89.95" height="2.8"/><rect class="cls-19" x="695.45" y="533.45" width="90" height="4.58"/><rect class="cls-20" x="695.45" y="538.08" width="90" height="5.88"/><path class="cls-21" d="M786.38,546v-17.9h0v-1.33h-.75a.18.18,0,0,0-.17.17v6.49h0V547.7a.18.18,0,0,0,.17.18h.76Z"/><rect class="cls-22" x="804.68" y="537.54" width="25.5" height="3.04"/><rect class="cls-23" x="804.68" y="534.38" width="25.5" height="3.17"/><path class="cls-24" d="M804.68,534.38v-1.7a.53.53,0,0,0-.53-.53h-1.38v.69h0v5.08h0v4.65h1.41a.53.53,0,0,0,.53-.53v-7.66Z"/><polygon class="cls-16" points="791.35 537.81 802.74 537.81 802.74 537.92 802.77 537.92 802.77 532.84 801.64 532.84 791.34 532.84 791.34 537.92 791.35 537.92 791.35 537.81"/><polygon class="cls-25" points="791.34 532.84 801.64 532.84 802.77 532.84 802.77 532.15 802.77 530.45 802.77 530.3 802.77 530.2 791.34 530.2 791.34 532.84"/><path class="cls-26" d="M791.34,537.92v-5.08h0v-5.9a.16.16,0,0,0-.16-.16h-.67v1.33h0v19.76h.71a.16.16,0,0,0,.16-.16v-9.8Z"/><polygon class="cls-27" points="802.74 537.81 791.35 537.81 791.35 537.92 791.35 544.01 791.35 544.57 802.74 544.57 802.74 544.16 802.74 542.57 802.74 537.92 802.74 537.81"/><polygon class="cls-28" points="790.47 546.01 786.38 546.01 786.38 547.87 787.3 547.87 789.65 547.87 790.47 547.87 790.47 546.01"/><polygon class="cls-27" points="786.38 541.14 786.38 545.71 786.38 546.01 790.47 546.01 790.47 545.71 790.47 541.14 786.38 541.14"/><polygon class="cls-25" points="786.38 532.77 786.38 541.12 786.38 541.14 790.47 541.14 790.47 541.12 790.47 532.77 786.38 532.77"/><rect class="cls-29" x="786.38" y="528.11" width="4.1" height="4.65"/><polygon class="cls-30" points="786.38 528.11 790.47 528.11 790.51 528.11 790.51 526.78 790.51 526.73 786.37 526.73 786.37 526.78 786.37 528.11 786.38 528.11"/><polygon class="cls-31" points="849.04 533.62 846.47 533.85 843.91 533.94 841.48 533.88 839.73 533.78 837.86 533.55 836.67 533.27 836.67 541.72 838.68 541.24 841.15 540.92 844.57 540.92 847.3 541.01 849.4 541.34 850.35 541.58 850.35 533.26 849.04 533.62"/><path class="cls-32" d="M836.67,531.23a.28.28,0,0,0-.28-.28h-1.9v12.6h1.9a.28.28,0,0,0,.28-.27v-12Z"/><path class="cls-25" d="M852.88,531.87h-2.29a.25.25,0,0,0-.24.25v10.59a.24.24,0,0,0,.24.24h2.29a.24.24,0,0,0,.24-.24V532.12A.25.25,0,0,0,852.88,531.87Z"/><path class="cls-33" d="M834.49,529.27a.16.16,0,0,0-.16-.16h-.67v.67h0v16.09h.7a.16.16,0,0,0,.16-.15V529.27Z"/><polygon class="cls-25" points="830.18 533.7 830.18 534.38 830.18 537.54 830.18 540.59 830.18 540.73 833.63 540.73 833.63 533.7 830.18 533.7"/><polygon class="cls-28" points="830.18 544.85 830.18 546.42 833.63 546.42 833.63 545.88 833.63 544.85 830.18 544.85"/><polygon class="cls-27" points="833.63 544.85 833.63 544.6 833.63 540.75 833.63 540.73 830.18 540.73 830.18 540.75 830.18 544.29 830.18 544.6 830.18 544.85 833.63 544.85"/><polygon class="cls-29" points="833.63 533.7 833.63 529.79 832.67 529.79 830.18 529.79 830.18 530.3 830.18 533.7 833.63 533.7"/><polygon class="cls-30" points="833.66 529.11 833.66 528.61 830.18 528.61 830.18 529.78 832.67 529.78 833.66 529.78 833.66 529.11"/><path class="cls-34" d="M811.37,490.83l-.15,1.15c0-.07.07-.13.09-.19a4.32,4.32,0,0,0,0-2.84l-.11.06Z"/><path class="cls-34" d="M795,478.05a18.62,18.62,0,0,1,1.2-2.47l-.13-.11L788.78,471l-2.78-1.5-4.51-2.89-4-2.53-6,1.51-6.92,2.92-.15,10.4,0,2.34-.8,1.8-1,.77-1.61.91-.23.07,6.52,11.09h0l9.41,6h0l5-7.51V482.72h3.73v6.09l7.33-11.05Z"/><path class="cls-34" d="M735.15,448.27h.1l.9,4.37,9.43,6.39,7.2,12.23-.47-2.59s-.51-3.8-.9-5.66,3-5.54,3-5.54l2.06-.71,2.19-.51s10.23-2.25,11.46-2.58c.57-.15,2-.38,3.44-.61-.33-.34-.54-.56-.61-.65-.93-1.13-5.79-1.24-5.79-1.24l-5,1.76-9.61,3.82-15-7.34-2.52-1.24Z"/><path class="cls-34" d="M805.87,496.69l-.74-.23A2.74,2.74,0,0,0,805.87,496.69Z"/><polygon class="cls-34" points="793.73 486.92 793.62 486.95 793.21 486.89 793.13 487.88 793.92 488.45 793.92 488.36 793.22 487.85 793.73 486.92"/><path class="cls-34" d="M796.18,478.2l1.49.19.26-1.36-.31-.25C797.05,477.31,796.57,477.8,796.18,478.2Z"/><path class="cls-34" d="M802.14,494.55l.57.38-.59-.49Z"/><path class="cls-34" d="M807.1,496.56l-.76.15A2.5,2.5,0,0,0,807.1,496.56Z"/><polygon class="cls-34" points="801.5 493.92 800.39 493 797.93 491.24 797.93 491.35 801.5 493.92"/><polygon class="cls-34" points="735.15 448.27 735.11 448.27 734.64 451.61 736.15 452.64 735.25 448.27 735.15 448.27"/><path class="cls-34" d="M752.78,471.26,745.58,459l-9.43-6.39-1.51-1-4,28.3,3.86,2a18.65,18.65,0,0,1,4.62,1.18,15.85,15.85,0,0,1,5,3.12l.74.18.75.61-.22.4h0l.2-.34.9.29.58.56.48.58,3,1.53.58-.25-1.06-2.82h3.09l1.64,1v-5.24h.29l-.32-.41Z"/><polygon class="cls-34" points="767.25 495.93 767.28 495.93 760.76 484.84 759.67 485.14 758.52 485.14 758.52 490.34 767.25 495.93"/><path class="cls-35" d="M750,490.25l.59-.27-3-1.53.15.18.44,1.26.19,1.48-.16.6a1.54,1.54,0,0,1,.08.19l.11-.19Z"/><path class="cls-35" d="M738.86,488.25l1-1a12.69,12.69,0,0,0-2.38-1.29,15.36,15.36,0,0,0-5.86-1.09,16.42,16.42,0,0,0-3.3.32l9.56,4.76Z"/><path class="cls-35" d="M734.64,451.61l.47-3.34,0-.14-.36-.07L725.83,478l-1.5,5.06a18.22,18.22,0,0,1,7.19-1.33,22,22,0,0,1,3,.19l-3.86-2Z"/><polygon class="cls-35" points="745.35 487.36 745.31 487.43 745.31 487.43 745.36 487.36 745.35 487.36"/><polygon class="cls-34" points="774.99 504.13 775.12 504.26 776.36 502.41 774.99 504.13"/><path class="cls-34" d="M776.66,508a3.53,3.53,0,0,0,.7.61l.14-.22-1.63-2.31.13.88C776.28,507.41,776.64,508,776.66,508Z"/><polygon class="cls-34" points="776.66 501.94 776.66 501.94 776.66 501.94 776.66 501.94"/><path class="cls-36" d="M785.63,501.62l-.1.57-.15.1v5c0,.47,0,.9,0,1.35l1.22.69,1.54.35,2-.2,2.24-1.53.29-.67h0Z"/><path class="cls-36" d="M780.91,504.11c-1.29-.41.65,1.27.65,1.27l.09.08v-1.34A1.53,1.53,0,0,1,780.91,504.11Z"/><path class="cls-36" d="M797.94,498.58v4.67a5.66,5.66,0,0,0,1.29-.22,8.3,8.3,0,0,0,1.16-.81l.7-.55.48-.82C800.18,501,798.57,499.31,797.94,498.58Z"/><path class="cls-36" d="M793.5,494.18l-.54-.47-1.05.86-2.23.83-2.54.52-.06.52,4.72,3.37,1.26,1.07.49.35s0,.08,0,.22l.38.27V494.6Z"/><path class="cls-37" d="M779.8,503.32l-.37-.75a4.47,4.47,0,0,0,.39.92c.36.71-1.87,5.56-1.87,5.56l-.45-.63-.14.22.53.4,3.37,2.2a28.84,28.84,0,0,0,.39-5v-.78l-.09-.08s-1.94-1.68-.65-1.27a1.53,1.53,0,0,0,.74,0v-1.39l-1.23.53Z"/><path class="cls-37" d="M801.5,493.92l-3.57-2.57v7.23c.63.73,2.24,2.4,3.64,2.27h.17c1.62-.33.62-5.27.39-6.29l0-.11Z"/><path class="cls-37" d="M793.06,500.88l-1.26-1.07-4.72-3.37.06-.52,2.54-.52,2.23-.83,1.05-.86,0,0,.5.49.43.42v-6.15l-.79-.57-.08,1.07L792.6,491l-.55,1.06-1.57,1.64-1.26.87-2,.83-1.09.06-.32,2.51-.47,1.14v3.18l.15-.1.1-.57,7,5.69h0c1.29.22,1-4.77.93-5.87,0-.14,0-.22,0-.22Z"/><path class="cls-36" d="M777.36,508.64a3.53,3.53,0,0,1-.7-.61c0-.08-.38-.62-.66-1v.06l-.5,1.69-2,3.06-.47.72c.52.33,2.93,1.83,4,1.76a9.78,9.78,0,0,0,2.74-.84,18.61,18.61,0,0,0,1.37-1.45q.09-.36.15-.75l-3.37-2.2Z"/><path class="cls-38" d="M745.57,487l-.75-.61-.74-.18c.31.28.61.57.9.88l.33.38,0-.07Z"/><path class="cls-38" d="M735.4,494.35c-.07.21-.14,2.44-.14,2.44l.68,1.43,1.15,1.22,1.09.68.05-.09-.21-.11,5.32-9.1a15.41,15.41,0,0,0-1.18-1.55,13.23,13.23,0,0,0-2.29-2l-1,1Z"/><polygon class="cls-39" points="759.29 496.69 759.61 496.56 759.37 496.39 759.29 496.69"/><path class="cls-40" d="M748.1,489.89l-.44-1.26-.15-.18-.48-.58-.58-.56-.9-.29-.2.34,0,.07a17.42,17.42,0,0,1,2.82,4.54l.16-.6Z"/><path class="cls-40" d="M738,499.92l.21.11.91.43,1.62.31,1.55-.18s1.88-1.22,2-1.39.14-.22.29-.47c.39-.71.87-1.6,1.15-2.1a19.13,19.13,0,0,0-.52-1.85,17.53,17.53,0,0,0-1.91-4Z"/><polygon class="cls-34" points="759.21 494.33 759.4 496.27 759.37 496.39 759.61 496.56 760.36 496.24 761.77 495.95 762.82 496.1 763.66 496.31 764.43 496.93 763.67 498.28 764.42 497 765.35 497.3 765.95 497.88 766.6 498.67 766.85 499.39 769 502.31 770.42 502.05 771.49 502.19 772.35 502.37 773.13 502.94 772.38 504.12 773.12 502.99 774.06 503.27 774.67 503.79 774.99 504.13 776.36 502.41 776.66 501.94 776.66 501.94 767.25 495.93 758.52 490.34 758.52 492.4 758.72 492.68 759.21 494.33"/><polygon class="cls-34" points="750.07 486.91 751.12 489.73 751.65 489.49 753.26 489.16 754.46 489.37 754.79 489.46 754.79 487.96 753.15 486.91 750.07 486.91"/><path class="cls-38" d="M754.79,506c-.13.23-.23.39-.26.43a8.48,8.48,0,0,1-.78.6v0l.71,1.46.38.4c0-.51-.05-1-.05-1.56Z"/><path class="cls-38" d="M763.67,498.28l.76-1.35-.77-.62-.84-.21-1.05-.15-1.41.29-.75.31-.32.14-.5,1.93-.27.5v7.12c0,.29,0,.56,0,.84Z"/><path class="cls-40" d="M761.06,511.05l1.3-.86a1.94,1.94,0,0,1,0-.43c.07-.19,1.64-2.57,1.64-2.57l2-3.06.56-.5,0,0,.12-1.35h-.14l0-3.13.2.28-.25-.72-.65-.79-.6-.58-.93-.3-.75,1.28-5.14,8.8a25.66,25.66,0,0,0,.37,4.05l.55.11Z"/><path class="cls-38" d="M744.08,499.79c-.08.26-.22,3.15-.22,3.15l.77,1.86,1.34,1.6.11.08a25.85,25.85,0,0,0,.3-4,26.43,26.43,0,0,0-.61-5.88c-.28.5-.76,1.39-1.15,2.1C744.34,499.27,744.11,499.7,744.08,499.79Z"/><path class="cls-38" d="M753.26,489.16l-1.61.33-.53.24-.58.25-.59.27L748.32,492l-.11.19c.2.46.38.93.55,1.41a26.8,26.8,0,0,1,1.33,8.12l4.7-8.49v-3.74l-.33-.09Z"/><polygon class="cls-40" points="759.29 496.69 759.37 496.39 759.4 496.27 759.21 494.33 758.72 492.68 758.52 492.4 758.52 499.12 758.79 498.62 759.29 496.69"/><path class="cls-40" d="M754.79,506V493.2l-4.7,8.49c0,.27,0,.54,0,.82a27.4,27.4,0,0,1-.56,5.67l.73.16,1.84-.2,1.64-1.16a8.48,8.48,0,0,0,.78-.6S754.66,506.18,754.79,506Z"/><path class="cls-34" d="M738.86,488.25l-1,1.69-.93,1.63s-1.49,2.58-1.56,2.78Z"/><polygon class="cls-41" points="766.75 503.52 767.49 502.87 767.93 502.71 767.72 502.41 767.32 502.24 766.77 502.24 766.65 503.59 766.65 503.59 766.75 503.52"/><polygon class="cls-42" points="767.32 502.24 767.72 502.41 767.93 502.71 768.99 502.31 769 502.31 766.85 499.39 766.65 499.12 766.63 502.24 766.77 502.24 767.32 502.24"/><polygon class="cls-38" points="765.34 515.08 765.34 515.08 765.31 515.06 765.34 515.08"/><path class="cls-38" d="M772.38,504.12l.75-1.18-.78-.57-.86-.18-1.07-.14-1.42.26h0l-1.06.4-.44.16-.74.65-.13.11-.56.5-2,3.06s-1.57,2.38-1.64,2.57a1.94,1.94,0,0,0,0,.43c-.05.66-.09,1.82-.09,1.82l.71,1.32,1.22,1.12,1,.54Z"/><path class="cls-34" d="M794.73,479.49c-.14-.1,0-.64.27-1.44l-2.29-.29-7.33,11.05v10.3l.47-1.14.32-2.51,1.09-.06,2-.83,1.26-.87,1.57-1.64.55-1.06.45-2.05.08-1.07.08-1,.41.06.11,0,.19-.35v-4.82h1.37v0h1.26l.73-1.34.39-2.05-1.49-.19C795.34,479.08,794.89,479.59,794.73,479.49Z"/><path class="cls-34" d="M776.66,501.94l-.3.47-1.24,1.85.22.23.46,1.18.07.44,1.63,2.31.45.63s2.23-4.85,1.87-5.56a4.47,4.47,0,0,1-.39-.92l.37.75.62-.06,1.23-.53v-8.3l-5,7.51Z"/><path class="cls-40" d="M774.67,503.79l-.61-.52-.94-.28-.74,1.13L765.18,515h0l.14.06,0,0,1,.42,1.71.29,1.64-.17s2-1.14,2.13-1.29.75-1.1,1.21-1.81l.47-.72,2-3.06.5-1.69V507l-.13-.88-.07-.44-.46-1.18-.22-.23-.13-.13Z"/><polygon class="cls-40" points="808.75 485.9 809.87 486.85 811.15 488.42 811.2 489.01 811.31 488.95 815.45 486.77 815.45 485.9 808.75 485.9"/><polygon class="cls-40" points="810.69 473.36 810.8 473.62 800.29 478.72 805 482.72 815.05 482.72 810.73 473.42 810.69 473.36"/><polygon class="cls-37" points="793.22 487.85 793.92 487.59 793.92 486.57 793.73 486.92 793.22 487.85"/><polygon class="cls-37" points="811.2 489.01 811.15 488.42 809.87 486.85 808.75 485.9 802.95 485.9 802.95 482.72 805 482.72 800.29 478.72 800.06 478.84 797.93 477.03 797.67 478.39 797.28 480.44 796.55 481.78 797.92 481.77 797.92 485.68 798.87 485 803.91 489.45 810.25 494.36 811.08 493.04 811.22 491.98 811.37 490.83 811.2 489.01"/><polygon class="cls-36" points="793.92 488.36 793.92 487.59 793.22 487.85 793.92 488.36"/><polygon class="cls-36" points="803.91 489.45 798.87 485 797.92 485.68 797.93 491.24 800.39 493 801.5 493.92 802.12 494.44 802.71 494.93 804.2 496.17 805.13 496.46 805.87 496.69 806.1 496.76 806.34 496.71 807.1 496.56 808.1 496.37 809.53 495.48 810.29 494.39 810.25 494.36 803.91 489.45"/><path class="cls-43" d="M760.76,484.84l.23-.07,1.61-.91,1-.77.8-1.8,0-2.34.15-10.4,6.92-2.92,6-1.51,4,2.53,4.51,2.89,2.78,1.5,7.29,4.43-8-6.8-5.92-3.22L779.27,464l-1.8-1.35-.77-1.09-.84.06-3.09,2.9-4.24,1.22-4,1-1.42-1.22.45,2.89.2,10.23-.2.78a16.65,16.65,0,0,1-1.09,2.44c-.32.71-1.74,1.48-1.74,1.48a17.69,17.69,0,0,1-2.22.52v1.28h1.15Z"/><path class="cls-38" d="M810.69,473.36l-.58-1.27-.25-.54-.17-.28a14.47,14.47,0,0,0-4.71.59,15.14,15.14,0,0,0-4.27,2.37,30.7,30.7,0,0,0-3.09,2.55l.31.25,2.13,1.81.23-.12,10.52-5.1Z"/><path class="cls-38" d="M760.74,483.34s1.42-.77,1.74-1.48a16.65,16.65,0,0,0,1.09-2.44l.2-.78-.2-10.23-.45-2.89,1.42,1.22,4-1,4.24-1.22,3.09-2.9.84-.06.77,1.09,1.8,1.35,2.84,1.48,5.92,3.22,8,6.8.13.11a24.17,24.17,0,0,1,2.29-3.31c1.58-1.92,4.35-5.28,8.51-6.82l-5.85-12-11.52,5.35-7.91-6.31a17.79,17.79,0,0,0-4-.06c-.72.13-2.48.4-4.15.67-1.47.23-2.87.46-3.44.61-1.23.33-11.46,2.58-11.46,2.58l-2.19.51-2.06.71s-3.41,3.67-3,5.54.9,5.66.9,5.66l.47,2.59,2,11.05.32.41h3.44v1.14A17.69,17.69,0,0,0,760.74,483.34Z"/><polygon class="cls-44" points="710.76 452.61 710.66 452.55 717.25 436.84 716.54 436.61 716.58 436.63 709.44 451.64 709.63 451.73 708.5 453.95 709.91 454.63 710.76 452.61"/><path class="cls-45" d="M709.91,454.63,708.5,454l-9.79,19.15,3,1.46a26.3,26.3,0,0,1,1.12-3Z"/><polygon class="cls-44" points="698.71 473.1 708.5 453.95 709.63 451.73 709.44 451.64 708.34 453.97 684.75 441.39 684.75 466.35 698.66 473.19 698.71 473.1"/><polygon class="cls-46" points="708.34 453.97 709.44 451.64 716.58 436.63 716.54 436.61 684.75 419.7 684.75 441.39 708.34 453.97"/><path class="cls-47" d="M724.33,483l1.5-5.06,5.81-19.59h0l-1.38,4.56-19.49-10.3-.85,2-7.1,16.93a26.3,26.3,0,0,0-1.12,3,6.51,6.51,0,0,0-.2.9,1.75,1.75,0,0,0,.83,1.87l2.69,1.31s11.34,5.38,15,7.05a17.2,17.2,0,0,1,3.45-2.28C723.76,483.27,724.05,483.14,724.33,483Z"/><path class="cls-48" d="M710.76,452.61l19.49,10.3,1.38-4.56L735.07,447l.85-2.81a6.2,6.2,0,0,0-.15-2.2c-.3-.9-1-.83-1-.83s-7.65-4.31-12-6a6.86,6.86,0,0,0-2.65-.69c-2.19.3-2.34,1.21-2.34,1.21l-.52,1.23-6.59,15.71Z"/><polygon class="cls-49" points="820.14 486.32 820.18 486.41 821.37 485.9 821.25 485.9 820.14 486.32"/><path class="cls-49" d="M825.59,438.51l-1.28.69-9.38,5-11,6.84,6.91,13.47a13,13,0,0,0,2.65-1c1.49-.76,3-1.57,3.63-3.26.47-1.35.39-3.48-1-4.35a3.2,3.2,0,0,0-2.74-.11,3.39,3.39,0,0,0-2.12,2.72c-.07,1.41,1.16,2.39.94,2.61s-1.58-.41-2.39-1.55c-1.42-2-1-5.75,1.21-8a7.25,7.25,0,0,1,6.1-1.8,7.46,7.46,0,0,1,4.38,2.79,8.55,8.55,0,0,1,1.23,8.89l4.13-2.09a10.17,10.17,0,0,0-.52-5.21,10.48,10.48,0,0,0-1.62-2.94c-1.53-1.94-3.22-2.59-3.12-2.79s2.15.29,4,1.7a10.77,10.77,0,0,1,3.15,4.18,12.48,12.48,0,0,1,1.14,3.54l33.91-17.13V418.66l-9.67,5Z"/><path class="cls-50" d="M830,460.13a11.5,11.5,0,0,1-3.74,7.39,13.68,13.68,0,0,1-6.86,3.39,46.3,46.3,0,0,1-5.57.28l5.62,11.53h10.11l5.2-2,29-15h0v-25l-33.91,17.13A9.79,9.79,0,0,1,830,460.13Z"/><polygon class="cls-50" points="820.98 485.9 820.98 485.91 819.83 486.4 819.85 486.44 820.14 486.32 821.25 485.9 820.98 485.9"/><path class="cls-50" d="M817.3,466.17c-2,1-3.37,1.23-3.33,1.46s2.44.26,4.79-.32a10.78,10.78,0,0,0,5.14-2.4,9.63,9.63,0,0,0,2.93-5.36l0-.17-4.13,2.09a8.82,8.82,0,0,1-.68,1.22C820.85,464.41,819.22,465.22,817.3,466.17Z"/><path class="cls-51" d="M810.21,471.26h-.52l.17.28.25.54.62,1.33,4.32,9.3h4.38l-5.62-11.53Z"/><polygon class="cls-51" points="820.98 485.91 820.98 485.9 819.17 485.9 819.17 486.67 819.83 486.4 820.98 485.91"/><path class="cls-50" d="M800.56,452.2l.59,1.21,5.85,12a12.7,12.7,0,0,1,1.55-.48c.7-.16,1.43-.28,2.26-.49L803.9,451l-.32-.62Z"/><path class="cls-13" d="M750.09,501.69a26.8,26.8,0,0,0-1.33-8.12c-.17-.48-.35-.95-.55-1.41a1.54,1.54,0,0,0-.08-.19,17.42,17.42,0,0,0-2.82-4.54h0l-.33-.38c-.29-.31-.59-.6-.9-.88a15.85,15.85,0,0,0-5-3.12,18.65,18.65,0,0,0-4.62-1.18,22,22,0,0,0-3-.19,18.22,18.22,0,0,0-7.19,1.33c-.28.13-.57.26-.84.4a17.2,17.2,0,0,0-3.45,2.28,16.31,16.31,0,0,0-2.23,2.32,20,20,0,0,0-3.37,6.63,28.41,28.41,0,0,0,0,15.9,19.23,19.23,0,0,0,3.45,6.58,16.57,16.57,0,0,0,5.76,4.47,18.35,18.35,0,0,0,8,1.64,19.34,19.34,0,0,0,5.4-.71,17.7,17.7,0,0,0,4.47-2l5.81,4.49,2.09-2.52-5.27-4.06a18.19,18.19,0,0,0,4.44-7,24,24,0,0,0,.92-3.27,27.4,27.4,0,0,0,.56-5.67C750.1,502.23,750.1,502,750.09,501.69Zm-8.65,14.64-5.32-4.06-2,2.58,4.5,3.45a13.2,13.2,0,0,1-3.13,1.29,16.12,16.12,0,0,1-10.44-1,12.79,12.79,0,0,1-4.55-3.84,16.3,16.3,0,0,1-2.63-5.59,25.66,25.66,0,0,1-.85-6.69,25.21,25.21,0,0,1,.85-6.58,17,17,0,0,1,2.63-5.65,13.05,13.05,0,0,1,4.55-3.94,12.05,12.05,0,0,1,3.25-1.16,16.42,16.42,0,0,1,3.3-.32,15.36,15.36,0,0,1,5.86,1.09,12.69,12.69,0,0,1,2.38,1.29,13.23,13.23,0,0,1,2.29,2,15.41,15.41,0,0,1,1.18,1.55,17.53,17.53,0,0,1,1.91,4,19.13,19.13,0,0,1,.52,1.85,26.43,26.43,0,0,1,.61,5.88,25.85,25.85,0,0,1-.3,4,24.06,24.06,0,0,1-.91,3.79A14.53,14.53,0,0,1,741.44,516.33Z"/><path class="cls-13" d="M785.38,502.29V482.72h-3.73v23.52a28.84,28.84,0,0,1-.39,5q-.06.39-.15.75c0,.11,0,.23-.06.33a10.8,10.8,0,0,1-2,4.31,8.16,8.16,0,0,1-3.59,2.57,15.08,15.08,0,0,1-5.4.85c-4.05,0-7-1.07-8.82-3.23a11.74,11.74,0,0,1-2.36-5.69,25.66,25.66,0,0,1-.37-4.05c0-.28,0-.55,0-.84V482.72h-3.73v24.61c0,.54,0,1.05.05,1.56q.36,6.45,3.73,10.18,3.78,4.15,11.51,4.16t11.49-4.08c2.31-2.48,3.56-6,3.77-10.47,0-.45,0-.88,0-1.35Z"/><polygon class="cls-52" points="797.93 491.35 797.93 491.24 797.92 485.68 797.92 481.77 796.55 481.78 795.29 481.78 795.33 510.31 797.96 510.3 797.95 503.25 797.94 498.58 797.93 491.35"/><polygon class="cls-53" points="795.29 481.78 795.29 481.75 793.91 481.75 793.92 486.57 793.92 487.59 793.92 488.36 793.92 488.45 793.93 494.6 793.94 501.72 793.95 510.33 795.33 510.33 795.33 510.31 795.29 481.78"/><rect class="cls-54" x="793.97" y="510.6" width="1.32" height="12.5" transform="translate(-0.7 1.07) rotate(-0.08)"/><polygon class="cls-55" points="795.3 523.09 797.92 523.09 797.9 510.59 795.28 510.6 795.28 510.6 795.3 523.09 795.3 523.09"/><polygon class="cls-13" points="819.43 482.72 815.05 482.72 805 482.72 802.95 482.72 802.95 485.9 808.75 485.9 815.45 485.9 815.45 486.77 815.45 522.19 819.17 522.19 819.17 486.67 819.17 485.9 820.98 485.9 821.25 485.9 821.37 485.9 831.67 485.9 831.67 482.72 829.54 482.72 819.43 482.72"/><polygon class="cls-1" points="808.81 469.17 808.35 468.23 808.78 469.18 808.81 469.17"/><polygon class="cls-56" points="808.81 469.17 808.35 468.23 808.78 469.18 808.81 469.17"/><path class="cls-34" d="M795,478.05c-.31.8-.41,1.34-.27,1.44s.61-.41,1.45-1.29c.39-.4.87-.89,1.44-1.42l-1.42-1.2A18.62,18.62,0,0,0,795,478.05Z"/><path class="cls-56" d="M795,478.05c-.31.8-.41,1.34-.27,1.44s.61-.41,1.45-1.29c.39-.4.87-.89,1.44-1.42l-1.42-1.2A18.62,18.62,0,0,0,795,478.05Z"/><path class="cls-38" d="M798.49,472.27a24.17,24.17,0,0,0-2.29,3.31l1.42,1.2a30.7,30.7,0,0,1,3.09-2.55,15.14,15.14,0,0,1,4.27-2.37,14.47,14.47,0,0,1,4.71-.59l-1.16-2,.26-.11-.44-.95L807,465.45C802.84,467,800.07,470.35,798.49,472.27Z"/><path class="cls-56" d="M798.49,472.27a24.17,24.17,0,0,0-2.29,3.31l1.42,1.2a30.7,30.7,0,0,1,3.09-2.55,15.14,15.14,0,0,1,4.27-2.37,14.47,14.47,0,0,1,4.71-.59l-1.16-2,.26-.11-.44-.95L807,465.45C802.84,467,800.07,470.35,798.49,472.27Z"/><path class="cls-49" d="M828.73,454.32a10.77,10.77,0,0,0-3.15-4.18c-1.83-1.41-3.87-1.9-4-1.7s1.59.85,3.12,2.79a10.48,10.48,0,0,1,1.62,2.94,10.17,10.17,0,0,1,.52,5.21l3-1.52A12.48,12.48,0,0,0,828.73,454.32Z"/><path class="cls-56" d="M828.73,454.32a10.77,10.77,0,0,0-3.15-4.18c-1.83-1.41-3.87-1.9-4-1.7s1.59.85,3.12,2.79a10.48,10.48,0,0,1,1.62,2.94,10.17,10.17,0,0,1,.52,5.21l3-1.52A12.48,12.48,0,0,0,828.73,454.32Z"/><path class="cls-49" d="M822.73,461.47a8.55,8.55,0,0,0-1.23-8.89,7.46,7.46,0,0,0-4.38-2.79,7.25,7.25,0,0,0-6.1,1.8c-2.22,2.21-2.63,5.92-1.21,8,.81,1.14,2.18,1.76,2.39,1.55s-1-1.2-.94-2.61a3.39,3.39,0,0,1,2.12-2.72,3.2,3.2,0,0,1,2.74.11c1.36.87,1.44,3,1,4.35-.58,1.69-2.14,2.5-3.63,3.26a13,13,0,0,1-2.65,1l1.23,2.39Z"/><path class="cls-56" d="M822.73,461.47a8.55,8.55,0,0,0-1.23-8.89,7.46,7.46,0,0,0-4.38-2.79,7.25,7.25,0,0,0-6.1,1.8c-2.22,2.21-2.63,5.92-1.21,8,.81,1.14,2.18,1.76,2.39,1.55s-1-1.2-.94-2.61a3.39,3.39,0,0,1,2.12-2.72,3.2,3.2,0,0,1,2.74.11c1.36.87,1.44,3,1,4.35-.58,1.69-2.14,2.5-3.63,3.26a13,13,0,0,1-2.65,1l1.23,2.39Z"/><path class="cls-51" d="M808.88,469.31l-.07-.14h0l-.26.11,1.16,2h.52l3.6-.07-1.64-3.38Z"/><path class="cls-56" d="M808.88,469.31l-.07-.14h0l-.26.11,1.16,2h.52l3.6-.07-1.64-3.38Z"/><path class="cls-50" d="M808.55,465a12.7,12.7,0,0,0-1.55.48l1.35,2.78.46.94.07.14,3.29-1.5,1.64,3.38a46.3,46.3,0,0,0,5.57-.28,13.68,13.68,0,0,0,6.86-3.39,11.5,11.5,0,0,0,3.74-7.39,9.79,9.79,0,0,0-.11-2.27l-3,1.52,0,.17a9.63,9.63,0,0,1-2.93,5.36,10.78,10.78,0,0,1-5.14,2.4c-2.35.58-4.73.62-4.79.32s1.3-.46,3.33-1.46,3.55-1.76,4.75-3.48a8.82,8.82,0,0,0,.68-1.22L812,466.87l-1.23-2.39C810,464.69,809.25,464.81,808.55,465Z"/><path class="cls-56" d="M808.55,465a12.7,12.7,0,0,0-1.55.48l1.35,2.78.46.94.07.14,3.29-1.5,1.64,3.38a46.3,46.3,0,0,0,5.57-.28,13.68,13.68,0,0,0,6.86-3.39,11.5,11.5,0,0,0,3.74-7.39,9.79,9.79,0,0,0-.11-2.27l-3,1.52,0,.17a9.63,9.63,0,0,1-2.93,5.36,10.78,10.78,0,0,1-5.14,2.4c-2.35.58-4.73.62-4.79.32s1.3-.46,3.33-1.46,3.55-1.76,4.75-3.48a8.82,8.82,0,0,0,.68-1.22L812,466.87l-1.23-2.39C810,464.69,809.25,464.81,808.55,465Z"/><text class="cls-57" transform="translate(884.34 497.9)">VR</text></svg>