<svg id="Layer_1" data-name="Layer 1" xmlns="http://www.w3.org/2000/svg" viewBox="0 0 722 506"><defs><style>.cls-1{fill:#2d2d2d;}.cls-2{fill:#f2f5f8;}.cls-3{fill:#bec2c7;}.cls-4{fill:#dc813b;}.cls-5{fill:#c75a24;}.cls-6{fill:#322727;}.cls-7{fill:#5e5f61;}.cls-8{fill:#323031;}.cls-9{fill:#ce2b1d;}.cls-10{fill:#cadce6;}.cls-11{fill:#9c9c9c;}.cls-12{fill:#898989;}.cls-13{fill:#e02f22;}.cls-14{fill:#cc2a1d;}.cls-15{fill:#b9251a;}.cls-16{fill:#ac8e89;}.cls-17{fill:#b5c3c9;}.cls-18{fill:#c0ccd0;}.cls-19{fill:#a4b4b9;}.cls-20{fill:#afafaf;}.cls-21{fill:#c8c8c8;}.cls-22{fill:#939393;}.cls-23{fill:#b0b0b0;}.cls-24{fill:#c6c6c6;}.cls-25{fill:#aeaeae;}.cls-26{fill:#969696;}.cls-27{fill:#989898;}.cls-28{fill:#cacaca;}.cls-29{fill:#4d4e50;}.cls-30{fill:#5a5e5f;}.cls-31{fill:#cbccce;}.cls-32{fill:#bb192a;}.cls-33{fill:#b41728;}.cls-34{fill:#d71827;}.cls-35{fill:#efeff1;}.cls-36{fill:#d9eaeb;}.cls-37{fill:#7dd1a8;}.cls-38{fill:#e5eefe;}.cls-39{fill:#62bc97;}.cls-40{fill:#604341;}.cls-41{fill:#f8ab9b;}.cls-42{fill:#fcc6b4;}.cls-43{fill:#d6aea3;}.cls-44{fill:#b8d6f2;}.cls-45{fill:#98cdf4;}.cls-46{fill:#cce4ff;}.cls-47{fill:#201d1d;}.cls-48{fill:#674d44;}.cls-49{fill:#ee4649;}.cls-50{fill:#581121;}.cls-51{fill:#e06179;}.cls-52{fill:#1b2742;}.cls-53{fill:#d74366;}.cls-54{font-size:84.74px;font-family:Roboto-Bold, Roboto;font-weight:700;}</style></defs><polygon class="cls-1" points="231.5 196.24 231.33 175.7 241.68 182.38 239.9 196.83 231.5 196.24"/><rect class="cls-2" x="87.27" y="327.59" width="25.66" height="2.37" transform="translate(410.46 476.39) rotate(132.37)"/><rect class="cls-3" x="85.93" y="326.96" width="25.68" height="1.23" transform="translate(407.34 475.36) rotate(132.37)"/><rect class="cls-4" x="81.86" y="341.38" width="11.23" height="2.39" transform="translate(399.53 508.82) rotate(132.37)"/><rect class="cls-5" x="80.55" y="340.77" width="11.23" height="1.23" transform="translate(396.45 507.79) rotate(132.37)"/><rect class="cls-6" x="89.82" y="337.01" width="3.6" height="0.31" transform="translate(251.57 26.54) rotate(42.45)"/><rect class="cls-6" x="89.11" y="337.78" width="3.6" height="0.31" transform="translate(251.91 27.22) rotate(42.45)"/><rect class="cls-2" x="92.81" y="319.93" width="25.66" height="2.37" transform="translate(434.42 242.55) rotate(94.77)"/><rect class="cls-3" x="91" y="320.36" width="25.68" height="1.23" transform="translate(432.35 244.18) rotate(94.77)"/><rect class="cls-4" x="98.44" y="338.56" width="11.23" height="2.39" transform="translate(451.29 264.31) rotate(94.77)"/><rect class="cls-5" x="96.67" y="338.99" width="11.23" height="1.23" transform="translate(449.22 265.92) rotate(94.77)"/><rect class="cls-6" x="102.24" y="332.78" width="3.6" height="0.31" transform="translate(28.51 -7.6) rotate(4.85)"/><rect class="cls-6" x="102.15" y="333.82" width="3.6" height="0.31" transform="translate(28.6 -7.59) rotate(4.85)"/><path class="cls-7" d="M116.4,444.58H84.06s-2.26-.26-2.94-2-15.37-97.8-15.37-97.8l4.61-.47H116.5Z"/><polygon class="cls-8" points="76.81 354.12 89.14 434.69 94.86 434.69 85.46 353.97 76.81 354.12"/><polygon class="cls-8" points="94.64 354.07 103.19 354.07 107.11 434.59 101.39 434.59 94.64 354.07"/><rect class="cls-2" x="110.68" y="319.51" width="25.66" height="2.37" transform="translate(453.37 224.28) rotate(94.77)"/><rect class="cls-3" x="108.88" y="319.94" width="25.68" height="1.23" transform="translate(451.29 225.91) rotate(94.77)"/><rect class="cls-4" x="116.32" y="338.13" width="11.23" height="2.39" transform="translate(470.23 246.04) rotate(94.77)"/><rect class="cls-5" x="114.55" y="338.57" width="11.23" height="1.23" transform="translate(468.17 247.64) rotate(94.77)"/><rect class="cls-6" x="120.11" y="332.36" width="3.6" height="0.31" transform="translate(28.54 -9.11) rotate(4.85)"/><rect class="cls-6" x="120.03" y="333.4" width="3.6" height="0.31" transform="translate(28.63 -9.1) rotate(4.85)"/><rect class="cls-2" x="105.57" y="324.81" width="25.66" height="2.37" transform="translate(383.34 102.17) rotate(69.77)"/><rect class="cls-3" x="103.88" y="326.01" width="25.68" height="1.23" transform="translate(382.83 104.15) rotate(69.77)"/><rect class="cls-4" x="119.23" y="342.35" width="11.23" height="2.39" transform="translate(404.03 107.6) rotate(69.77)"/><rect class="cls-5" x="117.57" y="343.55" width="11.23" height="1.23" transform="translate(403.52 109.57) rotate(69.77)"/><rect class="cls-6" x="120.15" y="337.23" width="3.6" height="0.31" transform="translate(-108.77 62.67) rotate(-20.15)"/><rect class="cls-6" x="120.51" y="338.21" width="3.6" height="0.31" transform="translate(-109.09 62.86) rotate(-20.15)"/><rect class="cls-2" x="105.57" y="324.81" width="25.66" height="2.37" transform="translate(383.34 102.17) rotate(69.77)"/><rect class="cls-3" x="103.88" y="326.01" width="25.68" height="1.23" transform="translate(382.83 104.15) rotate(69.77)"/><rect class="cls-4" x="119.23" y="342.35" width="11.23" height="2.39" transform="translate(404.03 107.6) rotate(69.77)"/><rect class="cls-5" x="117.57" y="343.55" width="11.23" height="1.23" transform="translate(403.52 109.57) rotate(69.77)"/><rect class="cls-6" x="120.15" y="337.23" width="3.6" height="0.31" transform="translate(-108.77 62.67) rotate(-20.15)"/><rect class="cls-6" x="120.51" y="338.21" width="3.6" height="0.31" transform="translate(-109.09 62.86) rotate(-20.15)"/><rect class="cls-2" x="134.65" y="271.15" width="25.66" height="2.37" transform="translate(456.31 249.17) rotate(114.15)"/><rect class="cls-3" x="132.99" y="270.99" width="25.68" height="1.23" transform="translate(453.34 249.65) rotate(114.15)"/><rect class="cls-4" x="134.19" y="288.2" width="11.23" height="2.39" transform="translate(461.07 280.21) rotate(114.15)"/><rect class="cls-5" x="132.57" y="288.05" width="11.23" height="1.23" transform="translate(458.12 280.66) rotate(114.15)"/><rect class="cls-6" x="140.24" y="282.8" width="3.6" height="0.31" transform="translate(128.62 -33.37) rotate(24.23)"/><rect class="cls-6" x="139.82" y="283.75" width="3.6" height="0.31" transform="translate(128.97 -33.11) rotate(24.23)"/><rect class="cls-2" x="131.46" y="269.51" width="25.66" height="2.37" transform="translate(450.33 249.77) rotate(114.15)"/><rect class="cls-3" x="129.81" y="269.35" width="25.68" height="1.23" transform="translate(447.35 250.25) rotate(114.15)"/><rect class="cls-4" x="131.01" y="286.56" width="11.23" height="2.39" transform="translate(455.08 280.81) rotate(114.15)"/><rect class="cls-5" x="129.39" y="286.41" width="11.23" height="1.23" transform="translate(452.14 281.26) rotate(114.15)"/><rect class="cls-6" x="137.06" y="281.16" width="3.6" height="0.31" transform="translate(127.66 -32.2) rotate(24.23)"/><rect class="cls-6" x="136.63" y="282.11" width="3.6" height="0.31" transform="translate(128.02 -31.94) rotate(24.23)"/><rect class="cls-2" x="127.98" y="268" width="25.66" height="2.37" transform="translate(444.06 250.83) rotate(114.15)"/><rect class="cls-3" x="126.33" y="267.85" width="25.68" height="1.23" transform="translate(441.08 251.3) rotate(114.15)"/><rect class="cls-4" x="127.53" y="285.05" width="11.23" height="2.39" transform="translate(448.81 281.86) rotate(114.15)"/><rect class="cls-5" x="125.91" y="284.91" width="11.23" height="1.23" transform="translate(445.87 282.32) rotate(114.15)"/><rect class="cls-6" x="133.58" y="279.66" width="3.6" height="0.31" transform="translate(126.74 -30.91) rotate(24.23)"/><rect class="cls-6" x="133.15" y="280.61" width="3.6" height="0.31" transform="translate(127.09 -30.65) rotate(24.23)"/><rect class="cls-9" x="95.03" y="304.48" width="4.4" height="22.57" transform="translate(198.75 630.17) rotate(179.22)"/><rect class="cls-10" x="95.69" y="331.05" width="3.45" height="7" transform="translate(199.38 667.75) rotate(179.22)"/><rect class="cls-11" x="99" y="328.28" width="0.52" height="2.97" rx="0.09" transform="translate(-4.47 1.38) rotate(-0.78)"/><rect class="cls-12" x="95.22" y="328.33" width="0.48" height="2.97" rx="0.08" transform="translate(-4.48 1.33) rotate(-0.78)"/><rect class="cls-13" x="98.12" y="304.77" width="0.69" height="22.24" transform="translate(201.22 630.41) rotate(179.22)"/><rect class="cls-14" x="96.99" y="304.77" width="1.13" height="22.26" transform="translate(199.39 630.44) rotate(179.22)"/><rect class="cls-15" x="95.52" y="304.79" width="1.45" height="22.26" transform="translate(196.78 630.49) rotate(179.22)"/><rect class="cls-16" x="94.71" y="327" width="5.21" height="0.5" rx="0.09" transform="translate(199.07 653.14) rotate(179.22)"/><rect class="cls-17" x="96.61" y="331.47" width="0.78" height="6.64" transform="translate(198.55 668.22) rotate(179.22)"/><rect class="cls-18" x="97.36" y="331.47" width="0.78" height="6.65" transform="translate(200.05 668.23) rotate(179.22)"/><path class="cls-19" d="M96.34,331h2a.26.26,0,0,1,.26.26v.49a0,0,0,0,1,0,0H96.07a0,0,0,0,1,0,0v-.49A.26.26,0,0,1,96.34,331Z" transform="translate(199.22 661.39) rotate(179.22)"/><rect class="cls-11" x="97.2" y="328.43" width="1.25" height="2.84" transform="translate(-4.48 1.36) rotate(-0.78)"/><rect class="cls-20" x="98.46" y="328.39" width="0.65" height="2.87" transform="translate(-4.48 1.37) rotate(-0.78)"/><rect class="cls-21" x="94.72" y="328" width="5.21" height="0.45" rx="0.08" transform="translate(199.11 655.1) rotate(179.22)"/><rect class="cls-22" x="95.56" y="328.47" width="1.67" height="2.81" transform="translate(-4.48 1.34) rotate(-0.78)"/><rect class="cls-23" x="94.72" y="327.26" width="0.53" height="1.01" transform="translate(-4.45 1.32) rotate(-0.78)"/><rect class="cls-22" x="95.18" y="327.25" width="1.21" height="1.01" transform="translate(-4.45 1.33) rotate(-0.78)"/><rect class="cls-20" x="96.38" y="327.23" width="2.07" height="1.01" transform="translate(199.27 654.11) rotate(179.22)"/><rect class="cls-24" x="98.45" y="327.21" width="1.18" height="1.01" transform="translate(202.52 654.05) rotate(179.22)"/><rect class="cls-25" x="99.6" y="327.2" width="0.34" height="1.02" transform="translate(203.98 654.03) rotate(179.22)"/><polygon class="cls-26" points="98.55 343.07 98.44 342.69 98.38 342.06 98.34 341.43 98.35 340.82 98.37 340.39 98.42 339.93 98.49 339.62 96.39 339.65 96.52 340.16 96.61 340.77 96.62 341.61 96.61 342.29 96.53 342.81 96.46 343.13 98.55 343.07"/><rect class="cls-27" x="95.94" y="338.86" width="3.11" height="0.79" rx="0.14" transform="translate(199.6 677.15) rotate(179.22)"/><rect class="cls-20" x="96.14" y="343.03" width="2.74" height="0.68" rx="0.12" transform="translate(199.69 685.38) rotate(179.22)"/><rect class="cls-28" x="95.36" y="338.66" width="4.14" height="0.45" rx="0.08" transform="translate(199.46 676.42) rotate(179.22)"/><rect class="cls-20" x="96.62" y="338.05" width="1.74" height="0.85" transform="translate(199.58 675.59) rotate(179.22)"/><rect class="cls-23" x="95.22" y="338.07" width="0.45" height="0.85" transform="translate(-4.6 1.33) rotate(-0.78)"/><rect class="cls-22" x="95.61" y="338.07" width="1.02" height="0.85" transform="translate(-4.6 1.34) rotate(-0.78)"/><rect class="cls-24" x="98.36" y="338.03" width="0.96" height="0.85" transform="translate(202.29 675.53) rotate(179.22)"/><rect class="cls-25" x="99.33" y="338.02" width="0.29" height="0.86" transform="translate(203.55 675.51) rotate(179.22)"/><rect class="cls-2" x="128.41" y="268.2" width="25.66" height="2.37" transform="translate(444.84 250.71) rotate(114.15)"/><rect class="cls-3" x="126.76" y="268.04" width="25.68" height="1.23" transform="translate(441.86 251.18) rotate(114.15)"/><rect class="cls-4" x="127.96" y="285.25" width="11.23" height="2.39" transform="translate(449.59 281.75) rotate(114.15)"/><rect class="cls-5" x="126.34" y="285.1" width="11.23" height="1.23" transform="translate(446.65 282.2) rotate(114.15)"/><rect class="cls-6" x="134.01" y="279.85" width="3.6" height="0.31" transform="translate(126.86 -31.07) rotate(24.23)"/><rect class="cls-6" x="133.58" y="280.8" width="3.6" height="0.31" transform="translate(127.21 -30.81) rotate(24.23)"/><rect class="cls-2" x="124.1" y="267.77" width="25.66" height="2.37" transform="translate(438.37 254.03) rotate(114.15)"/><rect class="cls-3" x="122.45" y="267.61" width="25.68" height="1.23" transform="translate(435.39 254.51) rotate(114.15)"/><rect class="cls-4" x="123.65" y="284.81" width="11.23" height="2.39" transform="translate(443.12 285.07) rotate(114.15)"/><rect class="cls-5" x="122.03" y="284.67" width="11.23" height="1.23" transform="translate(440.18 285.52) rotate(114.15)"/><rect class="cls-6" x="129.7" y="279.42" width="3.6" height="0.31" transform="translate(126.3 -29.34) rotate(24.23)"/><rect class="cls-6" x="129.27" y="280.37" width="3.6" height="0.31" transform="translate(126.65 -29.08) rotate(24.23)"/><rect class="cls-2" x="124.41" y="267.77" width="25.66" height="2.37" transform="translate(438.81 253.75) rotate(114.15)"/><rect class="cls-3" x="122.76" y="267.61" width="25.68" height="1.23" transform="translate(435.83 254.22) rotate(114.15)"/><rect class="cls-4" x="123.96" y="284.81" width="11.23" height="2.39" transform="translate(443.56 284.78) rotate(114.15)"/><rect class="cls-5" x="122.34" y="284.67" width="11.23" height="1.23" transform="translate(440.62 285.24) rotate(114.15)"/><rect class="cls-6" x="130.01" y="279.42" width="3.6" height="0.31" transform="translate(126.33 -29.47) rotate(24.23)"/><rect class="cls-6" x="129.58" y="280.37" width="3.6" height="0.31" transform="translate(126.68 -29.21) rotate(24.23)"/><rect class="cls-2" x="113.94" y="263.85" width="25.66" height="2.37" transform="translate(420.48 257.78) rotate(114.15)"/><rect class="cls-3" x="112.29" y="263.69" width="25.68" height="1.23" transform="translate(417.5 258.26) rotate(114.15)"/><rect class="cls-4" x="113.49" y="280.9" width="11.23" height="2.39" transform="translate(425.23 288.82) rotate(114.15)"/><rect class="cls-5" x="111.87" y="280.75" width="11.23" height="1.23" transform="translate(422.29 289.27) rotate(114.15)"/><rect class="cls-6" x="119.54" y="275.5" width="3.6" height="0.31" transform="translate(123.8 -25.51) rotate(24.23)"/><rect class="cls-6" x="119.11" y="276.45" width="3.6" height="0.31" transform="translate(124.15 -25.25) rotate(24.23)"/><rect class="cls-2" x="109.86" y="264.05" width="25.66" height="2.37" transform="translate(414.91 261.78) rotate(114.15)"/><rect class="cls-3" x="108.21" y="263.89" width="25.68" height="1.23" transform="translate(411.93 262.26) rotate(114.15)"/><rect class="cls-4" x="109.41" y="281.1" width="11.23" height="2.39" transform="translate(419.66 292.82) rotate(114.15)"/><rect class="cls-5" x="107.79" y="280.95" width="11.23" height="1.23" transform="translate(416.72 293.28) rotate(114.15)"/><rect class="cls-6" x="115.46" y="275.7" width="3.6" height="0.31" transform="translate(123.52 -23.82) rotate(24.23)"/><rect class="cls-6" x="115.03" y="276.65" width="3.6" height="0.31" transform="translate(123.87 -23.56) rotate(24.23)"/><rect class="cls-2" x="110.21" y="264.05" width="25.66" height="2.37" transform="translate(415.4 261.46) rotate(114.15)"/><rect class="cls-3" x="108.56" y="263.89" width="25.68" height="1.23" transform="translate(412.43 261.94) rotate(114.15)"/><rect class="cls-4" x="109.76" y="281.1" width="11.23" height="2.39" transform="translate(420.16 292.5) rotate(114.15)"/><rect class="cls-5" x="108.14" y="280.95" width="11.23" height="1.23" transform="translate(417.21 292.96) rotate(114.15)"/><rect class="cls-6" x="115.81" y="275.7" width="3.6" height="0.31" transform="translate(123.55 -23.97) rotate(24.23)"/><rect class="cls-6" x="115.38" y="276.65" width="3.6" height="0.31" transform="matrix(0.91, 0.41, -0.41, 0.91, 123.9, -23.71)"/><polygon class="cls-8" points="112.12 354.06 116.58 354.06 116.58 434.64 113.49 434.64 112.12 354.06"/><rect class="cls-29" x="74.05" y="243.71" width="12.32" height="106.46" rx="2.15" transform="translate(104.66 -9.67) rotate(19.68)"/><path class="cls-30" d="M95.72,246c-1.87-.67-4,.61-4.85,2.85L79.55,280.49l-7.66-2.63A2.3,2.3,0,0,0,69,279.3l-8.56,24.87a2.31,2.31,0,0,0,1.44,2.94l7.29,2.52-11.19,31.3c-.79,2.24.07,4.6,1.94,5.27l2.9,1L98.62,247ZM69.81,303.51a2.33,2.33,0,0,1-1.44-2.95L73,287.05a2.32,2.32,0,0,1,3-1.44l1.55.54L71.15,304Z"/><rect class="cls-2" x="102.66" y="264.9" width="25.66" height="2.37" transform="translate(405.56 265.05) rotate(113.26)"/><rect class="cls-3" x="101" y="264.77" width="25.68" height="1.23" transform="translate(402.61 265.59) rotate(113.26)"/><rect class="cls-4" x="102.47" y="282.07" width="11.23" height="2.39" transform="translate(411.01 295.81) rotate(113.26)"/><rect class="cls-5" x="100.84" y="281.95" width="11.23" height="1.23" transform="translate(408.09 296.33) rotate(113.26)"/><rect class="cls-6" x="108.42" y="276.64" width="3.6" height="0.31" transform="translate(118.65 -21.02) rotate(23.33)"/><rect class="cls-6" x="108.01" y="277.6" width="3.6" height="0.31" transform="translate(119 -20.78) rotate(23.33)"/><polygon class="cls-31" points="106.5 279.9 138.97 294.58 133.81 304.08 102.86 290.09 106.5 279.9"/><rect class="cls-2" x="116.61" y="266.63" width="25.66" height="2.37" transform="translate(426.77 259.27) rotate(114.15)"/><rect class="cls-3" x="114.96" y="266.47" width="25.68" height="1.23" transform="translate(423.8 259.74) rotate(114.15)"/><rect class="cls-4" x="116.15" y="283.68" width="11.23" height="2.39" transform="translate(431.53 290.3) rotate(114.15)"/><rect class="cls-5" x="114.53" y="283.53" width="11.23" height="1.23" transform="translate(428.58 290.76) rotate(114.15)"/><rect class="cls-6" x="122.21" y="278.28" width="3.6" height="0.31" transform="translate(125.17 -26.36) rotate(24.23)"/><rect class="cls-6" x="121.78" y="279.23" width="3.6" height="0.31" transform="translate(125.53 -26.1) rotate(24.23)"/><rect class="cls-2" x="104.83" y="266.24" width="25.66" height="2.37" transform="translate(409.82 269.46) rotate(114.15)"/><rect class="cls-3" x="103.18" y="266.08" width="25.68" height="1.23" transform="translate(406.84 269.94) rotate(114.15)"/><rect class="cls-4" x="104.37" y="283.29" width="11.23" height="2.39" transform="translate(414.57 300.5) rotate(114.15)"/><rect class="cls-5" x="102.75" y="283.14" width="11.23" height="1.23" transform="translate(411.63 300.96) rotate(114.15)"/><rect class="cls-6" x="110.43" y="277.89" width="3.6" height="0.31" transform="translate(123.98 -21.56) rotate(24.23)"/><rect class="cls-6" x="110" y="278.84" width="3.6" height="0.31" transform="translate(124.33 -21.3) rotate(24.23)"/><rect class="cls-2" x="107.16" y="266.2" width="25.66" height="2.37" transform="translate(413.07 267.28) rotate(114.15)"/><rect class="cls-3" x="105.51" y="266.04" width="25.68" height="1.23" transform="translate(410.1 267.75) rotate(114.15)"/><rect class="cls-4" x="106.71" y="283.25" width="11.23" height="2.39" transform="translate(417.83 298.32) rotate(114.15)"/><rect class="cls-5" x="105.09" y="283.1" width="11.23" height="1.23" transform="translate(414.88 298.77) rotate(114.15)"/><rect class="cls-6" x="112.76" y="277.85" width="3.6" height="0.31" transform="translate(124.16 -22.53) rotate(24.23)"/><rect class="cls-6" x="112.33" y="278.8" width="3.6" height="0.31" transform="translate(124.52 -22.27) rotate(24.23)"/><rect class="cls-2" x="116.61" y="266.63" width="25.66" height="2.37" transform="translate(426.77 259.27) rotate(114.15)"/><rect class="cls-3" x="114.96" y="266.47" width="25.68" height="1.23" transform="translate(423.8 259.74) rotate(114.15)"/><rect class="cls-4" x="116.15" y="283.68" width="11.23" height="2.39" transform="translate(431.53 290.3) rotate(114.15)"/><rect class="cls-5" x="114.53" y="283.53" width="11.23" height="1.23" transform="translate(428.58 290.76) rotate(114.15)"/><rect class="cls-6" x="122.21" y="278.28" width="3.6" height="0.31" transform="translate(125.17 -26.36) rotate(24.23)"/><rect class="cls-6" x="121.78" y="279.23" width="3.6" height="0.31" transform="translate(125.53 -26.1) rotate(24.23)"/><rect class="cls-2" x="117.1" y="286.08" width="25.66" height="2.37" transform="translate(445.21 286.23) rotate(114.15)"/><rect class="cls-3" x="115.45" y="285.93" width="25.68" height="1.23" transform="translate(442.24 286.7) rotate(114.15)"/><rect class="cls-4" x="116.64" y="303.13" width="11.23" height="2.39" transform="translate(449.97 317.27) rotate(114.15)"/><rect class="cls-5" x="115.02" y="302.99" width="11.23" height="1.23" transform="translate(447.02 317.72) rotate(114.15)"/><rect class="cls-6" x="122.7" y="297.74" width="3.6" height="0.31" transform="translate(133.2 -24.85) rotate(24.23)"/><rect class="cls-6" x="122.27" y="298.69" width="3.6" height="0.31" transform="translate(133.55 -24.59) rotate(24.23)"/><rect class="cls-2" x="120.31" y="267.95" width="25.66" height="2.37" transform="translate(433.19 257.74) rotate(114.15)"/><rect class="cls-3" x="118.66" y="267.79" width="25.68" height="1.23" transform="translate(430.22 258.22) rotate(114.15)"/><rect class="cls-4" x="119.86" y="284.99" width="11.23" height="2.39" transform="translate(437.95 288.78) rotate(114.15)"/><rect class="cls-5" x="118.24" y="284.85" width="11.23" height="1.23" transform="translate(435 289.23) rotate(114.15)"/><rect class="cls-6" x="125.91" y="279.6" width="3.6" height="0.31" transform="translate(126.04 -27.77) rotate(24.23)"/><rect class="cls-6" x="125.48" y="280.55" width="3.6" height="0.31" transform="translate(126.39 -27.51) rotate(24.23)"/><rect class="cls-2" x="110.11" y="284.51" width="25.66" height="2.37" transform="matrix(-0.32, 0.95, -0.95, -0.32, 433.03, 261.64)"/><rect class="cls-3" x="108.39" y="284.51" width="25.68" height="1.23" transform="translate(430.23 262.5) rotate(108.85)"/><rect class="cls-4" x="111.26" y="302.19" width="11.23" height="2.39" transform="translate(441.75 290.79) rotate(108.85)"/><rect class="cls-5" x="109.58" y="302.2" width="11.23" height="1.23" transform="translate(438.98 291.62) rotate(108.85)"/><rect class="cls-6" x="116.71" y="296.62" width="3.6" height="0.31" transform="translate(102.66 -22.39) rotate(18.92)"/><rect class="cls-6" x="116.37" y="297.6" width="3.6" height="0.31" transform="translate(102.96 -22.23) rotate(18.92)"/><path class="cls-32" d="M122.12,245.29l9.33,4.25a9.64,9.64,0,0,1,13.84,6.31l9.3,4.23,6.48-14.34-32.52-14.69-7.37,16.3Z"/><path class="cls-33" d="M140.37,266.65a9.65,9.65,0,0,1-13.85-6.31l-9.29-4.24-5.6,12.39,32.51,14.7,6.49-14.36-.94,2.07Z"/><path class="cls-34" d="M140,267.43a9.64,9.64,0,0,1-13.84-6.31l-9.29-4.24-5.6,12.39L143.79,284l6.49-14.36-.94,2.06Z"/><path class="cls-35" d="M117.2,256.09l4.92-10.8,9.33,4.25a9.64,9.64,0,0,1,13.84,6.31l9.32,4.25-4.92,10.8-9.32-4.25a9.65,9.65,0,0,1-13.85-6.31Z"/><path class="cls-34" d="M122.48,244.51l9.32,4.25a9.64,9.64,0,0,1,13.84,6.31l9.3,4.24L161.42,245l-32.51-14.7-7.37,16.3Z"/><path class="cls-36" d="M111.55,268.65l32.52,14.7-4.48,9.46-.91-.41a3.91,3.91,0,0,1-1.57-4l.67-5.79-21.52-9.73-3.9,4.34a3.9,3.9,0,0,1-4,1.45l-.91-.41Z"/><path class="cls-37" d="M518.76,287.31s36.09,7.59,41.43,19.52-.61,58.39-.61,58.39L441,356.85l2.43-49.15S474,291,496.39,288,518.76,287.31,518.76,287.31Z"/><path class="cls-38" d="M154.48,253.62,224.94,272a17.31,17.31,0,0,1,7.12,8.64c2.54,6.28,25.57,68,25.57,68L353,350.53l-26.86-74.3s-5.32-10.51-17-14.71-146.82-37.1-146.82-37.1Z"/><path class="cls-39" d="M488.87,289.3s7.21-1.41,7.88-1.34,1.58,2.18,1.58,2.18l-4.32.08Z"/><path class="cls-39" d="M488.87,289.3l30.26-1.85,4.83,1.11s-3.05,13.69-13.67,14S488.55,293.51,488.87,289.3Z"/><polygon class="cls-40" points="462.21 228.85 462.8 205.94 473.33 216.57 469.87 227.92 462.21 228.85"/><path class="cls-41" d="M287.26,253.94l.41,9.82s-3.68,7.64-10.5,7.36A17.54,17.54,0,0,1,266,266.3l-.23-9.78Z"/><polygon class="cls-39" points="548.57 347.75 564.68 290.74 594.78 298.37 578.46 357.5 548.57 347.75"/><path class="cls-41" d="M496.52,293.7s9.77,11.16,22.61,0V281.09h-22.2S496.72,293.88,496.52,293.7Z"/><path class="cls-42" d="M557,233.84a9.61,9.61,0,0,1-9.67,9.45,39.71,39.71,0,0,1-79.41,0,9.45,9.45,0,1,1,.08-18.9v0h0l-.13-14.83,53.24-19.71,26.08,4.78v29.76h0A9.63,9.63,0,0,1,557,233.84Z"/><path class="cls-43" d="M318.37,224.57a9.43,9.43,0,0,1-11.46,6.64c-5.63,20.9-26.76,33.42-47.27,28S227,232.41,232.43,211.47a9.36,9.36,0,0,1,4.88-18.07l-.21.81.22-.8h0L241,179.19l54.92-5.63,23.24,11.05-7.55,28.47h0A9.44,9.44,0,0,1,318.37,224.57Z"/><polygon class="cls-44" points="216.3 340.35 216.02 346.76 204.8 346.76 204.8 437.21 154.1 437.21 165.16 388.23 154.33 340.35 216.3 340.35"/><polygon class="cls-45" points="216.3 340.35 216.3 346.76 204.8 346.76 216.3 340.35"/><polygon class="cls-44" points="614.22 437.21 614.22 346.76 603 346.76 602.72 340.35 664.69 340.35 653.86 388.23 664.92 437.21 614.22 437.21"/><polygon class="cls-45" points="603 346.76 603.06 348.24 602.72 348.29 602.72 340.35 614.22 346.76 603 346.76"/><polygon class="cls-46" points="614.22 346.76 614.22 443.86 204.8 443.86 204.8 346.76 600.95 346.76 600.95 348.29 601.35 348.24 601.28 346.76 614.22 346.76"/><polygon class="cls-46" points="603.06 348.24 602.72 348.29 602.72 346.76 603 346.76 603.06 348.24"/><path class="cls-29" d="M116.45,444.58h32.34s2.27-.26,3-2c.61-1.53,12.57-79.55,14.95-95.12a2.58,2.58,0,0,0-2.29-3l-1.9-.19H116.35Z"/><polygon class="cls-47" points="156.04 354.12 143.71 434.69 137.99 434.69 147.4 353.97 156.04 354.12"/><polygon class="cls-47" points="138.22 354.07 129.67 354.07 125.75 434.59 131.47 434.59 138.22 354.07"/><polygon class="cls-47" points="120.73 354.06 116.28 354.06 116.28 434.64 119.37 434.64 120.73 354.06"/><path class="cls-48" d="M343.76,235.8v84.89l103.85,1.13S462,318.3,469,310c0,0,2.67-1-1.55-4.22s-18-16.75-17.18-47.72l-.69-21.92-31.4-19.47Z"/><path class="cls-49" d="M460.83,347.56l-64.27.63h-3.17l-64.27-.63L340,323.91s7.82-12.32,23.47-11.65h63.11c15.65-.67,23.48,11.65,23.48,11.65Z"/><path class="cls-41" d="M387.31,317.57s8.5,11.16,19.67,0V305H387.67S387.49,317.75,387.31,317.57Z"/><path class="cls-42" d="M442.37,264.62a9.07,9.07,0,0,1-9.12,8.91,37.45,37.45,0,0,1-74.9,0,8.92,8.92,0,1,1,.08-17.83v0h0l-.12-14,50.21-18.59,24.59,4.51V255.7h0A9.09,9.09,0,0,1,442.37,264.62Z"/><path class="cls-48" d="M443.93,236.13c.23,4.3-1.56,9-10.33,9.14-16.39.34-19.81-18.36-19.81-18.36s-10.09,16.85-35.34,17.42l-25.25.57,5.22-8.77H343.64c0-28.44,23.72-51.49,53-51.49s53,23.05,53,51.49Z"/><path class="cls-42" d="M433.13,255.53v.17h0v-.17Z"/><path class="cls-50" d="M373.45,267.32s3.95-6.91,7.72,0c0,0,5.05.42,3.89-2.14s-8.31-11.29-14.44-.76C370.62,264.42,367.17,268.71,373.45,267.32Z"/><path class="cls-50" d="M409.12,267.09s4.34-6.68,7.72.43c0,0,5,.71,4-1.92s-7.66-11.74-14.37-1.56C406.47,264,402.78,268.13,409.12,267.09Z"/><path class="cls-51" d="M409.85,284.49a13.59,13.59,0,0,1-27.17,0"/><polygon class="cls-49" points="396.56 348.19 396.56 348.22 394.98 348.2 396.56 348.19"/><polygon class="cls-49" points="394.98 348.2 393.39 348.22 393.39 348.19 394.98 348.2"/><polygon class="cls-42" points="479.18 333.88 464.4 348.11 475.66 348.52 479.18 333.88"/><polygon class="cls-42" points="309.56 333.88 324.34 348.11 313.08 348.52 309.56 333.88"/><circle class="cls-42" cx="489.74" cy="347.17" r="16.9"/><circle class="cls-42" cx="299" cy="347.17" r="16.9"/><circle class="cls-52" cx="526.42" cy="234.98" r="5.98"/><circle class="cls-52" cx="487.37" cy="234.98" r="5.98"/><path class="cls-51" d="M522.23,254.77a14.56,14.56,0,0,1-29.12,0"/><path class="cls-40" d="M552.21,206.12l-.54,21.22H547v-8.81c-17.08-.51-24.3-13-24.3-13,1.78,13.16-11,13-11,13v-7.47c-4.43,4.94-11.89,7-11.89,7h-32l-5-11.9a44.76,44.76,0,0,1,56.94-43l-.12-6.3s28.56,9.05,31.47,37.37c.1,1,.16,1.9.17,2.69A44.24,44.24,0,0,1,552.21,206.12Z"/><path class="cls-42" d="M564.68,290.73s21.93-28.12,30.1,7.64"/><path class="cls-1" d="M329.44,167.25s4.51-25-18.56-25.07c0,0-8.87-22.58-28.15-9.14,0,0-19.84-13.65-29.54,9.43,0,0-11.68,1.61-13.51,7.52,0,0-13.35-3.76-17.46,8.71s9.19,20.24,9.19,20.24v.19a5.38,5.38,0,0,1,1.43-.19,5.22,5.22,0,0,1,1.73.3,4.46,4.46,0,0,1,3,1.38,4.33,4.33,0,0,1,2.65,2l0-.33s17,7.5,22.65-2.81l32.5,10.15s.16,10.63,11.09,12.5c0,0,11.1,8.13,16.88-3.28h2.82V197S346.75,181.33,329.44,167.25Z"/><circle class="cls-52" cx="279.19" cy="214.25" r="5.87"/><circle class="cls-52" cx="253.3" cy="206.29" r="5.87"/><ellipse class="cls-53" cx="258.64" cy="235.53" rx="7.98" ry="8.17"/><path class="cls-43" d="M162.35,224.42s-37.84,5.83-7.87,29.2"/><rect class="cls-9" x="139.51" y="302.2" width="4.4" height="22.57" transform="translate(265 634.67) rotate(-176.67)"/><rect class="cls-10" x="138.83" y="328.74" width="3.45" height="7" transform="translate(261.6 672.08) rotate(-176.67)"/><rect class="cls-11" x="142.48" y="326.12" width="0.52" height="2.97" rx="0.09" transform="translate(19.25 -7.73) rotate(3.33)"/><rect class="cls-12" x="138.7" y="325.9" width="0.48" height="2.97" rx="0.08" transform="translate(19.23 -7.51) rotate(3.33)"/><rect class="cls-13" x="142.59" y="302.58" width="0.69" height="22.24" transform="translate(267.43 635.18) rotate(-176.67)"/><rect class="cls-14" x="141.46" y="302.52" width="1.13" height="22.26" transform="translate(265.61 635) rotate(-176.67)"/><rect class="cls-15" x="139.99" y="302.44" width="1.45" height="22.26" transform="translate(263.01 634.78) rotate(-176.67)"/><rect class="cls-16" x="138.37" y="324.7" width="5.21" height="0.5" rx="0.09" transform="translate(262.85 657.54) rotate(-176.67)"/><rect class="cls-17" x="139.73" y="329.13" width="0.78" height="6.64" transform="translate(260.72 672.46) rotate(-176.67)"/><rect class="cls-18" x="140.48" y="329.18" width="0.78" height="6.65" transform="translate(262.21 672.63) rotate(-176.67)"/><path class="cls-19" d="M139.7,328.7h2a.26.26,0,0,1,.26.26v.49a0,0,0,0,1,0,0h-2.57a0,0,0,0,1,0,0V329A.26.26,0,0,1,139.7,328.7Z" transform="translate(262.12 665.75) rotate(-176.67)"/><rect class="cls-11" x="140.67" y="326.16" width="1.25" height="2.84" transform="translate(19.24 -7.65) rotate(3.33)"/><rect class="cls-20" x="141.93" y="326.19" width="0.65" height="2.87" transform="translate(19.25 -7.7) rotate(3.33)"/><rect class="cls-21" x="138.31" y="325.71" width="5.21" height="0.45" rx="0.08" transform="matrix(-1, -0.06, 0.06, -1, 262.68, 659.49)"/><rect class="cls-22" x="139.03" y="326.1" width="1.67" height="2.81" transform="translate(19.24 -7.56) rotate(3.33)"/><rect class="cls-23" x="138.34" y="324.8" width="0.53" height="1.01" transform="translate(19.11 -7.49) rotate(3.33)"/><rect class="cls-22" x="138.8" y="324.84" width="1.21" height="1.01" transform="translate(19.11 -7.54) rotate(3.33)"/><rect class="cls-20" x="140" y="324.94" width="2.07" height="1.01" transform="translate(262.95 658.52) rotate(-176.67)"/><rect class="cls-24" x="142.07" y="325.03" width="1.18" height="1.01" transform="translate(266.19 658.8) rotate(-176.67)"/><rect class="cls-25" x="143.22" y="325.07" width="0.34" height="1.02" transform="translate(267.64 658.94) rotate(-176.67)"/><polygon class="cls-26" points="141.07 340.82 140.99 340.44 140.97 339.8 140.98 339.17 141.03 338.57 141.08 338.14 141.17 337.68 141.26 337.38 139.17 337.26 139.26 337.77 139.3 338.39 139.25 339.23 139.19 339.9 139.08 340.42 138.98 340.73 141.07 340.82"/><rect class="cls-27" x="138.74" y="336.55" width="3.11" height="0.79" rx="0.14" transform="translate(260.8 681.45) rotate(-176.67)"/><rect class="cls-20" x="138.65" y="340.71" width="2.74" height="0.68" rx="0.12" transform="translate(260.01 689.64) rotate(-176.67)"/><rect class="cls-28" x="138.18" y="336.34" width="4.14" height="0.45" rx="0.08" transform="translate(260.75 680.71) rotate(-176.67)"/><rect class="cls-20" x="139.47" y="335.73" width="1.74" height="0.85" transform="translate(260.95 679.9) rotate(-176.67)"/><rect class="cls-23" x="138.08" y="335.62" width="0.45" height="0.85" transform="translate(19.73 -7.46) rotate(3.33)"/><rect class="cls-22" x="138.46" y="335.65" width="1.02" height="0.85" transform="translate(19.73 -7.5) rotate(3.33)"/><rect class="cls-24" x="141.22" y="335.81" width="0.96" height="0.85" transform="translate(263.65 680.13) rotate(-176.67)"/><rect class="cls-25" x="142.18" y="335.85" width="0.29" height="0.86" transform="translate(264.9 680.25) rotate(-176.67)"/><rect class="cls-9" x="101.6" y="294.06" width="4.4" height="22.57" transform="translate(334.04 531.19) rotate(153.22)"/><rect class="cls-10" x="110.48" y="318.65" width="3.45" height="7" transform="translate(357.52 559.21) rotate(153.22)"/><rect class="cls-11" x="111.51" y="315.56" width="0.52" height="2.97" rx="0.09" transform="translate(-130.84 84.34) rotate(-26.78)"/><rect class="cls-12" x="108.13" y="317.27" width="0.48" height="2.97" rx="0.08" transform="translate(-131.98 83) rotate(-26.78)"/><rect class="cls-13" x="104.63" y="293.8" width="0.69" height="22.24" transform="translate(336.05 529.86) rotate(153.22)"/><rect class="cls-14" x="103.59" y="294.2" width="1.13" height="22.26" transform="translate(334.69 530.99) rotate(153.22)"/><rect class="cls-15" x="102.26" y="294.79" width="1.45" height="22.26" transform="translate(332.75 532.63) rotate(153.22)"/><rect class="cls-16" x="106.31" y="315.39" width="5.21" height="0.5" rx="0.09" transform="translate(348.34 548.36) rotate(153.22)"/><rect class="cls-17" x="111.55" y="319.23" width="0.78" height="6.64" transform="translate(357.18 560.08) rotate(153.22)"/><rect class="cls-18" x="112.23" y="318.9" width="0.78" height="6.65" transform="translate(358.32 559.16) rotate(153.22)"/><path class="cls-19" d="M109.74,318.95h2a.26.26,0,0,1,.26.26v.49a0,0,0,0,1,0,0h-2.57a0,0,0,0,1,0,0v-.49A.26.26,0,0,1,109.74,318.95Z" transform="translate(353.51 554.51) rotate(153.22)"/><rect class="cls-11" x="109.89" y="316.33" width="1.25" height="2.84" transform="translate(-131.29 83.86) rotate(-26.78)"/><rect class="cls-20" x="111.04" y="315.87" width="0.65" height="2.87" transform="translate(-131 84.19) rotate(-26.78)"/><rect class="cls-21" x="106.75" y="316.28" width="5.21" height="0.45" rx="0.08" transform="translate(349.57 549.82) rotate(153.22)"/><rect class="cls-22" x="108.41" y="316.99" width="1.67" height="2.81" transform="translate(-131.72 83.35) rotate(-26.78)"/><rect class="cls-23" x="106.78" y="316.62" width="0.53" height="1.01" transform="translate(-131.38 82.23) rotate(-26.78)"/><rect class="cls-22" x="107.15" y="316.26" width="1.21" height="1.01" transform="translate(-131.15 82.51) rotate(-26.78)"/><rect class="cls-20" x="108.18" y="315.52" width="2.07" height="1.01" transform="translate(349.09 548.97) rotate(153.22)"/><rect class="cls-24" x="110.08" y="314.79" width="1.18" height="1.01" transform="translate(351.51 546.93) rotate(153.22)"/><rect class="cls-25" x="111.15" y="314.46" width="0.34" height="1.02" transform="translate(352.6 546.02) rotate(153.22)"/><polygon class="cls-26" points="116.96 329.31 116.69 329.02 116.36 328.48 116.05 327.93 115.8 327.38 115.62 326.99 115.47 326.55 115.39 326.24 113.52 327.18 113.86 327.59 114.21 328.09 114.59 328.85 114.87 329.46 115.03 329.96 115.1 330.28 116.96 329.31"/><rect class="cls-27" x="112.78" y="325.95" width="3.11" height="0.79" rx="0.14" transform="translate(363.44 566.19) rotate(153.22)"/><rect class="cls-20" x="114.79" y="329.7" width="2.74" height="0.68" rx="0.12" transform="translate(368.54 572.36) rotate(153.22)"/><rect class="cls-28" x="112.05" y="325.82" width="4.14" height="0.45" rx="0.08" transform="translate(362.89 565.72) rotate(153.22)"/><rect class="cls-20" x="113.12" y="325.22" width="1.74" height="0.85" transform="translate(362.47 565.02) rotate(153.22)"/><rect class="cls-23" x="111.94" y="326.14" width="0.45" height="0.85" transform="translate(-135.09 85.55) rotate(-26.78)"/><rect class="cls-22" x="112.26" y="325.84" width="1.02" height="0.85" transform="translate(-134.89 85.78) rotate(-26.78)"/><rect class="cls-24" x="114.72" y="324.61" width="0.96" height="0.85" transform="translate(364.48 563.32) rotate(153.22)"/><rect class="cls-25" x="115.62" y="324.32" width="0.29" height="0.86" transform="translate(365.42 562.54) rotate(153.22)"/><rect class="cls-9" x="117.35" y="307.09" width="4.4" height="22.57" transform="translate(-8.87 633.28) rotate(-137.23)"/><rect class="cls-10" x="105.02" y="328.62" width="3.45" height="7" transform="translate(-40.42 648.42) rotate(-137.23)"/><rect class="cls-11" x="111.12" y="328.44" width="0.52" height="2.97" rx="0.09" transform="translate(253.65 12.1) rotate(42.77)"/><rect class="cls-12" x="108.35" y="325.86" width="0.48" height="2.97" rx="0.08" transform="translate(251.15 13.3) rotate(42.77)"/><rect class="cls-13" x="120.01" y="308.2" width="0.69" height="22.24" transform="translate(-8.11 635.46) rotate(-137.23)"/><rect class="cls-14" x="119.13" y="307.57" width="1.13" height="22.26" transform="translate(-8.85 633.93) rotate(-137.23)"/><rect class="cls-15" x="118.01" y="306.68" width="1.45" height="22.26" transform="translate(-9.91 631.74) rotate(-137.23)"/><rect class="cls-16" x="109.09" y="326.51" width="5.21" height="0.5" rx="0.09" transform="translate(-28.18 642.48) rotate(-137.23)"/><rect class="cls-17" x="105.89" y="328.69" width="0.78" height="6.64" transform="translate(-41.14 647.9) rotate(-137.23)"/><rect class="cls-18" x="106.43" y="329.21" width="0.78" height="6.65" transform="translate(-40.56 649.18) rotate(-137.23)"/><path class="cls-19" d="M107.87,329.41h2a.26.26,0,0,1,.26.26v.49a0,0,0,0,1,0,0H107.6a0,0,0,0,1,0,0v-.49A.26.26,0,0,1,107.87,329.41Z" transform="translate(-35.11 645.82) rotate(-137.23)"/><rect class="cls-11" x="109.65" y="327.58" width="1.25" height="2.84" transform="matrix(0.73, 0.68, -0.68, 0.73, 252.72, 12.59)"/><rect class="cls-20" x="110.66" y="328.21" width="0.65" height="2.87" transform="translate(253.35 12.28) rotate(42.77)"/><rect class="cls-21" x="108.43" y="327.25" width="5.21" height="0.45" rx="0.08" transform="translate(-29.83 643.28) rotate(-137.23)"/><rect class="cls-22" x="108.39" y="326.63" width="1.67" height="2.81" transform="translate(251.79 13.06) rotate(42.77)"/><rect class="cls-23" x="109.39" y="325.02" width="0.53" height="1.01" transform="translate(250.2 12.1) rotate(42.77)"/><rect class="cls-22" x="109.63" y="325.56" width="1.21" height="1.01" transform="translate(250.72 11.85) rotate(42.77)"/><rect class="cls-20" x="110.4" y="326.67" width="2.07" height="1.01" transform="translate(-28.92 643.03) rotate(-137.23)"/><rect class="cls-24" x="112.04" y="327.78" width="1.18" height="1.01" transform="translate(-27.61 645.75) rotate(-137.23)"/><rect class="cls-25" x="112.99" y="328.27" width="0.34" height="1.02" transform="translate(-27.02 646.98) rotate(-137.23)"/><polygon class="cls-26" points="101.69 339.08 101.88 338.73 102.26 338.23 102.68 337.74 103.1 337.31 103.41 337.01 103.76 336.71 104.02 336.53 102.49 335.11 102.23 335.57 101.88 336.07 101.3 336.69 100.83 337.17 100.41 337.5 100.14 337.68 101.69 339.08"/><rect class="cls-27" x="102" y="335.19" width="3.11" height="0.79" rx="0.14" transform="translate(-48.29 652.26) rotate(-137.23)"/><rect class="cls-20" x="99.37" y="338.24" width="2.74" height="0.68" rx="0.12" transform="translate(-55.22 655.54) rotate(-137.23)"/><rect class="cls-28" x="101.69" y="335.05" width="4.14" height="0.45" rx="0.08" transform="translate(-47.72 651.86) rotate(-137.23)"/><rect class="cls-20" x="103.22" y="334.59" width="1.74" height="0.85" transform="translate(-46.98 651.64) rotate(-137.23)"/><rect class="cls-23" x="102.37" y="333.2" width="0.45" height="0.85" transform="translate(253.82 19.05) rotate(42.77)"/><rect class="cls-22" x="102.58" y="333.66" width="1.02" height="0.85" transform="translate(254.26 18.83) rotate(42.77)"/><rect class="cls-24" x="104.61" y="335.51" width="0.96" height="0.85" transform="translate(-45.88 653.91) rotate(-137.23)"/><rect class="cls-25" x="105.4" y="335.94" width="0.29" height="0.86" transform="translate(-45.37 654.97) rotate(-137.23)"/><text class="cls-54" transform="translate(207.88 429.3)">WELCOME</text></svg>