<svg id="Layer_1" data-name="Layer 1" xmlns="http://www.w3.org/2000/svg" viewBox="0 0 16 16"><defs><style>.cls-1{fill:#efeff1;}.cls-2{fill:red;}.cls-3{fill:none;stroke:#fff;stroke-miterlimit:10;stroke-width:0.25px;}</style></defs><rect class="cls-1" width="16" height="16" rx="0.64"/><path class="cls-1" d="M11.19.87A.32.32,0,0,0,11,.67c-.12-.06-.12,0-.12,0s-.05,0-.06.12a1.57,1.57,0,0,0,0,.38.28.28,0,0,0,.1-.06Z"/><path class="cls-2" d="M14.29,8.67,8.4,14.91,2.16,9c-5-4.74.87-11,5.89-6.24C12.38-1.8,18.62,4.08,14.29,8.67Z"/><polyline class="cls-3" points="2.32 8.52 6.45 8.52 7.48 5.42 9.55 10.58 10.58 8.52 13.68 8.52"/></svg>