<svg id="Layer_1" data-name="Layer 1" xmlns="http://www.w3.org/2000/svg" viewBox="0 0 16 16"><defs><style>.cls-1{fill:#efeff1;}.cls-2{fill:#fff;}</style></defs><rect class="cls-1" width="16" height="16" rx="0.64"/><path class="cls-1" d="M11.08.87a.29.29,0,0,0-.14-.2c-.12-.06-.13,0-.13,0s0,0-.06.12a2.36,2.36,0,0,0,0,.38.28.28,0,0,0,.1-.06S11.08.87,11.08.87Z"/><path d="M12.75,16.93v-4.5s6.4-5.14,0-11A6.89,6.89,0,0,0,1.73,7L.41,9.56l1.28.79v4H4.24a.22.22,0,0,1,.22.22V17Z"/><path class="cls-2" d="M12.45,16.39V12.18s6-4.81,0-10.34A6.46,6.46,0,0,0,2.12,7.06L.89,9.49l1.2.75V14H4.48a.2.2,0,0,1,.2.21v2.29Z"/><path d="M5.42,9.51h0Z"/><path d="M5.42,9.51h0Z"/><polygon points="9.75 9.92 9.72 9.95 9.68 9.94 9.75 9.92"/><polygon points="9.75 9.92 9.72 9.95 9.68 9.94 9.75 9.92"/><polygon points="9.75 9.92 9.72 9.95 9.68 9.94 9.75 9.92"/><path d="M9.59,8.09l.22,1.12,1.63.29h0a.58.58,0,0,1,.15,1.14l-2.28.61a.76.76,0,0,0,.11-.38c0-.57-.64-1-1.43-1a1.81,1.81,0,0,0-.67.12l1.12.29a.59.59,0,0,1-.15,1.15l-.15,0L6.56,11l-1.18-.32A.59.59,0,0,1,5,9.93a.63.63,0,0,1,.16-.26.58.58,0,0,1,.25-.15h.09L7,9.21,7.2,8.09s.06-.41-.38.1A6.25,6.25,0,0,1,5,9.2c-1.07.08-.39-.86-.39-.86L6,7.71s.42,0,.47-1.27.65-1.58.65-1.58H9.72s.59.3.65,1.58.47,1.27.47,1.27l1.3.63s.68.94-.39.86a6.25,6.25,0,0,1-1.78-1C9.53,7.68,9.59,8.09,9.59,8.09Z"/><circle cx="8.4" cy="3.31" r="1.36"/><path d="M10,10.24l0,0-.06,0Z"/><path d="M12.23,6.46a3.82,3.82,0,0,0-2.09-3.41,2.11,2.11,0,0,1,0,.26,2,2,0,0,1,0,.34A3.28,3.28,0,0,1,11.7,6.46a3.33,3.33,0,0,1-.25,1.26l.48.23A3.89,3.89,0,0,0,12.23,6.46Z"/><path d="M5.09,6.46A3.28,3.28,0,0,1,6.67,3.65a2,2,0,0,1,0-.34,2.11,2.11,0,0,1,0-.26A3.82,3.82,0,0,0,4.56,6.46,3.89,3.89,0,0,0,4.86,8l.48-.23A3.33,3.33,0,0,1,5.09,6.46Z"/></svg>