<svg id="Layer_1" data-name="Layer 1" xmlns="http://www.w3.org/2000/svg" viewBox="0 0 16 16"><defs><style>.cls-1{fill:#efeff1;}.cls-2{fill:#cce3ff;stroke:#cce3ff;stroke-miterlimit:10;}.cls-3{fill:#e2f938;}.cls-4{fill:#f6c1b0;}.cls-5{fill:#f800ff;}.cls-6{fill:#cba194;}.cls-7{fill:#e6b5a5;}.cls-8{fill:#6d391d;}.cls-9{fill:#092a36;}.cls-10{fill:#f6f6f6;}.cls-11{fill:#e3b080;}.cls-12{fill:#cd9162;}.cls-13{fill:#c98a5b;}.cls-14{fill:#dda776;}.cls-15{fill:#f3cdaa;}.cls-16{fill:#ce9261;}.cls-17{fill:#d0976e;}.cls-18{fill:#b9794a;}.cls-19{fill:#cd9163;}.cls-20{fill:#d29572;}.cls-21{fill:#499fbb;}.cls-22{fill:#4190ad;}.cls-23{fill:#52b2cc;}.cls-24{fill:#5cb6d2;}.cls-25{fill:#66cae4;}.cls-26{fill:#b5b5c4;}.cls-27{fill:#9e9ea8;}</style></defs><rect class="cls-1" width="16" height="16" rx="0.64"/><path class="cls-1" d="M11.19.87A.32.32,0,0,0,11,.67c-.12-.06-.12,0-.12,0s-.05,0-.06.12a1.57,1.57,0,0,0,0,.38.28.28,0,0,0,.1-.06Z"/><circle class="cls-2" cx="8" cy="8" r="7.5"/><path class="cls-3" d="M6,11.77a10.13,10.13,0,0,0-1.4-.11,4.44,4.44,0,0,0-.81.25,12.82,12.82,0,0,0-1.14,1.38A7.51,7.51,0,0,0,8,15.5V14.1H8V12c-.55,0-1.1,0-1.55-.06Z"/><path class="cls-4" d="M5.52,8.13s-.64-.31-.76-.64a1.43,1.43,0,0,1-.13-.63.86.86,0,0,1,.19-.46.74.74,0,0,1,.24-.15l.43.11Z"/><path class="cls-5" d="M8,15.5a7.52,7.52,0,0,0,5.27-2.16,14.05,14.05,0,0,0-1.18-1.43h0a4.74,4.74,0,0,0-.81-.25,10.3,10.3,0,0,0-1.41.11l-.37.17A14.39,14.39,0,0,1,8,12V14.1H8v1.4Z"/><path class="cls-6" d="M8,12.33v.33S6.43,12.58,6,11.77l.14-.14Z"/><path class="cls-4" d="M8,11.1s0,0,0,.52,0,.71,0,.71-1.34-.05-1.81-.7l.4-1.29C6.73,9.8,8,11.1,8,11.1Z"/><path class="cls-6" d="M5,6.29A5.28,5.28,0,0,0,5,7.36,5.11,5.11,0,0,0,5.18,8a3.5,3.5,0,0,0,.32.17l0-1.81L5,6.26S5,6.27,5,6.29Z"/><path class="cls-6" d="M6.57,10.34A2.3,2.3,0,0,0,8,11.1H8v-.53L6.62,10A3.64,3.64,0,0,1,6.57,10.34Z"/><path class="cls-4" d="M8,5.72v5a2.05,2.05,0,0,1-.71-.21,4.75,4.75,0,0,1-.68-.54,8.72,8.72,0,0,1-.79-1.1c-.15-.31-.3-.69-.3-.69s-.21-.81-.23-1.05,0-.45,0-.45l.12-.82Z"/><path class="cls-4" d="M10.41,8.13s.65-.31.77-.64a1.43,1.43,0,0,0,.13-.63,1,1,0,0,0-.2-.46.74.74,0,0,0-.24-.15l-.43.11Z"/><path class="cls-6" d="M8,12.33v.33s1.53-.08,1.93-.89l-.14-.14Z"/><path class="cls-7" d="M8,11.1v1.23s1.32-.05,1.79-.7c0,0-.25-.78-.4-1.29S8,11.1,8,11.1Z"/><path class="cls-6" d="M10.94,6.29a5.91,5.91,0,0,1,0,1.07,3.73,3.73,0,0,1-.16.59,3.48,3.48,0,0,1-.31.17l0-1.81.44,0S10.94,6.27,10.94,6.29Z"/><path class="cls-6" d="M9.37,10.34A2.3,2.3,0,0,1,8,11.1H8v-.53L9.32,10A3.64,3.64,0,0,0,9.37,10.34Z"/><path class="cls-7" d="M8,5.08v5.6a2,2,0,0,0,.7-.21,4.25,4.25,0,0,0,.68-.54,8.73,8.73,0,0,0,.8-1.1c.15-.31.3-.69.3-.69s.21-.81.23-1.05,0-.45,0-.45l-.12-1.33Z"/><path class="cls-8" d="M8,2.37,8,5.72a2.92,2.92,0,0,1-1.16.16A2.28,2.28,0,0,0,5.88,6a1,1,0,0,0-.51.41A3.66,3.66,0,0,0,5.19,7s-.08-.32-.09-.42a7.27,7.27,0,0,1,0-2.17c.19-.59.36-1.36.9-1.62a3.27,3.27,0,0,1,.86-.35l.67-.08A2.35,2.35,0,0,1,8,2.37Z"/><path class="cls-9" d="M12.45,8.16a8.91,8.91,0,0,1,.08-2.1,8.45,8.45,0,0,0,0-3.13,1.88,1.88,0,0,0-1-1S10.7,1.83,10,3.08l0,.09a3,3,0,0,0-1.42-.76c-.6-.12-.58,0-.58,0V6.11l.53,0v-.9l.22.87h.68V5.24A3.59,3.59,0,0,1,9.61,6v.21H10a3.25,3.25,0,0,1,0-.87c.07,0,.1.87.1.87l0,.1a3.85,3.85,0,0,1,.48,0,1.35,1.35,0,0,0,.25-.76c0-.1.08-.08.07-.21h0s0,0,0,0A.9.9,0,0,1,11,5s.48.33.46,2S12,9,12,9s.6.69,1.27-.17A.75.75,0,0,1,12.45,8.16Z"/><path class="cls-9" d="M11,5.27a5.72,5.72,0,0,1,0,1.09l-.31-.08Z"/><path class="cls-10" d="M9,9.1a1,1,0,1,1-2,0"/><path class="cls-11" d="M5.59,11l1.07.53.6-.24.3-.11s.3,0,.36.08S9.65,13,9.65,13l.61.49s.07.16,0,.25-.21.39-.39.28-.76-.53-.76-.53,0,.48-.4.45-.39-.19-.39-.19.87.11,0,.68-2.18-2.6-2.18-2.6l-.23,1.54"/><polygon class="cls-11" points="5.44 12.42 5.57 11.04 5.59 11.04 5.82 12.13 5.55 12.96 5.35 12.75 5.44 12.42"/><path class="cls-11" d="M6.07,13.49a.37.37,0,0,1,.21.06.55.55,0,0,0,.19.09l.18-.09.18,0,.06,0,.11.15.13.2h.44L6.23,11.7l-.69-.47L5.24,13l.56.36Z"/><polyline class="cls-12" points="4.92 13.19 6.41 13.93 6.56 13.62 5.31 12.99 5.58 11.03 5.56 11.02"/><polygon class="cls-11" points="8.03 14.4 8.03 14.59 8.15 14.78 8.32 14.74 8.32 14.26 8.03 14.4"/><polygon class="cls-13" points="8.48 14.59 8.58 14.68 8.68 14.76 8.76 14.8 8.85 14.82 8.97 14.81 9.11 14.72 9.13 14.68 9.15 14.61 8.7 14.28 8.38 14.46 8.37 14.5 8.48 14.59"/><path class="cls-13" d="M9.19,13.87l.25.22.24.18,0,.06,0,0-.07.05a.25.25,0,0,1-.12,0H9.31S8.72,14,8.72,14l.4-.17Z"/><path class="cls-14" d="M8.7,14.33v0s-.2.14-.28.12,0,.08,0,.08l.05,0v.14s0,.18-.05.19a1.46,1.46,0,0,1-.26-.17l.1-.16v-.25l.79-.93.62.46s.1.37,0,.4-.25-.16-.25-.16l-.29-.28-.06.05-.14,0-.16,0v0l.29.2.08.07,0,0s0,.4-.06.38"/><path class="cls-13" d="M7.92,15a.83.83,0,0,0,.25.12.72.72,0,0,0,.17-.06s.09-.08.09-.1v0l-.21-.14-.07-.06-.07-.09"/><path class="cls-15" d="M5.7,13.71l.11-.21.09-.08.09,0,.08,0h.11l.05,0-.46.81-.06,0-.08-.07,0-.09v-.15Z"/><polyline class="cls-16" points="7.05 13.85 7.16 14.01 7.05 14.03"/><path class="cls-17" d="M6.25,14l.12-.2,0-.12,0-.09,0-.08,0,0,0,0,0,0-.47.8.07,0,.1,0H6l.12-.08Z"/><polygon class="cls-11" points="6.7 13.42 8.15 14.35 7.97 14.57 7.39 14.21 6.94 13.91 6.59 13.65 6.51 13.42 6.7 13.42"/><path class="cls-15" d="M6.84,14.33,7,14.12,7.05,14l.09,0h.2l0,0-.47.83-.07,0-.07-.08,0-.09s0-.14,0-.16Z"/><path class="cls-17" d="M7.41,14.64l.13-.21,0-.11,0-.1,0-.08,0,0,0,0-.06,0-.48.82.07,0,.1,0h.1l.13-.09Z"/><path class="cls-15" d="M6.25,14l.15-.26.1-.11.1,0,.1,0h.08l.06,0,0,.05-.56,1-.08-.06-.08-.1,0-.11a1.68,1.68,0,0,1,0-.2S6.25,14,6.25,14Z"/><path class="cls-17" d="M6.9,14.4,7,14.14l0-.14v-.12l0-.11,0-.06,0,0-.06,0-.57,1,.08,0,.12,0h.11l.15-.11Z"/><path class="cls-11" d="M5.6,13.88l.1-.17.11-.21"/><polyline class="cls-18" points="7.53 14.45 7.59 14.4 7.62 14.39 7.59 14.35 7.54 14.35"/><polygon class="cls-19" points="7.53 14.17 7.7 14.4 7.62 14.41 7.59 14.38 7.57 14.36 7.53 14.36 7.53 14.17"/><path class="cls-15" d="M7.37,14.67l.12-.19.09-.08.09,0,.09,0h.12l0,0-.48.75-.07,0-.08-.07,0-.08a.71.71,0,0,1,0-.14Z"/><path class="cls-11" d="M8.23,14.78a1.36,1.36,0,0,0,.11-.34.15.15,0,0,1,0-.06l0,0h0l.14-.07.09-.08.07-.09,0-.09,0-.15H8.8l.12,0L9,13.84l.1-.1,0-.07,0-.13v-.12h0l.11,0,.1-.06.09-.1,0-.08,0-.09v-.15l-.43-.06L8,14.51Z"/><path class="cls-17" d="M8,15l.12-.19,0-.1,0-.08,0-.08,0,0,0,0-.06,0-.49.74.07,0,.11,0h.1l.13-.08Z"/><polygon class="cls-17" points="10.29 12.65 10.62 13.37 10.14 13.62 9.49 12.9 10.21 12.54 10.29 12.65"/><polygon class="cls-14" points="9.49 13.37 10.22 13.88 10.27 13.8 10.29 13.66 10.27 13.51 10.19 13.41 9.46 12.79 9.42 13.02 9.17 13.48 9.49 13.37"/><polygon class="cls-13" points="9.52 13.3 9.83 13.57 10.22 13.88 10.17 13.95 10.09 14 9.96 14.03 9.84 13.99 9.61 13.79 9.17 13.48 9.38 13.4 9.52 13.3"/><polygon class="cls-20" points="7 13.31 7.1 13.31 7.18 13.29 7.28 13.23 7.34 13.18 7.39 13.07 7.39 12.93 7.4 12.29 7.83 12.11 8.2 12.01 8.44 12.17 8.72 12.35 8.89 12.44 9.37 12.73 9.36 12.49 8.13 11.8 7.26 12.02 6.82 13.14 6.82 13.17 6.85 13.22 6.88 13.24 6.93 13.28 7 13.31"/><path class="cls-15" d="M9.68,11.34,9,11.68l-.49-.39a1,1,0,0,0-.25,0l-.47.08-.7.16-.14,0-.12,0s-.21.23-.19.34,0,.35,0,.35l.16.84,0,0a.22.22,0,0,0,.14.06.56.56,0,0,0,.19,0,.35.35,0,0,0,.11-.09s.06-.11.07-.15v-.68l0-.18.09.07.24-.06L7.91,12l.19-.18h.05l0,.07.11.08.17.1.37.19.74.63.66-.32Z"/><polygon class="cls-21" points="4.49 10.33 4.09 11.48 3.81 11.35 4.41 10.31 4.49 10.33"/><polygon class="cls-22" points="3.35 12.41 3.92 11.37 4.08 11.45 3.59 12.69 3.28 12.54 3.35 12.41"/><path class="cls-21" d="M1.34,11.44l2,1.13L4,11.25.66,9.54A7.29,7.29,0,0,0,1.34,11.44Z"/><path class="cls-23" d="M.69,9.67l3.24,1.72.51-1.07L.51,8.3A7.78,7.78,0,0,0,.69,9.67Z"/><path class="cls-24" d="M3.59,12.47l.53-1.26,1.25.45-.48,1.6a.25.25,0,0,1,0,.07.19.19,0,0,1-.15,0l-1-.46-.17-.08a.11.11,0,0,1-.05-.12A1.28,1.28,0,0,1,3.59,12.47Z"/><path class="cls-25" d="M4.08,11.3l.43-1.05s0-.05.15-.07a4.48,4.48,0,0,1,.9.42.05.05,0,0,1,.06.05.32.32,0,0,1,0,.13l-.35,1.16Z"/><path class="cls-26" d="M12.92,9.52l-1.76.91-.65.35-.69.43,1,2.18.3-.13.61-.24.36-.19,1.43-.74,1.21-.79a7.64,7.64,0,0,0,.75-3Z"/><path class="cls-27" d="M10.28,12.21l.53,1.18.92-.35,1.79-.93,1.14-.67a7.07,7.07,0,0,0,.63-1.7Z"/><polygon class="cls-26" points="10.19 12.47 10.65 13.45 10.88 13.36 10.31 12.19 10.1 12.29 10.19 12.47"/><polygon class="cls-27" points="9.62 11.28 10.1 12.29 10.31 12.19 9.81 11.17 9.62 11.28"/></svg>