<svg id="Layer_1" data-name="Layer 1" xmlns="http://www.w3.org/2000/svg" viewBox="0 0 16 16"><defs><style>.cls-1{fill:#efeff1;}.cls-2{fill:#c5c6c8;}.cls-3{fill:#6bbece;}.cls-4{fill:#dc813b;}.cls-5{fill:#f2f5f8;}.cls-6{fill:#bec2c7;}.cls-7{fill:#c75a24;}.cls-8{fill:#322727;}.cls-9{fill:#010000;}.cls-10{fill:#df0d16;}.cls-11{fill:#d7ebdd;}.cls-12{fill:#fdf0f9;}.cls-13{fill:#fe9e68;}.cls-14{fill:#ffac75;}.cls-15{fill:#e8834e;}.cls-16{fill:#f1f1f1;}.cls-17{fill:#c6c6c6;}.cls-18{fill:#d97643;}.cls-19{fill:#ffc7b4;}.cls-20{fill:#d77442;}.cls-21{fill:#ff7e2a;}.cls-22{fill:#e68248;}.cls-23{fill:#b5b5c4;}.cls-24{fill:#9e9ea8;}</style></defs><rect class="cls-1" width="16" height="16" rx="0.64"/><path class="cls-1" d="M11.19.87A.32.32,0,0,0,11,.67c-.12-.06-.12,0-.12,0s-.05,0-.06.12a1.57,1.57,0,0,0,0,.38.28.28,0,0,0,.1-.06Z"/><path class="cls-2" d="M10.17,6.75,9,1.74s-.22.1-.23.2.45,4.43.45,4.43l.34.41L9.84,7Z"/><path class="cls-3" d="M6.62,2.28a2,2,0,0,0-.43,0c-.15,0-.55.23-.6.23s-.7.11-.8-.27a1.51,1.51,0,0,0-.25-.55,1.32,1.32,0,0,0-.65-.1c-.23.06-1.13.4-1.2.4H2.26s-.39-.19-.45-.39-.55-.28-.55-.28-.09-.07.05-.09a1.06,1.06,0,0,1,.5,0,1.52,1.52,0,0,1,.32.29c0,.05.12.21.19.2a1.18,1.18,0,0,0,.38-.08,6.12,6.12,0,0,1,.76-.29s.57-.06.64,0a2,2,0,0,1,.54.17,2.23,2.23,0,0,1,.3.52.32.32,0,0,0,.17.26.69.69,0,0,1,.28.11.46.46,0,0,0,.2,0s.76-.18.76-.18Z"/><path class="cls-3" d="M6.59,0s.07.58-.32.69a4.69,4.69,0,0,1-.7.16s-.36.21-.36.3,0,.27,0,.31,0,.11.12.14a.82.82,0,0,0,.36,0s.18-.11.18-.17,0-.12,0-.12a.52.52,0,0,0-.22,0s-.18.08-.19.11-.12.1-.12.15,0,.28,0,.28,0,.07,0,.09l.11.1.14,0s.31,0,.34,0a2.72,2.72,0,0,1,.3,0c.06,0,.44.09.47.14s-.21-.05-.32-.05a1.67,1.67,0,0,0-.38,0l-.23.05a1.06,1.06,0,0,1-.35-.05s-.19-.18-.2-.28a1.15,1.15,0,0,1,0-.29s.12-.21.15-.26a.52.52,0,0,1,.2-.14s.14-.08.2-.06.15,0,.18,0,.12.1.11.19a.62.62,0,0,1-.09.27.88.88,0,0,1-.24.18.38.38,0,0,1-.18.06c-.09,0-.43-.16-.45-.29a1.39,1.39,0,0,1,0-.45A.57.57,0,0,1,5.15.85a.88.88,0,0,1,.29-.2,3.54,3.54,0,0,1,.44,0A1,1,0,0,0,6.17.55C6.23.5,6.32.46,6.38.4s.16-.13.14-.16,0,0,0-.11Z"/><path class="cls-4" d="M13,4.18s.24-.08.28-.23-.12-.41-.12-.41Z"/><polygon class="cls-5" points="11.04 3.46 6.62 2.33 6.73 1.91 11.15 3.04 11.04 3.46"/><polygon class="cls-6" points="11.05 3.46 6.62 2.33 6.56 2.55 10.99 3.68 11.05 3.46"/><polygon class="cls-4" points="13.13 3.54 13.02 3.96 13.02 3.97 13.02 3.97 11.09 3.48 11.09 3.48 11.09 3.47 11.2 3.05 11.2 3.05 13.13 3.54"/><polygon class="cls-7" points="13.02 3.96 13.02 3.97 13.02 3.97 11.09 3.48 11.03 3.69 11.03 3.69 11.09 3.48 11.09 3.47 11.09 3.47 13.02 3.96"/><polygon class="cls-8" points="11.02 3 10.86 3.65 10.8 3.63 10.97 2.99 11.02 3"/><polygon class="cls-8" points="11.2 3.05 11.2 3.05 11.09 3.47 11.09 3.48 11.03 3.69 11.03 3.69 10.99 3.68 10.98 3.68 11.04 3.46 11.04 3.46 11.15 3.04 11.15 3.04 11.2 3.05"/><path class="cls-4" d="M13,4.18s.24-.08.28-.23-.12-.41-.12-.41Z"/><path class="cls-7" d="M13.22,4a.5.5,0,0,1-.25.17L11,3.69l.06-.21L13,4h0Z"/><polygon class="cls-7" points="13.02 3.96 13.02 3.97 13.02 3.97 13.02 3.96 13.02 3.96"/><ellipse class="cls-9" cx="6.66" cy="2.24" rx="0.33" ry="0.21" transform="translate(2.34 7.77) rotate(-70.55)"/><polygon class="cls-10" points="6.57 2.18 6.52 2.18 6.5 2.22 6.49 2.17 6.44 2.16 6.48 2.14 6.48 2.09 6.51 2.12 6.55 2.11 6.54 2.15 6.57 2.18"/><polygon class="cls-10" points="6.57 2.11 6.54 2.12 6.53 2.14 6.51 2.12 6.49 2.11 6.51 2.09 6.5 2.06 6.53 2.08 6.55 2.06 6.55 2.09 6.57 2.11"/><polygon class="cls-10" points="6.54 2.2 6.5 2.2 6.47 2.24 6.46 2.19 6.41 2.18 6.45 2.15 6.45 2.11 6.49 2.13 6.53 2.12 6.52 2.17 6.54 2.2"/><polygon class="cls-10" points="6.56 2.21 6.53 2.2 6.51 2.21 6.51 2.19 6.49 2.17 6.52 2.16 6.53 2.14 6.54 2.16 6.57 2.17 6.55 2.18 6.56 2.21"/><polygon class="cls-10" points="6.5 2.21 6.48 2.21 6.46 2.23 6.46 2.21 6.43 2.2 6.45 2.18 6.45 2.16 6.47 2.17 6.5 2.17 6.49 2.19 6.5 2.21"/><polygon class="cls-10" points="6.54 2.19 6.5 2.21 6.5 2.25 6.47 2.23 6.43 2.23 6.45 2.2 6.43 2.17 6.47 2.17 6.49 2.14 6.5 2.18 6.54 2.19"/><polygon class="cls-10" points="6.53 2.1 6.5 2.09 6.48 2.1 6.48 2.07 6.46 2.05 6.49 2.05 6.5 2.02 6.51 2.05 6.54 2.05 6.53 2.07 6.53 2.1"/><polygon class="cls-10" points="6.55 2.08 6.58 2.08 6.59 2.06 6.6 2.08 6.63 2.09 6.61 2.11 6.61 2.13 6.59 2.12 6.56 2.13 6.57 2.1 6.55 2.08"/><polygon class="cls-10" points="6.55 2.08 6.53 2.08 6.52 2.08 6.52 2.07 6.51 2.06 6.52 2.05 6.53 2.04 6.54 2.05 6.56 2.05 6.54 2.06 6.55 2.08"/><polygon class="cls-10" points="6.59 2.12 6.55 2.11 6.52 2.14 6.52 2.1 6.48 2.09 6.52 2.07 6.52 2.03 6.55 2.06 6.58 2.05 6.57 2.09 6.59 2.12"/><polygon class="cls-10" points="6.57 2.17 6.55 2.17 6.55 2.19 6.54 2.17 6.53 2.17 6.54 2.17 6.54 2.15 6.55 2.16 6.56 2.15 6.56 2.17 6.57 2.17"/><polygon class="cls-10" points="6.47 2.24 6.44 2.23 6.42 2.26 6.41 2.23 6.39 2.21 6.41 2.2 6.42 2.17 6.44 2.19 6.47 2.19 6.45 2.21 6.47 2.24"/><polygon class="cls-10" points="6.46 2.25 6.44 2.24 6.42 2.25 6.42 2.23 6.4 2.21 6.43 2.21 6.44 2.18 6.45 2.21 6.48 2.21 6.46 2.23 6.46 2.25"/><polygon class="cls-10" points="6.49 2.3 6.45 2.29 6.42 2.31 6.42 2.26 6.39 2.23 6.43 2.23 6.45 2.19 6.47 2.22 6.51 2.23 6.48 2.26 6.49 2.3"/><polygon class="cls-10" points="6.57 2.27 6.53 2.25 6.49 2.28 6.49 2.23 6.46 2.21 6.5 2.2 6.52 2.15 6.54 2.19 6.58 2.19 6.55 2.23 6.57 2.27"/><polygon class="cls-10" points="6.52 2.27 6.51 2.27 6.5 2.27 6.5 2.26 6.49 2.26 6.5 2.25 6.51 2.24 6.51 2.25 6.52 2.25 6.52 2.26 6.52 2.27"/><polygon class="cls-10" points="6.5 2.27 6.47 2.28 6.46 2.31 6.45 2.29 6.41 2.29 6.43 2.26 6.42 2.23 6.45 2.24 6.48 2.22 6.48 2.26 6.5 2.27"/><polygon class="cls-10" points="6.51 2.25 6.5 2.23 6.48 2.24 6.49 2.22 6.48 2.2 6.5 2.2 6.52 2.19 6.52 2.21 6.54 2.22 6.52 2.23 6.51 2.25"/><polygon class="cls-10" points="6.54 2.27 6.52 2.27 6.5 2.29 6.5 2.26 6.48 2.25 6.5 2.24 6.5 2.22 6.52 2.23 6.54 2.23 6.53 2.25 6.54 2.27"/><polygon class="cls-10" points="6.5 2.29 6.49 2.28 6.48 2.29 6.48 2.28 6.47 2.27 6.48 2.27 6.49 2.26 6.49 2.27 6.5 2.27 6.5 2.28 6.5 2.29"/><polygon class="cls-10" points="6.55 2.33 6.52 2.32 6.49 2.34 6.48 2.3 6.45 2.28 6.49 2.27 6.49 2.23 6.52 2.26 6.56 2.25 6.54 2.29 6.55 2.33"/><polygon class="cls-10" points="6.56 2.29 6.53 2.29 6.51 2.3 6.51 2.28 6.49 2.26 6.51 2.25 6.52 2.22 6.54 2.25 6.56 2.24 6.55 2.27 6.56 2.29"/><polygon class="cls-10" points="6.57 2.21 6.55 2.21 6.54 2.23 6.54 2.21 6.52 2.21 6.53 2.2 6.53 2.18 6.54 2.19 6.56 2.18 6.56 2.2 6.57 2.21"/><polygon class="cls-10" points="6.56 2.17 6.54 2.15 6.52 2.16 6.52 2.14 6.51 2.12 6.53 2.12 6.54 2.1 6.55 2.12 6.58 2.13 6.56 2.14 6.56 2.17"/><path class="cls-11" d="M11.55,2.58,9.88,6.7l-.66.2L9,6.64l.47-.8H9.6l1.91-3.58,0,0C11.66,2.35,11.55,2.58,11.55,2.58Z"/><path class="cls-12" d="M9.42,5.84l2-3.69a.62.62,0,0,1,.12.08s-2,3.61-2,3.61Z"/><path class="cls-13" d="M9.72,11.61l.23.17L9,13l.39,1.32,0,.07-1.45-.28.34-2.3Z"/><path class="cls-14" d="M8.11,12.65l.28.24s-.15.14-.16.19a.6.6,0,0,0,0,.22l.14.19a.21.21,0,0,0-.18.08,1,1,0,0,0,.13.59l.12.08-.49-.05Z"/><polygon class="cls-15" points="7.65 11.54 7.89 11.68 7.72 13.9 6.35 14.43 5.94 14.12 6.3 13.35 7.65 11.54"/><path class="cls-15" d="M8.54,11.16s-.26.85-.26.88-.12,1-.11,1.12,0,.86,0,.86l-.34-.28.44-2.44Z"/><circle class="cls-16" cx="9.66" cy="6.16" r="0.21"/><rect class="cls-17" x="9.46" y="6.13" width="0.41" height="0.06"/><path class="cls-18" d="M7.11,9.22a2.37,2.37,0,0,0,.31.25l.26,0V9.43a1.42,1.42,0,0,1-.3,0L7.15,9.2h0S7.11,9.22,7.11,9.22Z"/><path class="cls-15" d="M10,10.81l-.09-.05a.92.92,0,0,0-.14.23s0,.66,0,.68a1.66,1.66,0,0,0,.24.11l.82-.23Z"/><path class="cls-19" d="M8.37,12.26s-.11.08-.12.15a.36.36,0,0,0,0,.2l.14.16H8.7l.14-.17-.16-.4Z"/><path class="cls-20" d="M11,12.4v.27S9.17,13,9.07,13a.56.56,0,0,1-.18-.22Z"/><path class="cls-19" d="M8.5,13a.52.52,0,0,0-.13.15.77.77,0,0,0,0,.2l.15.16h.28L9,13.33l-.16-.41Z"/><path class="cls-21" d="M12,9.56a1.15,1.15,0,0,0-.73-.65s-.47-.31-.5-.44-.4-1.63-.4-1.63,0-.09-.08-.11a.56.56,0,0,0-.21.07S9.79,7,9.78,7l.42,2.61s.05.77.24.95.94.58,1.34.08A1.27,1.27,0,0,0,12,9.56Zm-.83,1.15a.76.76,0,0,1,0-1.5.7.7,0,0,1,.63.75A.7.7,0,0,1,11.14,10.71Z"/><path class="cls-14" d="M8.46,12.16l1.47-.47a2.62,2.62,0,0,1,.47-.15h.39s0-.07-.06-.07a2.5,2.5,0,0,0-.46,0l-.43.15a2.34,2.34,0,0,1,0-.6.74.74,0,0,1,.12-.22s1.14.64,1.15.66.45.71.11.92-.19.1-.19.1l-.25.08s-2.22.29-2.3.25l-.1-.06h.2a.05.05,0,0,0,0,0,1.08,1.08,0,0,0,.08-.19c0-.07,0-.26-.1-.29s-.18,0-.21,0H8.37l.08-.09"/><path class="cls-14" d="M11,12.5a.55.55,0,0,1,.25.35.77.77,0,0,1-.13.5.91.91,0,0,1-.43.24c-.08,0-1.17.06-1.31.05s-.85-.15-.85-.15.28-.05.3-.11a.62.62,0,0,0,0-.24S8.75,13,8.72,13a2.35,2.35,0,0,0-.28,0,.51.51,0,0,1,.09-.1.21.21,0,0,1,.09-.07l1,0,.62-.06.48-.1.2-.08Z"/><path class="cls-20" d="M10.71,13.58v.08l-1.4.1a4.08,4.08,0,0,1-.62-.18l.15-.06Z"/><path class="cls-19" d="M8.37,13.59s-.18.16-.08.28a.8.8,0,0,0,.17.15h.16L8.73,14l0-.17-.09-.16-.1,0Z"/><path class="cls-21" d="M6.33,10c.24.59,1.07.43,1.31.31s.5-.84.5-.84L9.3,7c0-.06-.19-.3-.19-.3S9,6.61,8.94,6.61s-.12.09-.12.09L8,8.14a2.07,2.07,0,0,1-.6.28,1.12,1.12,0,0,0-.89.4A1.3,1.3,0,0,0,6.33,10Zm.22-.69a.7.7,0,0,1,.82-.53.69.69,0,0,1,.39.9.7.7,0,0,1-.82.53A.69.69,0,0,1,6.55,9.26Z"/><path class="cls-14" d="M10.74,13.56a1,1,0,0,1,0,.34c0,.11-.16.35-.35.4a3.13,3.13,0,0,1-.93,0,5,5,0,0,1-.93-.25.81.81,0,0,1-.2-.22s.15.13.19.14H8.6a.9.9,0,0,0,.12-.1.41.41,0,0,0,0-.19s-.09-.13-.13-.13H8.37l.15-.05.14,0,.11,0,.06,0h.83l.29,0h.26l.3,0,.17,0Z"/><path class="cls-21" d="M10.56,10.28l.06.07-.11.3-.1-.08a1.77,1.77,0,0,1,0-.22Z"/><path class="cls-21" d="M11.38,10.91h-.25s.19-.24.19-.24l.06,0h0Z"/><polygon class="cls-14" points="11.26 10.81 10.93 11.18 10.9 11.12 11.26 10.72 11.26 10.81"/><polygon class="cls-19" points="11.27 10.75 10.93 11.18 10.79 11.15 10.64 10.89 10.7 10.59 10.9 10.42 11.07 10.42 11.22 10.48 11.27 10.75"/><path class="cls-21" d="M7.06,8.45l.31,0-.13.29a2.53,2.53,0,0,0-.34.09c-.08,0,.1-.31.1-.31Z"/><polygon class="cls-22" points="10.42 10.13 10.58 10.34 10.91 10 10.88 9.61 10.61 9.55 10.42 10.13"/><path class="cls-19" d="M7.38,7.81a4.38,4.38,0,0,0-.24.68c0,.09.18.08.18.08L7.61,8Z"/><path class="cls-14" d="M11.49,10.35a3.84,3.84,0,0,1-.23.46s0-.18,0-.2-.11-.17-.16-.17a1,1,0,0,0-.37.2,1,1,0,0,0,0,.39,1,1,0,0,0,.2.15l-.16.09a.7.7,0,0,1-.31-.43,2.08,2.08,0,0,1,.08-.49,1.9,1.9,0,0,0,.19-.38c0-.08,0-.32,0-.33l-.05,0h0l0,.22-.06.27-.05.05-.23.18a1.22,1.22,0,0,0-.17.15,4,4,0,0,0-.27.4l0,.14a1.07,1.07,0,0,0,0,.65,13.51,13.51,0,0,0-1.42.42l-.1.09a3.83,3.83,0,0,1,.08-.57,1,1,0,0,0,.08-.28s.06-.14,0,0a4.45,4.45,0,0,0-.32,1.78h0s.08.78.08.82.21.21.21.21l.51.19.49.06-.08.09a4.57,4.57,0,0,1-.9.44,4.82,4.82,0,0,1-1,.16c-.09,0-1.07-1-1.07-1l.17-.15a3.75,3.75,0,0,0,.93-.69,5,5,0,0,0,.4-.92l0-.37-.09-.3a3.47,3.47,0,0,1-.08.74,3.48,3.48,0,0,1-.4.8,3.72,3.72,0,0,1-.8.66c-.28.1-.33.06-.33.06l-.83-1.07.1-.14.38-1.74,1-1.8s.31-.62.31-.64.13,0,.16,0a.89.89,0,0,0,.15-.38,1.08,1.08,0,0,0-.07-.28s0-.1.08-.1a.27.27,0,0,1,.35.15A1.12,1.12,0,0,1,8,8.25,2.65,2.65,0,0,1,7.9,9a3,3,0,0,1-.19.47l0,.06,0,0a8.71,8.71,0,0,0-.28.88h0s0,0,0,.08l2.74-1.23.27,0s.53,0,.57.06a.77.77,0,0,1,.51.52A.89.89,0,0,1,11.49,10.35Z"/><path class="cls-23" d="M3.29,19.24l2.25-2.06.84-.78.84-.9L4.86,12.66,4.47,13l-.82.6L3.2,14,1.35,15.66-.12,17.32A11.52,11.52,0,0,0,0,22.1Z"/><path class="cls-24" d="M6.15,14.19,4.89,12.65l-1.23.89L1.37,15.62-.07,17.08a12.16,12.16,0,0,0-.26,2.77Z"/><polygon class="cls-23" points="6.17 13.77 5.1 12.49 4.8 12.72 6.1 14.23 6.38 13.99 6.17 13.77"/><polygon class="cls-24" points="7.5 15.31 6.38 13.99 6.1 14.23 7.26 15.55 7.5 15.31"/><path class="cls-21" d="M12,9.56a1.15,1.15,0,0,0-.73-.65,2.59,2.59,0,0,1-.48-.39h0a2.75,2.75,0,0,0-.5.09.15.15,0,0,1-.16-.08H10l.17,1.12a2.5,2.5,0,0,0,.21.92.72.72,0,0,1,.09-.2.12.12,0,0,1,.05,0s0,0,0,0A1.13,1.13,0,0,1,10.5,10a.71.71,0,0,1,.64-.75.7.7,0,0,1,.63.75.76.76,0,0,1-.39.69.17.17,0,0,1,0,.15.15.15,0,0,1,0,.11.59.59,0,0,0,.4-.23A1.27,1.27,0,0,0,12,9.56Z"/><path class="cls-21" d="M7.87,9.58s0,0,0-.06l0,0s0,0,0,.07a.7.7,0,0,1-.82.53.69.69,0,0,1-.39-.9A.76.76,0,0,1,6.9,8.8L7,8.65a.84.84,0,0,1,.08-.2,1.14,1.14,0,0,0-.58.37A1.3,1.3,0,0,0,6.33,10c.24.59,1.07.43,1.31.31A1.47,1.47,0,0,0,8,9.65v0A.2.2,0,0,1,7.87,9.58Z"/></svg>