<svg id="Layer_1" data-name="Layer 1" xmlns="http://www.w3.org/2000/svg" viewBox="0 0 16 16"><defs><style>.cls-1{fill:#efeff1;}.cls-2{fill:#f2f5f8;}.cls-3{fill:#bec2c7;}.cls-4{fill:#dc813b;}.cls-5{fill:#c75a24;}.cls-6{fill:#322727;}.cls-7{fill:#cbccce;}.cls-8{fill:#bb192a;}.cls-9{fill:#b41728;}.cls-10{fill:#d71827;}.cls-11{fill:#f38920;}.cls-12{fill:#d9eaeb;}.cls-13{fill:#ed5c27;}.cls-14{fill:#263846;}.cls-15{fill:#a7542d;}.cls-16{fill:#f9b93e;}.cls-17{fill:#f8b537;}.cls-18{fill:#fccb5e;}.cls-19{font-size:3.47px;}.cls-19,.cls-20{font-family:MyriadPro-Regular, Myriad Pro;}.cls-20{font-size:3.47px;}.cls-21{fill:#c16431;}.cls-22{fill:#fab622;}.cls-23{fill:#dae5f2;}.cls-24{fill:#93d9f5;}.cls-25{fill:#914627;}</style></defs><rect class="cls-1" width="16" height="16" rx="0.64"/><path class="cls-1" d="M11.19.87A.32.32,0,0,0,11,.67c-.12-.06-.12,0-.12,0s-.05,0-.06.12a1.57,1.57,0,0,0,0,.38.28.28,0,0,0,.1-.06Z"/><rect class="cls-2" x="6.08" y="10.36" width="2.71" height="0.25" transform="translate(20.19 12.06) rotate(132.37)"/><rect class="cls-3" x="5.93" y="10.29" width="2.72" height="0.13" transform="translate(19.86 11.95) rotate(132.37)"/><rect class="cls-4" x="5.5" y="11.82" width="1.19" height="0.25" transform="translate(19.03 15.49) rotate(132.37)"/><rect class="cls-5" x="5.37" y="11.75" width="1.19" height="0.13" transform="translate(18.71 15.38) rotate(132.37)"/><rect class="cls-6" x="6.34" y="11.36" width="0.38" height="0.03" transform="translate(9.39 -1.43) rotate(42.45)"/><rect class="cls-6" x="6.27" y="11.44" width="0.38" height="0.03" transform="translate(9.42 -1.36) rotate(42.45)"/><rect class="cls-2" x="8.01" y="10.07" width="2.71" height="0.25" transform="translate(15.69 -2.12) rotate(69.77)"/><rect class="cls-3" x="7.83" y="10.19" width="2.72" height="0.13" transform="translate(15.64 -1.91) rotate(69.77)"/><rect class="cls-4" x="9.46" y="11.92" width="1.19" height="0.25" transform="translate(17.88 -1.55) rotate(69.77)"/><rect class="cls-5" x="9.28" y="12.05" width="1.19" height="0.13" transform="translate(17.82 -1.34) rotate(69.77)"/><rect class="cls-6" x="9.55" y="11.38" width="0.38" height="0.03" transform="translate(-3.33 4.05) rotate(-20.15)"/><rect class="cls-6" x="9.59" y="11.48" width="0.38" height="0.03" transform="translate(-3.36 4.07) rotate(-20.15)"/><rect class="cls-2" x="8.01" y="10.07" width="2.71" height="0.25" transform="translate(15.69 -2.12) rotate(69.77)"/><rect class="cls-3" x="7.83" y="10.19" width="2.72" height="0.13" transform="translate(15.64 -1.91) rotate(69.77)"/><rect class="cls-4" x="9.46" y="11.92" width="1.19" height="0.25" transform="translate(17.88 -1.55) rotate(69.77)"/><rect class="cls-5" x="9.28" y="12.05" width="1.19" height="0.13" transform="translate(17.82 -1.34) rotate(69.77)"/><rect class="cls-6" x="9.55" y="11.38" width="0.38" height="0.03" transform="translate(-3.33 4.05) rotate(-20.15)"/><rect class="cls-6" x="9.59" y="11.48" width="0.38" height="0.03" transform="translate(-3.36 4.07) rotate(-20.15)"/><rect class="cls-2" x="11.09" y="4.39" width="2.71" height="0.25" transform="translate(21.65 -4.99) rotate(114.15)"/><rect class="cls-3" x="10.91" y="4.38" width="2.72" height="0.13" transform="translate(21.34 -4.94) rotate(114.15)"/><rect class="cls-4" x="11.04" y="6.2" width="1.19" height="0.25" transform="translate(22.16 -1.71) rotate(114.15)"/><rect class="cls-5" x="10.87" y="6.18" width="1.19" height="0.13" transform="translate(21.85 -1.66) rotate(114.15)"/><rect class="cls-6" x="11.68" y="5.62" width="0.38" height="0.03" transform="translate(3.36 -4.37) rotate(24.23)"/><rect class="cls-6" x="11.63" y="5.73" width="0.38" height="0.03" transform="translate(3.4 -4.35) rotate(24.23)"/><rect class="cls-2" x="10.75" y="4.22" width="2.71" height="0.25" transform="translate(21.02 -4.92) rotate(114.15)"/><rect class="cls-3" x="10.57" y="4.2" width="2.72" height="0.13" transform="translate(20.71 -4.87) rotate(114.15)"/><rect class="cls-4" x="10.7" y="6.02" width="1.19" height="0.25" transform="translate(21.52 -1.64) rotate(114.15)"/><rect class="cls-5" x="10.53" y="6.01" width="1.19" height="0.13" transform="translate(21.21 -1.59) rotate(114.15)"/><rect class="cls-6" x="11.34" y="5.45" width="0.38" height="0.03" transform="translate(3.26 -4.25) rotate(24.23)"/><rect class="cls-6" x="11.29" y="5.55" width="0.38" height="0.03" transform="translate(3.3 -4.22) rotate(24.23)"/><rect class="cls-2" x="10.38" y="4.06" width="2.71" height="0.25" transform="translate(20.36 -4.81) rotate(114.15)"/><rect class="cls-3" x="10.21" y="4.04" width="2.72" height="0.13" transform="translate(20.04 -4.76) rotate(114.15)"/><rect class="cls-4" x="10.33" y="5.86" width="1.19" height="0.25" transform="translate(20.86 -1.53) rotate(114.15)"/><rect class="cls-5" x="10.16" y="5.85" width="1.19" height="0.13" transform="translate(20.55 -1.48) rotate(114.15)"/><rect class="cls-6" x="10.97" y="5.29" width="0.38" height="0.03" transform="translate(3.16 -4.11) rotate(24.23)"/><rect class="cls-6" x="10.93" y="5.39" width="0.38" height="0.03" transform="translate(3.2 -4.09) rotate(24.23)"/><rect class="cls-2" x="10.43" y="4.08" width="2.71" height="0.25" transform="translate(20.44 -4.82) rotate(114.15)"/><rect class="cls-3" x="10.25" y="4.06" width="2.72" height="0.13" transform="translate(20.13 -4.77) rotate(114.15)"/><rect class="cls-4" x="10.38" y="5.88" width="1.19" height="0.25" transform="translate(20.94 -1.54) rotate(114.15)"/><rect class="cls-5" x="10.21" y="5.87" width="1.19" height="0.13" transform="translate(20.63 -1.49) rotate(114.15)"/><rect class="cls-6" x="11.02" y="5.31" width="0.38" height="0.03" transform="translate(3.17 -4.13) rotate(24.23)"/><rect class="cls-6" x="10.97" y="5.41" width="0.38" height="0.03" transform="translate(3.21 -4.1) rotate(24.23)"/><rect class="cls-2" x="9.97" y="4.03" width="2.71" height="0.25" transform="translate(19.76 -4.47) rotate(114.15)"/><rect class="cls-3" x="9.8" y="4.02" width="2.72" height="0.13" transform="translate(19.44 -4.42) rotate(114.15)"/><rect class="cls-4" x="9.92" y="5.84" width="1.19" height="0.25" transform="translate(20.26 -1.19) rotate(114.15)"/><rect class="cls-5" x="9.75" y="5.82" width="1.19" height="0.13" transform="translate(19.95 -1.14) rotate(114.15)"/><rect class="cls-6" x="10.56" y="5.27" width="0.38" height="0.03" transform="translate(3.11 -3.95) rotate(24.23)"/><rect class="cls-6" x="10.52" y="5.37" width="0.38" height="0.03" transform="translate(3.15 -3.92) rotate(24.23)"/><rect class="cls-2" x="10" y="4.03" width="2.71" height="0.25" transform="translate(19.8 -4.5) rotate(114.15)"/><rect class="cls-3" x="9.83" y="4.02" width="2.72" height="0.13" transform="translate(19.49 -4.45) rotate(114.15)"/><rect class="cls-4" x="9.95" y="5.84" width="1.19" height="0.25" transform="translate(20.31 -1.22) rotate(114.15)"/><rect class="cls-5" x="9.78" y="5.82" width="1.19" height="0.13" transform="translate(19.99 -1.17) rotate(114.15)"/><rect class="cls-6" x="10.59" y="5.27" width="0.38" height="0.03" transform="translate(3.12 -3.96) rotate(24.23)"/><rect class="cls-6" x="10.55" y="5.37" width="0.38" height="0.03" transform="translate(3.16 -3.93) rotate(24.23)"/><rect class="cls-2" x="8.9" y="3.62" width="2.71" height="0.25" transform="translate(17.86 -4.08) rotate(114.15)"/><rect class="cls-3" x="8.72" y="3.6" width="2.72" height="0.13" transform="translate(17.55 -4.03) rotate(114.15)"/><rect class="cls-4" x="8.85" y="5.42" width="1.19" height="0.25" transform="translate(18.37 -0.79) rotate(114.15)"/><rect class="cls-5" x="8.68" y="5.41" width="1.19" height="0.13" transform="translate(18.06 -0.75) rotate(114.15)"/><rect class="cls-6" x="9.49" y="4.85" width="0.38" height="0.03" transform="translate(2.85 -3.54) rotate(24.23)"/><rect class="cls-6" x="9.44" y="4.95" width="0.38" height="0.03" transform="translate(2.89 -3.51) rotate(24.23)"/><rect class="cls-2" x="8.46" y="3.64" width="2.71" height="0.25" transform="translate(17.28 -3.65) rotate(114.15)"/><rect class="cls-3" x="8.29" y="3.63" width="2.72" height="0.13" transform="translate(16.96 -3.6) rotate(114.15)"/><rect class="cls-4" x="8.42" y="5.44" width="1.19" height="0.25" transform="translate(17.78 -0.37) rotate(114.15)"/><rect class="cls-5" x="8.24" y="5.43" width="1.19" height="0.13" transform="translate(17.47 -0.32) rotate(114.15)"/><rect class="cls-6" x="9.06" y="4.87" width="0.38" height="0.03" transform="translate(2.82 -3.36) rotate(24.23)"/><rect class="cls-6" x="9.01" y="4.97" width="0.38" height="0.03" transform="translate(2.86 -3.34) rotate(24.23)"/><rect class="cls-2" x="8.5" y="3.64" width="2.71" height="0.25" transform="translate(17.33 -3.69) rotate(114.15)"/><rect class="cls-3" x="8.33" y="3.63" width="2.72" height="0.13" transform="translate(17.01 -3.64) rotate(114.15)"/><rect class="cls-4" x="8.45" y="5.44" width="1.19" height="0.25" transform="translate(17.83 -0.41) rotate(114.15)"/><rect class="cls-5" x="8.28" y="5.43" width="1.19" height="0.13" transform="translate(17.52 -0.36) rotate(114.15)"/><rect class="cls-6" x="9.09" y="4.87" width="0.38" height="0.03" transform="translate(2.82 -3.38) rotate(24.23)"/><rect class="cls-6" x="9.05" y="4.97" width="0.38" height="0.03" transform="translate(2.86 -3.35) rotate(24.23)"/><rect class="cls-2" x="7.7" y="3.73" width="2.71" height="0.25" transform="translate(16.18 -2.94) rotate(113.26)"/><rect class="cls-3" x="7.53" y="3.72" width="2.72" height="0.13" transform="translate(15.87 -2.88) rotate(113.26)"/><rect class="cls-4" x="7.68" y="5.55" width="1.19" height="0.25" transform="translate(16.76 0.31) rotate(113.26)"/><rect class="cls-5" x="7.51" y="5.53" width="1.19" height="0.13" transform="translate(16.45 0.37) rotate(113.26)"/><rect class="cls-6" x="8.31" y="4.97" width="0.38" height="0.03" transform="translate(2.67 -2.96) rotate(23.33)"/><rect class="cls-6" x="8.27" y="5.07" width="0.38" height="0.03" transform="translate(2.71 -2.93) rotate(23.33)"/><polygon class="cls-7" points="8.11 5.32 11.54 6.87 11 7.88 7.72 6.39 8.11 5.32"/><rect class="cls-2" x="9.18" y="3.91" width="2.71" height="0.25" transform="translate(18.53 -3.92) rotate(114.15)"/><rect class="cls-3" x="9" y="3.9" width="2.72" height="0.13" transform="translate(18.22 -3.87) rotate(114.15)"/><rect class="cls-4" x="9.13" y="5.72" width="1.19" height="0.25" transform="translate(19.03 -0.64) rotate(114.15)"/><rect class="cls-5" x="8.96" y="5.7" width="1.19" height="0.13" transform="translate(18.72 -0.59) rotate(114.15)"/><rect class="cls-6" x="9.77" y="5.15" width="0.38" height="0.03" transform="translate(3 -3.63) rotate(24.23)"/><rect class="cls-6" x="9.72" y="5.25" width="0.38" height="0.03" transform="translate(3.03 -3.6) rotate(24.23)"/><rect class="cls-2" x="7.93" y="3.87" width="2.71" height="0.25" transform="translate(16.74 -2.84) rotate(114.15)"/><rect class="cls-3" x="7.76" y="3.86" width="2.72" height="0.13" transform="translate(16.42 -2.79) rotate(114.15)"/><rect class="cls-4" x="7.88" y="5.68" width="1.19" height="0.25" transform="translate(17.24 0.44) rotate(114.15)"/><rect class="cls-5" x="7.71" y="5.66" width="1.19" height="0.13" transform="translate(16.93 0.49) rotate(114.15)"/><rect class="cls-6" x="8.52" y="5.11" width="0.38" height="0.03" transform="translate(2.87 -3.12) rotate(24.23)"/><rect class="cls-6" x="8.48" y="5.21" width="0.38" height="0.03" transform="translate(2.91 -3.1) rotate(24.23)"/><rect class="cls-2" x="8.18" y="3.87" width="2.71" height="0.25" transform="translate(17.08 -3.07) rotate(114.15)"/><rect class="cls-3" x="8" y="3.85" width="2.72" height="0.13" transform="translate(16.77 -3.02) rotate(114.15)"/><rect class="cls-4" x="8.13" y="5.67" width="1.19" height="0.25" transform="translate(17.58 0.21) rotate(114.15)"/><rect class="cls-5" x="7.96" y="5.66" width="1.19" height="0.13" transform="translate(17.27 0.26) rotate(114.15)"/><rect class="cls-6" x="8.77" y="5.1" width="0.38" height="0.03" transform="translate(2.89 -3.23) rotate(24.23)"/><rect class="cls-6" x="8.73" y="5.2" width="0.38" height="0.03" transform="translate(2.93 -3.2) rotate(24.23)"/><rect class="cls-2" x="9.18" y="3.91" width="2.71" height="0.25" transform="translate(18.53 -3.92) rotate(114.15)"/><rect class="cls-3" x="9" y="3.9" width="2.72" height="0.13" transform="translate(18.22 -3.87) rotate(114.15)"/><rect class="cls-4" x="9.13" y="5.72" width="1.19" height="0.25" transform="translate(19.03 -0.64) rotate(114.15)"/><rect class="cls-5" x="8.96" y="5.7" width="1.19" height="0.13" transform="translate(18.72 -0.59) rotate(114.15)"/><rect class="cls-6" x="9.77" y="5.15" width="0.38" height="0.03" transform="translate(3 -3.63) rotate(24.23)"/><rect class="cls-6" x="9.72" y="5.25" width="0.38" height="0.03" transform="translate(3.03 -3.6) rotate(24.23)"/><rect class="cls-2" x="9.57" y="4.05" width="2.71" height="0.25" transform="translate(19.21 -4.08) rotate(114.15)"/><rect class="cls-3" x="9.39" y="4.04" width="2.72" height="0.13" transform="translate(18.89 -4.03) rotate(114.15)"/><rect class="cls-4" x="9.52" y="5.86" width="1.19" height="0.25" transform="translate(19.71 -0.8) rotate(114.15)"/><rect class="cls-5" x="9.35" y="5.84" width="1.19" height="0.13" transform="translate(19.4 -0.75) rotate(114.15)"/><rect class="cls-6" x="10.16" y="5.29" width="0.38" height="0.03" transform="translate(3.09 -3.78) rotate(24.23)"/><rect class="cls-6" x="10.12" y="5.39" width="0.38" height="0.03" transform="translate(3.12 -3.75) rotate(24.23)"/><rect class="cls-2" x="8.49" y="5.81" width="2.71" height="0.25" transform="translate(18.64 -1.47) rotate(108.85)"/><rect class="cls-3" x="8.31" y="5.81" width="2.72" height="0.13" transform="translate(18.34 -1.38) rotate(108.85)"/><rect class="cls-4" x="8.61" y="7.68" width="1.19" height="0.25" transform="translate(19.56 1.61) rotate(108.85)"/><rect class="cls-5" x="8.43" y="7.68" width="1.19" height="0.13" transform="translate(19.27 1.7) rotate(108.85)"/><rect class="cls-6" x="9.19" y="7.09" width="0.38" height="0.03" transform="translate(2.81 -2.66) rotate(18.92)"/><rect class="cls-6" x="9.15" y="7.19" width="0.38" height="0.03" transform="translate(2.84 -2.64) rotate(18.92)"/><path class="cls-8" d="M9.76,1.66l1,.45a1.06,1.06,0,0,1,.5-.12,1,1,0,0,1,1,.78l1,.45.69-1.51L10.44.15,9.66,1.88Z"/><path class="cls-9" d="M11.69,3.92a.94.94,0,0,1-.5.11,1,1,0,0,1-1-.78l-1-.45L8.65,4.11l3.44,1.56.69-1.52-.1.22Z"/><path class="cls-10" d="M11.65,4a.94.94,0,0,1-.5.11,1,1,0,0,1-1-.78l-1-.45-.6,1.31,3.44,1.56.69-1.52-.1.22Z"/><path class="cls-11" d="M9.24,2.8l.52-1.14,1,.45a1.06,1.06,0,0,1,.5-.12,1,1,0,0,1,1,.78l1,.45-.52,1.15-1-.45a.94.94,0,0,1-.5.11,1,1,0,0,1-1-.78Z"/><path class="cls-10" d="M9.8,1.58l1,.45a1,1,0,0,1,.51-.12,1,1,0,0,1,1,.78l1,.45.69-1.52L10.48.07,9.7,1.79Z"/><path class="cls-12" d="M8.64,4.13l3.44,1.55-.47,1-.1,0a.42.42,0,0,1-.17-.42l.08-.62-2.28-1L8.73,5a.42.42,0,0,1-.43.16l-.1-.05Z"/><path class="cls-13" d="M1.28,10.95H7.41a0,0,0,0,1,0,0v.83a3.06,3.06,0,0,1-3.06,3.06h0a3.06,3.06,0,0,1-3.06-3.06v-.83a0,0,0,0,1,0,0Z"/><path class="cls-14" d="M14.38,8.61H1.43a.62.62,0,0,0-.62.62V14.3a.63.63,0,0,0,.62.63h6a.58.58,0,0,1,1,0h6A.63.63,0,0,0,15,14.3V9.23A.62.62,0,0,0,14.38,8.61Z"/><path class="cls-15" d="M14.21,8.69H1.6a.6.6,0,0,0-.6.6v4.89a.6.6,0,0,0,.6.61H7.43a.55.55,0,0,1,1,0h5.83a.6.6,0,0,0,.6-.61V9.29A.6.6,0,0,0,14.21,8.69Z"/><circle class="cls-14" cx="3.19" cy="8.49" r="1.76"/><circle class="cls-16" cx="3.19" cy="8.49" r="1.63"/><circle class="cls-14" cx="3.19" cy="8.49" r="1.5"/><circle class="cls-17" cx="3.19" cy="8.49" r="1.36"/><polygon class="cls-18" points="3.05 8.52 3.73 7.47 3.96 7.61 2.69 9.51 2.42 9.44 3.05 8.52"/><text class="cls-19" transform="translate(2.14 9.63)">€</text><circle class="cls-14" cx="5.9" cy="8.5" r="1.76"/><circle class="cls-16" cx="5.9" cy="8.5" r="1.63"/><circle class="cls-14" cx="5.9" cy="8.5" r="1.5"/><circle class="cls-17" cx="5.9" cy="8.5" r="1.36"/><polygon class="cls-18" points="5.76 8.46 6.87 7.87 7 8.11 4.97 9.15 4.77 8.96 5.76 8.46"/><text class="cls-20" transform="translate(4.43 8.99) rotate(28.95)">€</text><rect class="cls-2" x="8.43" y="7.57" width="2.71" height="0.25" transform="translate(20.81 1.92) rotate(114.15)"/><rect class="cls-3" x="8.25" y="7.56" width="2.72" height="0.13" transform="translate(20.5 1.97) rotate(114.15)"/><rect class="cls-4" x="8.38" y="9.38" width="1.19" height="0.25" transform="translate(21.32 5.2) rotate(114.15)"/><rect class="cls-5" x="8.21" y="9.36" width="1.19" height="0.13" transform="translate(21.01 5.25) rotate(114.15)"/><rect class="cls-6" x="9.02" y="8.81" width="0.38" height="0.03" transform="translate(4.43 -3) rotate(24.23)"/><rect class="cls-6" x="8.97" y="8.91" width="0.38" height="0.03" transform="translate(4.47 -2.97) rotate(24.23)"/><rect class="cls-2" x="8.55" y="9.51" width="2.71" height="0.25" transform="translate(20.33 0.56) rotate(94.77)"/><rect class="cls-3" x="8.36" y="9.55" width="2.72" height="0.13" transform="translate(20.11 0.73) rotate(94.77)"/><rect class="cls-4" x="9.15" y="11.48" width="1.19" height="0.25" transform="translate(22.11 2.86) rotate(94.77)"/><rect class="cls-5" x="8.96" y="11.52" width="1.19" height="0.13" transform="translate(21.89 3.03) rotate(94.77)"/><rect class="cls-6" x="9.55" y="10.86" width="0.38" height="0.03" transform="translate(0.95 -0.78) rotate(4.85)"/><rect class="cls-6" x="9.54" y="10.97" width="0.38" height="0.03" transform="translate(0.96 -0.78) rotate(4.85)"/><rect class="cls-2" x="6.66" y="9.55" width="2.71" height="0.25" transform="translate(18.33 2.49) rotate(94.77)"/><rect class="cls-3" x="6.47" y="9.6" width="2.72" height="0.13" transform="translate(18.11 2.66) rotate(94.77)"/><rect class="cls-4" x="7.26" y="11.52" width="1.19" height="0.25" transform="translate(20.11 4.79) rotate(94.77)"/><rect class="cls-5" x="7.07" y="11.57" width="1.19" height="0.13" transform="translate(19.89 4.96) rotate(94.77)"/><rect class="cls-6" x="7.66" y="10.91" width="0.38" height="0.03" transform="translate(0.95 -0.62) rotate(4.85)"/><rect class="cls-6" x="7.65" y="11.02" width="0.38" height="0.03" transform="translate(0.96 -0.62) rotate(4.85)"/><path class="cls-14" d="M14.38,9.17H1.43a.62.62,0,0,0-.62.62v5.08a.62.62,0,0,0,.62.62h6a.58.58,0,0,1,1,0h6a.62.62,0,0,0,.62-.62V9.79A.62.62,0,0,0,14.38,9.17Z"/><path class="cls-15" d="M14.21,9.25H1.6a.6.6,0,0,0-.6.6v4.89a.6.6,0,0,0,.6.61H7.43a.55.55,0,0,1,1,0h5.83a.6.6,0,0,0,.6-.61V9.85A.6.6,0,0,0,14.21,9.25Z"/><rect class="cls-21" x="7.83" y="9.83" width="0.18" height="5.02" rx="0.09"/><rect class="cls-21" x="10.35" y="14.87" width="0.98" height="0.22" rx="0.11"/><path class="cls-21" d="M11.82,15.06h2.3s.5-.16.5-.58V12a.13.13,0,0,0-.19,0v2.49a.49.49,0,0,1-.33.41H11.82S11.73,15,11.82,15.06Z"/><path class="cls-22" d="M9.64,9.66h3.7a.79.79,0,0,1,.79.79v0a0,0,0,0,1,0,0H8.85a0,0,0,0,1,0,0v0A.79.79,0,0,1,9.64,9.66Z"/><path class="cls-11" d="M9.66,9.78h3.66a.64.64,0,0,1,.64.64v0a0,0,0,0,1,0,0H9a0,0,0,0,1,0,0v0A.64.64,0,0,1,9.66,9.78Z"/><path class="cls-23" d="M9.64,10.71h3.7a.79.79,0,0,1,.79.79v0a0,0,0,0,1,0,0H8.85a0,0,0,0,1,0,0v0a.79.79,0,0,1,.79-.79Z"/><path class="cls-24" d="M9.66,10.83h3.66a.64.64,0,0,1,.64.64v0a0,0,0,0,1,0,0H9a0,0,0,0,1,0,0v0A.64.64,0,0,1,9.66,10.83Z"/><path class="cls-25" d="M14.4,9.88s0,.64-.5.66-2.17,0-2.17,0h-.57s-1.66,0-2.16,0-.5-.66-.5-.66a.08.08,0,0,1,.15,0c-.08.37.35.51.35.51h4.9s.42-.14.35-.51A.08.08,0,0,1,14.4,9.88Z"/><path class="cls-25" d="M7.3,9.88s0,.64-.5.66-2.17,0-2.17,0H4.06s-1.66,0-2.16,0-.5-.66-.5-.66a.08.08,0,0,1,.15,0c-.08.37.35.51.35.51H6.8s.42-.14.35-.51A.08.08,0,0,1,7.3,9.88Z"/><path class="cls-25" d="M14.44,11s0,.65-.5.67-2.17,0-2.17,0H11.2s-1.66,0-2.17,0-.5-.67-.5-.67.15,0,.15,0c-.07.38.35.52.35.52h4.91s.42-.14.35-.52C14.29,11,14.34,10.88,14.44,11Z"/><path class="cls-25" d="M1.4,10.92H7.3a0,0,0,0,1,0,0v1a3,3,0,0,1-3,3h0a3,3,0,0,1-3-3v-1a0,0,0,0,1,0,0Z"/><rect class="cls-13" x="1.55" y="11.12" width="5.59" height="3.55"/><rect class="cls-25" x="1.88" y="11.53" width="1.65" height="2"/><rect class="cls-24" x="1.99" y="11.59" width="1.43" height="1.87"/><rect class="cls-25" x="3.91" y="11.47" width="2.95" height="0.23" rx="0.11"/><rect class="cls-25" x="3.91" y="12.08" width="2.11" height="0.23" rx="0.11"/><rect class="cls-25" x="3.91" y="12.71" width="2.11" height="0.23" rx="0.11"/></svg>