<svg id="Layer_1" data-name="Layer 1" xmlns="http://www.w3.org/2000/svg" viewBox="0 0 16 16"><defs><style>.cls-1{fill:#ce2b1d;}.cls-2{fill:#cadce6;}.cls-3{fill:#9c9c9c;}.cls-4{fill:#898989;}.cls-5{fill:#e02f22;}.cls-6{fill:#cc2a1d;}.cls-7{fill:#b9251a;}.cls-8{fill:#ac8e89;}.cls-9{fill:#b5c3c9;}.cls-10{fill:#c0ccd0;}.cls-11{fill:#a4b4b9;}.cls-12{fill:#afafaf;}.cls-13{fill:#c8c8c8;}.cls-14{fill:#939393;}.cls-15{fill:#b0b0b0;}.cls-16{fill:#c6c6c6;}.cls-17{fill:#aeaeae;}.cls-18{fill:#969696;}.cls-19{fill:#989898;}.cls-20{fill:#cacaca;}</style></defs><rect class="cls-1" x="5.54" y="5.71" width="1.75" height="8.99" transform="translate(7.47 -1.81) rotate(37.19)"/><rect class="cls-2" x="10.28" y="2.86" width="1.38" height="2.79" transform="translate(4.8 -5.76) rotate(37.19)"/><rect class="cls-3" x="9.11" y="4.72" width="0.21" height="1.18" rx="0.06" transform="translate(13.35 15.11) rotate(-142.81)"/><rect class="cls-4" x="10.33" y="5.64" width="0.19" height="1.18" rx="0.05" transform="translate(14.96 17.49) rotate(-142.81)"/><rect class="cls-5" x="5.93" y="5.43" width="0.28" height="8.86" transform="translate(7.2 -1.66) rotate(37.19)"/><rect class="cls-6" x="6.13" y="5.65" width="0.45" height="8.87" transform="translate(7.39 -1.79) rotate(37.19)"/><rect class="cls-7" x="6.48" y="5.97" width="0.58" height="8.87" transform="translate(7.66 -1.98) rotate(37.19)"/><rect class="cls-8" x="8.17" y="6.48" width="2.08" height="0.2" rx="0.06" transform="translate(5.85 -4.23) rotate(37.19)"/><rect class="cls-9" x="11" y="2.97" width="0.31" height="2.64" transform="translate(4.86 -5.87) rotate(37.19)"/><rect class="cls-10" x="10.77" y="2.78" width="0.31" height="2.65" transform="translate(4.7 -5.77) rotate(37.19)"/><path class="cls-11" d="M9.87,5.12h.68a.17.17,0,0,1,.17.17v.13a0,0,0,0,1,0,0h-1a0,0,0,0,1,0,0V5.29A.17.17,0,0,1,9.87,5.12Z" transform="translate(5.26 -5.1) rotate(37.19)"/><rect class="cls-3" x="9.44" y="5.07" width="0.5" height="1.13" transform="translate(14 15.98) rotate(-142.81)"/><rect class="cls-12" x="9.25" y="4.84" width="0.26" height="1.14" transform="translate(13.58 15.39) rotate(-142.81)"/><rect class="cls-13" x="8.41" y="6.18" width="2.08" height="0.18" rx="0.05" transform="translate(5.71 -4.44) rotate(37.19)"/><rect class="cls-14" x="9.81" y="5.42" width="0.67" height="1.12" transform="translate(14.61 16.87) rotate(-142.81)"/><rect class="cls-15" x="9.96" y="6.79" width="0.21" height="0.4" transform="translate(13.87 18.64) rotate(-142.81)"/><rect class="cls-14" x="9.58" y="6.59" width="0.48" height="0.4" transform="translate(13.53 18.14) rotate(-142.81)"/><rect class="cls-12" x="8.89" y="6.2" width="0.82" height="0.4" transform="translate(5.76 -4.32) rotate(37.19)"/><rect class="cls-16" x="8.55" y="5.81" width="0.47" height="0.4" transform="translate(5.42 -4.09) rotate(37.19)"/><rect class="cls-17" x="8.48" y="5.63" width="0.14" height="0.41" transform="translate(5.26 -3.98) rotate(37.19)"/><polygon class="cls-18" points="12.7 1.3 12.64 1.45 12.51 1.67 12.36 1.87 12.21 2.06 12.1 2.19 11.97 2.32 11.88 2.4 12.54 2.91 12.62 2.72 12.74 2.5 12.95 2.24 13.12 2.03 13.27 1.88 13.37 1.8 12.7 1.3"/><rect class="cls-19" x="11.48" y="2.61" width="1.24" height="0.31" rx="0.09" transform="translate(4.13 -6.75) rotate(37.19)"/><rect class="cls-12" x="12.56" y="1.33" width="1.09" height="0.27" rx="0.08" transform="translate(3.55 -7.62) rotate(37.19)"/><rect class="cls-20" x="11.2" y="2.8" width="1.65" height="0.18" rx="0.05" transform="translate(4.19 -6.68) rotate(37.19)"/><rect class="cls-12" x="11.56" y="2.84" width="0.69" height="0.34" transform="translate(4.24 -6.58) rotate(37.19)"/><rect class="cls-15" x="12.47" y="3.33" width="0.18" height="0.34" transform="translate(20.44 13.88) rotate(-142.81)"/><rect class="cls-14" x="12.14" y="3.17" width="0.41" height="0.34" transform="matrix(-0.8, -0.6, 0.6, -0.8, 20.16, 13.46)"/><rect class="cls-16" x="11.28" y="2.51" width="0.38" height="0.34" transform="translate(3.96 -6.39) rotate(37.19)"/><rect class="cls-17" x="11.22" y="2.36" width="0.11" height="0.34" transform="translate(3.82 -6.3) rotate(37.19)"/></svg>