<svg id="Layer_1" data-name="Layer 1" xmlns="http://www.w3.org/2000/svg" viewBox="0 0 16 16"><defs><style>.cls-1{fill:#efeff1;}.cls-2{fill:#5e5f61;}.cls-3{fill:#323031;}.cls-4{fill:#4d4e50;}.cls-5{fill:#201d1d;}.cls-6{fill:#5a5e5f;}.cls-7{fill:#ce2b1d;}.cls-8{fill:#cadce6;}.cls-9{fill:#9c9c9c;}.cls-10{fill:#898989;}.cls-11{fill:#e02f22;}.cls-12{fill:#cc2a1d;}.cls-13{fill:#b9251a;}.cls-14{fill:#ac8e89;}.cls-15{fill:#b5c3c9;}.cls-16{fill:#c0ccd0;}.cls-17{fill:#a4b4b9;}.cls-18{fill:#afafaf;}.cls-19{fill:#c8c8c8;}.cls-20{fill:#939393;}.cls-21{fill:#b0b0b0;}.cls-22{fill:#c6c6c6;}.cls-23{fill:#aeaeae;}.cls-24{fill:#969696;}.cls-25{fill:#989898;}.cls-26{fill:#cacaca;}</style></defs><rect class="cls-1" width="16" height="16" rx="0.64"/><path class="cls-2" d="M8.32,15.54H5.87a.31.31,0,0,1-.23-.15C5.59,15.26,4.48,8,4.48,8l.35,0h3.5Z"/><polygon class="cls-3" points="5.32 8.68 6.25 14.79 6.69 14.79 5.97 8.67 5.32 8.68"/><polygon class="cls-3" points="6.67 8.67 7.32 8.67 7.62 14.78 7.18 14.78 6.67 8.67"/><polygon class="cls-3" points="8 8.67 8.33 8.67 8.33 14.78 8.1 14.78 8 8.67"/><path class="cls-4" d="M8.32,15.54h2.46a.29.29,0,0,0,.22-.15c.05-.12.95-6,1.13-7.21A.2.2,0,0,0,12,8H8.32Z"/><polygon class="cls-5" points="11.33 8.68 10.39 14.79 9.96 14.79 10.67 8.67 11.33 8.68"/><polygon class="cls-5" points="9.97 8.67 9.33 8.67 9.03 14.78 9.46 14.78 9.97 8.67"/><polygon class="cls-5" points="8.65 8.67 8.31 8.67 8.31 14.78 8.54 14.78 8.65 8.67"/><rect class="cls-4" x="5.11" y="0.31" width="0.93" height="8.07" rx="0.34" transform="translate(1.79 -1.62) rotate(19.68)"/><path class="cls-6" d="M6.75.48a.3.3,0,0,0-.37.21l-.85,2.4-.59-.2A.18.18,0,0,0,4.72,3L4.07,4.89a.18.18,0,0,0,.11.22l.55.19L3.89,7.68a.3.3,0,0,0,.14.4l.22.08L7,.55Zm-2,4.36a.18.18,0,0,1-.11-.22l.35-1a.18.18,0,0,1,.22-.11l.12,0L4.89,4.87Z"/><path class="cls-1" d="M11.19.87A.32.32,0,0,0,11,.67c-.12-.06-.12,0-.12,0s-.05,0-.06.12a1.57,1.57,0,0,0,0,.38.28.28,0,0,0,.1-.06Z"/><rect class="cls-7" x="5.25" y="6.02" width="1.75" height="8.99" transform="translate(7.6 -1.56) rotate(37.19)"/><rect class="cls-8" x="9.98" y="3.17" width="1.38" height="2.79" transform="translate(4.93 -5.52) rotate(37.19)"/><rect class="cls-9" x="8.82" y="5.03" width="0.21" height="1.18" rx="0.06" transform="translate(12.63 15.49) rotate(-142.81)"/><rect class="cls-10" x="10.03" y="5.95" width="0.19" height="1.18" rx="0.05" transform="translate(14.24 17.87) rotate(-142.81)"/><rect class="cls-11" x="5.63" y="5.74" width="0.28" height="8.86" transform="translate(7.32 -1.42) rotate(37.19)"/><rect class="cls-12" x="5.83" y="5.96" width="0.45" height="8.87" transform="translate(7.52 -1.55) rotate(37.19)"/><rect class="cls-13" x="6.18" y="6.28" width="0.58" height="8.87" transform="translate(7.79 -1.73) rotate(37.19)"/><rect class="cls-14" x="7.88" y="6.79" width="2.08" height="0.2" rx="0.06" transform="translate(5.98 -3.99) rotate(37.19)"/><rect class="cls-15" x="10.7" y="3.28" width="0.31" height="2.64" transform="translate(4.99 -5.63) rotate(37.19)"/><rect class="cls-16" x="10.47" y="3.09" width="0.31" height="2.65" transform="translate(4.83 -5.53) rotate(37.19)"/><path class="cls-17" d="M9.57,5.43h.68a.17.17,0,0,1,.17.17v.13a0,0,0,0,1,0,0h-1a0,0,0,0,1,0,0V5.6A.17.17,0,0,1,9.57,5.43Z" transform="translate(5.39 -4.86) rotate(37.19)"/><rect class="cls-9" x="9.14" y="5.38" width="0.5" height="1.13" transform="translate(13.28 16.36) rotate(-142.81)"/><rect class="cls-18" x="8.96" y="5.15" width="0.26" height="1.14" transform="translate(12.87 15.77) rotate(-142.81)"/><rect class="cls-19" x="8.11" y="6.49" width="2.08" height="0.18" rx="0.05" transform="translate(5.84 -4.19) rotate(37.19)"/><rect class="cls-20" x="9.52" y="5.73" width="0.67" height="1.12" transform="translate(13.89 17.25) rotate(-142.81)"/><rect class="cls-21" x="9.67" y="7.1" width="0.21" height="0.4" transform="translate(13.15 19.02) rotate(-142.81)"/><rect class="cls-20" x="9.28" y="6.9" width="0.48" height="0.4" transform="translate(12.81 18.52) rotate(-142.81)"/><rect class="cls-18" x="8.59" y="6.51" width="0.82" height="0.4" transform="translate(5.89 -4.08) rotate(37.19)"/><rect class="cls-22" x="8.25" y="6.12" width="0.47" height="0.4" transform="translate(5.55 -3.85) rotate(37.19)"/><rect class="cls-23" x="8.19" y="5.94" width="0.14" height="0.41" transform="translate(5.39 -3.74) rotate(37.19)"/><polygon class="cls-24" points="12.41 1.62 12.35 1.76 12.21 1.98 12.07 2.18 11.92 2.37 11.81 2.5 11.68 2.63 11.58 2.71 12.24 3.22 12.33 3.03 12.45 2.81 12.65 2.55 12.82 2.34 12.97 2.19 13.08 2.11 12.41 1.62"/><rect class="cls-25" x="11.18" y="2.92" width="1.24" height="0.31" rx="0.09" transform="matrix(0.8, 0.6, -0.6, 0.8, 4.26, -6.51)"/><rect class="cls-18" x="12.26" y="1.64" width="1.09" height="0.27" rx="0.08" transform="translate(3.68 -7.38) rotate(37.19)"/><rect class="cls-26" x="10.91" y="3.12" width="1.65" height="0.18" rx="0.05" transform="translate(4.32 -6.44) rotate(37.19)"/><rect class="cls-18" x="11.26" y="3.15" width="0.69" height="0.34" transform="translate(4.37 -6.34) rotate(37.19)"/><rect class="cls-21" x="12.17" y="3.64" width="0.18" height="0.34" transform="translate(19.72 14.26) rotate(-142.81)"/><rect class="cls-20" x="11.85" y="3.48" width="0.41" height="0.34" transform="matrix(-0.8, -0.6, 0.6, -0.8, 19.44, 13.84)"/><rect class="cls-22" x="10.99" y="2.82" width="0.38" height="0.34" transform="matrix(0.8, 0.6, -0.6, 0.8, 4.08, -6.15)"/><rect class="cls-23" x="10.93" y="2.67" width="0.11" height="0.34" transform="translate(3.95 -6.06) rotate(37.19)"/></svg>