<svg id="Layer_1" data-name="Layer 1" xmlns="http://www.w3.org/2000/svg" viewBox="0 0 16 16"><defs><style>.cls-1{fill:#efeff1;}.cls-2{fill:#f2f5f8;}.cls-3{fill:#bec2c7;}.cls-4{fill:#dc813b;}.cls-5{fill:#c75a24;}.cls-6{fill:#322727;}.cls-7{fill:#ed5c27;}.cls-8{fill:#263846;}.cls-9{fill:#a7542d;}.cls-10{fill:#f9b93e;}.cls-11{fill:#f8b537;}.cls-12{fill:#fccb5e;}.cls-13{font-size:3.47px;}.cls-13,.cls-32{font-family:MyriadPro-Regular, Myriad Pro;}.cls-14{fill:#cccc1f;}.cls-15{fill:#cadce6;}.cls-16{fill:#9c9c9c;}.cls-17{fill:#898989;}.cls-18{fill:#b9dd24;}.cls-19{fill:#ac8e89;}.cls-20{fill:#b5c3c9;}.cls-21{fill:#c0ccd0;}.cls-22{fill:#a4b4b9;}.cls-23{fill:#afafaf;}.cls-24{fill:#c8c8c8;}.cls-25{fill:#939393;}.cls-26{fill:#b0b0b0;}.cls-27{fill:#c6c6c6;}.cls-28{fill:#aeaeae;}.cls-29{fill:#969696;}.cls-30{fill:#989898;}.cls-31{fill:#cacaca;}.cls-32{font-size:3.47px;}.cls-33{fill:#c16431;}.cls-34{fill:#fab622;}.cls-35{fill:#f38920;}.cls-36{fill:#dae5f2;}.cls-37{fill:#93d9f5;}.cls-38{fill:#914627;}.cls-39{fill:#ce2b1d;}.cls-40{fill:#e02f22;}.cls-41{fill:#cc2a1d;}.cls-42{fill:#b9251a;}</style></defs><rect class="cls-1" width="16" height="16" rx="0.64"/><rect class="cls-2" x="7.02" y="10.36" width="2.71" height="0.25" transform="translate(10.48 -2.77) rotate(47.63)"/><rect class="cls-3" x="7.16" y="10.29" width="2.72" height="0.13" transform="translate(10.43 -2.92) rotate(47.63)"/><rect class="cls-4" x="9.12" y="11.82" width="1.19" height="0.25" transform="matrix(0.67, 0.74, -0.74, 0.67, 11.99, -3.28)"/><rect class="cls-5" x="9.26" y="11.75" width="1.19" height="0.13" transform="translate(11.94 -3.42) rotate(47.63)"/><rect class="cls-6" x="9.09" y="11.36" width="0.38" height="0.03" transform="translate(23.8 13.5) rotate(137.55)"/><rect class="cls-6" x="9.16" y="11.44" width="0.38" height="0.03" transform="translate(23.98 13.6) rotate(137.55)"/><rect class="cls-2" x="5.09" y="10.07" width="2.71" height="0.25" transform="translate(18.23 7.67) rotate(110.23)"/><rect class="cls-3" x="5.26" y="10.19" width="2.72" height="0.13" transform="translate(18.54 7.59) rotate(110.23)"/><rect class="cls-4" x="5.17" y="11.92" width="1.19" height="0.25" transform="translate(19.06 10.81) rotate(110.23)"/><rect class="cls-5" x="5.34" y="12.05" width="1.19" height="0.13" transform="translate(19.36 10.73) rotate(110.23)"/><rect class="cls-6" x="5.88" y="11.38" width="0.38" height="0.03" transform="translate(7.84 24.19) rotate(-159.85)"/><rect class="cls-6" x="5.84" y="11.48" width="0.38" height="0.03" transform="translate(7.73 24.37) rotate(-159.85)"/><rect class="cls-2" x="5.09" y="10.07" width="2.71" height="0.25" transform="translate(18.23 7.67) rotate(110.23)"/><rect class="cls-3" x="5.26" y="10.19" width="2.72" height="0.13" transform="translate(18.54 7.59) rotate(110.23)"/><rect class="cls-4" x="5.17" y="11.92" width="1.19" height="0.25" transform="translate(19.06 10.81) rotate(110.23)"/><rect class="cls-5" x="5.34" y="12.05" width="1.19" height="0.13" transform="translate(19.36 10.73) rotate(110.23)"/><rect class="cls-6" x="5.88" y="11.38" width="0.38" height="0.03" transform="translate(7.84 24.19) rotate(-159.85)"/><rect class="cls-6" x="5.84" y="11.48" width="0.38" height="0.03" transform="translate(7.73 24.37) rotate(-159.85)"/><path class="cls-7" d="M11.46,10.95h0A3.06,3.06,0,0,1,14.53,14v.83a0,0,0,0,1,0,0H8.4a0,0,0,0,1,0,0V14A3.06,3.06,0,0,1,11.46,10.95Z" transform="translate(22.93 25.79) rotate(-180)"/><path class="cls-8" d="M1.43,8.61h13a.62.62,0,0,1,.62.62V14.3a.63.63,0,0,1-.62.63h-6a.56.56,0,0,0-.49-.28.54.54,0,0,0-.49.28h-6a.63.63,0,0,1-.62-.63V9.23A.62.62,0,0,1,1.43,8.61Z"/><path class="cls-9" d="M1.6,8.69H14.21a.6.6,0,0,1,.6.6v4.89a.6.6,0,0,1-.6.61H8.38a.55.55,0,0,0-1,0H1.6a.6.6,0,0,1-.6-.61V9.29A.6.6,0,0,1,1.6,8.69Z"/><circle class="cls-8" cx="9.91" cy="8.49" r="1.76"/><circle class="cls-10" cx="9.91" cy="8.49" r="1.63"/><circle class="cls-8" cx="9.91" cy="8.49" r="1.5"/><circle class="cls-11" cx="9.91" cy="8.49" r="1.36"/><polygon class="cls-12" points="9.76 8.52 10.44 7.47 10.68 7.61 9.4 9.51 9.14 9.44 9.76 8.52"/><text class="cls-13" transform="translate(8.85 9.63)">€</text><rect class="cls-14" x="9.07" y="4.78" width="1.75" height="8.99" transform="matrix(0.6, -0.8, 0.8, 0.6, -3.46, 11.6)"/><rect class="cls-15" x="3.31" y="3.34" width="1.38" height="2.79" transform="translate(-2.19 5.06) rotate(-52.81)"/><rect class="cls-16" x="4.95" y="5.89" width="0.21" height="1.18" rx="0.06" transform="translate(13.27 6.38) rotate(127.19)"/><rect class="cls-17" x="5.87" y="4.69" width="0.19" height="1.18" rx="0.05" transform="translate(13.78 3.71) rotate(127.19)"/><rect class="cls-18" x="9.47" y="5.2" width="0.28" height="8.86" transform="translate(-3.88 11.46) rotate(-52.81)"/><rect class="cls-14" x="9.6" y="4.91" width="0.45" height="8.87" transform="translate(-3.56 11.53) rotate(-52.81)"/><rect class="cls-18" x="9.85" y="4.5" width="0.58" height="8.87" transform="translate(-3.11 11.61) rotate(-52.81)"/><rect class="cls-19" x="5.28" y="6.39" width="2.08" height="0.2" rx="0.06" transform="translate(-2.67 7.6) rotate(-52.81)"/><rect class="cls-20" x="3.87" y="3.22" width="0.31" height="2.64" transform="translate(-2.03 5.01) rotate(-52.81)"/><rect class="cls-21" x="3.69" y="3.45" width="0.31" height="2.65" transform="translate(-2.29 4.95) rotate(-52.81)"/><path class="cls-22" d="M4.67,5.34h.68a.17.17,0,0,1,.17.17v.13a0,0,0,0,1,0,0h-1a0,0,0,0,1,0,0V5.52A.17.17,0,0,1,4.67,5.34Z" transform="translate(-2.39 6.17) rotate(-52.81)"/><rect class="cls-16" x="5.13" y="5.45" width="0.5" height="1.13" transform="translate(13.42 5.37) rotate(127.19)"/><rect class="cls-23" x="5.02" y="5.75" width="0.26" height="1.14" transform="translate(13.3 6.04) rotate(127.19)"/><rect class="cls-24" x="4.97" y="6.16" width="2.08" height="0.18" rx="0.05" transform="translate(-2.61 7.26) rotate(-52.81)"/><rect class="cls-25" x="5.39" y="5" width="0.67" height="1.12" transform="translate(13.6 4.36) rotate(127.19)"/><rect class="cls-26" x="6.62" y="5.43" width="0.21" height="0.4" transform="matrix(-0.6, 0.8, -0.8, -0.6, 15.28, 3.67)"/><rect class="cls-25" x="6.3" y="5.68" width="0.48" height="0.4" transform="translate(15.17 4.23) rotate(127.19)"/><rect class="cls-23" x="5.73" y="6.2" width="0.82" height="0.4" transform="translate(-2.67 7.43) rotate(-52.81)"/><rect class="cls-27" x="5.52" y="6.72" width="0.47" height="0.4" transform="translate(-3.24 7.32) rotate(-52.81)"/><rect class="cls-28" x="5.51" y="6.94" width="0.14" height="0.41" transform="translate(-3.49 7.27) rotate(-52.81)"/><polygon class="cls-29" points="1.05 3 1.19 3.06 1.41 3.19 1.61 3.34 1.8 3.49 1.93 3.6 2.06 3.73 2.15 3.83 2.65 3.16 2.46 3.08 2.25 2.96 1.98 2.75 1.77 2.58 1.62 2.43 1.54 2.33 1.05 3"/><rect class="cls-30" x="1.88" y="3.45" width="1.24" height="0.31" rx="0.09" transform="translate(-1.88 3.42) rotate(-52.81)"/><rect class="cls-23" x="0.66" y="2.46" width="1.09" height="0.27" rx="0.08" transform="translate(-1.59 1.99) rotate(-52.81)"/><rect class="cls-31" x="1.81" y="3.58" width="1.65" height="0.18" rx="0.05" transform="translate(-1.88 3.55) rotate(-52.81)"/><rect class="cls-23" x="2.4" y="3.62" width="0.69" height="0.34" transform="translate(-1.93 3.69) rotate(-52.81)"/><rect class="cls-26" x="3.15" y="2.98" width="0.18" height="0.34" transform="translate(7.71 2.46) rotate(127.19)"/><rect class="cls-25" x="2.88" y="3.19" width="0.41" height="0.34" transform="matrix(-0.6, 0.8, -0.8, -0.6, 7.62, 2.93)"/><rect class="cls-27" x="2.23" y="4.05" width="0.38" height="0.34" transform="translate(-2.41 3.6) rotate(-52.81)"/><rect class="cls-28" x="2.21" y="4.25" width="0.11" height="0.34" transform="translate(-2.63 3.56) rotate(-52.81)"/><circle class="cls-8" cx="12.62" cy="8.5" r="1.76"/><circle class="cls-10" cx="12.62" cy="8.5" r="1.63"/><circle class="cls-8" cx="12.62" cy="8.5" r="1.5"/><circle class="cls-11" cx="12.62" cy="8.5" r="1.36"/><polygon class="cls-12" points="12.47 8.46 13.58 7.87 13.72 8.11 11.68 9.15 11.48 8.96 12.47 8.46"/><text class="cls-32" transform="translate(11.14 8.99) rotate(28.95)">€</text><path class="cls-8" d="M1.43,9.17h13a.62.62,0,0,1,.62.62v5.08a.62.62,0,0,1-.62.62h-6a.58.58,0,0,0-.49-.28.56.56,0,0,0-.49.28h-6a.62.62,0,0,1-.62-.62V9.79A.62.62,0,0,1,1.43,9.17Z"/><path class="cls-9" d="M1.6,9.25H14.21a.6.6,0,0,1,.6.6v4.89a.6.6,0,0,1-.6.61H8.38a.55.55,0,0,0-1,0H1.6a.6.6,0,0,1-.6-.61V9.85A.6.6,0,0,1,1.6,9.25Z"/><rect class="cls-33" x="7.81" y="9.83" width="0.18" height="5.02" rx="0.09" transform="translate(15.79 24.67) rotate(180)"/><rect class="cls-33" x="4.49" y="14.87" width="0.98" height="0.22" rx="0.11" transform="translate(9.95 29.97) rotate(180)"/><path class="cls-33" d="M4,15.06H1.7s-.51-.16-.51-.58V12a.13.13,0,0,1,.19,0v2.49a.49.49,0,0,0,.33.41H4S4.08,15,4,15.06Z"/><path class="cls-34" d="M1.69,9.66H7a0,0,0,0,1,0,0v0a.79.79,0,0,1-.79.79H2.48a.79.79,0,0,1-.79-.79v0A0,0,0,0,1,1.69,9.66Z" transform="translate(8.65 20.1) rotate(-180)"/><path class="cls-35" d="M1.85,9.78H6.8a0,0,0,0,1,0,0v0a.64.64,0,0,1-.64.64H2.5a.64.64,0,0,1-.64-.64v0a0,0,0,0,1,0,0Z" transform="translate(8.65 20.2) rotate(-180)"/><path class="cls-36" d="M1.69,10.71H7a0,0,0,0,1,0,0v0a.79.79,0,0,1-.79.79H2.48a.79.79,0,0,1-.79-.79v0A0,0,0,0,1,1.69,10.71Z" transform="translate(8.65 22.2) rotate(-180)"/><path class="cls-37" d="M1.85,10.83H6.8a0,0,0,0,1,0,0v0a.64.64,0,0,1-.64.64H2.5a.64.64,0,0,1-.64-.64v0a0,0,0,0,1,0,0Z" transform="translate(8.65 22.3) rotate(-180)"/><path class="cls-38" d="M1.41,9.88s0,.64.5.66,2.17,0,2.17,0h.57s1.66,0,2.16,0,.51-.66.51-.66-.15,0-.15,0c.07.37-.36.51-.36.51H1.91s-.42-.14-.35-.51A.08.08,0,0,0,1.41,9.88Z"/><path class="cls-38" d="M8.51,9.88s0,.64.5.66,2.17,0,2.17,0h.57s1.66,0,2.16,0,.51-.66.51-.66-.15,0-.15,0c.07.37-.36.51-.36.51H9s-.42-.14-.35-.51A.08.08,0,0,0,8.51,9.88Z"/><path class="cls-38" d="M1.37,11s0,.65.5.67,2.17,0,2.17,0h.57s1.66,0,2.17,0,.5-.67.5-.67-.15,0-.15,0c.07.38-.35.52-.35.52H1.87s-.42-.14-.35-.52C1.52,11,1.47,10.88,1.37,11Z"/><path class="cls-38" d="M8.51,10.92h5.91a0,0,0,0,1,0,0v1a3,3,0,0,1-3,3h0a3,3,0,0,1-3-3v-1A0,0,0,0,1,8.51,10.92Z"/><rect class="cls-7" x="8.66" y="11.12" width="5.59" height="3.55"/><rect class="cls-38" x="8.99" y="11.53" width="1.65" height="2"/><rect class="cls-37" x="9.1" y="11.59" width="1.43" height="1.87"/><rect class="cls-38" x="11.02" y="11.47" width="2.95" height="0.23" rx="0.11"/><rect class="cls-38" x="11.02" y="12.08" width="2.11" height="0.23" rx="0.11"/><rect class="cls-38" x="11.02" y="12.71" width="2.11" height="0.23" rx="0.11"/><rect class="cls-39" x="4.97" y="4.78" width="1.75" height="8.99" transform="translate(6.8 -1.65) rotate(37.19)"/><rect class="cls-15" x="9.71" y="1.94" width="1.38" height="2.79" transform="translate(4.13 -5.6) rotate(37.19)"/><rect class="cls-16" x="8.54" y="3.79" width="0.21" height="1.18" rx="0.06" transform="translate(12.88 13.1) rotate(-142.81)"/><rect class="cls-17" x="9.75" y="4.71" width="0.19" height="1.18" rx="0.05" transform="translate(14.49 15.48) rotate(-142.81)"/><rect class="cls-40" x="5.35" y="4.51" width="0.28" height="8.86" transform="matrix(0.8, 0.6, -0.6, 0.8, 6.52, -1.5)"/><rect class="cls-41" x="5.55" y="4.73" width="0.45" height="8.87" transform="translate(6.71 -1.63) rotate(37.19)"/><rect class="cls-42" x="5.9" y="5.04" width="0.58" height="8.87" transform="translate(6.99 -1.82) rotate(37.19)"/><rect class="cls-19" x="7.6" y="5.55" width="2.08" height="0.2" rx="0.06" transform="translate(5.17 -4.07) rotate(37.19)"/><rect class="cls-20" x="10.43" y="2.04" width="0.31" height="2.64" transform="translate(4.18 -5.71) rotate(37.19)"/><rect class="cls-21" x="10.19" y="1.85" width="0.31" height="2.65" transform="translate(4.02 -5.61) rotate(37.19)"/><path class="cls-22" d="M9.29,4.2H10a.17.17,0,0,1,.17.17v.13a0,0,0,0,1,0,0h-1a0,0,0,0,1,0,0V4.37A.17.17,0,0,1,9.29,4.2Z" transform="translate(4.59 -4.94) rotate(37.19)"/><rect class="cls-16" x="8.86" y="4.14" width="0.5" height="1.13" transform="translate(13.52 13.97) rotate(-142.81)"/><rect class="cls-23" x="8.68" y="3.91" width="0.26" height="1.14" transform="translate(13.11 13.38) rotate(-142.81)"/><rect class="cls-24" x="7.83" y="5.25" width="2.08" height="0.18" rx="0.05" transform="translate(5.03 -4.28) rotate(37.19)"/><rect class="cls-25" x="9.24" y="4.49" width="0.67" height="1.12" transform="translate(14.14 14.86) rotate(-142.81)"/><rect class="cls-26" x="9.39" y="5.86" width="0.21" height="0.4" transform="matrix(-0.8, -0.6, 0.6, -0.8, 13.4, 16.63)"/><rect class="cls-25" x="9" y="5.67" width="0.48" height="0.4" transform="translate(13.06 16.13) rotate(-142.81)"/><rect class="cls-23" x="8.31" y="5.28" width="0.82" height="0.4" transform="translate(5.08 -4.16) rotate(37.19)"/><rect class="cls-27" x="7.97" y="4.88" width="0.47" height="0.4" transform="translate(4.74 -3.93) rotate(37.19)"/><rect class="cls-28" x="7.91" y="4.7" width="0.14" height="0.41" transform="translate(4.59 -3.82) rotate(37.19)"/><polygon class="cls-29" points="12.13 0.38 12.07 0.53 11.93 0.74 11.79 0.95 11.64 1.14 11.53 1.27 11.4 1.4 11.3 1.48 11.96 1.98 12.05 1.79 12.17 1.58 12.37 1.31 12.54 1.1 12.7 0.96 12.8 0.88 12.13 0.38"/><rect class="cls-30" x="10.9" y="1.68" width="1.24" height="0.31" rx="0.09" transform="translate(3.45 -6.59) rotate(37.19)"/><rect class="cls-23" x="11.98" y="0.4" width="1.09" height="0.27" rx="0.08" transform="translate(2.87 -7.46) rotate(37.19)"/><rect class="cls-31" x="10.63" y="1.88" width="1.65" height="0.18" rx="0.05" transform="translate(3.52 -6.52) rotate(37.19)"/><rect class="cls-23" x="10.98" y="1.91" width="0.69" height="0.34" transform="translate(3.56 -6.43) rotate(37.19)"/><rect class="cls-26" x="11.89" y="2.41" width="0.18" height="0.34" transform="translate(19.97 11.87) rotate(-142.81)"/><rect class="cls-25" x="11.57" y="2.25" width="0.41" height="0.34" transform="matrix(-0.8, -0.6, 0.6, -0.8, 19.68, 11.45)"/><rect class="cls-27" x="10.71" y="1.59" width="0.38" height="0.34" transform="translate(3.28 -6.23) rotate(37.19)"/><rect class="cls-28" x="10.65" y="1.43" width="0.11" height="0.34" transform="translate(3.15 -6.14) rotate(37.19)"/></svg>